<?xml version="1.0" encoding="UTF-8" standalone="no"?>
<!DOCTYPE svg PUBLIC "-//W3C//DTD SVG 1.1//EN"
 "http://www.w3.org/Graphics/SVG/1.1/DTD/svg11.dtd">
<!-- Generated by graphviz version 2.43.0 (0)
 -->
<!-- Title: debugtools.GetApiKeyCommand Pages: 1 -->
<svg width="205pt" height="264pt"
 viewBox="0.00 0.00 204.50 264.00" xmlns="http://www.w3.org/2000/svg" xmlns:xlink="http://www.w3.org/1999/xlink">
<g id="graph0" class="graph" transform="scale(1 1) rotate(0) translate(4 260)">
<title>debugtools.GetApiKeyCommand</title>
<!-- Node1 -->
<g id="Node000001" class="node">
<title>Node1</title>
<g id="a_Node000001"><a xlink:title=" ">
<polygon fill="#999999" stroke="transparent" points="169,-64 0,-64 0,0 169,0 169,-64"/>
<text text-anchor="start" x="5.5" y="-52" font-family="Helvetica,sans-Serif" font-size="10.00">debugtools.GetApiKeyCommand</text>
<text text-anchor="start" x="83" y="-37" font-family="Helvetica,sans-Serif" font-size="10.00"> </text>
<text text-anchor="start" x="16" y="-22" font-family="Helvetica,sans-Serif" font-size="10.00">+</text>
<text text-anchor="start" x="40.5" y="-22" font-family="Helvetica,sans-Serif" font-size="10.00">VardumpCommand()</text>
<text text-anchor="start" x="16" y="-7" font-family="Helvetica,sans-Serif" font-size="10.00">+</text>
<text text-anchor="start" x="40.5" y="-7" font-family="Helvetica,sans-Serif" font-size="10.00">Execute()</text>
<polygon fill="#666666" stroke="#666666" points="0.5,-47 0.5,-47 169.5,-47 169.5,-47 0.5,-47"/>
<polygon fill="#666666" stroke="#666666" points="0.5,-32 0.5,-32 169.5,-32 169.5,-32 0.5,-32"/>
<polygon fill="none" stroke="#666666" points="0,0 0,-64 169,-64 169,0 0,0"/>
</a>
</g>
</g>
<!-- Node2 -->
<g id="Node000002" class="node">
<title>Node2</title>
<g id="a_Node000002"><a xlink:href="$classdebugtools_1_1DebugReceiver.html" xlink:title=" ">
<polygon fill="white" stroke="transparent" points="155.5,-160 13.5,-160 13.5,-111 155.5,-111 155.5,-160"/>
<text text-anchor="start" x="18.5" y="-147.5" font-family="Helvetica,sans-Serif" font-size="10.00">debugtools.DebugReceiver</text>
<text text-anchor="start" x="82.5" y="-132.5" font-family="Helvetica,sans-Serif" font-size="10.00"> </text>
<text text-anchor="start" x="38" y="-117.5" font-family="Helvetica,sans-Serif" font-size="10.00">+</text>
<text text-anchor="start" x="71.5" y="-117.5" font-family="Helvetica,sans-Serif" font-size="10.00">Action()</text>
<polygon fill="#666666" stroke="#666666" points="13.5,-142.5 13.5,-142.5 155.5,-142.5 155.5,-142.5 13.5,-142.5"/>
<polygon fill="#666666" stroke="#666666" points="13.5,-127.5 13.5,-127.5 155.5,-127.5 155.5,-127.5 13.5,-127.5"/>
<polygon fill="none" stroke="#666666" points="13.5,-111 13.5,-160 155.5,-160 155.5,-111 13.5,-111"/>
</a>
</g>
</g>
<!-- Node2&#45;&gt;Node1 -->
<g id="edge3_Node000001_Node000002" class="edge">
<title>Node2&#45;&gt;Node1</title>
<g id="a_edge3_Node000001_Node000002"><a xlink:title=" ">
<path fill="none" stroke="#63b8ff" d="M84.5,-110.96C84.5,-100.61 84.5,-88.13 84.5,-76.21"/>
<polygon fill="none" stroke="#63b8ff" points="84.5,-76.11 80.5,-70.11 84.5,-64.11 88.5,-70.11 84.5,-76.11"/>
</a>
</g>
<text text-anchor="middle" x="110.5" y="-85" font-family="Helvetica,sans-Serif" font-size="10.00" fill="grey"> &#45;_receiver</text>
</g>
<!-- Node3 -->
<g id="Node000003" class="node">
<title>Node3</title>
<g id="a_Node000003"><a xlink:title=" ">
<polygon fill="white" stroke="transparent" points="123.5,-256 45.5,-256 45.5,-207 123.5,-207 123.5,-256"/>
<text text-anchor="start" x="50.5" y="-243.5" font-family="Helvetica,sans-Serif" font-size="10.00">List&lt; string &gt;</text>
<text text-anchor="start" x="82.5" y="-228.5" font-family="Helvetica,sans-Serif" font-size="10.00"> </text>
<text text-anchor="start" x="82.5" y="-213.5" font-family="Helvetica,sans-Serif" font-size="10.00"> </text>
<polygon fill="#666666" stroke="#666666" points="45.5,-238.5 45.5,-238.5 123.5,-238.5 123.5,-238.5 45.5,-238.5"/>
<polygon fill="#666666" stroke="#666666" points="45.5,-223.5 45.5,-223.5 123.5,-223.5 123.5,-223.5 45.5,-223.5"/>
<polygon fill="none" stroke="#666666" points="45.5,-207 45.5,-256 123.5,-256 123.5,-207 45.5,-207"/>
</a>
</g>
</g>
<!-- Node3&#45;&gt;Node2 -->
<g id="edge4_Node000002_Node000003" class="edge">
<title>Node3&#45;&gt;Node2</title>
<g id="a_edge4_Node000002_Node000003"><a xlink:title=" ">
<path fill="none" stroke="#63b8ff" d="M84.5,-206.78C84.5,-196.32 84.5,-183.79 84.5,-172.23"/>
<polygon fill="none" stroke="#63b8ff" points="84.5,-172.21 80.5,-166.21 84.5,-160.21 88.5,-166.21 84.5,-172.21"/>
</a>
</g>
<text text-anchor="middle" x="140.5" y="-181" font-family="Helvetica,sans-Serif" font-size="10.00" fill="grey"> &#45;supportedCommands</text>
</g>
</g>
</svg>
