<?xml version="1.0" encoding="UTF-8" standalone="no"?>
<!DOCTYPE svg PUBLIC "-//W3C//DTD SVG 1.1//EN"
 "http://www.w3.org/Graphics/SVG/1.1/DTD/svg11.dtd">
<!-- Generated by graphviz version 2.43.0 (0)
 -->
<!-- Title: debugtools.DebugReceiver.Action Pages: 1 -->
<svg width="372pt" height="86pt"
 viewBox="0.00 0.00 372.00 86.00" xmlns="http://www.w3.org/2000/svg" xmlns:xlink="http://www.w3.org/1999/xlink">
<g id="graph0" class="graph" transform="scale(1 1) rotate(0) translate(4 82)">
<title>debugtools.DebugReceiver.Action</title>
<!-- Node1 -->
<g id="Node000001" class="node">
<title>Node1</title>
<g id="a_Node000001"><a xlink:title=" ">
<polygon fill="#999999" stroke="#666666" points="364,-54 214,-54 214,-24 364,-24 364,-54"/>
<text text-anchor="start" x="222" y="-42" font-family="Helvetica,sans-Serif" font-size="10.00">debugtools.DebugReceiver.</text>
<text text-anchor="middle" x="289" y="-31" font-family="Helvetica,sans-Serif" font-size="10.00">Action</text>
</a>
</g>
</g>
<!-- Node2 -->
<g id="Node000002" class="node">
<title>Node2</title>
<g id="a_Node000002"><a xlink:href="$classdebugtools_1_1GetApiKeyCommand.html#a1b11aae6bbc890c848dc0187c37f24d6" xlink:title=" ">
<polygon fill="white" stroke="#666666" points="178,-78 0,-78 0,-48 178,-48 178,-78"/>
<text text-anchor="start" x="8" y="-66" font-family="Helvetica,sans-Serif" font-size="10.00">debugtools.GetApiKeyCommand.</text>
<text text-anchor="middle" x="89" y="-55" font-family="Helvetica,sans-Serif" font-size="10.00">Execute</text>
</a>
</g>
</g>
<!-- Node1&#45;&gt;Node2 -->
<g id="edge3_Node000001_Node000002" class="edge">
<title>Node1&#45;&gt;Node2</title>
<g id="a_edge3_Node000001_Node000002"><a xlink:title=" ">
<path fill="none" stroke="#63b8ff" d="M203.79,-49.21C195.35,-50.23 186.76,-51.27 178.28,-52.3"/>
<polygon fill="#63b8ff" stroke="#63b8ff" points="204.48,-52.65 213.99,-47.97 203.64,-45.7 204.48,-52.65"/>
</a>
</g>
</g>
<!-- Node3 -->
<g id="Node000003" class="node">
<title>Node3</title>
<g id="a_Node000003"><a xlink:href="$classdebugtools_1_1VardumpCommand.html#a2773ee589b07964f169e82d28649b19a" xlink:title=" ">
<polygon fill="white" stroke="#666666" points="174,-30 4,-30 4,0 174,0 174,-30"/>
<text text-anchor="start" x="12" y="-18" font-family="Helvetica,sans-Serif" font-size="10.00">debugtools.VardumpCommand.</text>
<text text-anchor="middle" x="89" y="-7" font-family="Helvetica,sans-Serif" font-size="10.00">Execute</text>
</a>
</g>
</g>
<!-- Node1&#45;&gt;Node3 -->
<g id="edge4_Node000001_Node000003" class="edge">
<title>Node1&#45;&gt;Node3</title>
<g id="a_edge4_Node000001_Node000003"><a xlink:title=" ">
<path fill="none" stroke="#63b8ff" d="M203.86,-28.8C194.05,-27.61 184.05,-26.4 174.24,-25.21"/>
<polygon fill="#63b8ff" stroke="#63b8ff" points="203.64,-32.3 213.99,-30.03 204.48,-25.35 203.64,-32.3"/>
</a>
</g>
</g>
</g>
</svg>
