<?xml version="1.0" encoding="UTF-8" standalone="no"?>
<!DOCTYPE svg PUBLIC "-//W3C//DTD SVG 1.1//EN"
 "http://www.w3.org/Graphics/SVG/1.1/DTD/svg11.dtd">
<!-- Generated by graphviz version 2.43.0 (0)
 -->
<!-- Title: game.logic.tilespawner.TileSpawnerService Pages: 1 -->
<svg width="317pt" height="314pt"
 viewBox="0.00 0.00 316.50 314.00" xmlns="http://www.w3.org/2000/svg" xmlns:xlink="http://www.w3.org/1999/xlink">
<g id="graph0" class="graph" transform="scale(1 1) rotate(0) translate(4 310)">
<title>game.logic.tilespawner.TileSpawnerService</title>
<!-- Node1 -->
<g id="Node000001" class="node">
<title>Node1</title>
<g id="a_Node000001"><a xlink:title=" ">
<polygon fill="#999999" stroke="transparent" points="233,-210 79,-210 79,0 233,0 233,-210"/>
<text text-anchor="start" x="88.5" y="-198" font-family="Helvetica,sans-Serif" font-size="10.00">game.logic.tilespawner.Tile</text>
<text text-anchor="start" x="116.5" y="-187" font-family="Helvetica,sans-Serif" font-size="10.00">SpawnerService</text>
<text text-anchor="start" x="154" y="-172" font-family="Helvetica,sans-Serif" font-size="10.00"> </text>
<text text-anchor="start" x="83" y="-157" font-family="Helvetica,sans-Serif" font-size="10.00">+</text>
<text text-anchor="start" x="96" y="-157" font-family="Helvetica,sans-Serif" font-size="10.00">CreateTileShapeDelegate()</text>
<text text-anchor="start" x="83" y="-142" font-family="Helvetica,sans-Serif" font-size="10.00">+</text>
<text text-anchor="start" x="96" y="-142" font-family="Helvetica,sans-Serif" font-size="10.00">TileSpawnerService()</text>
<text text-anchor="start" x="83" y="-127" font-family="Helvetica,sans-Serif" font-size="10.00">+</text>
<text text-anchor="start" x="96" y="-127" font-family="Helvetica,sans-Serif" font-size="10.00">Spawn()</text>
<text text-anchor="start" x="85.5" y="-112" font-family="Helvetica,sans-Serif" font-size="10.00">&#45;</text>
<text text-anchor="start" x="96" y="-112" font-family="Helvetica,sans-Serif" font-size="10.00">Shuffle()</text>
<text text-anchor="start" x="85.5" y="-97" font-family="Helvetica,sans-Serif" font-size="10.00">&#45;</text>
<text text-anchor="start" x="96" y="-97" font-family="Helvetica,sans-Serif" font-size="10.00">SpawnIPiece()</text>
<text text-anchor="start" x="85.5" y="-82" font-family="Helvetica,sans-Serif" font-size="10.00">&#45;</text>
<text text-anchor="start" x="96" y="-82" font-family="Helvetica,sans-Serif" font-size="10.00">SpawnJPiece()</text>
<text text-anchor="start" x="85.5" y="-67" font-family="Helvetica,sans-Serif" font-size="10.00">&#45;</text>
<text text-anchor="start" x="96" y="-67" font-family="Helvetica,sans-Serif" font-size="10.00">SpawnLPiece()</text>
<text text-anchor="start" x="85.5" y="-52" font-family="Helvetica,sans-Serif" font-size="10.00">&#45;</text>
<text text-anchor="start" x="96" y="-52" font-family="Helvetica,sans-Serif" font-size="10.00">SpawnOPiece()</text>
<text text-anchor="start" x="85.5" y="-37" font-family="Helvetica,sans-Serif" font-size="10.00">&#45;</text>
<text text-anchor="start" x="96" y="-37" font-family="Helvetica,sans-Serif" font-size="10.00">SpawnSPiece()</text>
<text text-anchor="start" x="85.5" y="-22" font-family="Helvetica,sans-Serif" font-size="10.00">&#45;</text>
<text text-anchor="start" x="96" y="-22" font-family="Helvetica,sans-Serif" font-size="10.00">SpawnTPiece()</text>
<text text-anchor="start" x="85.5" y="-7" font-family="Helvetica,sans-Serif" font-size="10.00">&#45;</text>
<text text-anchor="start" x="96" y="-7" font-family="Helvetica,sans-Serif" font-size="10.00">SpawnZPiece()</text>
<polygon fill="#666666" stroke="#666666" points="79,-182 79,-182 233,-182 233,-182 79,-182"/>
<polygon fill="#666666" stroke="#666666" points="79,-167 79,-167 233,-167 233,-167 79,-167"/>
<polygon fill="none" stroke="#666666" points="79,0 79,-210 233,-210 233,0 79,0"/>
</a>
</g>
</g>
<!-- Node2 -->
<g id="Node000002" class="node">
<title>Node2</title>
<g id="a_Node000002"><a xlink:href="$interfacegame_1_1service_1_1IService.html" xlink:title=" ">
<polygon fill="white" stroke="transparent" points="50,-306 0,-306 0,-257 50,-257 50,-306"/>
<text text-anchor="start" x="5" y="-293.5" font-family="Helvetica,sans-Serif" font-size="10.00">IService</text>
<text text-anchor="start" x="23" y="-278.5" font-family="Helvetica,sans-Serif" font-size="10.00"> </text>
<text text-anchor="start" x="23" y="-263.5" font-family="Helvetica,sans-Serif" font-size="10.00"> </text>
<polygon fill="#666666" stroke="#666666" points="0,-288.5 0,-288.5 50,-288.5 50,-288.5 0,-288.5"/>
<polygon fill="#666666" stroke="#666666" points="0,-273.5 0,-273.5 50,-273.5 50,-273.5 0,-273.5"/>
<polygon fill="none" stroke="#666666" points="0,-257 0,-306 50,-306 50,-257 0,-257"/>
</a>
</g>
</g>
<!-- Node2&#45;&gt;Node1 -->
<g id="edge4_Node000001_Node000002" class="edge">
<title>Node2&#45;&gt;Node1</title>
<g id="a_edge4_Node000001_Node000002"><a xlink:title=" ">
<path fill="none" stroke="#63b8ff" d="M48.74,-248.88C57.51,-237.19 68,-223.22 78.94,-208.65"/>
<polygon fill="none" stroke="#63b8ff" points="45.87,-246.87 42.67,-256.97 51.47,-251.07 45.87,-246.87"/>
</a>
</g>
</g>
<!-- Node3 -->
<g id="Node000003" class="node">
<title>Node3</title>
<g id="a_Node000003"><a xlink:title=" ">
<polygon fill="white" stroke="transparent" points="243.5,-306 68.5,-306 68.5,-257 243.5,-257 243.5,-306"/>
<text text-anchor="start" x="74" y="-293.5" font-family="Helvetica,sans-Serif" font-size="10.00">List&lt; CreateTileShapeDelegate &gt;</text>
<text text-anchor="start" x="154.5" y="-278.5" font-family="Helvetica,sans-Serif" font-size="10.00"> </text>
<text text-anchor="start" x="154.5" y="-263.5" font-family="Helvetica,sans-Serif" font-size="10.00"> </text>
<polygon fill="#666666" stroke="#666666" points="69,-288.5 69,-288.5 244,-288.5 244,-288.5 69,-288.5"/>
<polygon fill="#666666" stroke="#666666" points="69,-273.5 69,-273.5 244,-273.5 244,-273.5 69,-273.5"/>
<polygon fill="none" stroke="#666666" points="68.5,-257 68.5,-306 243.5,-306 243.5,-257 68.5,-257"/>
</a>
</g>
</g>
<!-- Node3&#45;&gt;Node1 -->
<g id="edge5_Node000001_Node000003" class="edge">
<title>Node3&#45;&gt;Node1</title>
<g id="a_edge5_Node000001_Node000003"><a xlink:title=" ">
<path fill="none" stroke="#63b8ff" d="M156,-256.97C156,-247.28 156,-235.29 156,-222.33"/>
<polygon fill="none" stroke="#63b8ff" points="156,-222.2 152,-216.2 156,-210.2 160,-216.2 156,-222.2"/>
</a>
</g>
<text text-anchor="middle" x="178" y="-231" font-family="Helvetica,sans-Serif" font-size="10.00" fill="grey"> &#45;_pieces</text>
</g>
<!-- Node4 -->
<g id="Node000004" class="node">
<title>Node4</title>
<g id="a_Node000004"><a xlink:title=" ">
<polygon fill="white" stroke="transparent" points="308.5,-306 261.5,-306 261.5,-257 308.5,-257 308.5,-306"/>
<text text-anchor="start" x="267" y="-293.5" font-family="Helvetica,sans-Serif" font-size="10.00">System</text>
<text text-anchor="start" x="283.5" y="-278.5" font-family="Helvetica,sans-Serif" font-size="10.00"> </text>
<text text-anchor="start" x="283.5" y="-263.5" font-family="Helvetica,sans-Serif" font-size="10.00"> </text>
<polygon fill="#666666" stroke="#666666" points="262,-288.5 262,-288.5 309,-288.5 309,-288.5 262,-288.5"/>
<polygon fill="#666666" stroke="#666666" points="262,-273.5 262,-273.5 309,-273.5 309,-273.5 262,-273.5"/>
<polygon fill="none" stroke="#666666" points="261.5,-257 261.5,-306 308.5,-306 308.5,-257 261.5,-257"/>
</a>
</g>
</g>
<!-- Node4&#45;&gt;Node1 -->
<g id="edge6_Node000001_Node000004" class="edge">
<title>Node4&#45;&gt;Node1</title>
<g id="a_edge6_Node000001_Node000004"><a xlink:title=" ">
<path fill="none" stroke="#63b8ff" d="M267.6,-256.97C260,-246.69 250.49,-233.81 240.23,-219.94"/>
<polygon fill="none" stroke="#63b8ff" points="240.16,-219.85 233.38,-217.4 233.03,-210.2 239.81,-212.65 240.16,-219.85"/>
</a>
</g>
<text text-anchor="middle" x="264.5" y="-231" font-family="Helvetica,sans-Serif" font-size="10.00" fill="grey"> &#45;rng</text>
</g>
</g>
</svg>
