<?xml version="1.0" encoding="UTF-8" standalone="no"?>
<!DOCTYPE svg PUBLIC "-//W3C//DTD SVG 1.1//EN"
 "http://www.w3.org/Graphics/SVG/1.1/DTD/svg11.dtd">
<!-- Generated by graphviz version 2.43.0 (0)
 -->
<!-- Title: game.logic.tile.TileViewModel Pages: 1 -->
<svg width="437pt" height="535pt"
 viewBox="0.00 0.00 437.00 535.00" xmlns="http://www.w3.org/2000/svg" xmlns:xlink="http://www.w3.org/1999/xlink">
<g id="graph0" class="graph" transform="scale(1 1) rotate(0) translate(4 531)">
<title>game.logic.tile.TileViewModel</title>
<!-- Node1 -->
<g id="Node000001" class="node">
<title>Node1</title>
<g id="a_Node000001"><a xlink:title=" ">
<polygon fill="#999999" stroke="transparent" points="128,-90 0,-90 0,0 128,0 128,-90"/>
<text text-anchor="start" x="5" y="-78" font-family="Helvetica,sans-Serif" font-size="10.00">game.logic.tile.TileView</text>
<text text-anchor="start" x="48.5" y="-67" font-family="Helvetica,sans-Serif" font-size="10.00">Model</text>
<text text-anchor="start" x="10.5" y="-52" font-family="Helvetica,sans-Serif" font-size="10.00">+</text>
<text text-anchor="start" x="30" y="-52" font-family="Helvetica,sans-Serif" font-size="10.00">X</text>
<text text-anchor="start" x="10.5" y="-37" font-family="Helvetica,sans-Serif" font-size="10.00">+</text>
<text text-anchor="start" x="30" y="-37" font-family="Helvetica,sans-Serif" font-size="10.00">Y</text>
<text text-anchor="start" x="10.5" y="-22" font-family="Helvetica,sans-Serif" font-size="10.00">+</text>
<text text-anchor="start" x="30" y="-22" font-family="Helvetica,sans-Serif" font-size="10.00">Color</text>
<text text-anchor="start" x="10.5" y="-7" font-family="Helvetica,sans-Serif" font-size="10.00">+</text>
<text text-anchor="start" x="30" y="-7" font-family="Helvetica,sans-Serif" font-size="10.00">TileViewModel()</text>
<polygon fill="#666666" stroke="#666666" points="0,-62 0,-62 128,-62 128,-62 0,-62"/>
<polygon fill="#666666" stroke="#666666" points="0,-17 0,-17 28,-17 28,-17 0,-17"/>
<polygon fill="#666666" stroke="#666666" points="28,-17 28,-17 128,-17 128,-17 28,-17"/>
<polygon fill="none" stroke="#666666" points="0,0 0,-90 128,-90 128,0 0,0"/>
</a>
</g>
</g>
<!-- Node2 -->
<g id="Node000002" class="node">
<title>Node2</title>
<g id="a_Node000002"><a xlink:href="$classgame_1_1logic_1_1playfield_1_1PlayFieldViewModel.html" xlink:title=" ">
<polygon fill="white" stroke="transparent" points="277,-272 143,-272 143,-137 277,-137 277,-272"/>
<text text-anchor="start" x="148" y="-259.5" font-family="Helvetica,sans-Serif" font-size="10.00">game.logic.playfield.Play</text>
<text text-anchor="start" x="171" y="-248.5" font-family="Helvetica,sans-Serif" font-size="10.00">FieldViewModel</text>
<text text-anchor="start" x="148.5" y="-233.5" font-family="Helvetica,sans-Serif" font-size="10.00">+</text>
<text text-anchor="start" x="163" y="-233.5" font-family="Helvetica,sans-Serif" font-size="10.00">Width</text>
<text text-anchor="start" x="148.5" y="-218.5" font-family="Helvetica,sans-Serif" font-size="10.00">+</text>
<text text-anchor="start" x="163" y="-218.5" font-family="Helvetica,sans-Serif" font-size="10.00">Height</text>
<text text-anchor="start" x="148.5" y="-203.5" font-family="Helvetica,sans-Serif" font-size="10.00">+</text>
<text text-anchor="start" x="163" y="-203.5" font-family="Helvetica,sans-Serif" font-size="10.00">Tiles</text>
<text text-anchor="start" x="148.5" y="-188.5" font-family="Helvetica,sans-Serif" font-size="10.00">+</text>
<text text-anchor="start" x="163" y="-188.5" font-family="Helvetica,sans-Serif" font-size="10.00">PlayFieldViewModel()</text>
<text text-anchor="start" x="148.5" y="-173.5" font-family="Helvetica,sans-Serif" font-size="10.00">+</text>
<text text-anchor="start" x="163" y="-173.5" font-family="Helvetica,sans-Serif" font-size="10.00">GetTile()</text>
<text text-anchor="start" x="148.5" y="-158.5" font-family="Helvetica,sans-Serif" font-size="10.00">+</text>
<text text-anchor="start" x="163" y="-158.5" font-family="Helvetica,sans-Serif" font-size="10.00">PlaceTile()</text>
<text text-anchor="start" x="148.5" y="-143.5" font-family="Helvetica,sans-Serif" font-size="10.00">+</text>
<text text-anchor="start" x="163" y="-143.5" font-family="Helvetica,sans-Serif" font-size="10.00">Update()</text>
<polygon fill="#666666" stroke="#666666" points="143,-243.5 143,-243.5 277,-243.5 277,-243.5 143,-243.5"/>
<polygon fill="#666666" stroke="#666666" points="143,-198.5 143,-198.5 161,-198.5 161,-198.5 143,-198.5"/>
<polygon fill="#666666" stroke="#666666" points="161,-198.5 161,-198.5 277,-198.5 277,-198.5 161,-198.5"/>
<polygon fill="none" stroke="#666666" points="143,-137 143,-272 277,-272 277,-137 143,-137"/>
</a>
</g>
</g>
<!-- Node2&#45;&gt;Node1 -->
<g id="edge9_Node000001_Node000002" class="edge">
<title>Node2&#45;&gt;Node1</title>
<g id="a_edge9_Node000001_Node000002"><a xlink:title=" ">
<path fill="none" stroke="#63b8ff" d="M148.08,-136.71C136.44,-124.15 124.41,-111.17 113.22,-99.1"/>
<polygon fill="none" stroke="#63b8ff" points="113,-98.86 105.99,-97.18 104.85,-90.06 111.86,-91.74 113,-98.86"/>
</a>
</g>
<text text-anchor="middle" x="165.5" y="-111" font-family="Helvetica,sans-Serif" font-size="10.00" fill="grey"> &#45;_playFieldVM</text>
</g>
<!-- Node3 -->
<g id="Node000003" class="node">
<title>Node3</title>
<g id="a_Node000003"><a xlink:href="$interfacegamerunner_1_1IUpdatable.html" xlink:title=" ">
<polygon fill="white" stroke="transparent" points="429,-394 365,-394 365,-345 429,-345 429,-394"/>
<text text-anchor="start" x="370" y="-381.5" font-family="Helvetica,sans-Serif" font-size="10.00">IUpdatable</text>
<text text-anchor="start" x="395" y="-366.5" font-family="Helvetica,sans-Serif" font-size="10.00"> </text>
<text text-anchor="start" x="369" y="-351.5" font-family="Helvetica,sans-Serif" font-size="10.00">+</text>
<text text-anchor="start" x="382" y="-351.5" font-family="Helvetica,sans-Serif" font-size="10.00">Update()</text>
<polygon fill="#666666" stroke="#666666" points="365,-376.5 365,-376.5 429,-376.5 429,-376.5 365,-376.5"/>
<polygon fill="#666666" stroke="#666666" points="365,-361.5 365,-361.5 429,-361.5 429,-361.5 365,-361.5"/>
<polygon fill="none" stroke="#666666" points="365,-345 365,-394 429,-394 429,-345 365,-345"/>
</a>
</g>
</g>
<!-- Node3&#45;&gt;Node2 -->
<g id="edge10_Node000002_Node000003" class="edge">
<title>Node3&#45;&gt;Node2</title>
<g id="a_edge10_Node000002_Node000003"><a xlink:title=" ">
<path fill="none" stroke="#63b8ff" d="M376.56,-336.3C366.11,-321.25 352.53,-303.67 338,-290 319.87,-272.94 297.9,-257.07 277.33,-243.8"/>
<polygon fill="none" stroke="#63b8ff" points="373.84,-338.51 382.34,-344.83 379.63,-334.59 373.84,-338.51"/>
</a>
</g>
</g>
<!-- Node4 -->
<g id="Node000004" class="node">
<title>Node4</title>
<g id="a_Node000004"><a xlink:href="$classgame_1_1logic_1_1playfield_1_1PlayField.html" xlink:title=" ">
<polygon fill="white" stroke="transparent" points="177,-407 43,-407 43,-332 177,-332 177,-407"/>
<text text-anchor="start" x="48" y="-394.5" font-family="Helvetica,sans-Serif" font-size="10.00">game.logic.playfield.Play</text>
<text text-anchor="start" x="98" y="-383.5" font-family="Helvetica,sans-Serif" font-size="10.00">Field</text>
<text text-anchor="start" x="67" y="-368.5" font-family="Helvetica,sans-Serif" font-size="10.00">+</text>
<text text-anchor="start" x="100" y="-368.5" font-family="Helvetica,sans-Serif" font-size="10.00">Width</text>
<text text-anchor="start" x="67" y="-353.5" font-family="Helvetica,sans-Serif" font-size="10.00">+</text>
<text text-anchor="start" x="100" y="-353.5" font-family="Helvetica,sans-Serif" font-size="10.00">Height</text>
<text text-anchor="start" x="108" y="-338.5" font-family="Helvetica,sans-Serif" font-size="10.00"> </text>
<polygon fill="#666666" stroke="#666666" points="43,-378.5 43,-378.5 177,-378.5 177,-378.5 43,-378.5"/>
<polygon fill="#666666" stroke="#666666" points="43,-348.5 43,-348.5 98,-348.5 98,-348.5 43,-348.5"/>
<polygon fill="#666666" stroke="#666666" points="98,-348.5 98,-348.5 177,-348.5 177,-348.5 98,-348.5"/>
<polygon fill="none" stroke="#666666" points="43,-332 43,-407 177,-407 177,-332 43,-332"/>
</a>
</g>
</g>
<!-- Node4&#45;&gt;Node2 -->
<g id="edge11_Node000002_Node000004" class="edge">
<title>Node4&#45;&gt;Node2</title>
<g id="a_edge11_Node000002_Node000004"><a xlink:title=" ">
<path fill="none" stroke="#63b8ff" d="M132.44,-331.92C141.41,-317.31 152.09,-299.89 162.62,-282.73"/>
<polygon fill="none" stroke="#63b8ff" points="162.86,-282.33 162.59,-275.13 169.14,-272.1 169.41,-279.31 162.86,-282.33"/>
</a>
</g>
<text text-anchor="middle" x="186.5" y="-298.5" font-family="Helvetica,sans-Serif" font-size="10.00" fill="grey"> &#45;_playField</text>
</g>
<!-- Node5 -->
<g id="Node000005" class="node">
<title>Node5</title>
<g id="a_Node000005"><a xlink:title=" ">
<polygon fill="white" stroke="transparent" points="33.5,-521.5 10.5,-521.5 10.5,-472.5 33.5,-472.5 33.5,-521.5"/>
<text text-anchor="start" x="16" y="-509" font-family="Helvetica,sans-Serif" font-size="10.00">int</text>
<text text-anchor="start" x="20.5" y="-494" font-family="Helvetica,sans-Serif" font-size="10.00"> </text>
<text text-anchor="start" x="20.5" y="-479" font-family="Helvetica,sans-Serif" font-size="10.00"> </text>
<polygon fill="#666666" stroke="#666666" points="11,-504 11,-504 34,-504 34,-504 11,-504"/>
<polygon fill="#666666" stroke="#666666" points="11,-489 11,-489 34,-489 34,-489 11,-489"/>
<polygon fill="none" stroke="#666666" points="10.5,-472.5 10.5,-521.5 33.5,-521.5 33.5,-472.5 10.5,-472.5"/>
</a>
</g>
</g>
<!-- Node5&#45;&gt;Node1 -->
<g id="edge16_Node000001_Node000005" class="edge">
<title>Node5&#45;&gt;Node1</title>
<g id="a_edge16_Node000001_Node000005"><a xlink:title=" ">
<path fill="none" stroke="#63b8ff" d="M23.46,-472.34C25.51,-440.12 29.49,-380.65 34,-330 41.04,-250.86 51.02,-159.52 57.5,-102.26"/>
<polygon fill="none" stroke="#63b8ff" points="57.51,-102.15 54.22,-95.74 58.87,-90.23 62.17,-96.64 57.51,-102.15"/>
</a>
</g>
<text text-anchor="middle" x="47.5" y="-304" font-family="Helvetica,sans-Serif" font-size="10.00" fill="grey"> &#45;_x</text>
<text text-anchor="middle" x="47.5" y="-293" font-family="Helvetica,sans-Serif" font-size="10.00" fill="grey">&#45;_y</text>
</g>
<!-- Node5&#45;&gt;Node4 -->
<g id="edge12_Node000004_Node000005" class="edge">
<title>Node5&#45;&gt;Node4</title>
<g id="a_edge12_Node000004_Node000005"><a xlink:title=" ">
<path fill="none" stroke="#63b8ff" d="M29.64,-472.46C34.77,-458.55 42.35,-440.97 52,-427 54.5,-423.37 57.26,-419.79 60.18,-416.29"/>
<polygon fill="none" stroke="#63b8ff" points="60.23,-416.23 61.22,-409.09 68.19,-407.26 67.2,-414.4 60.23,-416.23"/>
</a>
</g>
<text text-anchor="middle" x="83.5" y="-441" font-family="Helvetica,sans-Serif" font-size="10.00" fill="grey"> &#45;FieldHeight</text>
<text text-anchor="middle" x="83.5" y="-430" font-family="Helvetica,sans-Serif" font-size="10.00" fill="grey">&#45;FieldWidth</text>
</g>
<!-- Node6 -->
<g id="Node000006" class="node">
<title>Node6</title>
<g id="a_Node000006"><a xlink:href="$interfacegame_1_1logic_1_1tile_1_1ITileable.html" xlink:title=" ">
<polygon fill="white" stroke="transparent" points="192,-521.5 64,-521.5 64,-472.5 192,-472.5 192,-521.5"/>
<text text-anchor="start" x="69" y="-509" font-family="Helvetica,sans-Serif" font-size="10.00">game.logic.tile.ITileable</text>
<text text-anchor="start" x="88" y="-494" font-family="Helvetica,sans-Serif" font-size="10.00">+</text>
<text text-anchor="start" x="121" y="-494" font-family="Helvetica,sans-Serif" font-size="10.00">Color</text>
<text text-anchor="start" x="126" y="-479" font-family="Helvetica,sans-Serif" font-size="10.00"> </text>
<polygon fill="#666666" stroke="#666666" points="64,-504 64,-504 192,-504 192,-504 64,-504"/>
<polygon fill="#666666" stroke="#666666" points="64,-489 64,-489 119,-489 119,-489 64,-489"/>
<polygon fill="#666666" stroke="#666666" points="119,-489 119,-489 192,-489 192,-489 119,-489"/>
<polygon fill="none" stroke="#666666" points="64,-472.5 64,-521.5 192,-521.5 192,-472.5 64,-472.5"/>
</a>
</g>
</g>
<!-- Node6&#45;&gt;Node4 -->
<g id="edge13_Node000004_Node000006" class="edge">
<title>Node6&#45;&gt;Node4</title>
<g id="a_edge13_Node000004_Node000006"><a xlink:title=" ">
<path fill="none" stroke="#63b8ff" d="M124.61,-472.39C122.47,-457.44 119.62,-437.54 117,-419.3"/>
<polygon fill="none" stroke="#63b8ff" points="116.99,-419.2 112.17,-413.83 115.28,-407.32 120.09,-412.7 116.99,-419.2"/>
</a>
</g>
<text text-anchor="middle" x="139.5" y="-435.5" font-family="Helvetica,sans-Serif" font-size="10.00" fill="grey"> +Field</text>
</g>
<!-- Node7 -->
<g id="Node000007" class="node">
<title>Node7</title>
<g id="a_Node000007"><a xlink:href="$classgame_1_1service_1_1ServiceLocator.html" xlink:title=" ">
<polygon fill="white" stroke="transparent" points="347,-409 195,-409 195,-330 347,-330 347,-409"/>
<text text-anchor="start" x="200" y="-396.5" font-family="Helvetica,sans-Serif" font-size="10.00">game.service.ServiceLocator</text>
<text text-anchor="start" x="269" y="-381.5" font-family="Helvetica,sans-Serif" font-size="10.00"> </text>
<text text-anchor="start" x="203.5" y="-366.5" font-family="Helvetica,sans-Serif" font-size="10.00">+</text>
<text text-anchor="start" x="221" y="-366.5" font-family="Helvetica,sans-Serif" font-size="10.00">ServiceLocator()</text>
<text text-anchor="start" x="203.5" y="-351.5" font-family="Helvetica,sans-Serif" font-size="10.00">+</text>
<text text-anchor="start" x="221" y="-351.5" font-family="Helvetica,sans-Serif" font-size="10.00">GetService&lt; T &gt;()</text>
<text text-anchor="start" x="203.5" y="-336.5" font-family="Helvetica,sans-Serif" font-size="10.00">+</text>
<text text-anchor="start" x="221" y="-336.5" font-family="Helvetica,sans-Serif" font-size="10.00">RegisterService&lt; T &gt;()</text>
<polygon fill="#666666" stroke="#666666" points="195,-391.5 195,-391.5 347,-391.5 347,-391.5 195,-391.5"/>
<polygon fill="#666666" stroke="#666666" points="195,-376.5 195,-376.5 347,-376.5 347,-376.5 195,-376.5"/>
<polygon fill="none" stroke="#666666" points="195,-330 195,-409 347,-409 347,-330 195,-330"/>
</a>
</g>
</g>
<!-- Node7&#45;&gt;Node2 -->
<g id="edge14_Node000002_Node000007" class="edge">
<title>Node7&#45;&gt;Node2</title>
<g id="a_edge14_Node000002_Node000007"><a xlink:title=" ">
<path fill="none" stroke="#63b8ff" d="M256.54,-329.87C251.36,-316.01 245.3,-299.83 239.31,-283.82"/>
<polygon fill="none" stroke="#63b8ff" points="239.18,-283.46 233.33,-279.24 234.97,-272.22 240.82,-276.44 239.18,-283.46"/>
</a>
</g>
<text text-anchor="middle" x="292" y="-298.5" font-family="Helvetica,sans-Serif" font-size="10.00" fill="grey"> &#45;_serviceLocator</text>
</g>
<!-- Node8 -->
<g id="Node000008" class="node">
<title>Node8</title>
<g id="a_Node000008"><a xlink:title=" ">
<polygon fill="white" stroke="transparent" points="343.5,-527 210.5,-527 210.5,-467 343.5,-467 343.5,-527"/>
<text text-anchor="start" x="216" y="-515" font-family="Helvetica,sans-Serif" font-size="10.00">IDictionary&lt; object,</text>
<text text-anchor="start" x="216" y="-504" font-family="Helvetica,sans-Serif" font-size="10.00"> game.service.IService &gt;</text>
<text text-anchor="start" x="275.5" y="-489" font-family="Helvetica,sans-Serif" font-size="10.00"> </text>
<text text-anchor="start" x="275.5" y="-474" font-family="Helvetica,sans-Serif" font-size="10.00"> </text>
<polygon fill="#666666" stroke="#666666" points="211,-499 211,-499 344,-499 344,-499 211,-499"/>
<polygon fill="#666666" stroke="#666666" points="211,-484 211,-484 344,-484 344,-484 211,-484"/>
<polygon fill="none" stroke="#666666" points="210.5,-467 210.5,-527 343.5,-527 343.5,-467 210.5,-467"/>
</a>
</g>
</g>
<!-- Node8&#45;&gt;Node7 -->
<g id="edge15_Node000007_Node000008" class="edge">
<title>Node8&#45;&gt;Node7</title>
<g id="a_edge15_Node000007_Node000008"><a xlink:title=" ">
<path fill="none" stroke="#63b8ff" d="M275.61,-466.89C274.96,-453.41 274.18,-436.98 273.44,-421.54"/>
<polygon fill="none" stroke="#63b8ff" points="273.43,-421.42 269.15,-415.62 272.86,-409.44 277.14,-415.24 273.43,-421.42"/>
</a>
</g>
<text text-anchor="middle" x="299" y="-435.5" font-family="Helvetica,sans-Serif" font-size="10.00" fill="grey"> &#45;services</text>
</g>
</g>
</svg>
