<?xml version="1.0" encoding="UTF-8" standalone="no"?>
<!DOCTYPE svg PUBLIC "-//W3C//DTD SVG 1.1//EN"
 "http://www.w3.org/Graphics/SVG/1.1/DTD/svg11.dtd">
<!-- Generated by graphviz version 2.43.0 (0)
 -->
<!-- Title: MonoBehaviour Pages: 1 -->
<svg width="745pt" height="198pt"
 viewBox="0.00 0.00 745.00 198.00" xmlns="http://www.w3.org/2000/svg" xmlns:xlink="http://www.w3.org/1999/xlink">
<g id="graph0" class="graph" transform="scale(1 1) rotate(0) translate(4 194)">
<title>MonoBehaviour</title>
<!-- Node1 -->
<g id="Node000001" class="node">
<title>Node1</title>
<g id="a_Node000001"><a xlink:title=" ">
<polygon fill="#999999" stroke="transparent" points="362,-190 275,-190 275,-141 362,-141 362,-190"/>
<text text-anchor="start" x="280.5" y="-177.5" font-family="Helvetica,sans-Serif" font-size="10.00">MonoBehaviour</text>
<text text-anchor="start" x="317" y="-162.5" font-family="Helvetica,sans-Serif" font-size="10.00"> </text>
<text text-anchor="start" x="317" y="-147.5" font-family="Helvetica,sans-Serif" font-size="10.00"> </text>
<polygon fill="#666666" stroke="#666666" points="275.5,-172.5 275.5,-172.5 362.5,-172.5 362.5,-172.5 275.5,-172.5"/>
<polygon fill="#666666" stroke="#666666" points="275.5,-157.5 275.5,-157.5 362.5,-157.5 362.5,-157.5 275.5,-157.5"/>
<polygon fill="none" stroke="#666666" points="275,-141 275,-190 362,-190 362,-141 275,-141"/>
</a>
</g>
</g>
<!-- Node2 -->
<g id="Node000002" class="node">
<title>Node2</title>
<g id="a_Node000002"><a xlink:href="$classGameInitialiser.html" xlink:title=" ">
<polygon fill="white" stroke="transparent" points="97,-99.5 0,-99.5 0,-5.5 97,-5.5 97,-99.5"/>
<text text-anchor="start" x="11" y="-87.5" font-family="Helvetica,sans-Serif" font-size="10.00">GameInitialiser</text>
<text text-anchor="start" x="4.5" y="-72.5" font-family="Helvetica,sans-Serif" font-size="10.00">+</text>
<text text-anchor="start" x="17.5" y="-72.5" font-family="Helvetica,sans-Serif" font-size="10.00">PlayFieldPrefab</text>
<text text-anchor="start" x="4.5" y="-57.5" font-family="Helvetica,sans-Serif" font-size="10.00">+</text>
<text text-anchor="start" x="17.5" y="-57.5" font-family="Helvetica,sans-Serif" font-size="10.00">TilePrefab</text>
<text text-anchor="start" x="4.5" y="-42.5" font-family="Helvetica,sans-Serif" font-size="10.00">+</text>
<text text-anchor="start" x="17.5" y="-42.5" font-family="Helvetica,sans-Serif" font-size="10.00">_loginButton</text>
<text text-anchor="start" x="4.5" y="-27.5" font-family="Helvetica,sans-Serif" font-size="10.00">+</text>
<text text-anchor="start" x="17.5" y="-27.5" font-family="Helvetica,sans-Serif" font-size="10.00">Dispatcher</text>
<text text-anchor="start" x="7" y="-12.5" font-family="Helvetica,sans-Serif" font-size="10.00">&#45;</text>
<text text-anchor="start" x="17.5" y="-12.5" font-family="Helvetica,sans-Serif" font-size="10.00">Start()</text>
<polygon fill="#666666" stroke="#666666" points="0.5,-82.5 0.5,-82.5 97.5,-82.5 97.5,-82.5 0.5,-82.5"/>
<polygon fill="#666666" stroke="#666666" points="0.5,-22.5 0.5,-22.5 15.5,-22.5 15.5,-22.5 0.5,-22.5"/>
<polygon fill="#666666" stroke="#666666" points="15.5,-22.5 15.5,-22.5 97.5,-22.5 97.5,-22.5 15.5,-22.5"/>
<polygon fill="none" stroke="#666666" points="0,-5.5 0,-99.5 97,-99.5 97,-5.5 0,-5.5"/>
</a>
</g>
</g>
<!-- Node1&#45;&gt;Node2 -->
<g id="edge7_Node000001_Node000002" class="edge">
<title>Node1&#45;&gt;Node2</title>
<g id="a_edge7_Node000001_Node000002"><a xlink:title=" ">
<path fill="none" stroke="#63b8ff" d="M264.88,-156.38C220.42,-148.05 156.61,-132.37 106.5,-105 103.31,-103.26 100.15,-101.31 97.04,-99.22"/>
<polygon fill="none" stroke="#63b8ff" points="264.44,-159.85 274.9,-158.19 265.68,-152.96 264.44,-159.85"/>
</a>
</g>
</g>
<!-- Node3 -->
<g id="Node000003" class="node">
<title>Node3</title>
<g id="a_Node000003"><a xlink:href="$classLoginButton.html" xlink:title=" ">
<polygon fill="white" stroke="transparent" points="201.5,-99.5 115.5,-99.5 115.5,-5.5 201.5,-5.5 201.5,-99.5"/>
<text text-anchor="start" x="129" y="-87.5" font-family="Helvetica,sans-Serif" font-size="10.00">LoginButton</text>
<text text-anchor="start" x="122" y="-72.5" font-family="Helvetica,sans-Serif" font-size="10.00">&#45;</text>
<text text-anchor="start" x="132.5" y="-72.5" font-family="Helvetica,sans-Serif" font-size="10.00">_eventQueue</text>
<text text-anchor="start" x="119.5" y="-57.5" font-family="Helvetica,sans-Serif" font-size="10.00">+</text>
<text text-anchor="start" x="132.5" y="-57.5" font-family="Helvetica,sans-Serif" font-size="10.00">Link()</text>
<text text-anchor="start" x="119.5" y="-42.5" font-family="Helvetica,sans-Serif" font-size="10.00">+</text>
<text text-anchor="start" x="132.5" y="-42.5" font-family="Helvetica,sans-Serif" font-size="10.00">OnClick()</text>
<text text-anchor="start" x="122" y="-27.5" font-family="Helvetica,sans-Serif" font-size="10.00">&#45;</text>
<text text-anchor="start" x="132.5" y="-27.5" font-family="Helvetica,sans-Serif" font-size="10.00">Start()</text>
<text text-anchor="start" x="122" y="-12.5" font-family="Helvetica,sans-Serif" font-size="10.00">&#45;</text>
<text text-anchor="start" x="132.5" y="-12.5" font-family="Helvetica,sans-Serif" font-size="10.00">Update()</text>
<polygon fill="#666666" stroke="#666666" points="115.5,-82.5 115.5,-82.5 201.5,-82.5 201.5,-82.5 115.5,-82.5"/>
<polygon fill="#666666" stroke="#666666" points="115.5,-67.5 115.5,-67.5 130.5,-67.5 130.5,-67.5 115.5,-67.5"/>
<polygon fill="#666666" stroke="#666666" points="130.5,-67.5 130.5,-67.5 201.5,-67.5 201.5,-67.5 130.5,-67.5"/>
<polygon fill="none" stroke="#666666" points="115.5,-5.5 115.5,-99.5 201.5,-99.5 201.5,-5.5 115.5,-5.5"/>
</a>
</g>
</g>
<!-- Node1&#45;&gt;Node3 -->
<g id="edge8_Node000001_Node000003" class="edge">
<title>Node1&#45;&gt;Node3</title>
<g id="a_edge8_Node000001_Node000003"><a xlink:title=" ">
<path fill="none" stroke="#63b8ff" d="M265.49,-139.07C247.38,-129.41 227.44,-117.66 210.5,-105 207.55,-102.79 204.6,-100.43 201.69,-97.96"/>
<polygon fill="none" stroke="#63b8ff" points="264.29,-142.39 274.77,-143.92 267.53,-136.19 264.29,-142.39"/>
</a>
</g>
</g>
<!-- Node4 -->
<g id="Node000004" class="node">
<title>Node4</title>
<g id="a_Node000004"><a xlink:href="$classScoreSubmit.html" xlink:title=" ">
<polygon fill="white" stroke="transparent" points="295,-92 220,-92 220,-13 295,-13 295,-92"/>
<text text-anchor="start" x="227" y="-79.5" font-family="Helvetica,sans-Serif" font-size="10.00">ScoreSubmit</text>
<text text-anchor="start" x="227" y="-64.5" font-family="Helvetica,sans-Serif" font-size="10.00">&#45;</text>
<text text-anchor="start" x="237.5" y="-64.5" font-family="Helvetica,sans-Serif" font-size="10.00">_inputField</text>
<text text-anchor="start" x="224.5" y="-49.5" font-family="Helvetica,sans-Serif" font-size="10.00">+</text>
<text text-anchor="start" x="237.5" y="-49.5" font-family="Helvetica,sans-Serif" font-size="10.00">Win()</text>
<text text-anchor="start" x="227" y="-34.5" font-family="Helvetica,sans-Serif" font-size="10.00">&#45;</text>
<text text-anchor="start" x="237.5" y="-34.5" font-family="Helvetica,sans-Serif" font-size="10.00">Start()</text>
<text text-anchor="start" x="227" y="-19.5" font-family="Helvetica,sans-Serif" font-size="10.00">&#45;</text>
<text text-anchor="start" x="237.5" y="-19.5" font-family="Helvetica,sans-Serif" font-size="10.00">Update()</text>
<polygon fill="#666666" stroke="#666666" points="220.5,-74.5 220.5,-74.5 295.5,-74.5 295.5,-74.5 220.5,-74.5"/>
<polygon fill="#666666" stroke="#666666" points="220.5,-59.5 220.5,-59.5 235.5,-59.5 235.5,-59.5 220.5,-59.5"/>
<polygon fill="#666666" stroke="#666666" points="235.5,-59.5 235.5,-59.5 295.5,-59.5 295.5,-59.5 235.5,-59.5"/>
<polygon fill="none" stroke="#666666" points="220,-13 220,-92 295,-92 295,-13 220,-13"/>
</a>
</g>
</g>
<!-- Node1&#45;&gt;Node4 -->
<g id="edge9_Node000001_Node000004" class="edge">
<title>Node1&#45;&gt;Node4</title>
<g id="a_edge9_Node000001_Node000004"><a xlink:title=" ">
<path fill="none" stroke="#63b8ff" d="M300.58,-131.88C293.76,-119.48 285.92,-105.22 278.82,-92.29"/>
<polygon fill="none" stroke="#63b8ff" points="297.68,-133.88 305.56,-140.96 303.81,-130.51 297.68,-133.88"/>
</a>
</g>
</g>
<!-- Node5 -->
<g id="Node000005" class="node">
<title>Node5</title>
<g id="a_Node000005"><a xlink:href="$classgame_1_1logic_1_1playfield_1_1PlayFieldView.html" xlink:title=" ">
<polygon fill="white" stroke="transparent" points="447.5,-105 313.5,-105 313.5,0 447.5,0 447.5,-105"/>
<text text-anchor="start" x="318.5" y="-92.5" font-family="Helvetica,sans-Serif" font-size="10.00">game.logic.playfield.Play</text>
<text text-anchor="start" x="356.5" y="-81.5" font-family="Helvetica,sans-Serif" font-size="10.00">FieldView</text>
<text text-anchor="start" x="329" y="-66.5" font-family="Helvetica,sans-Serif" font-size="10.00">+</text>
<text text-anchor="start" x="353.5" y="-66.5" font-family="Helvetica,sans-Serif" font-size="10.00">TileAnchor</text>
<text text-anchor="start" x="331.5" y="-51.5" font-family="Helvetica,sans-Serif" font-size="10.00">&#45;</text>
<text text-anchor="start" x="353.5" y="-51.5" font-family="Helvetica,sans-Serif" font-size="10.00">_playFieldVM</text>
<text text-anchor="start" x="329" y="-36.5" font-family="Helvetica,sans-Serif" font-size="10.00">+</text>
<text text-anchor="start" x="353.5" y="-36.5" font-family="Helvetica,sans-Serif" font-size="10.00">Link()</text>
<text text-anchor="start" x="331.5" y="-21.5" font-family="Helvetica,sans-Serif" font-size="10.00">&#45;</text>
<text text-anchor="start" x="353.5" y="-21.5" font-family="Helvetica,sans-Serif" font-size="10.00">Start()</text>
<text text-anchor="start" x="331.5" y="-6.5" font-family="Helvetica,sans-Serif" font-size="10.00">&#45;</text>
<text text-anchor="start" x="353.5" y="-6.5" font-family="Helvetica,sans-Serif" font-size="10.00">Update()</text>
<polygon fill="#666666" stroke="#666666" points="313.5,-76.5 313.5,-76.5 447.5,-76.5 447.5,-76.5 313.5,-76.5"/>
<polygon fill="#666666" stroke="#666666" points="313.5,-46.5 313.5,-46.5 351.5,-46.5 351.5,-46.5 313.5,-46.5"/>
<polygon fill="#666666" stroke="#666666" points="351.5,-46.5 351.5,-46.5 447.5,-46.5 447.5,-46.5 351.5,-46.5"/>
<polygon fill="none" stroke="#666666" points="313.5,0 313.5,-105 447.5,-105 447.5,0 313.5,0"/>
</a>
</g>
</g>
<!-- Node1&#45;&gt;Node5 -->
<g id="edge10_Node000001_Node000005" class="edge">
<title>Node1&#45;&gt;Node5</title>
<g id="a_edge10_Node000001_Node000005"><a xlink:title=" ">
<path fill="none" stroke="#63b8ff" d="M336.54,-132.21C341.24,-123.78 346.44,-114.49 351.55,-105.32"/>
<polygon fill="none" stroke="#63b8ff" points="333.47,-130.52 331.65,-140.96 339.58,-133.94 333.47,-130.52"/>
</a>
</g>
</g>
<!-- Node6 -->
<g id="Node000006" class="node">
<title>Node6</title>
<g id="a_Node000006"><a xlink:href="$classgame_1_1logic_1_1tile_1_1TileView.html" xlink:title=" ">
<polygon fill="white" stroke="transparent" points="593.5,-99.5 465.5,-99.5 465.5,-5.5 593.5,-5.5 593.5,-99.5"/>
<text text-anchor="start" x="470.5" y="-87.5" font-family="Helvetica,sans-Serif" font-size="10.00">game.logic.tile.TileView</text>
<text text-anchor="start" x="484.5" y="-72.5" font-family="Helvetica,sans-Serif" font-size="10.00">+</text>
<text text-anchor="start" x="512.5" y="-72.5" font-family="Helvetica,sans-Serif" font-size="10.00">TileSprite</text>
<text text-anchor="start" x="487" y="-57.5" font-family="Helvetica,sans-Serif" font-size="10.00">&#45;</text>
<text text-anchor="start" x="512.5" y="-57.5" font-family="Helvetica,sans-Serif" font-size="10.00">_tileVM</text>
<text text-anchor="start" x="484.5" y="-42.5" font-family="Helvetica,sans-Serif" font-size="10.00">+</text>
<text text-anchor="start" x="512.5" y="-42.5" font-family="Helvetica,sans-Serif" font-size="10.00">Link()</text>
<text text-anchor="start" x="487" y="-27.5" font-family="Helvetica,sans-Serif" font-size="10.00">&#45;</text>
<text text-anchor="start" x="512.5" y="-27.5" font-family="Helvetica,sans-Serif" font-size="10.00">Start()</text>
<text text-anchor="start" x="487" y="-12.5" font-family="Helvetica,sans-Serif" font-size="10.00">&#45;</text>
<text text-anchor="start" x="512.5" y="-12.5" font-family="Helvetica,sans-Serif" font-size="10.00">Update()</text>
<polygon fill="#666666" stroke="#666666" points="465.5,-82.5 465.5,-82.5 593.5,-82.5 593.5,-82.5 465.5,-82.5"/>
<polygon fill="#666666" stroke="#666666" points="465.5,-52.5 465.5,-52.5 510.5,-52.5 510.5,-52.5 465.5,-52.5"/>
<polygon fill="#666666" stroke="#666666" points="510.5,-52.5 510.5,-52.5 593.5,-52.5 593.5,-52.5 510.5,-52.5"/>
<polygon fill="none" stroke="#666666" points="465.5,-5.5 465.5,-99.5 593.5,-99.5 593.5,-5.5 465.5,-5.5"/>
</a>
</g>
</g>
<!-- Node1&#45;&gt;Node6 -->
<g id="edge11_Node000001_Node000006" class="edge">
<title>Node1&#45;&gt;Node6</title>
<g id="a_edge11_Node000001_Node000006"><a xlink:title=" ">
<path fill="none" stroke="#63b8ff" d="M371.56,-144.63C397.75,-134.08 429.44,-120.16 456.5,-105 459.48,-103.33 462.48,-101.57 465.49,-99.74"/>
<polygon fill="none" stroke="#63b8ff" points="370.18,-141.41 362.18,-148.36 372.77,-147.92 370.18,-141.41"/>
</a>
</g>
</g>
<!-- Node7 -->
<g id="Node000007" class="node">
<title>Node7</title>
<g id="a_Node000007"><a xlink:href="$classgamerunner_1_1Dispatcher.html" xlink:title=" ">
<polygon fill="white" stroke="transparent" points="737,-92 612,-92 612,-13 737,-13 737,-92"/>
<text text-anchor="start" x="617.5" y="-79.5" font-family="Helvetica,sans-Serif" font-size="10.00">gamerunner.Dispatcher</text>
<text text-anchor="start" x="626" y="-64.5" font-family="Helvetica,sans-Serif" font-size="10.00">&#45;</text>
<text text-anchor="start" x="643.5" y="-64.5" font-family="Helvetica,sans-Serif" font-size="10.00">_updatables</text>
<text text-anchor="start" x="623.5" y="-49.5" font-family="Helvetica,sans-Serif" font-size="10.00">+</text>
<text text-anchor="start" x="643.5" y="-49.5" font-family="Helvetica,sans-Serif" font-size="10.00">addUpdatable()</text>
<text text-anchor="start" x="626" y="-34.5" font-family="Helvetica,sans-Serif" font-size="10.00">&#45;</text>
<text text-anchor="start" x="643.5" y="-34.5" font-family="Helvetica,sans-Serif" font-size="10.00">Awake()</text>
<text text-anchor="start" x="626" y="-19.5" font-family="Helvetica,sans-Serif" font-size="10.00">&#45;</text>
<text text-anchor="start" x="643.5" y="-19.5" font-family="Helvetica,sans-Serif" font-size="10.00">Update()</text>
<polygon fill="#666666" stroke="#666666" points="612.5,-74.5 612.5,-74.5 737.5,-74.5 737.5,-74.5 612.5,-74.5"/>
<polygon fill="#666666" stroke="#666666" points="612.5,-59.5 612.5,-59.5 641.5,-59.5 641.5,-59.5 612.5,-59.5"/>
<polygon fill="#666666" stroke="#666666" points="641.5,-59.5 641.5,-59.5 737.5,-59.5 737.5,-59.5 641.5,-59.5"/>
<polygon fill="none" stroke="#666666" points="612,-13 612,-92 737,-92 737,-13 612,-13"/>
</a>
</g>
</g>
<!-- Node1&#45;&gt;Node7 -->
<g id="edge12_Node000001_Node000007" class="edge">
<title>Node1&#45;&gt;Node7</title>
<g id="a_edge12_Node000001_Node000007"><a xlink:title=" ">
<path fill="none" stroke="#63b8ff" d="M372.2,-159.91C430.86,-153.4 526.57,-138.34 602.5,-105 610.52,-101.48 618.54,-96.97 626.16,-92.09"/>
<polygon fill="none" stroke="#63b8ff" points="371.62,-156.45 362.05,-160.99 372.37,-163.41 371.62,-156.45"/>
</a>
</g>
</g>
</g>
</svg>
