<?xml version="1.0" encoding="UTF-8" standalone="no"?>
<!DOCTYPE svg PUBLIC "-//W3C//DTD SVG 1.1//EN"
 "http://www.w3.org/Graphics/SVG/1.1/DTD/svg11.dtd">
<!-- Generated by graphviz version 2.43.0 (0)
 -->
<!-- Title: ScoreSubmit Pages: 1 -->
<svg width="95pt" height="172pt"
 viewBox="0.00 0.00 95.00 172.00" xmlns="http://www.w3.org/2000/svg" xmlns:xlink="http://www.w3.org/1999/xlink">
<g id="graph0" class="graph" transform="scale(1 1) rotate(0) translate(4 168)">
<title>ScoreSubmit</title>
<!-- Node1 -->
<g id="Node000001" class="node">
<title>Node1</title>
<g id="a_Node000001"><a xlink:title=" ">
<polygon fill="#999999" stroke="transparent" points="81,-79 6,-79 6,0 81,0 81,-79"/>
<text text-anchor="start" x="13" y="-66.5" font-family="Helvetica,sans-Serif" font-size="10.00">ScoreSubmit</text>
<text text-anchor="start" x="13" y="-51.5" font-family="Helvetica,sans-Serif" font-size="10.00">&#45;</text>
<text text-anchor="start" x="23.5" y="-51.5" font-family="Helvetica,sans-Serif" font-size="10.00">_inputField</text>
<text text-anchor="start" x="10.5" y="-36.5" font-family="Helvetica,sans-Serif" font-size="10.00">+</text>
<text text-anchor="start" x="23.5" y="-36.5" font-family="Helvetica,sans-Serif" font-size="10.00">Win()</text>
<text text-anchor="start" x="13" y="-21.5" font-family="Helvetica,sans-Serif" font-size="10.00">&#45;</text>
<text text-anchor="start" x="23.5" y="-21.5" font-family="Helvetica,sans-Serif" font-size="10.00">Start()</text>
<text text-anchor="start" x="13" y="-6.5" font-family="Helvetica,sans-Serif" font-size="10.00">&#45;</text>
<text text-anchor="start" x="23.5" y="-6.5" font-family="Helvetica,sans-Serif" font-size="10.00">Update()</text>
<polygon fill="#666666" stroke="#666666" points="6.5,-61.5 6.5,-61.5 81.5,-61.5 81.5,-61.5 6.5,-61.5"/>
<polygon fill="#666666" stroke="#666666" points="6.5,-46.5 6.5,-46.5 21.5,-46.5 21.5,-46.5 6.5,-46.5"/>
<polygon fill="#666666" stroke="#666666" points="21.5,-46.5 21.5,-46.5 81.5,-46.5 81.5,-46.5 21.5,-46.5"/>
<polygon fill="none" stroke="#666666" points="6,0 6,-79 81,-79 81,0 6,0"/>
</a>
</g>
</g>
<!-- Node2 -->
<g id="Node000002" class="node">
<title>Node2</title>
<g id="a_Node000002"><a xlink:href="$classMonoBehaviour.html" xlink:title=" ">
<polygon fill="white" stroke="transparent" points="87,-164 0,-164 0,-115 87,-115 87,-164"/>
<text text-anchor="start" x="5.5" y="-151.5" font-family="Helvetica,sans-Serif" font-size="10.00">MonoBehaviour</text>
<text text-anchor="start" x="42" y="-136.5" font-family="Helvetica,sans-Serif" font-size="10.00"> </text>
<text text-anchor="start" x="42" y="-121.5" font-family="Helvetica,sans-Serif" font-size="10.00"> </text>
<polygon fill="#666666" stroke="#666666" points="0.5,-146.5 0.5,-146.5 87.5,-146.5 87.5,-146.5 0.5,-146.5"/>
<polygon fill="#666666" stroke="#666666" points="0.5,-131.5 0.5,-131.5 87.5,-131.5 87.5,-131.5 0.5,-131.5"/>
<polygon fill="none" stroke="#666666" points="0,-115 0,-164 87,-164 87,-115 0,-115"/>
</a>
</g>
</g>
<!-- Node2&#45;&gt;Node1 -->
<g id="edge2_Node000001_Node000002" class="edge">
<title>Node2&#45;&gt;Node1</title>
<g id="a_edge2_Node000001_Node000002"><a xlink:title=" ">
<path fill="none" stroke="#63b8ff" d="M43.5,-104.52C43.5,-96.38 43.5,-87.63 43.5,-79.29"/>
<polygon fill="none" stroke="#63b8ff" points="40,-104.78 43.5,-114.78 47,-104.78 40,-104.78"/>
</a>
</g>
</g>
</g>
</svg>
