<?xml version="1.0" encoding="UTF-8" standalone="no"?>
<!DOCTYPE svg PUBLIC "-//W3C//DTD SVG 1.1//EN"
 "http://www.w3.org/Graphics/SVG/1.1/DTD/svg11.dtd">
<!-- Generated by graphviz version 2.43.0 (0)
 -->
<!-- Title: game.logic.TimeBasedGravityStrategy Pages: 1 -->
<svg width="325pt" height="231pt"
 viewBox="0.00 0.00 325.00 231.00" xmlns="http://www.w3.org/2000/svg" xmlns:xlink="http://www.w3.org/1999/xlink">
<g id="graph0" class="graph" transform="scale(1 1) rotate(0) translate(4 227)">
<title>game.logic.TimeBasedGravityStrategy</title>
<!-- Node1 -->
<g id="Node000001" class="node">
<title>Node1</title>
<g id="a_Node000001"><a xlink:title=" ">
<polygon fill="#999999" stroke="transparent" points="208,-90 50,-90 50,0 208,0 208,-90"/>
<text text-anchor="start" x="55" y="-78" font-family="Helvetica,sans-Serif" font-size="10.00">game.logic.TimeBasedGravity</text>
<text text-anchor="start" x="108" y="-67" font-family="Helvetica,sans-Serif" font-size="10.00">Strategy</text>
<text text-anchor="start" x="67" y="-52" font-family="Helvetica,sans-Serif" font-size="10.00">+</text>
<text text-anchor="start" x="93" y="-52" font-family="Helvetica,sans-Serif" font-size="10.00">CurrentGravity</text>
<text text-anchor="start" x="67" y="-37" font-family="Helvetica,sans-Serif" font-size="10.00">+</text>
<text text-anchor="start" x="93" y="-37" font-family="Helvetica,sans-Serif" font-size="10.00">Gravity</text>
<text text-anchor="start" x="67" y="-22" font-family="Helvetica,sans-Serif" font-size="10.00">+</text>
<text text-anchor="start" x="93" y="-22" font-family="Helvetica,sans-Serif" font-size="10.00">Update()</text>
<text text-anchor="start" x="67" y="-7" font-family="Helvetica,sans-Serif" font-size="10.00">+</text>
<text text-anchor="start" x="93" y="-7" font-family="Helvetica,sans-Serif" font-size="10.00">setGravityScale()</text>
<polygon fill="#666666" stroke="#666666" points="50,-62 50,-62 208,-62 208,-62 50,-62"/>
<polygon fill="#666666" stroke="#666666" points="50,-32 50,-32 91,-32 91,-32 50,-32"/>
<polygon fill="#666666" stroke="#666666" points="91,-32 91,-32 208,-32 208,-32 91,-32"/>
<polygon fill="none" stroke="#666666" points="50,0 50,-90 208,-90 208,0 50,0"/>
</a>
</g>
</g>
<!-- Node2 -->
<g id="Node000002" class="node">
<title>Node2</title>
<g id="a_Node000002"><a xlink:href="$interfacegamerunner_1_1IUpdatable.html" xlink:title=" ">
<polygon fill="white" stroke="transparent" points="64,-215.5 0,-215.5 0,-166.5 64,-166.5 64,-215.5"/>
<text text-anchor="start" x="5" y="-203" font-family="Helvetica,sans-Serif" font-size="10.00">IUpdatable</text>
<text text-anchor="start" x="30" y="-188" font-family="Helvetica,sans-Serif" font-size="10.00"> </text>
<text text-anchor="start" x="4" y="-173" font-family="Helvetica,sans-Serif" font-size="10.00">+</text>
<text text-anchor="start" x="17" y="-173" font-family="Helvetica,sans-Serif" font-size="10.00">Update()</text>
<polygon fill="#666666" stroke="#666666" points="0,-198 0,-198 64,-198 64,-198 0,-198"/>
<polygon fill="#666666" stroke="#666666" points="0,-183 0,-183 64,-183 64,-183 0,-183"/>
<polygon fill="none" stroke="#666666" points="0,-166.5 0,-215.5 64,-215.5 64,-166.5 0,-166.5"/>
</a>
</g>
</g>
<!-- Node2&#45;&gt;Node1 -->
<g id="edge4_Node000001_Node000002" class="edge">
<title>Node2&#45;&gt;Node1</title>
<g id="a_edge4_Node000001_Node000002"><a xlink:title=" ">
<path fill="none" stroke="#63b8ff" d="M53.69,-157.8C67.11,-137.87 84.53,-112.02 99.23,-90.19"/>
<polygon fill="none" stroke="#63b8ff" points="50.7,-155.97 48.02,-166.22 56.51,-159.88 50.7,-155.97"/>
</a>
</g>
</g>
<!-- Node3 -->
<g id="Node000003" class="node">
<title>Node3</title>
<g id="a_Node000003"><a xlink:href="$interfacegame_1_1logic_1_1IGravityStrategy.html" xlink:title=" ">
<polygon fill="white" stroke="transparent" points="176,-223 82,-223 82,-159 176,-159 176,-223"/>
<text text-anchor="start" x="88.5" y="-211" font-family="Helvetica,sans-Serif" font-size="10.00">IGravityStrategy</text>
<text text-anchor="start" x="86" y="-196" font-family="Helvetica,sans-Serif" font-size="10.00">+</text>
<text text-anchor="start" x="99" y="-196" font-family="Helvetica,sans-Serif" font-size="10.00">CurrentGravity</text>
<text text-anchor="start" x="86" y="-181" font-family="Helvetica,sans-Serif" font-size="10.00">+</text>
<text text-anchor="start" x="99" y="-181" font-family="Helvetica,sans-Serif" font-size="10.00">Gravity</text>
<text text-anchor="start" x="127" y="-166" font-family="Helvetica,sans-Serif" font-size="10.00"> </text>
<polygon fill="#666666" stroke="#666666" points="82,-206 82,-206 176,-206 176,-206 82,-206"/>
<polygon fill="#666666" stroke="#666666" points="82,-176 82,-176 97,-176 97,-176 82,-176"/>
<polygon fill="#666666" stroke="#666666" points="97,-176 97,-176 176,-176 176,-176 97,-176"/>
<polygon fill="none" stroke="#666666" points="82,-159 82,-223 176,-223 176,-159 82,-159"/>
</a>
</g>
</g>
<!-- Node3&#45;&gt;Node1 -->
<g id="edge5_Node000001_Node000003" class="edge">
<title>Node3&#45;&gt;Node1</title>
<g id="a_edge5_Node000001_Node000003"><a xlink:title=" ">
<path fill="none" stroke="#63b8ff" d="M129,-148.65C129,-130.3 129,-108.68 129,-90.02"/>
<polygon fill="none" stroke="#63b8ff" points="125.5,-148.75 129,-158.75 132.5,-148.75 125.5,-148.75"/>
</a>
</g>
</g>
<!-- Node4 -->
<g id="Node000004" class="node">
<title>Node4</title>
<g id="a_Node000004"><a xlink:title=" ">
<polygon fill="white" stroke="transparent" points="226,-215.5 194,-215.5 194,-166.5 226,-166.5 226,-215.5"/>
<text text-anchor="start" x="199" y="-203" font-family="Helvetica,sans-Serif" font-size="10.00">float</text>
<text text-anchor="start" x="208" y="-188" font-family="Helvetica,sans-Serif" font-size="10.00"> </text>
<text text-anchor="start" x="208" y="-173" font-family="Helvetica,sans-Serif" font-size="10.00"> </text>
<polygon fill="#666666" stroke="#666666" points="194,-198 194,-198 226,-198 226,-198 194,-198"/>
<polygon fill="#666666" stroke="#666666" points="194,-183 194,-183 226,-183 226,-183 194,-183"/>
<polygon fill="none" stroke="#666666" points="194,-166.5 194,-215.5 226,-215.5 226,-166.5 194,-166.5"/>
</a>
</g>
</g>
<!-- Node4&#45;&gt;Node1 -->
<g id="edge6_Node000001_Node000004" class="edge">
<title>Node4&#45;&gt;Node1</title>
<g id="a_edge6_Node000001_Node000004"><a xlink:title=" ">
<path fill="none" stroke="#63b8ff" d="M196.62,-166.22C186.62,-148.43 172.52,-123.37 159.78,-100.73"/>
<polygon fill="none" stroke="#63b8ff" points="159.74,-100.65 153.31,-97.38 153.86,-90.19 160.28,-93.46 159.74,-100.65"/>
</a>
</g>
<text text-anchor="middle" x="249" y="-133" font-family="Helvetica,sans-Serif" font-size="10.00" fill="grey"> &#45;_gravityBase</text>
<text text-anchor="middle" x="249" y="-122" font-family="Helvetica,sans-Serif" font-size="10.00" fill="grey">&#45;_gravityIncreasePerSecond</text>
<text text-anchor="middle" x="249" y="-111" font-family="Helvetica,sans-Serif" font-size="10.00" fill="grey">&#45;_gravityScale</text>
</g>
</g>
</svg>
