<?xml version="1.0" encoding="UTF-8" standalone="no"?>
<!DOCTYPE svg PUBLIC "-//W3C//DTD SVG 1.1//EN"
 "http://www.w3.org/Graphics/SVG/1.1/DTD/svg11.dtd">
<!-- Generated by graphviz version 2.43.0 (0)
 -->
<!-- Title: gamerunner.Dispatcher Pages: 1 -->
<svg width="133pt" height="172pt"
 viewBox="0.00 0.00 133.00 172.00" xmlns="http://www.w3.org/2000/svg" xmlns:xlink="http://www.w3.org/1999/xlink">
<g id="graph0" class="graph" transform="scale(1 1) rotate(0) translate(4 168)">
<title>gamerunner.Dispatcher</title>
<!-- Node1 -->
<g id="Node000001" class="node">
<title>Node1</title>
<g id="a_Node000001"><a xlink:title=" ">
<polygon fill="#999999" stroke="transparent" points="125,-79 0,-79 0,0 125,0 125,-79"/>
<text text-anchor="start" x="5.5" y="-66.5" font-family="Helvetica,sans-Serif" font-size="10.00">gamerunner.Dispatcher</text>
<text text-anchor="start" x="14" y="-51.5" font-family="Helvetica,sans-Serif" font-size="10.00">&#45;</text>
<text text-anchor="start" x="31.5" y="-51.5" font-family="Helvetica,sans-Serif" font-size="10.00">_updatables</text>
<text text-anchor="start" x="11.5" y="-36.5" font-family="Helvetica,sans-Serif" font-size="10.00">+</text>
<text text-anchor="start" x="31.5" y="-36.5" font-family="Helvetica,sans-Serif" font-size="10.00">addUpdatable()</text>
<text text-anchor="start" x="14" y="-21.5" font-family="Helvetica,sans-Serif" font-size="10.00">&#45;</text>
<text text-anchor="start" x="31.5" y="-21.5" font-family="Helvetica,sans-Serif" font-size="10.00">Awake()</text>
<text text-anchor="start" x="14" y="-6.5" font-family="Helvetica,sans-Serif" font-size="10.00">&#45;</text>
<text text-anchor="start" x="31.5" y="-6.5" font-family="Helvetica,sans-Serif" font-size="10.00">Update()</text>
<polygon fill="#666666" stroke="#666666" points="0.5,-61.5 0.5,-61.5 125.5,-61.5 125.5,-61.5 0.5,-61.5"/>
<polygon fill="#666666" stroke="#666666" points="0.5,-46.5 0.5,-46.5 29.5,-46.5 29.5,-46.5 0.5,-46.5"/>
<polygon fill="#666666" stroke="#666666" points="29.5,-46.5 29.5,-46.5 125.5,-46.5 125.5,-46.5 29.5,-46.5"/>
<polygon fill="none" stroke="#666666" points="0,0 0,-79 125,-79 125,0 0,0"/>
</a>
</g>
</g>
<!-- Node2 -->
<g id="Node000002" class="node">
<title>Node2</title>
<g id="a_Node000002"><a xlink:href="$classMonoBehaviour.html" xlink:title=" ">
<polygon fill="white" stroke="transparent" points="106,-164 19,-164 19,-115 106,-115 106,-164"/>
<text text-anchor="start" x="24.5" y="-151.5" font-family="Helvetica,sans-Serif" font-size="10.00">MonoBehaviour</text>
<text text-anchor="start" x="61" y="-136.5" font-family="Helvetica,sans-Serif" font-size="10.00"> </text>
<text text-anchor="start" x="61" y="-121.5" font-family="Helvetica,sans-Serif" font-size="10.00"> </text>
<polygon fill="#666666" stroke="#666666" points="19.5,-146.5 19.5,-146.5 106.5,-146.5 106.5,-146.5 19.5,-146.5"/>
<polygon fill="#666666" stroke="#666666" points="19.5,-131.5 19.5,-131.5 106.5,-131.5 106.5,-131.5 19.5,-131.5"/>
<polygon fill="none" stroke="#666666" points="19,-115 19,-164 106,-164 106,-115 19,-115"/>
</a>
</g>
</g>
<!-- Node2&#45;&gt;Node1 -->
<g id="edge2_Node000001_Node000002" class="edge">
<title>Node2&#45;&gt;Node1</title>
<g id="a_edge2_Node000001_Node000002"><a xlink:title=" ">
<path fill="none" stroke="#63b8ff" d="M62.5,-104.52C62.5,-96.38 62.5,-87.63 62.5,-79.29"/>
<polygon fill="none" stroke="#63b8ff" points="59,-104.78 62.5,-114.78 66,-104.78 59,-104.78"/>
</a>
</g>
</g>
</g>
</svg>
