<?xml version="1.0" encoding="UTF-8" standalone="no"?>
<!DOCTYPE svg PUBLIC "-//W3C//DTD SVG 1.1//EN"
 "http://www.w3.org/Graphics/SVG/1.1/DTD/svg11.dtd">
<!-- Generated by graphviz version 2.43.0 (0)
 -->
<!-- Title: GameRunner.Update Pages: 1 -->
<svg width="513pt" height="86pt"
 viewBox="0.00 0.00 513.00 86.00" xmlns="http://www.w3.org/2000/svg" xmlns:xlink="http://www.w3.org/1999/xlink">
<g id="graph0" class="graph" transform="scale(1 1) rotate(0) translate(4 82)">
<title>GameRunner.Update</title>
<!-- Node1 -->
<g id="Node000001" class="node">
<title>Node1</title>
<g id="a_Node000001"><a xlink:title=" ">
<polygon fill="#999999" stroke="#666666" points="118,-48.5 0,-48.5 0,-29.5 118,-29.5 118,-48.5"/>
<text text-anchor="middle" x="59" y="-36.5" font-family="Helvetica,sans-Serif" font-size="10.00">GameRunner.Update</text>
</a>
</g>
</g>
<!-- Node2 -->
<g id="Node000002" class="node">
<title>Node2</title>
<g id="a_Node000002"><a xlink:href="$classgame_1_1logic_1_1EventQueue_1_1EventQueue.html#a47b03d45a78dd2897b1edffa85e3c1f0" xlink:title=" ">
<polygon fill="white" stroke="#666666" points="318,-78 154,-78 154,-48 318,-48 318,-78"/>
<text text-anchor="start" x="162" y="-66" font-family="Helvetica,sans-Serif" font-size="10.00">game.logic.EventQueue.Event</text>
<text text-anchor="middle" x="236" y="-55" font-family="Helvetica,sans-Serif" font-size="10.00">Queue.Enqueue</text>
</a>
</g>
</g>
<!-- Node1&#45;&gt;Node2 -->
<g id="edge4_Node000001_Node000002" class="edge">
<title>Node1&#45;&gt;Node2</title>
<g id="a_edge4_Node000001_Node000002"><a xlink:title=" ">
<path fill="none" stroke="#63b8ff" d="M118.27,-46.99C126.49,-48.12 135.1,-49.3 143.75,-50.49"/>
<polygon fill="#63b8ff" stroke="#63b8ff" points="143.53,-53.99 153.92,-51.88 144.49,-47.05 143.53,-53.99"/>
</a>
</g>
</g>
<!-- Node3 -->
<g id="Node000003" class="node">
<title>Node3</title>
<g id="a_Node000003"><a xlink:href="$classgame_1_1logic_1_1tilespawner_1_1TileSpawnerService.html#a3a4da02acca59c7b4b180dd40867fca5" xlink:title=" ">
<polygon fill="white" stroke="#666666" points="311.5,-30 160.5,-30 160.5,0 311.5,0 311.5,-30"/>
<text text-anchor="start" x="168.5" y="-18" font-family="Helvetica,sans-Serif" font-size="10.00">game.logic.tilespawner.Tile</text>
<text text-anchor="middle" x="236" y="-7" font-family="Helvetica,sans-Serif" font-size="10.00">SpawnerService.Spawn</text>
</a>
</g>
</g>
<!-- Node1&#45;&gt;Node3 -->
<g id="edge5_Node000001_Node000003" class="edge">
<title>Node1&#45;&gt;Node3</title>
<g id="a_edge5_Node000001_Node000003"><a xlink:title=" ">
<path fill="none" stroke="#63b8ff" d="M118.27,-31.01C128.63,-29.59 139.6,-28.08 150.5,-26.59"/>
<polygon fill="#63b8ff" stroke="#63b8ff" points="151.05,-30.05 160.48,-25.22 150.1,-23.11 151.05,-30.05"/>
</a>
</g>
</g>
<!-- Node4 -->
<g id="Node000004" class="node">
<title>Node4</title>
<g id="a_Node000004"><a xlink:href="$classgame_1_1logic_1_1tilespawner_1_1TileSpawnerService.html#ac73dbfd9e3daec4259be8d0c3c99dce2" xlink:title=" ">
<polygon fill="white" stroke="#666666" points="505,-30 354,-30 354,0 505,0 505,-30"/>
<text text-anchor="start" x="362" y="-18" font-family="Helvetica,sans-Serif" font-size="10.00">game.logic.tilespawner.Tile</text>
<text text-anchor="middle" x="429.5" y="-7" font-family="Helvetica,sans-Serif" font-size="10.00">SpawnerService.Shuffle</text>
</a>
</g>
</g>
<!-- Node3&#45;&gt;Node4 -->
<g id="edge6_Node000003_Node000004" class="edge">
<title>Node3&#45;&gt;Node4</title>
<g id="a_edge6_Node000003_Node000004"><a xlink:title=" ">
<path fill="none" stroke="#63b8ff" d="M311.59,-15C322.09,-15 332.96,-15 343.64,-15"/>
<polygon fill="#63b8ff" stroke="#63b8ff" points="343.8,-18.5 353.8,-15 343.8,-11.5 343.8,-18.5"/>
</a>
</g>
</g>
</g>
</svg>
