<?xml version="1.0" encoding="UTF-8" standalone="no"?>
<!DOCTYPE svg PUBLIC "-//W3C//DTD SVG 1.1//EN"
 "http://www.w3.org/Graphics/SVG/1.1/DTD/svg11.dtd">
<!-- Generated by graphviz version 2.43.0 (0)
 -->
<!-- Title: game.logic.EventQueue.EventQueue.Enqueue Pages: 1 -->
<svg width="326pt" height="64pt"
 viewBox="0.00 0.00 326.00 64.00" xmlns="http://www.w3.org/2000/svg" xmlns:xlink="http://www.w3.org/1999/xlink">
<g id="graph0" class="graph" transform="scale(1 1) rotate(0) translate(4 60)">
<title>game.logic.EventQueue.EventQueue.Enqueue</title>
<!-- Node1 -->
<g id="Node000001" class="node">
<title>Node1</title>
<g id="a_Node000001"><a xlink:title=" ">
<polygon fill="#999999" stroke="#666666" points="318,-42.5 154,-42.5 154,-12.5 318,-12.5 318,-42.5"/>
<text text-anchor="start" x="162" y="-30.5" font-family="Helvetica,sans-Serif" font-size="10.00">game.logic.EventQueue.Event</text>
<text text-anchor="middle" x="236" y="-19.5" font-family="Helvetica,sans-Serif" font-size="10.00">Queue.Enqueue</text>
</a>
</g>
</g>
<!-- Node2 -->
<g id="Node000002" class="node">
<title>Node2</title>
<g id="a_Node000002"><a xlink:href="$classLoginButton.html#a4ee90c2092d433580a6adaa869b4a710" xlink:title=" ">
<polygon fill="white" stroke="#666666" points="117,-56 1,-56 1,-37 117,-37 117,-56"/>
<text text-anchor="middle" x="59" y="-44" font-family="Helvetica,sans-Serif" font-size="10.00">LoginButton.OnClick</text>
</a>
</g>
</g>
<!-- Node1&#45;&gt;Node2 -->
<g id="edge3_Node000001_Node000002" class="edge">
<title>Node1&#45;&gt;Node2</title>
<g id="a_edge3_Node000001_Node000002"><a xlink:title=" ">
<path fill="none" stroke="#63b8ff" d="M143.69,-37.41C134.65,-38.4 125.66,-39.37 117.11,-40.3"/>
<polygon fill="#63b8ff" stroke="#63b8ff" points="144.34,-40.86 153.9,-36.3 143.58,-33.9 144.34,-40.86"/>
</a>
</g>
</g>
<!-- Node3 -->
<g id="Node000003" class="node">
<title>Node3</title>
<g id="a_Node000003"><a xlink:href="$classGameRunner.html#a60b42ae79f0fc030d0ef8a31d10ae960" xlink:title=" ">
<polygon fill="white" stroke="#666666" points="118,-19 0,-19 0,0 118,0 118,-19"/>
<text text-anchor="middle" x="59" y="-7" font-family="Helvetica,sans-Serif" font-size="10.00">GameRunner.Update</text>
</a>
</g>
</g>
<!-- Node1&#45;&gt;Node3 -->
<g id="edge4_Node000001_Node000003" class="edge">
<title>Node1&#45;&gt;Node3</title>
<g id="a_edge4_Node000001_Node000003"><a xlink:title=" ">
<path fill="none" stroke="#63b8ff" d="M143.7,-18.11C135.01,-17.22 126.37,-16.33 118.13,-15.48"/>
<polygon fill="#63b8ff" stroke="#63b8ff" points="143.6,-21.62 153.9,-19.16 144.31,-14.65 143.6,-21.62"/>
</a>
</g>
</g>
</g>
</svg>
