<?xml version="1.0" encoding="UTF-8" standalone="no"?>
<!DOCTYPE svg PUBLIC "-//W3C//DTD SVG 1.1//EN"
 "http://www.w3.org/Graphics/SVG/1.1/DTD/svg11.dtd">
<!-- Generated by graphviz version 2.43.0 (0)
 -->
<!-- Title: gamerunner.Dispatcher Pages: 1 -->
<svg width="278pt" height="183pt"
 viewBox="0.00 0.00 278.00 183.00" xmlns="http://www.w3.org/2000/svg" xmlns:xlink="http://www.w3.org/1999/xlink">
<g id="graph0" class="graph" transform="scale(1 1) rotate(0) translate(4 179)">
<title>gamerunner.Dispatcher</title>
<!-- Node1 -->
<g id="Node000001" class="node">
<title>Node1</title>
<g id="a_Node000001"><a xlink:title=" ">
<polygon fill="#999999" stroke="transparent" points="178,-79 53,-79 53,0 178,0 178,-79"/>
<text text-anchor="start" x="58.5" y="-66.5" font-family="Helvetica,sans-Serif" font-size="10.00">gamerunner.Dispatcher</text>
<text text-anchor="start" x="114" y="-51.5" font-family="Helvetica,sans-Serif" font-size="10.00"> </text>
<text text-anchor="start" x="64.5" y="-36.5" font-family="Helvetica,sans-Serif" font-size="10.00">+</text>
<text text-anchor="start" x="84.5" y="-36.5" font-family="Helvetica,sans-Serif" font-size="10.00">addUpdatable()</text>
<text text-anchor="start" x="67" y="-21.5" font-family="Helvetica,sans-Serif" font-size="10.00">&#45;</text>
<text text-anchor="start" x="84.5" y="-21.5" font-family="Helvetica,sans-Serif" font-size="10.00">Awake()</text>
<text text-anchor="start" x="67" y="-6.5" font-family="Helvetica,sans-Serif" font-size="10.00">&#45;</text>
<text text-anchor="start" x="84.5" y="-6.5" font-family="Helvetica,sans-Serif" font-size="10.00">Update()</text>
<polygon fill="#666666" stroke="#666666" points="53.5,-61.5 53.5,-61.5 178.5,-61.5 178.5,-61.5 53.5,-61.5"/>
<polygon fill="#666666" stroke="#666666" points="53.5,-46.5 53.5,-46.5 178.5,-46.5 178.5,-46.5 53.5,-46.5"/>
<polygon fill="none" stroke="#666666" points="53,0 53,-79 178,-79 178,0 53,0"/>
</a>
</g>
</g>
<!-- Node2 -->
<g id="Node000002" class="node">
<title>Node2</title>
<g id="a_Node000002"><a xlink:href="$classMonoBehaviour.html" xlink:title=" ">
<polygon fill="white" stroke="transparent" points="87,-175 0,-175 0,-126 87,-126 87,-175"/>
<text text-anchor="start" x="5.5" y="-162.5" font-family="Helvetica,sans-Serif" font-size="10.00">MonoBehaviour</text>
<text text-anchor="start" x="42" y="-147.5" font-family="Helvetica,sans-Serif" font-size="10.00"> </text>
<text text-anchor="start" x="42" y="-132.5" font-family="Helvetica,sans-Serif" font-size="10.00"> </text>
<polygon fill="#666666" stroke="#666666" points="0.5,-157.5 0.5,-157.5 87.5,-157.5 87.5,-157.5 0.5,-157.5"/>
<polygon fill="#666666" stroke="#666666" points="0.5,-142.5 0.5,-142.5 87.5,-142.5 87.5,-142.5 0.5,-142.5"/>
<polygon fill="none" stroke="#666666" points="0,-126 0,-175 87,-175 87,-126 0,-126"/>
</a>
</g>
</g>
<!-- Node2&#45;&gt;Node1 -->
<g id="edge3_Node000001_Node000002" class="edge">
<title>Node2&#45;&gt;Node1</title>
<g id="a_edge3_Node000001_Node000002"><a xlink:title=" ">
<path fill="none" stroke="#63b8ff" d="M64.67,-117.45C72.61,-105.44 81.71,-91.65 90,-79.1"/>
<polygon fill="none" stroke="#63b8ff" points="61.71,-115.58 59.12,-125.85 67.55,-119.43 61.71,-115.58"/>
</a>
</g>
</g>
<!-- Node3 -->
<g id="Node000003" class="node">
<title>Node3</title>
<g id="a_Node000003"><a xlink:title=" ">
<polygon fill="white" stroke="transparent" points="270,-175 105,-175 105,-126 270,-126 270,-175"/>
<text text-anchor="start" x="110.5" y="-162.5" font-family="Helvetica,sans-Serif" font-size="10.00">List&lt; gamerunner.IUpdatable &gt;</text>
<text text-anchor="start" x="186" y="-147.5" font-family="Helvetica,sans-Serif" font-size="10.00"> </text>
<text text-anchor="start" x="186" y="-132.5" font-family="Helvetica,sans-Serif" font-size="10.00"> </text>
<polygon fill="#666666" stroke="#666666" points="105.5,-157.5 105.5,-157.5 270.5,-157.5 270.5,-157.5 105.5,-157.5"/>
<polygon fill="#666666" stroke="#666666" points="105.5,-142.5 105.5,-142.5 270.5,-142.5 270.5,-142.5 105.5,-142.5"/>
<polygon fill="none" stroke="#666666" points="105,-126 105,-175 270,-175 270,-126 105,-126"/>
</a>
</g>
</g>
<!-- Node3&#45;&gt;Node1 -->
<g id="edge4_Node000001_Node000003" class="edge">
<title>Node3&#45;&gt;Node1</title>
<g id="a_edge4_Node000001_Node000003"><a xlink:title=" ">
<path fill="none" stroke="#63b8ff" d="M171.88,-125.85C164.76,-115.08 156.07,-101.91 147.65,-89.17"/>
<polygon fill="none" stroke="#63b8ff" points="147.61,-89.12 140.97,-86.32 141,-79.1 147.64,-81.91 147.61,-89.12"/>
</a>
</g>
<text text-anchor="middle" x="193" y="-100" font-family="Helvetica,sans-Serif" font-size="10.00" fill="grey"> &#45;_updatables</text>
</g>
</g>
</svg>
