<?xml version="1.0" encoding="UTF-8" standalone="no"?>
<!DOCTYPE svg PUBLIC "-//W3C//DTD SVG 1.1//EN"
 "http://www.w3.org/Graphics/SVG/1.1/DTD/svg11.dtd">
<!-- Generated by graphviz version 2.43.0 (0)
 -->
<!-- Title: game.logic.EventQueue.EventQueue Pages: 1 -->
<svg width="252pt" height="231pt"
 viewBox="0.00 0.00 252.00 231.00" xmlns="http://www.w3.org/2000/svg" xmlns:xlink="http://www.w3.org/1999/xlink">
<g id="graph0" class="graph" transform="scale(1 1) rotate(0) translate(4 227)">
<title>game.logic.EventQueue.EventQueue</title>
<!-- Node1 -->
<g id="Node000001" class="node">
<title>Node1</title>
<g id="a_Node000001"><a xlink:title=" ">
<polygon fill="#999999" stroke="transparent" points="169,-105 11,-105 11,0 169,0 169,-105"/>
<text text-anchor="start" x="16" y="-92.5" font-family="Helvetica,sans-Serif" font-size="10.00">game.logic.EventQueue.Event</text>
<text text-anchor="start" x="74" y="-81.5" font-family="Helvetica,sans-Serif" font-size="10.00">Queue</text>
<text text-anchor="start" x="88" y="-66.5" font-family="Helvetica,sans-Serif" font-size="10.00"> </text>
<text text-anchor="start" x="32.5" y="-51.5" font-family="Helvetica,sans-Serif" font-size="10.00">+</text>
<text text-anchor="start" x="63" y="-51.5" font-family="Helvetica,sans-Serif" font-size="10.00">EventQueue()</text>
<text text-anchor="start" x="32.5" y="-36.5" font-family="Helvetica,sans-Serif" font-size="10.00">+</text>
<text text-anchor="start" x="63" y="-36.5" font-family="Helvetica,sans-Serif" font-size="10.00">Enqueue()</text>
<text text-anchor="start" x="32.5" y="-21.5" font-family="Helvetica,sans-Serif" font-size="10.00">+</text>
<text text-anchor="start" x="63" y="-21.5" font-family="Helvetica,sans-Serif" font-size="10.00">HasEvent()</text>
<text text-anchor="start" x="32.5" y="-6.5" font-family="Helvetica,sans-Serif" font-size="10.00">+</text>
<text text-anchor="start" x="63" y="-6.5" font-family="Helvetica,sans-Serif" font-size="10.00">Dequeue()</text>
<polygon fill="#666666" stroke="#666666" points="11,-76.5 11,-76.5 169,-76.5 169,-76.5 11,-76.5"/>
<polygon fill="#666666" stroke="#666666" points="11,-61.5 11,-61.5 169,-61.5 169,-61.5 11,-61.5"/>
<polygon fill="none" stroke="#666666" points="11,0 11,-105 169,-105 169,0 11,0"/>
</a>
</g>
</g>
<!-- Node2 -->
<g id="Node000002" class="node">
<title>Node2</title>
<g id="a_Node000002"><a xlink:href="$interfacegame_1_1service_1_1IService.html" xlink:title=" ">
<polygon fill="white" stroke="transparent" points="50,-212 0,-212 0,-163 50,-163 50,-212"/>
<text text-anchor="start" x="5" y="-199.5" font-family="Helvetica,sans-Serif" font-size="10.00">IService</text>
<text text-anchor="start" x="23" y="-184.5" font-family="Helvetica,sans-Serif" font-size="10.00"> </text>
<text text-anchor="start" x="23" y="-169.5" font-family="Helvetica,sans-Serif" font-size="10.00"> </text>
<polygon fill="#666666" stroke="#666666" points="0,-194.5 0,-194.5 50,-194.5 50,-194.5 0,-194.5"/>
<polygon fill="#666666" stroke="#666666" points="0,-179.5 0,-179.5 50,-179.5 50,-179.5 0,-179.5"/>
<polygon fill="none" stroke="#666666" points="0,-163 0,-212 50,-212 50,-163 0,-163"/>
</a>
</g>
</g>
<!-- Node2&#45;&gt;Node1 -->
<g id="edge3_Node000001_Node000002" class="edge">
<title>Node2&#45;&gt;Node1</title>
<g id="a_edge3_Node000001_Node000002"><a xlink:title=" ">
<path fill="none" stroke="#63b8ff" d="M41.08,-153.59C48.22,-138.99 56.79,-121.46 64.74,-105.18"/>
<polygon fill="none" stroke="#63b8ff" points="37.87,-152.2 36.62,-162.72 44.16,-155.27 37.87,-152.2"/>
</a>
</g>
</g>
<!-- Node3 -->
<g id="Node000003" class="node">
<title>Node3</title>
<g id="a_Node000003"><a xlink:title=" ">
<polygon fill="white" stroke="transparent" points="244,-223 68,-223 68,-152 244,-152 244,-223"/>
<text text-anchor="start" x="73" y="-210.5" font-family="Helvetica,sans-Serif" font-size="10.00">Dictionary&lt; EventId,</text>
<text text-anchor="start" x="73" y="-199.5" font-family="Helvetica,sans-Serif" font-size="10.00"> Queue&lt; game.logic.EventQueue.</text>
<text text-anchor="start" x="129" y="-188.5" font-family="Helvetica,sans-Serif" font-size="10.00">IEvent &gt; &gt;</text>
<text text-anchor="start" x="154" y="-173.5" font-family="Helvetica,sans-Serif" font-size="10.00"> </text>
<text text-anchor="start" x="154" y="-158.5" font-family="Helvetica,sans-Serif" font-size="10.00"> </text>
<polygon fill="#666666" stroke="#666666" points="68,-183.5 68,-183.5 244,-183.5 244,-183.5 68,-183.5"/>
<polygon fill="#666666" stroke="#666666" points="68,-168.5 68,-168.5 244,-168.5 244,-168.5 68,-168.5"/>
<polygon fill="none" stroke="#666666" points="68,-152 68,-223 244,-223 244,-152 68,-152"/>
</a>
</g>
</g>
<!-- Node3&#45;&gt;Node1 -->
<g id="edge4_Node000001_Node000003" class="edge">
<title>Node3&#45;&gt;Node1</title>
<g id="a_edge4_Node000001_Node000003"><a xlink:title=" ">
<path fill="none" stroke="#63b8ff" d="M138.83,-151.9C133.37,-140.89 127.14,-128.35 121.01,-115.99"/>
<polygon fill="none" stroke="#63b8ff" points="121,-115.97 114.75,-112.37 115.67,-105.22 121.92,-108.82 121,-115.97"/>
</a>
</g>
<text text-anchor="middle" x="152" y="-126" font-family="Helvetica,sans-Serif" font-size="10.00" fill="grey"> &#45;_queues</text>
</g>
</g>
</svg>
