<?xml version="1.0" encoding="UTF-8" standalone="no"?>
<!DOCTYPE svg PUBLIC "-//W3C//DTD SVG 1.1//EN"
 "http://www.w3.org/Graphics/SVG/1.1/DTD/svg11.dtd">
<!-- Generated by graphviz version 2.43.0 (0)
 -->
<!-- Title: game.logic.tilespawner.ISpawnable Pages: 1 -->
<svg width="1226pt" height="142pt"
 viewBox="0.00 0.00 1226.00 142.00" xmlns="http://www.w3.org/2000/svg" xmlns:xlink="http://www.w3.org/1999/xlink">
<g id="graph0" class="graph" transform="scale(1 1) rotate(0) translate(4 138)">
<title>game.logic.tilespawner.ISpawnable</title>
<!-- Node1 -->
<g id="Node000001" class="node">
<title>Node1</title>
<g id="a_Node000001"><a xlink:title=" ">
<polygon fill="#999999" stroke="transparent" points="696.5,-134 513.5,-134 513.5,-85 696.5,-85 696.5,-134"/>
<text text-anchor="start" x="519" y="-121.5" font-family="Helvetica,sans-Serif" font-size="10.00">game.logic.tilespawner.ISpawnable</text>
<text text-anchor="start" x="603.5" y="-106.5" font-family="Helvetica,sans-Serif" font-size="10.00"> </text>
<text text-anchor="start" x="548.5" y="-91.5" font-family="Helvetica,sans-Serif" font-size="10.00">+</text>
<text text-anchor="start" x="592" y="-91.5" font-family="Helvetica,sans-Serif" font-size="10.00">Spawn()</text>
<polygon fill="#666666" stroke="#666666" points="514,-116.5 514,-116.5 697,-116.5 697,-116.5 514,-116.5"/>
<polygon fill="#666666" stroke="#666666" points="514,-101.5 514,-101.5 697,-101.5 697,-101.5 514,-101.5"/>
<polygon fill="none" stroke="#666666" points="513.5,-85 513.5,-134 696.5,-134 696.5,-85 513.5,-85"/>
</a>
</g>
</g>
<!-- Node2 -->
<g id="Node000002" class="node">
<title>Node2</title>
<g id="a_Node000002"><a xlink:href="$classgame_1_1logic_1_1tilespawner_1_1IPiece.html" xlink:title=" ">
<polygon fill="white" stroke="transparent" points="156,-49 0,-49 0,0 156,0 156,-49"/>
<text text-anchor="start" x="5" y="-36.5" font-family="Helvetica,sans-Serif" font-size="10.00">game.logic.tilespawner.IPiece</text>
<text text-anchor="start" x="76" y="-21.5" font-family="Helvetica,sans-Serif" font-size="10.00"> </text>
<text text-anchor="start" x="27.5" y="-6.5" font-family="Helvetica,sans-Serif" font-size="10.00">+</text>
<text text-anchor="start" x="64" y="-6.5" font-family="Helvetica,sans-Serif" font-size="10.00">Spawn()</text>
<polygon fill="#666666" stroke="#666666" points="0,-31.5 0,-31.5 156,-31.5 156,-31.5 0,-31.5"/>
<polygon fill="#666666" stroke="#666666" points="0,-16.5 0,-16.5 156,-16.5 156,-16.5 0,-16.5"/>
<polygon fill="none" stroke="#666666" points="0,0 0,-49 156,-49 156,0 0,0"/>
</a>
</g>
</g>
<!-- Node1&#45;&gt;Node2 -->
<g id="edge8_Node000001_Node000002" class="edge">
<title>Node1&#45;&gt;Node2</title>
<g id="a_edge8_Node000001_Node000002"><a xlink:title=" ">
<path fill="none" stroke="#63b8ff" d="M503.26,-98.52C413.68,-88.84 279.96,-72.2 165,-49 162.09,-48.41 159.13,-47.78 156.14,-47.12"/>
<polygon fill="none" stroke="#63b8ff" points="503.1,-102.02 513.41,-99.61 503.84,-95.06 503.1,-102.02"/>
</a>
</g>
</g>
<!-- Node3 -->
<g id="Node000003" class="node">
<title>Node3</title>
<g id="a_Node000003"><a xlink:href="$classgame_1_1logic_1_1tilespawner_1_1JPiece.html" xlink:title=" ">
<polygon fill="white" stroke="transparent" points="330,-49 174,-49 174,0 330,0 330,-49"/>
<text text-anchor="start" x="179" y="-36.5" font-family="Helvetica,sans-Serif" font-size="10.00">game.logic.tilespawner.JPiece</text>
<text text-anchor="start" x="250" y="-21.5" font-family="Helvetica,sans-Serif" font-size="10.00"> </text>
<text text-anchor="start" x="201.5" y="-6.5" font-family="Helvetica,sans-Serif" font-size="10.00">+</text>
<text text-anchor="start" x="238" y="-6.5" font-family="Helvetica,sans-Serif" font-size="10.00">Spawn()</text>
<polygon fill="#666666" stroke="#666666" points="174,-31.5 174,-31.5 330,-31.5 330,-31.5 174,-31.5"/>
<polygon fill="#666666" stroke="#666666" points="174,-16.5 174,-16.5 330,-16.5 330,-16.5 174,-16.5"/>
<polygon fill="none" stroke="#666666" points="174,0 174,-49 330,-49 330,0 174,0"/>
</a>
</g>
</g>
<!-- Node1&#45;&gt;Node3 -->
<g id="edge9_Node000001_Node000003" class="edge">
<title>Node1&#45;&gt;Node3</title>
<g id="a_edge9_Node000001_Node000003"><a xlink:title=" ">
<path fill="none" stroke="#63b8ff" d="M503.57,-86.9C453.85,-76.04 393.16,-62.37 339,-49 336.11,-48.29 333.18,-47.55 330.21,-46.8"/>
<polygon fill="none" stroke="#63b8ff" points="502.84,-90.33 513.36,-89.04 504.34,-83.49 502.84,-90.33"/>
</a>
</g>
</g>
<!-- Node4 -->
<g id="Node000004" class="node">
<title>Node4</title>
<g id="a_Node000004"><a xlink:href="$classgame_1_1logic_1_1tilespawner_1_1LPiece.html" xlink:title=" ">
<polygon fill="white" stroke="transparent" points="506,-49 348,-49 348,0 506,0 506,-49"/>
<text text-anchor="start" x="353" y="-36.5" font-family="Helvetica,sans-Serif" font-size="10.00">game.logic.tilespawner.LPiece</text>
<text text-anchor="start" x="425" y="-21.5" font-family="Helvetica,sans-Serif" font-size="10.00"> </text>
<text text-anchor="start" x="376" y="-6.5" font-family="Helvetica,sans-Serif" font-size="10.00">+</text>
<text text-anchor="start" x="413" y="-6.5" font-family="Helvetica,sans-Serif" font-size="10.00">Spawn()</text>
<polygon fill="#666666" stroke="#666666" points="348,-31.5 348,-31.5 506,-31.5 506,-31.5 348,-31.5"/>
<polygon fill="#666666" stroke="#666666" points="348,-16.5 348,-16.5 506,-16.5 506,-16.5 348,-16.5"/>
<polygon fill="none" stroke="#666666" points="348,0 348,-49 506,-49 506,0 348,0"/>
</a>
</g>
</g>
<!-- Node1&#45;&gt;Node4 -->
<g id="edge10_Node000001_Node000004" class="edge">
<title>Node1&#45;&gt;Node4</title>
<g id="a_edge10_Node000001_Node000004"><a xlink:title=" ">
<path fill="none" stroke="#63b8ff" d="M545.25,-80.64C523.32,-70.41 498.72,-58.94 477.66,-49.12"/>
<polygon fill="none" stroke="#63b8ff" points="543.93,-83.88 554.47,-84.94 546.88,-77.54 543.93,-83.88"/>
</a>
</g>
</g>
<!-- Node5 -->
<g id="Node000005" class="node">
<title>Node5</title>
<g id="a_Node000005"><a xlink:href="$classgame_1_1logic_1_1tilespawner_1_1OPiece.html" xlink:title=" ">
<polygon fill="white" stroke="transparent" points="685.5,-49 524.5,-49 524.5,0 685.5,0 685.5,-49"/>
<text text-anchor="start" x="530" y="-36.5" font-family="Helvetica,sans-Serif" font-size="10.00">game.logic.tilespawner.OPiece</text>
<text text-anchor="start" x="603.5" y="-21.5" font-family="Helvetica,sans-Serif" font-size="10.00"> </text>
<text text-anchor="start" x="554" y="-6.5" font-family="Helvetica,sans-Serif" font-size="10.00">+</text>
<text text-anchor="start" x="592" y="-6.5" font-family="Helvetica,sans-Serif" font-size="10.00">Spawn()</text>
<polygon fill="#666666" stroke="#666666" points="525,-31.5 525,-31.5 686,-31.5 686,-31.5 525,-31.5"/>
<polygon fill="#666666" stroke="#666666" points="525,-16.5 525,-16.5 686,-16.5 686,-16.5 525,-16.5"/>
<polygon fill="none" stroke="#666666" points="524.5,0 524.5,-49 685.5,-49 685.5,0 524.5,0"/>
</a>
</g>
</g>
<!-- Node1&#45;&gt;Node5 -->
<g id="edge11_Node000001_Node000005" class="edge">
<title>Node1&#45;&gt;Node5</title>
<g id="a_edge11_Node000001_Node000005"><a xlink:title=" ">
<path fill="none" stroke="#63b8ff" d="M605,-74.77C605,-66.17 605,-57.1 605,-49.12"/>
<polygon fill="none" stroke="#63b8ff" points="601.5,-74.94 605,-84.94 608.5,-74.94 601.5,-74.94"/>
</a>
</g>
</g>
<!-- Node6 -->
<g id="Node000006" class="node">
<title>Node6</title>
<g id="a_Node000006"><a xlink:href="$classgame_1_1logic_1_1tilespawner_1_1SPiece.html" xlink:title=" ">
<polygon fill="white" stroke="transparent" points="862.5,-49 703.5,-49 703.5,0 862.5,0 862.5,-49"/>
<text text-anchor="start" x="709" y="-36.5" font-family="Helvetica,sans-Serif" font-size="10.00">game.logic.tilespawner.SPiece</text>
<text text-anchor="start" x="781.5" y="-21.5" font-family="Helvetica,sans-Serif" font-size="10.00"> </text>
<text text-anchor="start" x="732.5" y="-6.5" font-family="Helvetica,sans-Serif" font-size="10.00">+</text>
<text text-anchor="start" x="770" y="-6.5" font-family="Helvetica,sans-Serif" font-size="10.00">Spawn()</text>
<polygon fill="#666666" stroke="#666666" points="704,-31.5 704,-31.5 863,-31.5 863,-31.5 704,-31.5"/>
<polygon fill="#666666" stroke="#666666" points="704,-16.5 704,-16.5 863,-16.5 863,-16.5 704,-16.5"/>
<polygon fill="none" stroke="#666666" points="703.5,0 703.5,-49 862.5,-49 862.5,0 703.5,0"/>
</a>
</g>
</g>
<!-- Node1&#45;&gt;Node6 -->
<g id="edge12_Node000001_Node000006" class="edge">
<title>Node1&#45;&gt;Node6</title>
<g id="a_edge12_Node000001_Node000006"><a xlink:title=" ">
<path fill="none" stroke="#63b8ff" d="M664.75,-80.64C686.68,-70.41 711.28,-58.94 732.34,-49.12"/>
<polygon fill="none" stroke="#63b8ff" points="663.12,-77.54 655.53,-84.94 666.07,-83.88 663.12,-77.54"/>
</a>
</g>
</g>
<!-- Node7 -->
<g id="Node000007" class="node">
<title>Node7</title>
<g id="a_Node000007"><a xlink:href="$classgame_1_1logic_1_1tilespawner_1_1TPiece.html" xlink:title=" ">
<polygon fill="white" stroke="transparent" points="1039.5,-49 880.5,-49 880.5,0 1039.5,0 1039.5,-49"/>
<text text-anchor="start" x="886" y="-36.5" font-family="Helvetica,sans-Serif" font-size="10.00">game.logic.tilespawner.TPiece</text>
<text text-anchor="start" x="958.5" y="-21.5" font-family="Helvetica,sans-Serif" font-size="10.00"> </text>
<text text-anchor="start" x="909.5" y="-6.5" font-family="Helvetica,sans-Serif" font-size="10.00">+</text>
<text text-anchor="start" x="947" y="-6.5" font-family="Helvetica,sans-Serif" font-size="10.00">Spawn()</text>
<polygon fill="#666666" stroke="#666666" points="881,-31.5 881,-31.5 1040,-31.5 1040,-31.5 881,-31.5"/>
<polygon fill="#666666" stroke="#666666" points="881,-16.5 881,-16.5 1040,-16.5 1040,-16.5 881,-16.5"/>
<polygon fill="none" stroke="#666666" points="880.5,0 880.5,-49 1039.5,-49 1039.5,0 880.5,0"/>
</a>
</g>
</g>
<!-- Node1&#45;&gt;Node7 -->
<g id="edge13_Node000001_Node000007" class="edge">
<title>Node1&#45;&gt;Node7</title>
<g id="a_edge13_Node000001_Node000007"><a xlink:title=" ">
<path fill="none" stroke="#63b8ff" d="M706.5,-86.92C756.46,-76.04 817.51,-62.34 872,-49 874.76,-48.32 877.58,-47.63 880.41,-46.91"/>
<polygon fill="none" stroke="#63b8ff" points="705.69,-83.52 696.66,-89.06 707.18,-90.36 705.69,-83.52"/>
</a>
</g>
</g>
<!-- Node8 -->
<g id="Node000008" class="node">
<title>Node8</title>
<g id="a_Node000008"><a xlink:href="$classgame_1_1logic_1_1tilespawner_1_1ZPiece.html" xlink:title=" ">
<polygon fill="white" stroke="transparent" points="1218,-49 1058,-49 1058,0 1218,0 1218,-49"/>
<text text-anchor="start" x="1063" y="-36.5" font-family="Helvetica,sans-Serif" font-size="10.00">game.logic.tilespawner.ZPiece</text>
<text text-anchor="start" x="1136" y="-21.5" font-family="Helvetica,sans-Serif" font-size="10.00"> </text>
<text text-anchor="start" x="1086.5" y="-6.5" font-family="Helvetica,sans-Serif" font-size="10.00">+</text>
<text text-anchor="start" x="1124" y="-6.5" font-family="Helvetica,sans-Serif" font-size="10.00">Spawn()</text>
<polygon fill="#666666" stroke="#666666" points="1058,-31.5 1058,-31.5 1218,-31.5 1218,-31.5 1058,-31.5"/>
<polygon fill="#666666" stroke="#666666" points="1058,-16.5 1058,-16.5 1218,-16.5 1218,-16.5 1058,-16.5"/>
<polygon fill="none" stroke="#666666" points="1058,0 1058,-49 1218,-49 1218,0 1058,0"/>
</a>
</g>
</g>
<!-- Node1&#45;&gt;Node8 -->
<g id="edge14_Node000001_Node000008" class="edge">
<title>Node1&#45;&gt;Node8</title>
<g id="a_edge14_Node000001_Node000008"><a xlink:title=" ">
<path fill="none" stroke="#63b8ff" d="M706.51,-98.55C796.89,-88.82 932.45,-72.1 1049,-49 1051.82,-48.44 1054.69,-47.84 1057.57,-47.22"/>
<polygon fill="none" stroke="#63b8ff" points="706.11,-95.07 696.54,-99.61 706.85,-102.03 706.11,-95.07"/>
</a>
</g>
</g>
</g>
</svg>
