<?xml version="1.0" encoding="UTF-8" standalone="no"?>
<!DOCTYPE svg PUBLIC "-//W3C//DTD SVG 1.1//EN"
 "http://www.w3.org/Graphics/SVG/1.1/DTD/svg11.dtd">
<!-- Generated by graphviz version 2.43.0 (0)
 -->
<!-- Title: gamerunner.IUpdatable Pages: 1 -->
<svg width="596pt" height="258pt"
 viewBox="0.00 0.00 596.00 258.00" xmlns="http://www.w3.org/2000/svg" xmlns:xlink="http://www.w3.org/1999/xlink">
<g id="graph0" class="graph" transform="scale(1 1) rotate(0) translate(4 254)">
<title>gamerunner.IUpdatable</title>
<!-- Node1 -->
<g id="Node000001" class="node">
<title>Node1</title>
<g id="a_Node000001"><a xlink:title=" ">
<polygon fill="#999999" stroke="transparent" points="335.5,-250 210.5,-250 210.5,-201 335.5,-201 335.5,-250"/>
<text text-anchor="start" x="216" y="-237.5" font-family="Helvetica,sans-Serif" font-size="10.00">gamerunner.IUpdatable</text>
<text text-anchor="start" x="271.5" y="-222.5" font-family="Helvetica,sans-Serif" font-size="10.00"> </text>
<text text-anchor="start" x="230" y="-207.5" font-family="Helvetica,sans-Serif" font-size="10.00">+</text>
<text text-anchor="start" x="258" y="-207.5" font-family="Helvetica,sans-Serif" font-size="10.00">Update()</text>
<polygon fill="#666666" stroke="#666666" points="211,-232.5 211,-232.5 336,-232.5 336,-232.5 211,-232.5"/>
<polygon fill="#666666" stroke="#666666" points="211,-217.5 211,-217.5 336,-217.5 336,-217.5 211,-217.5"/>
<polygon fill="none" stroke="#666666" points="210.5,-201 210.5,-250 335.5,-250 335.5,-201 210.5,-201"/>
</a>
</g>
</g>
<!-- Node2 -->
<g id="Node000002" class="node">
<title>Node2</title>
<g id="a_Node000002"><a xlink:href="$classGameRunner.html" xlink:title=" ">
<polygon fill="white" stroke="transparent" points="102,-137 0,-137 0,-28 102,-28 102,-137"/>
<text text-anchor="start" x="19" y="-124.5" font-family="Helvetica,sans-Serif" font-size="10.00">GameRunner</text>
<text text-anchor="start" x="4" y="-109.5" font-family="Helvetica,sans-Serif" font-size="10.00">+</text>
<text text-anchor="start" x="17" y="-109.5" font-family="Helvetica,sans-Serif" font-size="10.00">CreateTileShape</text>
<text text-anchor="start" x="6.5" y="-94.5" font-family="Helvetica,sans-Serif" font-size="10.00">&#45;</text>
<text text-anchor="start" x="17" y="-94.5" font-family="Helvetica,sans-Serif" font-size="10.00">_serviceLocator</text>
<text text-anchor="start" x="6.5" y="-79.5" font-family="Helvetica,sans-Serif" font-size="10.00">&#45;</text>
<text text-anchor="start" x="17" y="-79.5" font-family="Helvetica,sans-Serif" font-size="10.00">_gravitySum</text>
<text text-anchor="start" x="6.5" y="-64.5" font-family="Helvetica,sans-Serif" font-size="10.00">&#45;</text>
<text text-anchor="start" x="17" y="-64.5" font-family="Helvetica,sans-Serif" font-size="10.00">frames</text>
<text text-anchor="start" x="4" y="-49.5" font-family="Helvetica,sans-Serif" font-size="10.00">+</text>
<text text-anchor="start" x="17" y="-49.5" font-family="Helvetica,sans-Serif" font-size="10.00">GameRunner()</text>
<text text-anchor="start" x="4" y="-34.5" font-family="Helvetica,sans-Serif" font-size="10.00">+</text>
<text text-anchor="start" x="17" y="-34.5" font-family="Helvetica,sans-Serif" font-size="10.00">Update()</text>
<polygon fill="#666666" stroke="#666666" points="0,-119.5 0,-119.5 102,-119.5 102,-119.5 0,-119.5"/>
<polygon fill="#666666" stroke="#666666" points="0,-59.5 0,-59.5 15,-59.5 15,-59.5 0,-59.5"/>
<polygon fill="#666666" stroke="#666666" points="15,-59.5 15,-59.5 102,-59.5 102,-59.5 15,-59.5"/>
<polygon fill="none" stroke="#666666" points="0,-28 0,-137 102,-137 102,-28 0,-28"/>
</a>
</g>
</g>
<!-- Node1&#45;&gt;Node2 -->
<g id="edge5_Node000001_Node000002" class="edge">
<title>Node1&#45;&gt;Node2</title>
<g id="a_edge5_Node000001_Node000002"><a xlink:title=" ">
<path fill="none" stroke="#63b8ff" d="M200.43,-207.73C170.73,-198.46 137.26,-184.72 111,-165 100.74,-157.3 91.46,-147.36 83.42,-137.09"/>
<polygon fill="none" stroke="#63b8ff" points="199.75,-211.18 210.33,-210.7 201.76,-204.47 199.75,-211.18"/>
</a>
</g>
</g>
<!-- Node3 -->
<g id="Node000003" class="node">
<title>Node3</title>
<g id="a_Node000003"><a xlink:href="$classgame_1_1logic_1_1GravityService.html" xlink:title=" ">
<polygon fill="white" stroke="transparent" points="260,-122 120,-122 120,-43 260,-43 260,-122"/>
<text text-anchor="start" x="125" y="-109.5" font-family="Helvetica,sans-Serif" font-size="10.00">game.logic.GravityService</text>
<text text-anchor="start" x="133" y="-94.5" font-family="Helvetica,sans-Serif" font-size="10.00">+</text>
<text text-anchor="start" x="155" y="-94.5" font-family="Helvetica,sans-Serif" font-size="10.00">CurrentGravity</text>
<text text-anchor="start" x="135.5" y="-79.5" font-family="Helvetica,sans-Serif" font-size="10.00">&#45;</text>
<text text-anchor="start" x="155" y="-79.5" font-family="Helvetica,sans-Serif" font-size="10.00">_gravityStrategy</text>
<text text-anchor="start" x="133" y="-64.5" font-family="Helvetica,sans-Serif" font-size="10.00">+</text>
<text text-anchor="start" x="155" y="-64.5" font-family="Helvetica,sans-Serif" font-size="10.00">GravityService()</text>
<text text-anchor="start" x="133" y="-49.5" font-family="Helvetica,sans-Serif" font-size="10.00">+</text>
<text text-anchor="start" x="155" y="-49.5" font-family="Helvetica,sans-Serif" font-size="10.00">Update()</text>
<polygon fill="#666666" stroke="#666666" points="120,-104.5 120,-104.5 260,-104.5 260,-104.5 120,-104.5"/>
<polygon fill="#666666" stroke="#666666" points="120,-74.5 120,-74.5 153,-74.5 153,-74.5 120,-74.5"/>
<polygon fill="#666666" stroke="#666666" points="153,-74.5 153,-74.5 260,-74.5 260,-74.5 153,-74.5"/>
<polygon fill="none" stroke="#666666" points="120,-43 120,-122 260,-122 260,-43 120,-43"/>
</a>
</g>
</g>
<!-- Node1&#45;&gt;Node3 -->
<g id="edge6_Node000001_Node000003" class="edge">
<title>Node1&#45;&gt;Node3</title>
<g id="a_edge6_Node000001_Node000003"><a xlink:title=" ">
<path fill="none" stroke="#63b8ff" d="M253.93,-192.1C241.66,-171.25 225.65,-144.06 212.72,-122.09"/>
<polygon fill="none" stroke="#63b8ff" points="251.02,-194.06 259.11,-200.9 257.05,-190.51 251.02,-194.06"/>
</a>
</g>
</g>
<!-- Node4 -->
<g id="Node000004" class="node">
<title>Node4</title>
<g id="a_Node000004"><a xlink:href="$classgame_1_1logic_1_1TimeBasedGravityStrategy.html" xlink:title=" ">
<polygon fill="white" stroke="transparent" points="436,-150 278,-150 278,-15 436,-15 436,-150"/>
<text text-anchor="start" x="283" y="-137.5" font-family="Helvetica,sans-Serif" font-size="10.00">game.logic.TimeBasedGravity</text>
<text text-anchor="start" x="336" y="-126.5" font-family="Helvetica,sans-Serif" font-size="10.00">Strategy</text>
<text text-anchor="start" x="283" y="-111.5" font-family="Helvetica,sans-Serif" font-size="10.00">+</text>
<text text-anchor="start" x="297" y="-111.5" font-family="Helvetica,sans-Serif" font-size="10.00">CurrentGravity</text>
<text text-anchor="start" x="283" y="-96.5" font-family="Helvetica,sans-Serif" font-size="10.00">+</text>
<text text-anchor="start" x="297" y="-96.5" font-family="Helvetica,sans-Serif" font-size="10.00">Gravity</text>
<text text-anchor="start" x="285.5" y="-81.5" font-family="Helvetica,sans-Serif" font-size="10.00">&#45;</text>
<text text-anchor="start" x="297" y="-81.5" font-family="Helvetica,sans-Serif" font-size="10.00">_gravityBase</text>
<text text-anchor="start" x="285.5" y="-66.5" font-family="Helvetica,sans-Serif" font-size="10.00">&#45;</text>
<text text-anchor="start" x="297" y="-66.5" font-family="Helvetica,sans-Serif" font-size="10.00">_gravityScale</text>
<text text-anchor="start" x="285.5" y="-51.5" font-family="Helvetica,sans-Serif" font-size="10.00">&#45;</text>
<text text-anchor="start" x="297" y="-51.5" font-family="Helvetica,sans-Serif" font-size="10.00">_gravityIncreasePerSecond</text>
<text text-anchor="start" x="283" y="-36.5" font-family="Helvetica,sans-Serif" font-size="10.00">+</text>
<text text-anchor="start" x="297" y="-36.5" font-family="Helvetica,sans-Serif" font-size="10.00">Update()</text>
<text text-anchor="start" x="283" y="-21.5" font-family="Helvetica,sans-Serif" font-size="10.00">+</text>
<text text-anchor="start" x="297" y="-21.5" font-family="Helvetica,sans-Serif" font-size="10.00">setGravityScale()</text>
<polygon fill="#666666" stroke="#666666" points="278,-121.5 278,-121.5 436,-121.5 436,-121.5 278,-121.5"/>
<polygon fill="#666666" stroke="#666666" points="278,-46.5 278,-46.5 295,-46.5 295,-46.5 278,-46.5"/>
<polygon fill="#666666" stroke="#666666" points="295,-46.5 295,-46.5 436,-46.5 436,-46.5 295,-46.5"/>
<polygon fill="none" stroke="#666666" points="278,-15 278,-150 436,-150 436,-15 278,-15"/>
</a>
</g>
</g>
<!-- Node1&#45;&gt;Node4 -->
<g id="edge7_Node000001_Node000004" class="edge">
<title>Node1&#45;&gt;Node4</title>
<g id="a_edge7_Node000001_Node000004"><a xlink:title=" ">
<path fill="none" stroke="#63b8ff" d="M292.25,-192.19C299.73,-179.63 308.6,-164.74 317.34,-150.08"/>
<polygon fill="none" stroke="#63b8ff" points="289.17,-190.52 287.06,-200.9 295.18,-194.1 289.17,-190.52"/>
</a>
</g>
</g>
<!-- Node5 -->
<g id="Node000005" class="node">
<title>Node5</title>
<g id="a_Node000005"><a xlink:href="$classgame_1_1logic_1_1playfield_1_1PlayFieldViewModel.html" xlink:title=" ">
<polygon fill="white" stroke="transparent" points="588,-165 454,-165 454,0 588,0 588,-165"/>
<text text-anchor="start" x="459" y="-152.5" font-family="Helvetica,sans-Serif" font-size="10.00">game.logic.playfield.Play</text>
<text text-anchor="start" x="482" y="-141.5" font-family="Helvetica,sans-Serif" font-size="10.00">FieldViewModel</text>
<text text-anchor="start" x="459.5" y="-126.5" font-family="Helvetica,sans-Serif" font-size="10.00">+</text>
<text text-anchor="start" x="474" y="-126.5" font-family="Helvetica,sans-Serif" font-size="10.00">Width</text>
<text text-anchor="start" x="459.5" y="-111.5" font-family="Helvetica,sans-Serif" font-size="10.00">+</text>
<text text-anchor="start" x="474" y="-111.5" font-family="Helvetica,sans-Serif" font-size="10.00">Height</text>
<text text-anchor="start" x="459.5" y="-96.5" font-family="Helvetica,sans-Serif" font-size="10.00">+</text>
<text text-anchor="start" x="474" y="-96.5" font-family="Helvetica,sans-Serif" font-size="10.00">Tiles</text>
<text text-anchor="start" x="462" y="-81.5" font-family="Helvetica,sans-Serif" font-size="10.00">&#45;</text>
<text text-anchor="start" x="474" y="-81.5" font-family="Helvetica,sans-Serif" font-size="10.00">_playField</text>
<text text-anchor="start" x="462" y="-66.5" font-family="Helvetica,sans-Serif" font-size="10.00">&#45;</text>
<text text-anchor="start" x="474" y="-66.5" font-family="Helvetica,sans-Serif" font-size="10.00">_serviceLocator</text>
<text text-anchor="start" x="459.5" y="-51.5" font-family="Helvetica,sans-Serif" font-size="10.00">+</text>
<text text-anchor="start" x="474" y="-51.5" font-family="Helvetica,sans-Serif" font-size="10.00">PlayFieldViewModel()</text>
<text text-anchor="start" x="459.5" y="-36.5" font-family="Helvetica,sans-Serif" font-size="10.00">+</text>
<text text-anchor="start" x="474" y="-36.5" font-family="Helvetica,sans-Serif" font-size="10.00">GetTile()</text>
<text text-anchor="start" x="459.5" y="-21.5" font-family="Helvetica,sans-Serif" font-size="10.00">+</text>
<text text-anchor="start" x="474" y="-21.5" font-family="Helvetica,sans-Serif" font-size="10.00">PlaceTile()</text>
<text text-anchor="start" x="459.5" y="-6.5" font-family="Helvetica,sans-Serif" font-size="10.00">+</text>
<text text-anchor="start" x="474" y="-6.5" font-family="Helvetica,sans-Serif" font-size="10.00">Update()</text>
<polygon fill="#666666" stroke="#666666" points="454,-136.5 454,-136.5 588,-136.5 588,-136.5 454,-136.5"/>
<polygon fill="#666666" stroke="#666666" points="454,-61.5 454,-61.5 472,-61.5 472,-61.5 454,-61.5"/>
<polygon fill="#666666" stroke="#666666" points="472,-61.5 472,-61.5 588,-61.5 588,-61.5 472,-61.5"/>
<polygon fill="none" stroke="#666666" points="454,0 454,-165 588,-165 588,0 454,0"/>
</a>
</g>
</g>
<!-- Node1&#45;&gt;Node5 -->
<g id="edge8_Node000001_Node000005" class="edge">
<title>Node1&#45;&gt;Node5</title>
<g id="a_edge8_Node000001_Node000005"><a xlink:title=" ">
<path fill="none" stroke="#63b8ff" d="M345.41,-207.95C377.57,-198.52 414.87,-184.59 445,-165 447.92,-163.1 450.8,-161.07 453.64,-158.92"/>
<polygon fill="none" stroke="#63b8ff" points="344.27,-204.64 335.6,-210.73 346.18,-211.37 344.27,-204.64"/>
</a>
</g>
</g>
</g>
</svg>
