<?xml version="1.0" encoding="UTF-8" standalone="no"?>
<!DOCTYPE svg PUBLIC "-//W3C//DTD SVG 1.1//EN"
 "http://www.w3.org/Graphics/SVG/1.1/DTD/svg11.dtd">
<!-- Generated by graphviz version 2.43.0 (0)
 -->
<!-- Title: game.logic.IGravityStrategy Pages: 1 -->
<svg width="344pt" height="258pt"
 viewBox="0.00 0.00 344.00 258.00" xmlns="http://www.w3.org/2000/svg" xmlns:xlink="http://www.w3.org/1999/xlink">
<g id="graph0" class="graph" transform="scale(1 1) rotate(0) translate(4 254)">
<title>game.logic.IGravityStrategy</title>
<!-- Node1 -->
<g id="Node000001" class="node">
<title>Node1</title>
<g id="a_Node000001"><a xlink:title=" ">
<polygon fill="#999999" stroke="transparent" points="242,-250 94,-250 94,-186 242,-186 242,-250"/>
<text text-anchor="start" x="99" y="-238" font-family="Helvetica,sans-Serif" font-size="10.00">game.logic.IGravityStrategy</text>
<text text-anchor="start" x="111.5" y="-223" font-family="Helvetica,sans-Serif" font-size="10.00">+</text>
<text text-anchor="start" x="138" y="-223" font-family="Helvetica,sans-Serif" font-size="10.00">CurrentGravity</text>
<text text-anchor="start" x="111.5" y="-208" font-family="Helvetica,sans-Serif" font-size="10.00">+</text>
<text text-anchor="start" x="138" y="-208" font-family="Helvetica,sans-Serif" font-size="10.00">Gravity</text>
<text text-anchor="start" x="166" y="-193" font-family="Helvetica,sans-Serif" font-size="10.00"> </text>
<polygon fill="#666666" stroke="#666666" points="94,-233 94,-233 242,-233 242,-233 94,-233"/>
<polygon fill="#666666" stroke="#666666" points="94,-203 94,-203 136,-203 136,-203 94,-203"/>
<polygon fill="#666666" stroke="#666666" points="136,-203 136,-203 242,-203 242,-203 136,-203"/>
<polygon fill="none" stroke="#666666" points="94,-186 94,-250 242,-250 242,-186 94,-186"/>
</a>
</g>
</g>
<!-- Node2 -->
<g id="Node000002" class="node">
<title>Node2</title>
<g id="a_Node000002"><a xlink:href="$classgame_1_1logic_1_1LevelBasedGravityStrategy.html" xlink:title=" ">
<polygon fill="white" stroke="transparent" points="160,-150 0,-150 0,0 160,0 160,-150"/>
<text text-anchor="start" x="5" y="-138" font-family="Helvetica,sans-Serif" font-size="10.00">game.logic.LevelBasedGravity</text>
<text text-anchor="start" x="59" y="-127" font-family="Helvetica,sans-Serif" font-size="10.00">Strategy</text>
<text text-anchor="start" x="8.5" y="-112" font-family="Helvetica,sans-Serif" font-size="10.00">+</text>
<text text-anchor="start" x="26" y="-112" font-family="Helvetica,sans-Serif" font-size="10.00">CurrentGravity</text>
<text text-anchor="start" x="8.5" y="-97" font-family="Helvetica,sans-Serif" font-size="10.00">+</text>
<text text-anchor="start" x="26" y="-97" font-family="Helvetica,sans-Serif" font-size="10.00">Gravity</text>
<text text-anchor="start" x="11" y="-82" font-family="Helvetica,sans-Serif" font-size="10.00">&#45;</text>
<text text-anchor="start" x="26" y="-82" font-family="Helvetica,sans-Serif" font-size="10.00">_gravityBase</text>
<text text-anchor="start" x="11" y="-67" font-family="Helvetica,sans-Serif" font-size="10.00">&#45;</text>
<text text-anchor="start" x="26" y="-67" font-family="Helvetica,sans-Serif" font-size="10.00">_level</text>
<text text-anchor="start" x="11" y="-52" font-family="Helvetica,sans-Serif" font-size="10.00">&#45;</text>
<text text-anchor="start" x="26" y="-52" font-family="Helvetica,sans-Serif" font-size="10.00">GravityIncreasePerLevel</text>
<text text-anchor="start" x="8.5" y="-37" font-family="Helvetica,sans-Serif" font-size="10.00">+</text>
<text text-anchor="start" x="26" y="-37" font-family="Helvetica,sans-Serif" font-size="10.00">SetLevel()</text>
<text text-anchor="start" x="8.5" y="-22" font-family="Helvetica,sans-Serif" font-size="10.00">+</text>
<text text-anchor="start" x="26" y="-22" font-family="Helvetica,sans-Serif" font-size="10.00">LevelUp()</text>
<text text-anchor="start" x="8.5" y="-7" font-family="Helvetica,sans-Serif" font-size="10.00">+</text>
<text text-anchor="start" x="26" y="-7" font-family="Helvetica,sans-Serif" font-size="10.00">ResetLevel()</text>
<polygon fill="#666666" stroke="#666666" points="0,-122 0,-122 160,-122 160,-122 0,-122"/>
<polygon fill="#666666" stroke="#666666" points="0,-47 0,-47 24,-47 24,-47 0,-47"/>
<polygon fill="#666666" stroke="#666666" points="24,-47 24,-47 160,-47 160,-47 24,-47"/>
<polygon fill="none" stroke="#666666" points="0,0 0,-150 160,-150 160,0 0,0"/>
</a>
</g>
</g>
<!-- Node1&#45;&gt;Node2 -->
<g id="edge3_Node000001_Node000002" class="edge">
<title>Node1&#45;&gt;Node2</title>
<g id="a_edge3_Node000001_Node000002"><a xlink:title=" ">
<path fill="none" stroke="#63b8ff" d="M143.14,-177.17C137.85,-168.69 132.1,-159.48 126.3,-150.18"/>
<polygon fill="none" stroke="#63b8ff" points="140.21,-179.08 148.47,-185.71 146.14,-175.37 140.21,-179.08"/>
</a>
</g>
</g>
<!-- Node3 -->
<g id="Node000003" class="node">
<title>Node3</title>
<g id="a_Node000003"><a xlink:href="$classgame_1_1logic_1_1TimeBasedGravityStrategy.html" xlink:title=" ">
<polygon fill="white" stroke="transparent" points="336,-142.5 178,-142.5 178,-7.5 336,-7.5 336,-142.5"/>
<text text-anchor="start" x="183" y="-130" font-family="Helvetica,sans-Serif" font-size="10.00">game.logic.TimeBasedGravity</text>
<text text-anchor="start" x="236" y="-119" font-family="Helvetica,sans-Serif" font-size="10.00">Strategy</text>
<text text-anchor="start" x="183" y="-104" font-family="Helvetica,sans-Serif" font-size="10.00">+</text>
<text text-anchor="start" x="197" y="-104" font-family="Helvetica,sans-Serif" font-size="10.00">CurrentGravity</text>
<text text-anchor="start" x="183" y="-89" font-family="Helvetica,sans-Serif" font-size="10.00">+</text>
<text text-anchor="start" x="197" y="-89" font-family="Helvetica,sans-Serif" font-size="10.00">Gravity</text>
<text text-anchor="start" x="185.5" y="-74" font-family="Helvetica,sans-Serif" font-size="10.00">&#45;</text>
<text text-anchor="start" x="197" y="-74" font-family="Helvetica,sans-Serif" font-size="10.00">_gravityBase</text>
<text text-anchor="start" x="185.5" y="-59" font-family="Helvetica,sans-Serif" font-size="10.00">&#45;</text>
<text text-anchor="start" x="197" y="-59" font-family="Helvetica,sans-Serif" font-size="10.00">_gravityScale</text>
<text text-anchor="start" x="185.5" y="-44" font-family="Helvetica,sans-Serif" font-size="10.00">&#45;</text>
<text text-anchor="start" x="197" y="-44" font-family="Helvetica,sans-Serif" font-size="10.00">_gravityIncreasePerSecond</text>
<text text-anchor="start" x="183" y="-29" font-family="Helvetica,sans-Serif" font-size="10.00">+</text>
<text text-anchor="start" x="197" y="-29" font-family="Helvetica,sans-Serif" font-size="10.00">Update()</text>
<text text-anchor="start" x="183" y="-14" font-family="Helvetica,sans-Serif" font-size="10.00">+</text>
<text text-anchor="start" x="197" y="-14" font-family="Helvetica,sans-Serif" font-size="10.00">setGravityScale()</text>
<polygon fill="#666666" stroke="#666666" points="178,-114 178,-114 336,-114 336,-114 178,-114"/>
<polygon fill="#666666" stroke="#666666" points="178,-39 178,-39 195,-39 195,-39 178,-39"/>
<polygon fill="#666666" stroke="#666666" points="195,-39 195,-39 336,-39 336,-39 195,-39"/>
<polygon fill="none" stroke="#666666" points="178,-7.5 178,-142.5 336,-142.5 336,-7.5 178,-7.5"/>
</a>
</g>
</g>
<!-- Node1&#45;&gt;Node3 -->
<g id="edge4_Node000001_Node000003" class="edge">
<title>Node1&#45;&gt;Node3</title>
<g id="a_edge4_Node000001_Node000003"><a xlink:title=" ">
<path fill="none" stroke="#63b8ff" d="M193.24,-177.02C199.99,-166.31 207.49,-154.44 214.89,-142.72"/>
<polygon fill="none" stroke="#63b8ff" points="190.13,-175.38 187.75,-185.71 196.05,-179.12 190.13,-175.38"/>
</a>
</g>
</g>
</g>
</svg>
