<?xml version="1.0" encoding="UTF-8" standalone="no"?>
<!DOCTYPE svg PUBLIC "-//W3C//DTD SVG 1.1//EN"
 "http://www.w3.org/Graphics/SVG/1.1/DTD/svg11.dtd">
<!-- Generated by graphviz version 2.43.0 (0)
 -->
<!-- Title: game.logic.GravityService Pages: 1 -->
<svg width="184pt" height="257pt"
 viewBox="0.00 0.00 184.00 257.00" xmlns="http://www.w3.org/2000/svg" xmlns:xlink="http://www.w3.org/1999/xlink">
<g id="graph0" class="graph" transform="scale(1 1) rotate(0) translate(4 253)">
<title>game.logic.GravityService</title>
<!-- Node1 -->
<g id="Node000001" class="node">
<title>Node1</title>
<g id="a_Node000001"><a xlink:title=" ">
<polygon fill="#999999" stroke="transparent" points="150,-79 10,-79 10,0 150,0 150,-79"/>
<text text-anchor="start" x="15" y="-66.5" font-family="Helvetica,sans-Serif" font-size="10.00">game.logic.GravityService</text>
<text text-anchor="start" x="23" y="-51.5" font-family="Helvetica,sans-Serif" font-size="10.00">+</text>
<text text-anchor="start" x="45" y="-51.5" font-family="Helvetica,sans-Serif" font-size="10.00">CurrentGravity</text>
<text text-anchor="start" x="25.5" y="-36.5" font-family="Helvetica,sans-Serif" font-size="10.00">&#45;</text>
<text text-anchor="start" x="45" y="-36.5" font-family="Helvetica,sans-Serif" font-size="10.00">_gravityStrategy</text>
<text text-anchor="start" x="23" y="-21.5" font-family="Helvetica,sans-Serif" font-size="10.00">+</text>
<text text-anchor="start" x="45" y="-21.5" font-family="Helvetica,sans-Serif" font-size="10.00">GravityService()</text>
<text text-anchor="start" x="23" y="-6.5" font-family="Helvetica,sans-Serif" font-size="10.00">+</text>
<text text-anchor="start" x="45" y="-6.5" font-family="Helvetica,sans-Serif" font-size="10.00">Update()</text>
<polygon fill="#666666" stroke="#666666" points="10,-61.5 10,-61.5 150,-61.5 150,-61.5 10,-61.5"/>
<polygon fill="#666666" stroke="#666666" points="10,-31.5 10,-31.5 43,-31.5 43,-31.5 10,-31.5"/>
<polygon fill="#666666" stroke="#666666" points="43,-31.5 43,-31.5 150,-31.5 150,-31.5 43,-31.5"/>
<polygon fill="none" stroke="#666666" points="10,0 10,-79 150,-79 150,0 10,0"/>
</a>
</g>
</g>
<!-- Node2 -->
<g id="Node000002" class="node">
<title>Node2</title>
<g id="a_Node000002"><a xlink:href="interfacegamerunner_1_1IUpdatable.html" target="_top" xlink:title=" ">
<polygon fill="white" stroke="transparent" points="64,-164 0,-164 0,-115 64,-115 64,-164"/>
<text text-anchor="start" x="5" y="-151.5" font-family="Helvetica,sans-Serif" font-size="10.00">IUpdatable</text>
<text text-anchor="start" x="30" y="-136.5" font-family="Helvetica,sans-Serif" font-size="10.00"> </text>
<text text-anchor="start" x="4" y="-121.5" font-family="Helvetica,sans-Serif" font-size="10.00">+</text>
<text text-anchor="start" x="17" y="-121.5" font-family="Helvetica,sans-Serif" font-size="10.00">Update()</text>
<polygon fill="#666666" stroke="#666666" points="0,-146.5 0,-146.5 64,-146.5 64,-146.5 0,-146.5"/>
<polygon fill="#666666" stroke="#666666" points="0,-131.5 0,-131.5 64,-131.5 64,-131.5 0,-131.5"/>
<polygon fill="none" stroke="#666666" points="0,-115 0,-164 64,-164 64,-115 0,-115"/>
</a>
</g>
</g>
<!-- Node2&#45;&gt;Node1 -->
<g id="edge1_Node000001_Node000002" class="edge">
<title>Node2&#45;&gt;Node1</title>
<g id="a_edge1_Node000001_Node000002"><a xlink:title=" ">
<path fill="none" stroke="#63b8ff" d="M48.11,-105.61C52.24,-97.17 56.73,-88.01 61,-79.29"/>
<polygon fill="none" stroke="#63b8ff" points="44.87,-104.26 43.62,-114.78 51.16,-107.34 44.87,-104.26"/>
</a>
</g>
</g>
<!-- Node3 -->
<g id="Node000003" class="node">
<title>Node3</title>
<g id="a_Node000003"><a xlink:href="interfacegame_1_1logic_1_1IGravityService.html" target="_top" xlink:title=" ">
<polygon fill="white" stroke="transparent" points="176,-164 82,-164 82,-115 176,-115 176,-164"/>
<text text-anchor="start" x="91" y="-151.5" font-family="Helvetica,sans-Serif" font-size="10.00">IGravityService</text>
<text text-anchor="start" x="86" y="-136.5" font-family="Helvetica,sans-Serif" font-size="10.00">+</text>
<text text-anchor="start" x="99" y="-136.5" font-family="Helvetica,sans-Serif" font-size="10.00">CurrentGravity</text>
<text text-anchor="start" x="127" y="-121.5" font-family="Helvetica,sans-Serif" font-size="10.00"> </text>
<polygon fill="#666666" stroke="#666666" points="82,-146.5 82,-146.5 176,-146.5 176,-146.5 82,-146.5"/>
<polygon fill="#666666" stroke="#666666" points="82,-131.5 82,-131.5 97,-131.5 97,-131.5 82,-131.5"/>
<polygon fill="#666666" stroke="#666666" points="97,-131.5 97,-131.5 176,-131.5 176,-131.5 97,-131.5"/>
<polygon fill="none" stroke="#666666" points="82,-115 82,-164 176,-164 176,-115 82,-115"/>
</a>
</g>
</g>
<!-- Node3&#45;&gt;Node1 -->
<g id="edge2_Node000001_Node000003" class="edge">
<title>Node3&#45;&gt;Node1</title>
<g id="a_edge2_Node000001_Node000003"><a xlink:title=" ">
<path fill="none" stroke="#63b8ff" d="M112.56,-105.61C108.33,-97.17 103.75,-88.01 99.4,-79.29"/>
<polygon fill="none" stroke="#63b8ff" points="109.54,-107.4 117.14,-114.78 115.8,-104.27 109.54,-107.4"/>
</a>
</g>
</g>
<!-- Node4 -->
<g id="Node000004" class="node">
<title>Node4</title>
<g id="a_Node000004"><a xlink:href="interfacegame_1_1service_1_1IService.html" target="_top" xlink:title=" ">
<polygon fill="white" stroke="transparent" points="154,-249 104,-249 104,-200 154,-200 154,-249"/>
<text text-anchor="start" x="109" y="-236.5" font-family="Helvetica,sans-Serif" font-size="10.00">IService</text>
<text text-anchor="start" x="127" y="-221.5" font-family="Helvetica,sans-Serif" font-size="10.00"> </text>
<text text-anchor="start" x="127" y="-206.5" font-family="Helvetica,sans-Serif" font-size="10.00"> </text>
<polygon fill="#666666" stroke="#666666" points="104,-231.5 104,-231.5 154,-231.5 154,-231.5 104,-231.5"/>
<polygon fill="#666666" stroke="#666666" points="104,-216.5 104,-216.5 154,-216.5 154,-216.5 104,-216.5"/>
<polygon fill="none" stroke="#666666" points="104,-200 104,-249 154,-249 154,-200 104,-200"/>
</a>
</g>
</g>
<!-- Node4&#45;&gt;Node3 -->
<g id="edge3_Node000003_Node000004" class="edge">
<title>Node4&#45;&gt;Node3</title>
<g id="a_edge3_Node000003_Node000004"><a xlink:title=" ">
<path fill="none" stroke="#63b8ff" d="M129,-189.77C129,-181.17 129,-172.1 129,-164.12"/>
<polygon fill="none" stroke="#63b8ff" points="125.5,-189.94 129,-199.94 132.5,-189.94 125.5,-189.94"/>
</a>
</g>
</g>
</g>
</svg>
