<?xml version="1.0" encoding="UTF-8" standalone="no"?>
<!DOCTYPE svg PUBLIC "-//W3C//DTD SVG 1.1//EN"
 "http://www.w3.org/Graphics/SVG/1.1/DTD/svg11.dtd">
<!-- Generated by graphviz version 2.43.0 (0)
 -->
<!-- Title: game.logic.playfield.PlayFieldView Pages: 1 -->
<svg width="495pt" height="524pt"
 viewBox="0.00 0.00 494.50 524.00" xmlns="http://www.w3.org/2000/svg" xmlns:xlink="http://www.w3.org/1999/xlink">
<g id="graph0" class="graph" transform="scale(1 1) rotate(0) translate(4 520)">
<title>game.logic.playfield.PlayFieldView</title>
<!-- Node1 -->
<g id="Node000001" class="node">
<title>Node1</title>
<g id="a_Node000001"><a xlink:title=" ">
<polygon fill="#999999" stroke="transparent" points="201.5,-90 67.5,-90 67.5,0 201.5,0 201.5,-90"/>
<text text-anchor="start" x="72.5" y="-78" font-family="Helvetica,sans-Serif" font-size="10.00">game.logic.playfield.Play</text>
<text text-anchor="start" x="110.5" y="-67" font-family="Helvetica,sans-Serif" font-size="10.00">FieldView</text>
<text text-anchor="start" x="132.5" y="-52" font-family="Helvetica,sans-Serif" font-size="10.00"> </text>
<text text-anchor="start" x="89" y="-37" font-family="Helvetica,sans-Serif" font-size="10.00">+</text>
<text text-anchor="start" x="119.5" y="-37" font-family="Helvetica,sans-Serif" font-size="10.00">Link()</text>
<text text-anchor="start" x="91.5" y="-22" font-family="Helvetica,sans-Serif" font-size="10.00">&#45;</text>
<text text-anchor="start" x="119.5" y="-22" font-family="Helvetica,sans-Serif" font-size="10.00">Start()</text>
<text text-anchor="start" x="91.5" y="-7" font-family="Helvetica,sans-Serif" font-size="10.00">&#45;</text>
<text text-anchor="start" x="119.5" y="-7" font-family="Helvetica,sans-Serif" font-size="10.00">Update()</text>
<polygon fill="#666666" stroke="#666666" points="67.5,-62 67.5,-62 201.5,-62 201.5,-62 67.5,-62"/>
<polygon fill="#666666" stroke="#666666" points="67.5,-47 67.5,-47 201.5,-47 201.5,-47 67.5,-47"/>
<polygon fill="none" stroke="#666666" points="67.5,0 67.5,-90 201.5,-90 201.5,0 67.5,0"/>
</a>
</g>
</g>
<!-- Node2 -->
<g id="Node000002" class="node">
<title>Node2</title>
<g id="a_Node000002"><a xlink:href="classMonoBehaviour.html" target="_top" xlink:title=" ">
<polygon fill="white" stroke="transparent" points="87,-229 0,-229 0,-180 87,-180 87,-229"/>
<text text-anchor="start" x="5.5" y="-216.5" font-family="Helvetica,sans-Serif" font-size="10.00">MonoBehaviour</text>
<text text-anchor="start" x="42" y="-201.5" font-family="Helvetica,sans-Serif" font-size="10.00"> </text>
<text text-anchor="start" x="42" y="-186.5" font-family="Helvetica,sans-Serif" font-size="10.00"> </text>
<polygon fill="#666666" stroke="#666666" points="0.5,-211.5 0.5,-211.5 87.5,-211.5 87.5,-211.5 0.5,-211.5"/>
<polygon fill="#666666" stroke="#666666" points="0.5,-196.5 0.5,-196.5 87.5,-196.5 87.5,-196.5 0.5,-196.5"/>
<polygon fill="none" stroke="#666666" points="0,-180 0,-229 87,-229 87,-180 0,-180"/>
</a>
</g>
</g>
<!-- Node2&#45;&gt;Node1 -->
<g id="edge1_Node000001_Node000002" class="edge">
<title>Node2&#45;&gt;Node1</title>
<g id="a_edge1_Node000001_Node000002"><a xlink:title=" ">
<path fill="none" stroke="#63b8ff" d="M62.23,-171.08C75.76,-147.66 94.2,-115.76 109.06,-90.03"/>
<polygon fill="none" stroke="#63b8ff" points="59.1,-169.51 57.12,-179.92 65.16,-173.01 59.1,-169.51"/>
</a>
</g>
</g>
<!-- Node3 -->
<g id="Node000003" class="node">
<title>Node3</title>
<g id="a_Node000003"><a xlink:title=" ">
<polygon fill="white" stroke="transparent" points="164,-229 105,-229 105,-180 164,-180 164,-229"/>
<text text-anchor="start" x="110.5" y="-216.5" font-family="Helvetica,sans-Serif" font-size="10.00">Transform</text>
<text text-anchor="start" x="133" y="-201.5" font-family="Helvetica,sans-Serif" font-size="10.00"> </text>
<text text-anchor="start" x="133" y="-186.5" font-family="Helvetica,sans-Serif" font-size="10.00"> </text>
<polygon fill="#666666" stroke="#666666" points="105.5,-211.5 105.5,-211.5 164.5,-211.5 164.5,-211.5 105.5,-211.5"/>
<polygon fill="#666666" stroke="#666666" points="105.5,-196.5 105.5,-196.5 164.5,-196.5 164.5,-196.5 105.5,-196.5"/>
<polygon fill="none" stroke="#666666" points="105,-180 105,-229 164,-229 164,-180 105,-180"/>
</a>
</g>
</g>
<!-- Node3&#45;&gt;Node1 -->
<g id="edge2_Node000001_Node000003" class="edge">
<title>Node3&#45;&gt;Node1</title>
<g id="a_edge2_Node000001_Node000003"><a xlink:title=" ">
<path fill="none" stroke="#63b8ff" d="M134.5,-179.92C134.5,-159.47 134.5,-129.06 134.5,-102.37"/>
<polygon fill="none" stroke="#63b8ff" points="134.5,-102.03 130.5,-96.03 134.5,-90.03 138.5,-96.03 134.5,-102.03"/>
</a>
</g>
<text text-anchor="middle" x="166.5" y="-111" font-family="Helvetica,sans-Serif" font-size="10.00" fill="grey"> +TileAnchor</text>
</g>
<!-- Node4 -->
<g id="Node000004" class="node">
<title>Node4</title>
<g id="a_Node000004"><a xlink:href="classgame_1_1logic_1_1playfield_1_1PlayFieldViewModel.html" target="_top" xlink:title=" ">
<polygon fill="white" stroke="transparent" points="316.5,-272 182.5,-272 182.5,-137 316.5,-137 316.5,-272"/>
<text text-anchor="start" x="187.5" y="-259.5" font-family="Helvetica,sans-Serif" font-size="10.00">game.logic.playfield.Play</text>
<text text-anchor="start" x="210.5" y="-248.5" font-family="Helvetica,sans-Serif" font-size="10.00">FieldViewModel</text>
<text text-anchor="start" x="188" y="-233.5" font-family="Helvetica,sans-Serif" font-size="10.00">+</text>
<text text-anchor="start" x="202.5" y="-233.5" font-family="Helvetica,sans-Serif" font-size="10.00">Width</text>
<text text-anchor="start" x="188" y="-218.5" font-family="Helvetica,sans-Serif" font-size="10.00">+</text>
<text text-anchor="start" x="202.5" y="-218.5" font-family="Helvetica,sans-Serif" font-size="10.00">Height</text>
<text text-anchor="start" x="188" y="-203.5" font-family="Helvetica,sans-Serif" font-size="10.00">+</text>
<text text-anchor="start" x="202.5" y="-203.5" font-family="Helvetica,sans-Serif" font-size="10.00">Tiles</text>
<text text-anchor="start" x="188" y="-188.5" font-family="Helvetica,sans-Serif" font-size="10.00">+</text>
<text text-anchor="start" x="202.5" y="-188.5" font-family="Helvetica,sans-Serif" font-size="10.00">PlayFieldViewModel()</text>
<text text-anchor="start" x="188" y="-173.5" font-family="Helvetica,sans-Serif" font-size="10.00">+</text>
<text text-anchor="start" x="202.5" y="-173.5" font-family="Helvetica,sans-Serif" font-size="10.00">GetTile()</text>
<text text-anchor="start" x="188" y="-158.5" font-family="Helvetica,sans-Serif" font-size="10.00">+</text>
<text text-anchor="start" x="202.5" y="-158.5" font-family="Helvetica,sans-Serif" font-size="10.00">PlaceTile()</text>
<text text-anchor="start" x="188" y="-143.5" font-family="Helvetica,sans-Serif" font-size="10.00">+</text>
<text text-anchor="start" x="202.5" y="-143.5" font-family="Helvetica,sans-Serif" font-size="10.00">Update()</text>
<polygon fill="#666666" stroke="#666666" points="182.5,-243.5 182.5,-243.5 316.5,-243.5 316.5,-243.5 182.5,-243.5"/>
<polygon fill="#666666" stroke="#666666" points="182.5,-198.5 182.5,-198.5 200.5,-198.5 200.5,-198.5 182.5,-198.5"/>
<polygon fill="#666666" stroke="#666666" points="200.5,-198.5 200.5,-198.5 316.5,-198.5 316.5,-198.5 200.5,-198.5"/>
<polygon fill="none" stroke="#666666" points="182.5,-137 182.5,-272 316.5,-272 316.5,-137 182.5,-137"/>
</a>
</g>
</g>
<!-- Node4&#45;&gt;Node1 -->
<g id="edge3_Node000001_Node000004" class="edge">
<title>Node4&#45;&gt;Node1</title>
<g id="a_edge3_Node000001_Node000004"><a xlink:title=" ">
<path fill="none" stroke="#63b8ff" d="M220.75,-136.87C215.28,-126.82 209.16,-116.86 202.5,-108 200.27,-105.03 197.88,-102.09 195.39,-99.19"/>
<polygon fill="none" stroke="#63b8ff" points="195.2,-98.99 188.2,-97.26 187.1,-90.14 194.1,-91.86 195.2,-98.99"/>
</a>
</g>
<text text-anchor="middle" x="246" y="-111" font-family="Helvetica,sans-Serif" font-size="10.00" fill="grey"> &#45;_playFieldVM</text>
</g>
<!-- Node5 -->
<g id="Node000005" class="node">
<title>Node5</title>
<g id="a_Node000005"><a xlink:href="interfacegamerunner_1_1IUpdatable.html" target="_top" xlink:title=" ">
<polygon fill="white" stroke="transparent" points="164.5,-383 100.5,-383 100.5,-334 164.5,-334 164.5,-383"/>
<text text-anchor="start" x="105.5" y="-370.5" font-family="Helvetica,sans-Serif" font-size="10.00">IUpdatable</text>
<text text-anchor="start" x="130.5" y="-355.5" font-family="Helvetica,sans-Serif" font-size="10.00"> </text>
<text text-anchor="start" x="104.5" y="-340.5" font-family="Helvetica,sans-Serif" font-size="10.00">+</text>
<text text-anchor="start" x="117.5" y="-340.5" font-family="Helvetica,sans-Serif" font-size="10.00">Update()</text>
<polygon fill="#666666" stroke="#666666" points="100.5,-365.5 100.5,-365.5 164.5,-365.5 164.5,-365.5 100.5,-365.5"/>
<polygon fill="#666666" stroke="#666666" points="100.5,-350.5 100.5,-350.5 164.5,-350.5 164.5,-350.5 100.5,-350.5"/>
<polygon fill="none" stroke="#666666" points="100.5,-334 100.5,-383 164.5,-383 164.5,-334 100.5,-334"/>
</a>
</g>
</g>
<!-- Node5&#45;&gt;Node4 -->
<g id="edge4_Node000004_Node000005" class="edge">
<title>Node5&#45;&gt;Node4</title>
<g id="a_edge4_Node000004_Node000005"><a xlink:title=" ">
<path fill="none" stroke="#63b8ff" d="M157.12,-325.52C169.1,-309.95 183.98,-290.62 198.27,-272.06"/>
<polygon fill="none" stroke="#63b8ff" points="154.11,-323.69 150.78,-333.75 159.65,-327.96 154.11,-323.69"/>
</a>
</g>
</g>
<!-- Node6 -->
<g id="Node000006" class="node">
<title>Node6</title>
<g id="a_Node000006"><a xlink:href="classgame_1_1logic_1_1playfield_1_1PlayField.html" target="_top" xlink:title=" ">
<polygon fill="white" stroke="transparent" points="316.5,-396 182.5,-396 182.5,-321 316.5,-321 316.5,-396"/>
<text text-anchor="start" x="187.5" y="-383.5" font-family="Helvetica,sans-Serif" font-size="10.00">game.logic.playfield.Play</text>
<text text-anchor="start" x="237.5" y="-372.5" font-family="Helvetica,sans-Serif" font-size="10.00">Field</text>
<text text-anchor="start" x="206.5" y="-357.5" font-family="Helvetica,sans-Serif" font-size="10.00">+</text>
<text text-anchor="start" x="239.5" y="-357.5" font-family="Helvetica,sans-Serif" font-size="10.00">Width</text>
<text text-anchor="start" x="206.5" y="-342.5" font-family="Helvetica,sans-Serif" font-size="10.00">+</text>
<text text-anchor="start" x="239.5" y="-342.5" font-family="Helvetica,sans-Serif" font-size="10.00">Height</text>
<text text-anchor="start" x="247.5" y="-327.5" font-family="Helvetica,sans-Serif" font-size="10.00"> </text>
<polygon fill="#666666" stroke="#666666" points="182.5,-367.5 182.5,-367.5 316.5,-367.5 316.5,-367.5 182.5,-367.5"/>
<polygon fill="#666666" stroke="#666666" points="182.5,-337.5 182.5,-337.5 237.5,-337.5 237.5,-337.5 182.5,-337.5"/>
<polygon fill="#666666" stroke="#666666" points="237.5,-337.5 237.5,-337.5 316.5,-337.5 316.5,-337.5 237.5,-337.5"/>
<polygon fill="none" stroke="#666666" points="182.5,-321 182.5,-396 316.5,-396 316.5,-321 182.5,-321"/>
</a>
</g>
</g>
<!-- Node6&#45;&gt;Node4 -->
<g id="edge5_Node000004_Node000006" class="edge">
<title>Node6&#45;&gt;Node4</title>
<g id="a_edge5_Node000004_Node000006"><a xlink:title=" ">
<path fill="none" stroke="#63b8ff" d="M249.5,-320.71C249.5,-309.65 249.5,-297.08 249.5,-284.39"/>
<polygon fill="none" stroke="#63b8ff" points="249.5,-284.25 245.5,-278.25 249.5,-272.25 253.5,-278.25 249.5,-284.25"/>
</a>
</g>
<text text-anchor="middle" x="278" y="-293" font-family="Helvetica,sans-Serif" font-size="10.00" fill="grey"> &#45;_playField</text>
</g>
<!-- Node7 -->
<g id="Node000007" class="node">
<title>Node7</title>
<g id="a_Node000007"><a xlink:title=" ">
<polygon fill="white" stroke="transparent" points="173,-510.5 150,-510.5 150,-461.5 173,-461.5 173,-510.5"/>
<text text-anchor="start" x="155.5" y="-498" font-family="Helvetica,sans-Serif" font-size="10.00">int</text>
<text text-anchor="start" x="160" y="-483" font-family="Helvetica,sans-Serif" font-size="10.00"> </text>
<text text-anchor="start" x="160" y="-468" font-family="Helvetica,sans-Serif" font-size="10.00"> </text>
<polygon fill="#666666" stroke="#666666" points="150.5,-493 150.5,-493 173.5,-493 173.5,-493 150.5,-493"/>
<polygon fill="#666666" stroke="#666666" points="150.5,-478 150.5,-478 173.5,-478 173.5,-478 150.5,-478"/>
<polygon fill="none" stroke="#666666" points="150,-461.5 150,-510.5 173,-510.5 173,-461.5 150,-461.5"/>
</a>
</g>
</g>
<!-- Node7&#45;&gt;Node6 -->
<g id="edge6_Node000006_Node000007" class="edge">
<title>Node7&#45;&gt;Node6</title>
<g id="a_edge6_Node000006_Node000007"><a xlink:title=" ">
<path fill="none" stroke="#63b8ff" d="M166.54,-461.26C170.27,-447.27 176.31,-429.69 185.5,-416 188,-412.27 190.81,-408.64 193.81,-405.12"/>
<polygon fill="none" stroke="#63b8ff" points="193.99,-404.93 195.13,-397.81 202.14,-396.13 201,-403.25 193.99,-404.93"/>
</a>
</g>
<text text-anchor="middle" x="217" y="-430" font-family="Helvetica,sans-Serif" font-size="10.00" fill="grey"> &#45;FieldHeight</text>
<text text-anchor="middle" x="217" y="-419" font-family="Helvetica,sans-Serif" font-size="10.00" fill="grey">&#45;FieldWidth</text>
</g>
<!-- Node8 -->
<g id="Node000008" class="node">
<title>Node8</title>
<g id="a_Node000008"><a xlink:href="interfacegame_1_1logic_1_1tile_1_1ITileable.html" target="_top" xlink:title=" ">
<polygon fill="white" stroke="transparent" points="319.5,-510.5 191.5,-510.5 191.5,-461.5 319.5,-461.5 319.5,-510.5"/>
<text text-anchor="start" x="196.5" y="-498" font-family="Helvetica,sans-Serif" font-size="10.00">game.logic.tile.ITileable</text>
<text text-anchor="start" x="215.5" y="-483" font-family="Helvetica,sans-Serif" font-size="10.00">+</text>
<text text-anchor="start" x="248.5" y="-483" font-family="Helvetica,sans-Serif" font-size="10.00">Color</text>
<text text-anchor="start" x="253.5" y="-468" font-family="Helvetica,sans-Serif" font-size="10.00"> </text>
<polygon fill="#666666" stroke="#666666" points="191.5,-493 191.5,-493 319.5,-493 319.5,-493 191.5,-493"/>
<polygon fill="#666666" stroke="#666666" points="191.5,-478 191.5,-478 246.5,-478 246.5,-478 191.5,-478"/>
<polygon fill="#666666" stroke="#666666" points="246.5,-478 246.5,-478 319.5,-478 319.5,-478 246.5,-478"/>
<polygon fill="none" stroke="#666666" points="191.5,-461.5 191.5,-510.5 319.5,-510.5 319.5,-461.5 191.5,-461.5"/>
</a>
</g>
</g>
<!-- Node8&#45;&gt;Node6 -->
<g id="edge7_Node000006_Node000008" class="edge">
<title>Node8&#45;&gt;Node6</title>
<g id="a_edge7_Node000006_Node000008"><a xlink:title=" ">
<path fill="none" stroke="#63b8ff" d="M254.37,-461.39C253.66,-446.51 252.71,-426.73 251.85,-408.57"/>
<polygon fill="none" stroke="#63b8ff" points="251.83,-408.31 247.55,-402.51 251.26,-396.32 255.54,-402.13 251.83,-408.31"/>
</a>
</g>
<text text-anchor="middle" x="271" y="-424.5" font-family="Helvetica,sans-Serif" font-size="10.00" fill="grey"> +Field</text>
</g>
<!-- Node9 -->
<g id="Node000009" class="node">
<title>Node9</title>
<g id="a_Node000009"><a xlink:href="classgame_1_1service_1_1ServiceLocator.html" target="_top" xlink:title=" ">
<polygon fill="white" stroke="transparent" points="486.5,-398 334.5,-398 334.5,-319 486.5,-319 486.5,-398"/>
<text text-anchor="start" x="339.5" y="-385.5" font-family="Helvetica,sans-Serif" font-size="10.00">game.service.ServiceLocator</text>
<text text-anchor="start" x="408.5" y="-370.5" font-family="Helvetica,sans-Serif" font-size="10.00"> </text>
<text text-anchor="start" x="343" y="-355.5" font-family="Helvetica,sans-Serif" font-size="10.00">+</text>
<text text-anchor="start" x="360.5" y="-355.5" font-family="Helvetica,sans-Serif" font-size="10.00">ServiceLocator()</text>
<text text-anchor="start" x="343" y="-340.5" font-family="Helvetica,sans-Serif" font-size="10.00">+</text>
<text text-anchor="start" x="360.5" y="-340.5" font-family="Helvetica,sans-Serif" font-size="10.00">GetService&lt; T &gt;()</text>
<text text-anchor="start" x="343" y="-325.5" font-family="Helvetica,sans-Serif" font-size="10.00">+</text>
<text text-anchor="start" x="360.5" y="-325.5" font-family="Helvetica,sans-Serif" font-size="10.00">RegisterService&lt; T &gt;()</text>
<polygon fill="#666666" stroke="#666666" points="334.5,-380.5 334.5,-380.5 486.5,-380.5 486.5,-380.5 334.5,-380.5"/>
<polygon fill="#666666" stroke="#666666" points="334.5,-365.5 334.5,-365.5 486.5,-365.5 486.5,-365.5 334.5,-365.5"/>
<polygon fill="none" stroke="#666666" points="334.5,-319 334.5,-398 486.5,-398 486.5,-319 334.5,-319"/>
</a>
</g>
</g>
<!-- Node9&#45;&gt;Node4 -->
<g id="edge8_Node000004_Node000009" class="edge">
<title>Node9&#45;&gt;Node4</title>
<g id="a_edge8_Node000004_Node000009"><a xlink:title=" ">
<path fill="none" stroke="#63b8ff" d="M369.46,-318.75C356.06,-306.1 340.73,-291.63 325.6,-277.35"/>
<polygon fill="none" stroke="#63b8ff" points="325.47,-277.22 318.36,-276.01 316.74,-268.98 323.85,-270.19 325.47,-277.22"/>
</a>
</g>
<text text-anchor="middle" x="391.5" y="-293" font-family="Helvetica,sans-Serif" font-size="10.00" fill="grey"> &#45;_serviceLocator</text>
</g>
<!-- Node10 -->
<g id="Node000010" class="node">
<title>Node10</title>
<g id="a_Node000010"><a xlink:title=" ">
<polygon fill="white" stroke="transparent" points="477,-516 344,-516 344,-456 477,-456 477,-516"/>
<text text-anchor="start" x="349.5" y="-504" font-family="Helvetica,sans-Serif" font-size="10.00">IDictionary&lt; object,</text>
<text text-anchor="start" x="349.5" y="-493" font-family="Helvetica,sans-Serif" font-size="10.00"> game.service.IService &gt;</text>
<text text-anchor="start" x="409" y="-478" font-family="Helvetica,sans-Serif" font-size="10.00"> </text>
<text text-anchor="start" x="409" y="-463" font-family="Helvetica,sans-Serif" font-size="10.00"> </text>
<polygon fill="#666666" stroke="#666666" points="344.5,-488 344.5,-488 477.5,-488 477.5,-488 344.5,-488"/>
<polygon fill="#666666" stroke="#666666" points="344.5,-473 344.5,-473 477.5,-473 477.5,-473 344.5,-473"/>
<polygon fill="none" stroke="#666666" points="344,-456 344,-516 477,-516 477,-456 344,-456"/>
</a>
</g>
</g>
<!-- Node10&#45;&gt;Node9 -->
<g id="edge9_Node000009_Node000010" class="edge">
<title>Node10&#45;&gt;Node9</title>
<g id="a_edge9_Node000009_Node000010"><a xlink:title=" ">
<path fill="none" stroke="#63b8ff" d="M410.5,-455.89C410.5,-442.41 410.5,-425.98 410.5,-410.54"/>
<polygon fill="none" stroke="#63b8ff" points="410.5,-410.44 406.5,-404.44 410.5,-398.44 414.5,-404.44 410.5,-410.44"/>
</a>
</g>
<text text-anchor="middle" x="434.5" y="-424.5" font-family="Helvetica,sans-Serif" font-size="10.00" fill="grey"> &#45;services</text>
</g>
</g>
</svg>
