<?xml version="1.0" encoding="UTF-8" standalone="no"?>
<!DOCTYPE svg PUBLIC "-//W3C//DTD SVG 1.1//EN"
 "http://www.w3.org/Graphics/SVG/1.1/DTD/svg11.dtd">
<!-- Generated by graphviz version 2.43.0 (0)
 -->
<!-- Title: game.service.ServiceLocator Pages: 1 -->
<svg width="160pt" height="194pt"
 viewBox="0.00 0.00 160.00 194.00" xmlns="http://www.w3.org/2000/svg" xmlns:xlink="http://www.w3.org/1999/xlink">
<g id="graph0" class="graph" transform="scale(1 1) rotate(0) translate(4 190)">
<title>game.service.ServiceLocator</title>
<!-- Node1 -->
<g id="Node000001" class="node">
<title>Node1</title>
<g id="a_Node000001"><a xlink:title=" ">
<polygon fill="#999999" stroke="transparent" points="152,-79 0,-79 0,0 152,0 152,-79"/>
<text text-anchor="start" x="5" y="-66.5" font-family="Helvetica,sans-Serif" font-size="10.00">game.service.ServiceLocator</text>
<text text-anchor="start" x="74" y="-51.5" font-family="Helvetica,sans-Serif" font-size="10.00"> </text>
<text text-anchor="start" x="8.5" y="-36.5" font-family="Helvetica,sans-Serif" font-size="10.00">+</text>
<text text-anchor="start" x="26" y="-36.5" font-family="Helvetica,sans-Serif" font-size="10.00">ServiceLocator()</text>
<text text-anchor="start" x="8.5" y="-21.5" font-family="Helvetica,sans-Serif" font-size="10.00">+</text>
<text text-anchor="start" x="26" y="-21.5" font-family="Helvetica,sans-Serif" font-size="10.00">GetService&lt; T &gt;()</text>
<text text-anchor="start" x="8.5" y="-6.5" font-family="Helvetica,sans-Serif" font-size="10.00">+</text>
<text text-anchor="start" x="26" y="-6.5" font-family="Helvetica,sans-Serif" font-size="10.00">RegisterService&lt; T &gt;()</text>
<polygon fill="#666666" stroke="#666666" points="0,-61.5 0,-61.5 152,-61.5 152,-61.5 0,-61.5"/>
<polygon fill="#666666" stroke="#666666" points="0,-46.5 0,-46.5 152,-46.5 152,-46.5 0,-46.5"/>
<polygon fill="none" stroke="#666666" points="0,0 0,-79 152,-79 152,0 0,0"/>
</a>
</g>
</g>
<!-- Node2 -->
<g id="Node000002" class="node">
<title>Node2</title>
<g id="a_Node000002"><a xlink:title=" ">
<polygon fill="white" stroke="transparent" points="142.5,-186 9.5,-186 9.5,-126 142.5,-126 142.5,-186"/>
<text text-anchor="start" x="15" y="-174" font-family="Helvetica,sans-Serif" font-size="10.00">IDictionary&lt; object,</text>
<text text-anchor="start" x="15" y="-163" font-family="Helvetica,sans-Serif" font-size="10.00"> game.service.IService &gt;</text>
<text text-anchor="start" x="74.5" y="-148" font-family="Helvetica,sans-Serif" font-size="10.00"> </text>
<text text-anchor="start" x="74.5" y="-133" font-family="Helvetica,sans-Serif" font-size="10.00"> </text>
<polygon fill="#666666" stroke="#666666" points="10,-158 10,-158 143,-158 143,-158 10,-158"/>
<polygon fill="#666666" stroke="#666666" points="10,-143 10,-143 143,-143 143,-143 10,-143"/>
<polygon fill="none" stroke="#666666" points="9.5,-126 9.5,-186 142.5,-186 142.5,-126 9.5,-126"/>
</a>
</g>
</g>
<!-- Node2&#45;&gt;Node1 -->
<g id="edge1_Node000001_Node000002" class="edge">
<title>Node2&#45;&gt;Node1</title>
<g id="a_edge1_Node000001_Node000002"><a xlink:title=" ">
<path fill="none" stroke="#63b8ff" d="M76,-125.81C76,-115.29 76,-103.08 76,-91.25"/>
<polygon fill="none" stroke="#63b8ff" points="76,-91.15 72,-85.15 76,-79.15 80,-85.15 76,-91.15"/>
</a>
</g>
<text text-anchor="middle" x="100" y="-100" font-family="Helvetica,sans-Serif" font-size="10.00" fill="grey"> &#45;services</text>
</g>
</g>
</svg>
