<?xml version="1.0" encoding="UTF-8" standalone="no"?>
<!DOCTYPE svg PUBLIC "-//W3C//DTD SVG 1.1//EN"
 "http://www.w3.org/Graphics/SVG/1.1/DTD/svg11.dtd">
<!-- Generated by graphviz version 2.43.0 (0)
 -->
<!-- Title: game.logic.GravityService Pages: 1 -->
<svg width="350pt" height="269pt"
 viewBox="0.00 0.00 350.00 269.00" xmlns="http://www.w3.org/2000/svg" xmlns:xlink="http://www.w3.org/1999/xlink">
<g id="graph0" class="graph" transform="scale(1 1) rotate(0) translate(4 265)">
<title>game.logic.GravityService</title>
<!-- Node1 -->
<g id="Node000001" class="node">
<title>Node1</title>
<g id="a_Node000001"><a xlink:title=" ">
<polygon fill="#999999" stroke="transparent" points="199,-64 59,-64 59,0 199,0 199,-64"/>
<text text-anchor="start" x="64" y="-52" font-family="Helvetica,sans-Serif" font-size="10.00">game.logic.GravityService</text>
<text text-anchor="start" x="72.5" y="-37" font-family="Helvetica,sans-Serif" font-size="10.00">+</text>
<text text-anchor="start" x="95" y="-37" font-family="Helvetica,sans-Serif" font-size="10.00">CurrentGravity</text>
<text text-anchor="start" x="72.5" y="-22" font-family="Helvetica,sans-Serif" font-size="10.00">+</text>
<text text-anchor="start" x="95" y="-22" font-family="Helvetica,sans-Serif" font-size="10.00">GravityService()</text>
<text text-anchor="start" x="72.5" y="-7" font-family="Helvetica,sans-Serif" font-size="10.00">+</text>
<text text-anchor="start" x="95" y="-7" font-family="Helvetica,sans-Serif" font-size="10.00">Update()</text>
<polygon fill="#666666" stroke="#666666" points="59,-47 59,-47 199,-47 199,-47 59,-47"/>
<polygon fill="#666666" stroke="#666666" points="59,-32 59,-32 93,-32 93,-32 59,-32"/>
<polygon fill="#666666" stroke="#666666" points="93,-32 93,-32 199,-32 199,-32 93,-32"/>
<polygon fill="none" stroke="#666666" points="59,0 59,-64 199,-64 199,0 59,0"/>
</a>
</g>
</g>
<!-- Node2 -->
<g id="Node000002" class="node">
<title>Node2</title>
<g id="a_Node000002"><a xlink:href="interfacegamerunner_1_1IUpdatable.html" target="_top" xlink:title=" ">
<polygon fill="white" stroke="transparent" points="64,-167.5 0,-167.5 0,-118.5 64,-118.5 64,-167.5"/>
<text text-anchor="start" x="5" y="-155" font-family="Helvetica,sans-Serif" font-size="10.00">IUpdatable</text>
<text text-anchor="start" x="30" y="-140" font-family="Helvetica,sans-Serif" font-size="10.00"> </text>
<text text-anchor="start" x="4" y="-125" font-family="Helvetica,sans-Serif" font-size="10.00">+</text>
<text text-anchor="start" x="17" y="-125" font-family="Helvetica,sans-Serif" font-size="10.00">Update()</text>
<polygon fill="#666666" stroke="#666666" points="0,-150 0,-150 64,-150 64,-150 0,-150"/>
<polygon fill="#666666" stroke="#666666" points="0,-135 0,-135 64,-135 64,-135 0,-135"/>
<polygon fill="none" stroke="#666666" points="0,-118.5 0,-167.5 64,-167.5 64,-118.5 0,-118.5"/>
</a>
</g>
</g>
<!-- Node2&#45;&gt;Node1 -->
<g id="edge1_Node000001_Node000002" class="edge">
<title>Node2&#45;&gt;Node1</title>
<g id="a_edge1_Node000001_Node000002"><a xlink:title=" ">
<path fill="none" stroke="#63b8ff" d="M59.99,-110.55C72.99,-95.94 88.4,-78.62 101.36,-64.06"/>
<polygon fill="none" stroke="#63b8ff" points="57.08,-108.55 53.05,-118.35 62.31,-113.21 57.08,-108.55"/>
</a>
</g>
</g>
<!-- Node3 -->
<g id="Node000003" class="node">
<title>Node3</title>
<g id="a_Node000003"><a xlink:href="interfacegame_1_1logic_1_1IGravityService.html" target="_top" xlink:title=" ">
<polygon fill="white" stroke="transparent" points="176,-167.5 82,-167.5 82,-118.5 176,-118.5 176,-167.5"/>
<text text-anchor="start" x="91" y="-155" font-family="Helvetica,sans-Serif" font-size="10.00">IGravityService</text>
<text text-anchor="start" x="86" y="-140" font-family="Helvetica,sans-Serif" font-size="10.00">+</text>
<text text-anchor="start" x="99" y="-140" font-family="Helvetica,sans-Serif" font-size="10.00">CurrentGravity</text>
<text text-anchor="start" x="127" y="-125" font-family="Helvetica,sans-Serif" font-size="10.00"> </text>
<polygon fill="#666666" stroke="#666666" points="82,-150 82,-150 176,-150 176,-150 82,-150"/>
<polygon fill="#666666" stroke="#666666" points="82,-135 82,-135 97,-135 97,-135 82,-135"/>
<polygon fill="#666666" stroke="#666666" points="97,-135 97,-135 176,-135 176,-135 97,-135"/>
<polygon fill="none" stroke="#666666" points="82,-118.5 82,-167.5 176,-167.5 176,-118.5 82,-118.5"/>
</a>
</g>
</g>
<!-- Node3&#45;&gt;Node1 -->
<g id="edge2_Node000001_Node000003" class="edge">
<title>Node3&#45;&gt;Node1</title>
<g id="a_edge2_Node000001_Node000003"><a xlink:title=" ">
<path fill="none" stroke="#63b8ff" d="M129,-108.09C129,-94.02 129,-77.81 129,-64.06"/>
<polygon fill="none" stroke="#63b8ff" points="125.5,-108.35 129,-118.35 132.5,-108.35 125.5,-108.35"/>
</a>
</g>
</g>
<!-- Node4 -->
<g id="Node000004" class="node">
<title>Node4</title>
<g id="a_Node000004"><a xlink:href="interfacegame_1_1service_1_1IService.html" target="_top" xlink:title=" ">
<polygon fill="white" stroke="transparent" points="154,-261 104,-261 104,-212 154,-212 154,-261"/>
<text text-anchor="start" x="109" y="-248.5" font-family="Helvetica,sans-Serif" font-size="10.00">IService</text>
<text text-anchor="start" x="127" y="-233.5" font-family="Helvetica,sans-Serif" font-size="10.00"> </text>
<text text-anchor="start" x="127" y="-218.5" font-family="Helvetica,sans-Serif" font-size="10.00"> </text>
<polygon fill="#666666" stroke="#666666" points="104,-243.5 104,-243.5 154,-243.5 154,-243.5 104,-243.5"/>
<polygon fill="#666666" stroke="#666666" points="104,-228.5 104,-228.5 154,-228.5 154,-228.5 104,-228.5"/>
<polygon fill="none" stroke="#666666" points="104,-212 104,-261 154,-261 154,-212 104,-212"/>
</a>
</g>
</g>
<!-- Node4&#45;&gt;Node3 -->
<g id="edge3_Node000003_Node000004" class="edge">
<title>Node4&#45;&gt;Node3</title>
<g id="a_edge3_Node000003_Node000004"><a xlink:title=" ">
<path fill="none" stroke="#63b8ff" d="M129,-201.93C129,-190.61 129,-178.21 129,-167.8"/>
<polygon fill="none" stroke="#63b8ff" points="125.5,-201.94 129,-211.94 132.5,-201.94 125.5,-201.94"/>
</a>
</g>
</g>
<!-- Node5 -->
<g id="Node000005" class="node">
<title>Node5</title>
<g id="a_Node000005"><a xlink:href="interfacegame_1_1logic_1_1IGravityStrategy.html" target="_top" xlink:title=" ">
<polygon fill="white" stroke="transparent" points="342,-175 194,-175 194,-111 342,-111 342,-175"/>
<text text-anchor="start" x="199" y="-163" font-family="Helvetica,sans-Serif" font-size="10.00">game.logic.IGravityStrategy</text>
<text text-anchor="start" x="211.5" y="-148" font-family="Helvetica,sans-Serif" font-size="10.00">+</text>
<text text-anchor="start" x="238" y="-148" font-family="Helvetica,sans-Serif" font-size="10.00">CurrentGravity</text>
<text text-anchor="start" x="211.5" y="-133" font-family="Helvetica,sans-Serif" font-size="10.00">+</text>
<text text-anchor="start" x="238" y="-133" font-family="Helvetica,sans-Serif" font-size="10.00">Gravity</text>
<text text-anchor="start" x="266" y="-118" font-family="Helvetica,sans-Serif" font-size="10.00"> </text>
<polygon fill="#666666" stroke="#666666" points="194,-158 194,-158 342,-158 342,-158 194,-158"/>
<polygon fill="#666666" stroke="#666666" points="194,-128 194,-128 236,-128 236,-128 194,-128"/>
<polygon fill="#666666" stroke="#666666" points="236,-128 236,-128 342,-128 342,-128 236,-128"/>
<polygon fill="none" stroke="#666666" points="194,-111 194,-175 342,-175 342,-111 194,-111"/>
</a>
</g>
</g>
<!-- Node5&#45;&gt;Node1 -->
<g id="edge4_Node000001_Node000005" class="edge">
<title>Node5&#45;&gt;Node1</title>
<g id="a_edge4_Node000001_Node000005"><a xlink:title=" ">
<path fill="none" stroke="#63b8ff" d="M228.17,-110.76C212.76,-98.68 194.95,-84.71 178.71,-71.98"/>
<polygon fill="none" stroke="#63b8ff" points="178.28,-71.64 171.09,-71.09 168.84,-64.24 176.03,-64.79 178.28,-71.64"/>
</a>
</g>
<text text-anchor="middle" x="247" y="-85" font-family="Helvetica,sans-Serif" font-size="10.00" fill="grey"> &#45;_gravityStrategy</text>
</g>
</g>
</svg>
