<?xml version="1.0" encoding="UTF-8" standalone="no"?>
<!DOCTYPE svg PUBLIC "-//W3C//DTD SVG 1.1//EN"
 "http://www.w3.org/Graphics/SVG/1.1/DTD/svg11.dtd">
<!-- Generated by graphviz version 2.43.0 (0)
 -->
<!-- Title: network.HttpPostRequest Pages: 1 -->
<svg width="143pt" height="187pt"
 viewBox="0.00 0.00 143.00 187.00" xmlns="http://www.w3.org/2000/svg" xmlns:xlink="http://www.w3.org/1999/xlink">
<g id="graph0" class="graph" transform="scale(1 1) rotate(0) translate(4 183)">
<title>network.HttpPostRequest</title>
<!-- Node1 -->
<g id="Node000001" class="node">
<title>Node1</title>
<g id="a_Node000001"><a xlink:title=" ">
<polygon fill="#999999" stroke="transparent" points="135,-94 0,-94 0,0 135,0 135,-94"/>
<text text-anchor="start" x="5.5" y="-82" font-family="Helvetica,sans-Serif" font-size="10.00">network.HttpPostRequest</text>
<text text-anchor="start" x="16.5" y="-67" font-family="Helvetica,sans-Serif" font-size="10.00">&#45;</text>
<text text-anchor="start" x="36.5" y="-67" font-family="Helvetica,sans-Serif" font-size="10.00">_client</text>
<text text-anchor="start" x="16.5" y="-52" font-family="Helvetica,sans-Serif" font-size="10.00">&#45;</text>
<text text-anchor="start" x="36.5" y="-52" font-family="Helvetica,sans-Serif" font-size="10.00">_data</text>
<text text-anchor="start" x="14" y="-37" font-family="Helvetica,sans-Serif" font-size="10.00">+</text>
<text text-anchor="start" x="36.5" y="-37" font-family="Helvetica,sans-Serif" font-size="10.00">ExecuteAsync()</text>
<text text-anchor="start" x="14" y="-22" font-family="Helvetica,sans-Serif" font-size="10.00">+</text>
<text text-anchor="start" x="36.5" y="-22" font-family="Helvetica,sans-Serif" font-size="10.00">SetData()</text>
<text text-anchor="start" x="14" y="-7" font-family="Helvetica,sans-Serif" font-size="10.00">+</text>
<text text-anchor="start" x="36.5" y="-7" font-family="Helvetica,sans-Serif" font-size="10.00">SetClient()</text>
<polygon fill="#666666" stroke="#666666" points="0.5,-77 0.5,-77 135.5,-77 135.5,-77 0.5,-77"/>
<polygon fill="#666666" stroke="#666666" points="0.5,-47 0.5,-47 34.5,-47 34.5,-47 0.5,-47"/>
<polygon fill="#666666" stroke="#666666" points="34.5,-47 34.5,-47 135.5,-47 135.5,-47 34.5,-47"/>
<polygon fill="none" stroke="#666666" points="0,0 0,-94 135,-94 135,0 0,0"/>
</a>
</g>
</g>
<!-- Node2 -->
<g id="Node000002" class="node">
<title>Node2</title>
<g id="a_Node000002"><a xlink:href="interfacenetwork_1_1IHttpRequest.html" target="_top" xlink:title=" ">
<polygon fill="white" stroke="transparent" points="116,-179 19,-179 19,-130 116,-130 116,-179"/>
<text text-anchor="start" x="36" y="-166.5" font-family="Helvetica,sans-Serif" font-size="10.00">IHttpRequest</text>
<text text-anchor="start" x="66" y="-151.5" font-family="Helvetica,sans-Serif" font-size="10.00"> </text>
<text text-anchor="start" x="23.5" y="-136.5" font-family="Helvetica,sans-Serif" font-size="10.00">+</text>
<text text-anchor="start" x="36.5" y="-136.5" font-family="Helvetica,sans-Serif" font-size="10.00">ExecuteAsync()</text>
<polygon fill="#666666" stroke="#666666" points="19.5,-161.5 19.5,-161.5 116.5,-161.5 116.5,-161.5 19.5,-161.5"/>
<polygon fill="#666666" stroke="#666666" points="19.5,-146.5 19.5,-146.5 116.5,-146.5 116.5,-146.5 19.5,-146.5"/>
<polygon fill="none" stroke="#666666" points="19,-130 19,-179 116,-179 116,-130 19,-130"/>
</a>
</g>
</g>
<!-- Node2&#45;&gt;Node1 -->
<g id="edge1_Node000001_Node000002" class="edge">
<title>Node2&#45;&gt;Node1</title>
<g id="a_edge1_Node000001_Node000002"><a xlink:title=" ">
<path fill="none" stroke="#63b8ff" d="M67.5,-119.61C67.5,-111.48 67.5,-102.66 67.5,-94.08"/>
<polygon fill="none" stroke="#63b8ff" points="64,-119.82 67.5,-129.82 71,-119.82 64,-119.82"/>
</a>
</g>
</g>
</g>
</svg>
