<?xml version="1.0" encoding="UTF-8" standalone="no"?>
<!DOCTYPE svg PUBLIC "-//W3C//DTD SVG 1.1//EN"
 "http://www.w3.org/Graphics/SVG/1.1/DTD/svg11.dtd">
<!-- Generated by graphviz version 2.43.0 (0)
 -->
<!-- Title: debugtools.DebugInvoker Pages: 1 -->
<svg width="143pt" height="168pt"
 viewBox="0.00 0.00 143.00 168.00" xmlns="http://www.w3.org/2000/svg" xmlns:xlink="http://www.w3.org/1999/xlink">
<g id="graph0" class="graph" transform="scale(1 1) rotate(0) translate(4 164)">
<title>debugtools.DebugInvoker</title>
<!-- Node1 -->
<g id="Node000001" class="node">
<title>Node1</title>
<g id="a_Node000001"><a xlink:title=" ">
<polygon fill="#999999" stroke="transparent" points="135,-64 0,-64 0,0 135,0 135,-64"/>
<text text-anchor="start" x="5.5" y="-52" font-family="Helvetica,sans-Serif" font-size="10.00">debugtools.DebugInvoker</text>
<text text-anchor="start" x="66" y="-37" font-family="Helvetica,sans-Serif" font-size="10.00"> </text>
<text text-anchor="start" x="8.5" y="-22" font-family="Helvetica,sans-Serif" font-size="10.00">+</text>
<text text-anchor="start" x="25.5" y="-22" font-family="Helvetica,sans-Serif" font-size="10.00">SetCommand()</text>
<text text-anchor="start" x="8.5" y="-7" font-family="Helvetica,sans-Serif" font-size="10.00">+</text>
<text text-anchor="start" x="25.5" y="-7" font-family="Helvetica,sans-Serif" font-size="10.00">ExecuteCommand()</text>
<polygon fill="#666666" stroke="#666666" points="0.5,-47 0.5,-47 135.5,-47 135.5,-47 0.5,-47"/>
<polygon fill="#666666" stroke="#666666" points="0.5,-32 0.5,-32 135.5,-32 135.5,-32 0.5,-32"/>
<polygon fill="none" stroke="#666666" points="0,0 0,-64 135,-64 135,0 0,0"/>
</a>
</g>
</g>
<!-- Node2 -->
<g id="Node000002" class="node">
<title>Node2</title>
<g id="a_Node000002"><a xlink:href="interfacedebugtools_1_1ICommand.html" target="_top" xlink:title=" ">
<polygon fill="white" stroke="transparent" points="128,-160 7,-160 7,-111 128,-111 128,-160"/>
<text text-anchor="start" x="12.5" y="-147.5" font-family="Helvetica,sans-Serif" font-size="10.00">debugtools.ICommand</text>
<text text-anchor="start" x="66" y="-132.5" font-family="Helvetica,sans-Serif" font-size="10.00"> </text>
<text text-anchor="start" x="25" y="-117.5" font-family="Helvetica,sans-Serif" font-size="10.00">+</text>
<text text-anchor="start" x="51.5" y="-117.5" font-family="Helvetica,sans-Serif" font-size="10.00">Execute()</text>
<polygon fill="#666666" stroke="#666666" points="7.5,-142.5 7.5,-142.5 128.5,-142.5 128.5,-142.5 7.5,-142.5"/>
<polygon fill="#666666" stroke="#666666" points="7.5,-127.5 7.5,-127.5 128.5,-127.5 128.5,-127.5 7.5,-127.5"/>
<polygon fill="none" stroke="#666666" points="7,-111 7,-160 128,-160 128,-111 7,-111"/>
</a>
</g>
</g>
<!-- Node2&#45;&gt;Node1 -->
<g id="edge1_Node000001_Node000002" class="edge">
<title>Node2&#45;&gt;Node1</title>
<g id="a_edge1_Node000001_Node000002"><a xlink:title=" ">
<path fill="none" stroke="#63b8ff" d="M67.5,-110.96C67.5,-100.61 67.5,-88.13 67.5,-76.21"/>
<polygon fill="none" stroke="#63b8ff" points="67.5,-76.11 63.5,-70.11 67.5,-64.11 71.5,-70.11 67.5,-76.11"/>
</a>
</g>
<text text-anchor="middle" x="98" y="-85" font-family="Helvetica,sans-Serif" font-size="10.00" fill="grey"> &#45;_command</text>
</g>
</g>
</svg>
