<?xml version="1.0" encoding="UTF-8" standalone="no"?>
<!DOCTYPE svg PUBLIC "-//W3C//DTD SVG 1.1//EN"
 "http://www.w3.org/Graphics/SVG/1.1/DTD/svg11.dtd">
<!-- Generated by graphviz version 2.43.0 (0)
 -->
<!-- Title: game.logic.tile.TileView Pages: 1 -->
<svg width="644pt" height="661pt"
 viewBox="0.00 0.00 643.50 661.00" xmlns="http://www.w3.org/2000/svg" xmlns:xlink="http://www.w3.org/1999/xlink">
<g id="graph0" class="graph" transform="scale(1 1) rotate(0) translate(4 657)">
<title>game.logic.tile.TileView</title>
<!-- Node1 -->
<g id="Node000001" class="node">
<title>Node1</title>
<g id="a_Node000001"><a xlink:title=" ">
<polygon fill="#999999" stroke="transparent" points="210.5,-79 82.5,-79 82.5,0 210.5,0 210.5,-79"/>
<text text-anchor="start" x="87.5" y="-66.5" font-family="Helvetica,sans-Serif" font-size="10.00">game.logic.tile.TileView</text>
<text text-anchor="start" x="144.5" y="-51.5" font-family="Helvetica,sans-Serif" font-size="10.00"> </text>
<text text-anchor="start" x="102.5" y="-36.5" font-family="Helvetica,sans-Serif" font-size="10.00">+</text>
<text text-anchor="start" x="131.5" y="-36.5" font-family="Helvetica,sans-Serif" font-size="10.00">Link()</text>
<text text-anchor="start" x="105" y="-21.5" font-family="Helvetica,sans-Serif" font-size="10.00">&#45;</text>
<text text-anchor="start" x="131.5" y="-21.5" font-family="Helvetica,sans-Serif" font-size="10.00">Start()</text>
<text text-anchor="start" x="105" y="-6.5" font-family="Helvetica,sans-Serif" font-size="10.00">&#45;</text>
<text text-anchor="start" x="131.5" y="-6.5" font-family="Helvetica,sans-Serif" font-size="10.00">Update()</text>
<polygon fill="#666666" stroke="#666666" points="82.5,-61.5 82.5,-61.5 210.5,-61.5 210.5,-61.5 82.5,-61.5"/>
<polygon fill="#666666" stroke="#666666" points="82.5,-46.5 82.5,-46.5 210.5,-46.5 210.5,-46.5 82.5,-46.5"/>
<polygon fill="none" stroke="#666666" points="82.5,0 82.5,-79 210.5,-79 210.5,0 82.5,0"/>
</a>
</g>
</g>
<!-- Node2 -->
<g id="Node000002" class="node">
<title>Node2</title>
<g id="a_Node000002"><a xlink:href="classMonoBehaviour.html" target="_top" xlink:title=" ">
<polygon fill="white" stroke="transparent" points="87,-195.5 0,-195.5 0,-146.5 87,-146.5 87,-195.5"/>
<text text-anchor="start" x="5.5" y="-183" font-family="Helvetica,sans-Serif" font-size="10.00">MonoBehaviour</text>
<text text-anchor="start" x="42" y="-168" font-family="Helvetica,sans-Serif" font-size="10.00"> </text>
<text text-anchor="start" x="42" y="-153" font-family="Helvetica,sans-Serif" font-size="10.00"> </text>
<polygon fill="#666666" stroke="#666666" points="0.5,-178 0.5,-178 87.5,-178 87.5,-178 0.5,-178"/>
<polygon fill="#666666" stroke="#666666" points="0.5,-163 0.5,-163 87.5,-163 87.5,-163 0.5,-163"/>
<polygon fill="none" stroke="#666666" points="0,-146.5 0,-195.5 87,-195.5 87,-146.5 0,-146.5"/>
</a>
</g>
</g>
<!-- Node2&#45;&gt;Node1 -->
<g id="edge1_Node000001_Node000002" class="edge">
<title>Node2&#45;&gt;Node1</title>
<g id="a_edge1_Node000001_Node000002"><a xlink:title=" ">
<path fill="none" stroke="#63b8ff" d="M68.64,-138.39C82.86,-120.51 100.75,-98.01 115.8,-79.1"/>
<polygon fill="none" stroke="#63b8ff" points="65.88,-136.24 62.39,-146.25 71.36,-140.6 65.88,-136.24"/>
</a>
</g>
</g>
<!-- Node3 -->
<g id="Node000003" class="node">
<title>Node3</title>
<g id="a_Node000003"><a xlink:title=" ">
<polygon fill="white" stroke="transparent" points="188,-195.5 105,-195.5 105,-146.5 188,-146.5 188,-195.5"/>
<text text-anchor="start" x="110.5" y="-183" font-family="Helvetica,sans-Serif" font-size="10.00">SpriteRenderer</text>
<text text-anchor="start" x="145" y="-168" font-family="Helvetica,sans-Serif" font-size="10.00"> </text>
<text text-anchor="start" x="145" y="-153" font-family="Helvetica,sans-Serif" font-size="10.00"> </text>
<polygon fill="#666666" stroke="#666666" points="105.5,-178 105.5,-178 188.5,-178 188.5,-178 105.5,-178"/>
<polygon fill="#666666" stroke="#666666" points="105.5,-163 105.5,-163 188.5,-163 188.5,-163 105.5,-163"/>
<polygon fill="none" stroke="#666666" points="105,-146.5 105,-195.5 188,-195.5 188,-146.5 105,-146.5"/>
</a>
</g>
</g>
<!-- Node3&#45;&gt;Node1 -->
<g id="edge2_Node000001_Node000003" class="edge">
<title>Node3&#45;&gt;Node1</title>
<g id="a_edge2_Node000001_Node000003"><a xlink:title=" ">
<path fill="none" stroke="#63b8ff" d="M146.5,-146.25C146.5,-130.85 146.5,-110.21 146.5,-91.25"/>
<polygon fill="none" stroke="#63b8ff" points="146.5,-91.1 142.5,-85.1 146.5,-79.1 150.5,-85.1 146.5,-91.1"/>
</a>
</g>
<text text-anchor="middle" x="175.5" y="-100" font-family="Helvetica,sans-Serif" font-size="10.00" fill="grey"> +TileSprite</text>
</g>
<!-- Node4 -->
<g id="Node000004" class="node">
<title>Node4</title>
<g id="a_Node000004"><a xlink:href="classgame_1_1logic_1_1tile_1_1TileViewModel.html" target="_top" xlink:title=" ">
<polygon fill="white" stroke="transparent" points="334.5,-216 206.5,-216 206.5,-126 334.5,-126 334.5,-216"/>
<text text-anchor="start" x="211.5" y="-204" font-family="Helvetica,sans-Serif" font-size="10.00">game.logic.tile.TileView</text>
<text text-anchor="start" x="255" y="-193" font-family="Helvetica,sans-Serif" font-size="10.00">Model</text>
<text text-anchor="start" x="217" y="-178" font-family="Helvetica,sans-Serif" font-size="10.00">+</text>
<text text-anchor="start" x="236.5" y="-178" font-family="Helvetica,sans-Serif" font-size="10.00">X</text>
<text text-anchor="start" x="217" y="-163" font-family="Helvetica,sans-Serif" font-size="10.00">+</text>
<text text-anchor="start" x="236.5" y="-163" font-family="Helvetica,sans-Serif" font-size="10.00">Y</text>
<text text-anchor="start" x="217" y="-148" font-family="Helvetica,sans-Serif" font-size="10.00">+</text>
<text text-anchor="start" x="236.5" y="-148" font-family="Helvetica,sans-Serif" font-size="10.00">Color</text>
<text text-anchor="start" x="217" y="-133" font-family="Helvetica,sans-Serif" font-size="10.00">+</text>
<text text-anchor="start" x="236.5" y="-133" font-family="Helvetica,sans-Serif" font-size="10.00">TileViewModel()</text>
<polygon fill="#666666" stroke="#666666" points="206.5,-188 206.5,-188 334.5,-188 334.5,-188 206.5,-188"/>
<polygon fill="#666666" stroke="#666666" points="206.5,-143 206.5,-143 234.5,-143 234.5,-143 206.5,-143"/>
<polygon fill="#666666" stroke="#666666" points="234.5,-143 234.5,-143 334.5,-143 334.5,-143 234.5,-143"/>
<polygon fill="none" stroke="#666666" points="206.5,-126 206.5,-216 334.5,-216 334.5,-126 206.5,-126"/>
</a>
</g>
</g>
<!-- Node4&#45;&gt;Node1 -->
<g id="edge3_Node000001_Node000004" class="edge">
<title>Node4&#45;&gt;Node1</title>
<g id="a_edge3_Node000001_Node000004"><a xlink:title=" ">
<path fill="none" stroke="#63b8ff" d="M234.67,-125.96C226.31,-116.22 217.28,-106.09 208.5,-97 205.44,-93.83 202.23,-90.62 198.96,-87.42"/>
<polygon fill="none" stroke="#63b8ff" points="198.86,-87.32 191.76,-86.06 190.19,-79.02 197.29,-80.28 198.86,-87.32"/>
</a>
</g>
<text text-anchor="middle" x="239.5" y="-100" font-family="Helvetica,sans-Serif" font-size="10.00" fill="grey"> &#45;_tileVM</text>
</g>
<!-- Node5 -->
<g id="Node000005" class="node">
<title>Node5</title>
<g id="a_Node000005"><a xlink:href="classgame_1_1logic_1_1playfield_1_1PlayFieldViewModel.html" target="_top" xlink:title=" ">
<polygon fill="white" stroke="transparent" points="483.5,-398 349.5,-398 349.5,-263 483.5,-263 483.5,-398"/>
<text text-anchor="start" x="354.5" y="-385.5" font-family="Helvetica,sans-Serif" font-size="10.00">game.logic.playfield.Play</text>
<text text-anchor="start" x="377.5" y="-374.5" font-family="Helvetica,sans-Serif" font-size="10.00">FieldViewModel</text>
<text text-anchor="start" x="355" y="-359.5" font-family="Helvetica,sans-Serif" font-size="10.00">+</text>
<text text-anchor="start" x="369.5" y="-359.5" font-family="Helvetica,sans-Serif" font-size="10.00">Width</text>
<text text-anchor="start" x="355" y="-344.5" font-family="Helvetica,sans-Serif" font-size="10.00">+</text>
<text text-anchor="start" x="369.5" y="-344.5" font-family="Helvetica,sans-Serif" font-size="10.00">Height</text>
<text text-anchor="start" x="355" y="-329.5" font-family="Helvetica,sans-Serif" font-size="10.00">+</text>
<text text-anchor="start" x="369.5" y="-329.5" font-family="Helvetica,sans-Serif" font-size="10.00">Tiles</text>
<text text-anchor="start" x="355" y="-314.5" font-family="Helvetica,sans-Serif" font-size="10.00">+</text>
<text text-anchor="start" x="369.5" y="-314.5" font-family="Helvetica,sans-Serif" font-size="10.00">PlayFieldViewModel()</text>
<text text-anchor="start" x="355" y="-299.5" font-family="Helvetica,sans-Serif" font-size="10.00">+</text>
<text text-anchor="start" x="369.5" y="-299.5" font-family="Helvetica,sans-Serif" font-size="10.00">GetTile()</text>
<text text-anchor="start" x="355" y="-284.5" font-family="Helvetica,sans-Serif" font-size="10.00">+</text>
<text text-anchor="start" x="369.5" y="-284.5" font-family="Helvetica,sans-Serif" font-size="10.00">PlaceTile()</text>
<text text-anchor="start" x="355" y="-269.5" font-family="Helvetica,sans-Serif" font-size="10.00">+</text>
<text text-anchor="start" x="369.5" y="-269.5" font-family="Helvetica,sans-Serif" font-size="10.00">Update()</text>
<polygon fill="#666666" stroke="#666666" points="349.5,-369.5 349.5,-369.5 483.5,-369.5 483.5,-369.5 349.5,-369.5"/>
<polygon fill="#666666" stroke="#666666" points="349.5,-324.5 349.5,-324.5 367.5,-324.5 367.5,-324.5 349.5,-324.5"/>
<polygon fill="#666666" stroke="#666666" points="367.5,-324.5 367.5,-324.5 483.5,-324.5 483.5,-324.5 367.5,-324.5"/>
<polygon fill="none" stroke="#666666" points="349.5,-263 349.5,-398 483.5,-398 483.5,-263 349.5,-263"/>
</a>
</g>
</g>
<!-- Node5&#45;&gt;Node4 -->
<g id="edge4_Node000004_Node000005" class="edge">
<title>Node5&#45;&gt;Node4</title>
<g id="a_edge4_Node000004_Node000005"><a xlink:title=" ">
<path fill="none" stroke="#63b8ff" d="M354.58,-262.71C342.94,-250.15 330.91,-237.17 319.72,-225.1"/>
<polygon fill="none" stroke="#63b8ff" points="319.5,-224.86 312.49,-223.18 311.35,-216.06 318.36,-217.74 319.5,-224.86"/>
</a>
</g>
<text text-anchor="middle" x="372" y="-237" font-family="Helvetica,sans-Serif" font-size="10.00" fill="grey"> &#45;_playFieldVM</text>
</g>
<!-- Node6 -->
<g id="Node000006" class="node">
<title>Node6</title>
<g id="a_Node000006"><a xlink:href="interfacegamerunner_1_1IUpdatable.html" target="_top" xlink:title=" ">
<polygon fill="white" stroke="transparent" points="635.5,-520 571.5,-520 571.5,-471 635.5,-471 635.5,-520"/>
<text text-anchor="start" x="576.5" y="-507.5" font-family="Helvetica,sans-Serif" font-size="10.00">IUpdatable</text>
<text text-anchor="start" x="601.5" y="-492.5" font-family="Helvetica,sans-Serif" font-size="10.00"> </text>
<text text-anchor="start" x="575.5" y="-477.5" font-family="Helvetica,sans-Serif" font-size="10.00">+</text>
<text text-anchor="start" x="588.5" y="-477.5" font-family="Helvetica,sans-Serif" font-size="10.00">Update()</text>
<polygon fill="#666666" stroke="#666666" points="571.5,-502.5 571.5,-502.5 635.5,-502.5 635.5,-502.5 571.5,-502.5"/>
<polygon fill="#666666" stroke="#666666" points="571.5,-487.5 571.5,-487.5 635.5,-487.5 635.5,-487.5 571.5,-487.5"/>
<polygon fill="none" stroke="#666666" points="571.5,-471 571.5,-520 635.5,-520 635.5,-471 571.5,-471"/>
</a>
</g>
</g>
<!-- Node6&#45;&gt;Node5 -->
<g id="edge5_Node000005_Node000006" class="edge">
<title>Node6&#45;&gt;Node5</title>
<g id="a_edge5_Node000005_Node000006"><a xlink:title=" ">
<path fill="none" stroke="#63b8ff" d="M583.06,-462.3C572.61,-447.25 559.03,-429.67 544.5,-416 526.37,-398.94 504.4,-383.07 483.83,-369.8"/>
<polygon fill="none" stroke="#63b8ff" points="580.34,-464.51 588.84,-470.83 586.13,-460.59 580.34,-464.51"/>
</a>
</g>
</g>
<!-- Node7 -->
<g id="Node000007" class="node">
<title>Node7</title>
<g id="a_Node000007"><a xlink:href="classgame_1_1logic_1_1playfield_1_1PlayField.html" target="_top" xlink:title=" ">
<polygon fill="white" stroke="transparent" points="383.5,-533 249.5,-533 249.5,-458 383.5,-458 383.5,-533"/>
<text text-anchor="start" x="254.5" y="-520.5" font-family="Helvetica,sans-Serif" font-size="10.00">game.logic.playfield.Play</text>
<text text-anchor="start" x="304.5" y="-509.5" font-family="Helvetica,sans-Serif" font-size="10.00">Field</text>
<text text-anchor="start" x="273.5" y="-494.5" font-family="Helvetica,sans-Serif" font-size="10.00">+</text>
<text text-anchor="start" x="306.5" y="-494.5" font-family="Helvetica,sans-Serif" font-size="10.00">Width</text>
<text text-anchor="start" x="273.5" y="-479.5" font-family="Helvetica,sans-Serif" font-size="10.00">+</text>
<text text-anchor="start" x="306.5" y="-479.5" font-family="Helvetica,sans-Serif" font-size="10.00">Height</text>
<text text-anchor="start" x="314.5" y="-464.5" font-family="Helvetica,sans-Serif" font-size="10.00"> </text>
<polygon fill="#666666" stroke="#666666" points="249.5,-504.5 249.5,-504.5 383.5,-504.5 383.5,-504.5 249.5,-504.5"/>
<polygon fill="#666666" stroke="#666666" points="249.5,-474.5 249.5,-474.5 304.5,-474.5 304.5,-474.5 249.5,-474.5"/>
<polygon fill="#666666" stroke="#666666" points="304.5,-474.5 304.5,-474.5 383.5,-474.5 383.5,-474.5 304.5,-474.5"/>
<polygon fill="none" stroke="#666666" points="249.5,-458 249.5,-533 383.5,-533 383.5,-458 249.5,-458"/>
</a>
</g>
</g>
<!-- Node7&#45;&gt;Node5 -->
<g id="edge6_Node000005_Node000007" class="edge">
<title>Node7&#45;&gt;Node5</title>
<g id="a_edge6_Node000005_Node000007"><a xlink:title=" ">
<path fill="none" stroke="#63b8ff" d="M338.94,-457.92C347.91,-443.31 358.59,-425.89 369.12,-408.73"/>
<polygon fill="none" stroke="#63b8ff" points="369.36,-408.33 369.09,-401.13 375.64,-398.1 375.91,-405.31 369.36,-408.33"/>
</a>
</g>
<text text-anchor="middle" x="393" y="-424.5" font-family="Helvetica,sans-Serif" font-size="10.00" fill="grey"> &#45;_playField</text>
</g>
<!-- Node8 -->
<g id="Node000008" class="node">
<title>Node8</title>
<g id="a_Node000008"><a xlink:title=" ">
<polygon fill="white" stroke="transparent" points="240,-647.5 217,-647.5 217,-598.5 240,-598.5 240,-647.5"/>
<text text-anchor="start" x="222.5" y="-635" font-family="Helvetica,sans-Serif" font-size="10.00">int</text>
<text text-anchor="start" x="227" y="-620" font-family="Helvetica,sans-Serif" font-size="10.00"> </text>
<text text-anchor="start" x="227" y="-605" font-family="Helvetica,sans-Serif" font-size="10.00"> </text>
<polygon fill="#666666" stroke="#666666" points="217.5,-630 217.5,-630 240.5,-630 240.5,-630 217.5,-630"/>
<polygon fill="#666666" stroke="#666666" points="217.5,-615 217.5,-615 240.5,-615 240.5,-615 217.5,-615"/>
<polygon fill="none" stroke="#666666" points="217,-598.5 217,-647.5 240,-647.5 240,-598.5 217,-598.5"/>
</a>
</g>
</g>
<!-- Node8&#45;&gt;Node4 -->
<g id="edge11_Node000004_Node000008" class="edge">
<title>Node8&#45;&gt;Node4</title>
<g id="a_edge11_Node000004_Node000008"><a xlink:title=" ">
<path fill="none" stroke="#63b8ff" d="M229.96,-598.34C232.01,-566.12 235.99,-506.65 240.5,-456 247.54,-376.86 257.52,-285.52 264,-228.26"/>
<polygon fill="none" stroke="#63b8ff" points="264.01,-228.15 260.72,-221.74 265.37,-216.23 268.67,-222.64 264.01,-228.15"/>
</a>
</g>
<text text-anchor="middle" x="254" y="-430" font-family="Helvetica,sans-Serif" font-size="10.00" fill="grey"> &#45;_x</text>
<text text-anchor="middle" x="254" y="-419" font-family="Helvetica,sans-Serif" font-size="10.00" fill="grey">&#45;_y</text>
</g>
<!-- Node8&#45;&gt;Node7 -->
<g id="edge7_Node000007_Node000008" class="edge">
<title>Node8&#45;&gt;Node7</title>
<g id="a_edge7_Node000007_Node000008"><a xlink:title=" ">
<path fill="none" stroke="#63b8ff" d="M236.14,-598.46C241.27,-584.55 248.85,-566.97 258.5,-553 261,-549.37 263.76,-545.79 266.68,-542.29"/>
<polygon fill="none" stroke="#63b8ff" points="266.73,-542.23 267.72,-535.09 274.69,-533.26 273.7,-540.4 266.73,-542.23"/>
</a>
</g>
<text text-anchor="middle" x="290" y="-567" font-family="Helvetica,sans-Serif" font-size="10.00" fill="grey"> &#45;FieldHeight</text>
<text text-anchor="middle" x="290" y="-556" font-family="Helvetica,sans-Serif" font-size="10.00" fill="grey">&#45;FieldWidth</text>
</g>
<!-- Node9 -->
<g id="Node000009" class="node">
<title>Node9</title>
<g id="a_Node000009"><a xlink:href="interfacegame_1_1logic_1_1tile_1_1ITileable.html" target="_top" xlink:title=" ">
<polygon fill="white" stroke="transparent" points="398.5,-647.5 270.5,-647.5 270.5,-598.5 398.5,-598.5 398.5,-647.5"/>
<text text-anchor="start" x="275.5" y="-635" font-family="Helvetica,sans-Serif" font-size="10.00">game.logic.tile.ITileable</text>
<text text-anchor="start" x="294.5" y="-620" font-family="Helvetica,sans-Serif" font-size="10.00">+</text>
<text text-anchor="start" x="327.5" y="-620" font-family="Helvetica,sans-Serif" font-size="10.00">Color</text>
<text text-anchor="start" x="332.5" y="-605" font-family="Helvetica,sans-Serif" font-size="10.00"> </text>
<polygon fill="#666666" stroke="#666666" points="270.5,-630 270.5,-630 398.5,-630 398.5,-630 270.5,-630"/>
<polygon fill="#666666" stroke="#666666" points="270.5,-615 270.5,-615 325.5,-615 325.5,-615 270.5,-615"/>
<polygon fill="#666666" stroke="#666666" points="325.5,-615 325.5,-615 398.5,-615 398.5,-615 325.5,-615"/>
<polygon fill="none" stroke="#666666" points="270.5,-598.5 270.5,-647.5 398.5,-647.5 398.5,-598.5 270.5,-598.5"/>
</a>
</g>
</g>
<!-- Node9&#45;&gt;Node7 -->
<g id="edge8_Node000007_Node000009" class="edge">
<title>Node9&#45;&gt;Node7</title>
<g id="a_edge8_Node000007_Node000009"><a xlink:title=" ">
<path fill="none" stroke="#63b8ff" d="M331.11,-598.39C328.97,-583.44 326.12,-563.54 323.5,-545.3"/>
<polygon fill="none" stroke="#63b8ff" points="323.49,-545.2 318.67,-539.83 321.78,-533.32 326.59,-538.7 323.49,-545.2"/>
</a>
</g>
<text text-anchor="middle" x="346" y="-561.5" font-family="Helvetica,sans-Serif" font-size="10.00" fill="grey"> +Field</text>
</g>
<!-- Node10 -->
<g id="Node000010" class="node">
<title>Node10</title>
<g id="a_Node000010"><a xlink:href="classgame_1_1service_1_1ServiceLocator.html" target="_top" xlink:title=" ">
<polygon fill="white" stroke="transparent" points="553.5,-535 401.5,-535 401.5,-456 553.5,-456 553.5,-535"/>
<text text-anchor="start" x="406.5" y="-522.5" font-family="Helvetica,sans-Serif" font-size="10.00">game.service.ServiceLocator</text>
<text text-anchor="start" x="475.5" y="-507.5" font-family="Helvetica,sans-Serif" font-size="10.00"> </text>
<text text-anchor="start" x="410" y="-492.5" font-family="Helvetica,sans-Serif" font-size="10.00">+</text>
<text text-anchor="start" x="427.5" y="-492.5" font-family="Helvetica,sans-Serif" font-size="10.00">ServiceLocator()</text>
<text text-anchor="start" x="410" y="-477.5" font-family="Helvetica,sans-Serif" font-size="10.00">+</text>
<text text-anchor="start" x="427.5" y="-477.5" font-family="Helvetica,sans-Serif" font-size="10.00">GetService&lt; T &gt;()</text>
<text text-anchor="start" x="410" y="-462.5" font-family="Helvetica,sans-Serif" font-size="10.00">+</text>
<text text-anchor="start" x="427.5" y="-462.5" font-family="Helvetica,sans-Serif" font-size="10.00">RegisterService&lt; T &gt;()</text>
<polygon fill="#666666" stroke="#666666" points="401.5,-517.5 401.5,-517.5 553.5,-517.5 553.5,-517.5 401.5,-517.5"/>
<polygon fill="#666666" stroke="#666666" points="401.5,-502.5 401.5,-502.5 553.5,-502.5 553.5,-502.5 401.5,-502.5"/>
<polygon fill="none" stroke="#666666" points="401.5,-456 401.5,-535 553.5,-535 553.5,-456 401.5,-456"/>
</a>
</g>
</g>
<!-- Node10&#45;&gt;Node5 -->
<g id="edge9_Node000005_Node000010" class="edge">
<title>Node10&#45;&gt;Node5</title>
<g id="a_edge9_Node000005_Node000010"><a xlink:title=" ">
<path fill="none" stroke="#63b8ff" d="M463.04,-455.87C457.86,-442.01 451.8,-425.83 445.81,-409.82"/>
<polygon fill="none" stroke="#63b8ff" points="445.68,-409.46 439.83,-405.24 441.47,-398.22 447.32,-402.44 445.68,-409.46"/>
</a>
</g>
<text text-anchor="middle" x="498.5" y="-424.5" font-family="Helvetica,sans-Serif" font-size="10.00" fill="grey"> &#45;_serviceLocator</text>
</g>
<!-- Node11 -->
<g id="Node000011" class="node">
<title>Node11</title>
<g id="a_Node000011"><a xlink:title=" ">
<polygon fill="white" stroke="transparent" points="550,-653 417,-653 417,-593 550,-593 550,-653"/>
<text text-anchor="start" x="422.5" y="-641" font-family="Helvetica,sans-Serif" font-size="10.00">IDictionary&lt; object,</text>
<text text-anchor="start" x="422.5" y="-630" font-family="Helvetica,sans-Serif" font-size="10.00"> game.service.IService &gt;</text>
<text text-anchor="start" x="482" y="-615" font-family="Helvetica,sans-Serif" font-size="10.00"> </text>
<text text-anchor="start" x="482" y="-600" font-family="Helvetica,sans-Serif" font-size="10.00"> </text>
<polygon fill="#666666" stroke="#666666" points="417.5,-625 417.5,-625 550.5,-625 550.5,-625 417.5,-625"/>
<polygon fill="#666666" stroke="#666666" points="417.5,-610 417.5,-610 550.5,-610 550.5,-610 417.5,-610"/>
<polygon fill="none" stroke="#666666" points="417,-593 417,-653 550,-653 550,-593 417,-593"/>
</a>
</g>
</g>
<!-- Node11&#45;&gt;Node10 -->
<g id="edge10_Node000010_Node000011" class="edge">
<title>Node11&#45;&gt;Node10</title>
<g id="a_edge10_Node000010_Node000011"><a xlink:title=" ">
<path fill="none" stroke="#63b8ff" d="M482.11,-592.89C481.46,-579.41 480.68,-562.98 479.94,-547.54"/>
<polygon fill="none" stroke="#63b8ff" points="479.93,-547.42 475.65,-541.62 479.36,-535.44 483.64,-541.24 479.93,-547.42"/>
</a>
</g>
<text text-anchor="middle" x="505.5" y="-561.5" font-family="Helvetica,sans-Serif" font-size="10.00" fill="grey"> &#45;services</text>
</g>
</g>
</svg>
