<?xml version="1.0" encoding="UTF-8" standalone="no"?>
<!DOCTYPE svg PUBLIC "-//W3C//DTD SVG 1.1//EN"
 "http://www.w3.org/Graphics/SVG/1.1/DTD/svg11.dtd">
<!-- Generated by graphviz version 2.43.0 (0)
 -->
<!-- Title: game.logic.EventQueue.EventQueue Pages: 1 -->
<svg width="166pt" height="198pt"
 viewBox="0.00 0.00 166.00 198.00" xmlns="http://www.w3.org/2000/svg" xmlns:xlink="http://www.w3.org/1999/xlink">
<g id="graph0" class="graph" transform="scale(1 1) rotate(0) translate(4 194)">
<title>game.logic.EventQueue.EventQueue</title>
<!-- Node1 -->
<g id="Node000001" class="node">
<title>Node1</title>
<g id="a_Node000001"><a xlink:title=" ">
<polygon fill="#999999" stroke="transparent" points="158,-105 0,-105 0,0 158,0 158,-105"/>
<text text-anchor="start" x="5" y="-92.5" font-family="Helvetica,sans-Serif" font-size="10.00">game.logic.EventQueue.Event</text>
<text text-anchor="start" x="63" y="-81.5" font-family="Helvetica,sans-Serif" font-size="10.00">Queue</text>
<text text-anchor="start" x="24" y="-66.5" font-family="Helvetica,sans-Serif" font-size="10.00">&#45;</text>
<text text-anchor="start" x="52" y="-66.5" font-family="Helvetica,sans-Serif" font-size="10.00">_queues</text>
<text text-anchor="start" x="21.5" y="-51.5" font-family="Helvetica,sans-Serif" font-size="10.00">+</text>
<text text-anchor="start" x="52" y="-51.5" font-family="Helvetica,sans-Serif" font-size="10.00">EventQueue()</text>
<text text-anchor="start" x="21.5" y="-36.5" font-family="Helvetica,sans-Serif" font-size="10.00">+</text>
<text text-anchor="start" x="52" y="-36.5" font-family="Helvetica,sans-Serif" font-size="10.00">Enqueue()</text>
<text text-anchor="start" x="21.5" y="-21.5" font-family="Helvetica,sans-Serif" font-size="10.00">+</text>
<text text-anchor="start" x="52" y="-21.5" font-family="Helvetica,sans-Serif" font-size="10.00">HasEvent()</text>
<text text-anchor="start" x="21.5" y="-6.5" font-family="Helvetica,sans-Serif" font-size="10.00">+</text>
<text text-anchor="start" x="52" y="-6.5" font-family="Helvetica,sans-Serif" font-size="10.00">Dequeue()</text>
<polygon fill="#666666" stroke="#666666" points="0,-76.5 0,-76.5 158,-76.5 158,-76.5 0,-76.5"/>
<polygon fill="#666666" stroke="#666666" points="0,-61.5 0,-61.5 50,-61.5 50,-61.5 0,-61.5"/>
<polygon fill="#666666" stroke="#666666" points="50,-61.5 50,-61.5 158,-61.5 158,-61.5 50,-61.5"/>
<polygon fill="none" stroke="#666666" points="0,0 0,-105 158,-105 158,0 0,0"/>
</a>
</g>
</g>
<!-- Node2 -->
<g id="Node000002" class="node">
<title>Node2</title>
<g id="a_Node000002"><a xlink:href="interfacegame_1_1service_1_1IService.html" target="_top" xlink:title=" ">
<polygon fill="white" stroke="transparent" points="104,-190 54,-190 54,-141 104,-141 104,-190"/>
<text text-anchor="start" x="59" y="-177.5" font-family="Helvetica,sans-Serif" font-size="10.00">IService</text>
<text text-anchor="start" x="77" y="-162.5" font-family="Helvetica,sans-Serif" font-size="10.00"> </text>
<text text-anchor="start" x="77" y="-147.5" font-family="Helvetica,sans-Serif" font-size="10.00"> </text>
<polygon fill="#666666" stroke="#666666" points="54,-172.5 54,-172.5 104,-172.5 104,-172.5 54,-172.5"/>
<polygon fill="#666666" stroke="#666666" points="54,-157.5 54,-157.5 104,-157.5 104,-157.5 54,-157.5"/>
<polygon fill="none" stroke="#666666" points="54,-141 54,-190 104,-190 104,-141 54,-141"/>
</a>
</g>
</g>
<!-- Node2&#45;&gt;Node1 -->
<g id="edge1_Node000001_Node000002" class="edge">
<title>Node2&#45;&gt;Node1</title>
<g id="a_edge1_Node000001_Node000002"><a xlink:title=" ">
<path fill="none" stroke="#63b8ff" d="M79,-130.85C79,-122.79 79,-114 79,-105.32"/>
<polygon fill="none" stroke="#63b8ff" points="75.5,-130.96 79,-140.96 82.5,-130.96 75.5,-130.96"/>
</a>
</g>
</g>
</g>
</svg>
