<?xml version="1.0" encoding="UTF-8" standalone="no"?>
<!DOCTYPE svg PUBLIC "-//W3C//DTD SVG 1.1//EN"
 "http://www.w3.org/Graphics/SVG/1.1/DTD/svg11.dtd">
<!-- Generated by graphviz version 2.43.0 (0)
 -->
<!-- Title: network.HttpPostRequest Pages: 1 -->
<svg width="240pt" height="183pt"
 viewBox="0.00 0.00 239.50 183.00" xmlns="http://www.w3.org/2000/svg" xmlns:xlink="http://www.w3.org/1999/xlink">
<g id="graph0" class="graph" transform="scale(1 1) rotate(0) translate(4 179)">
<title>network.HttpPostRequest</title>
<!-- Node1 -->
<g id="Node000001" class="node">
<title>Node1</title>
<g id="a_Node000001"><a xlink:title=" ">
<polygon fill="#999999" stroke="transparent" points="213,-79 78,-79 78,0 213,0 213,-79"/>
<text text-anchor="start" x="83.5" y="-66.5" font-family="Helvetica,sans-Serif" font-size="10.00">network.HttpPostRequest</text>
<text text-anchor="start" x="144" y="-51.5" font-family="Helvetica,sans-Serif" font-size="10.00"> </text>
<text text-anchor="start" x="92" y="-36.5" font-family="Helvetica,sans-Serif" font-size="10.00">+</text>
<text text-anchor="start" x="114.5" y="-36.5" font-family="Helvetica,sans-Serif" font-size="10.00">ExecuteAsync()</text>
<text text-anchor="start" x="92" y="-21.5" font-family="Helvetica,sans-Serif" font-size="10.00">+</text>
<text text-anchor="start" x="114.5" y="-21.5" font-family="Helvetica,sans-Serif" font-size="10.00">SetData()</text>
<text text-anchor="start" x="92" y="-6.5" font-family="Helvetica,sans-Serif" font-size="10.00">+</text>
<text text-anchor="start" x="114.5" y="-6.5" font-family="Helvetica,sans-Serif" font-size="10.00">SetClient()</text>
<polygon fill="#666666" stroke="#666666" points="78.5,-61.5 78.5,-61.5 213.5,-61.5 213.5,-61.5 78.5,-61.5"/>
<polygon fill="#666666" stroke="#666666" points="78.5,-46.5 78.5,-46.5 213.5,-46.5 213.5,-46.5 78.5,-46.5"/>
<polygon fill="none" stroke="#666666" points="78,0 78,-79 213,-79 213,0 78,0"/>
</a>
</g>
</g>
<!-- Node2 -->
<g id="Node000002" class="node">
<title>Node2</title>
<g id="a_Node000002"><a xlink:href="interfacenetwork_1_1IHttpRequest.html" target="_top" xlink:title=" ">
<polygon fill="white" stroke="transparent" points="97,-175 0,-175 0,-126 97,-126 97,-175"/>
<text text-anchor="start" x="17" y="-162.5" font-family="Helvetica,sans-Serif" font-size="10.00">IHttpRequest</text>
<text text-anchor="start" x="47" y="-147.5" font-family="Helvetica,sans-Serif" font-size="10.00"> </text>
<text text-anchor="start" x="4.5" y="-132.5" font-family="Helvetica,sans-Serif" font-size="10.00">+</text>
<text text-anchor="start" x="17.5" y="-132.5" font-family="Helvetica,sans-Serif" font-size="10.00">ExecuteAsync()</text>
<polygon fill="#666666" stroke="#666666" points="0.5,-157.5 0.5,-157.5 97.5,-157.5 97.5,-157.5 0.5,-157.5"/>
<polygon fill="#666666" stroke="#666666" points="0.5,-142.5 0.5,-142.5 97.5,-142.5 97.5,-142.5 0.5,-142.5"/>
<polygon fill="none" stroke="#666666" points="0,-126 0,-175 97,-175 97,-126 0,-126"/>
</a>
</g>
</g>
<!-- Node2&#45;&gt;Node1 -->
<g id="edge1_Node000001_Node000002" class="edge">
<title>Node2&#45;&gt;Node1</title>
<g id="a_edge1_Node000001_Node000002"><a xlink:title=" ">
<path fill="none" stroke="#63b8ff" d="M76.4,-118.15C87.24,-105.97 99.76,-91.9 111.15,-79.1"/>
<polygon fill="none" stroke="#63b8ff" points="73.58,-116.05 69.55,-125.85 78.81,-120.71 73.58,-116.05"/>
</a>
</g>
</g>
<!-- Node3 -->
<g id="Node000003" class="node">
<title>Node3</title>
<g id="a_Node000003"><a xlink:title=" ">
<polygon fill="white" stroke="transparent" points="175.5,-175 115.5,-175 115.5,-126 175.5,-126 175.5,-175"/>
<text text-anchor="start" x="120.5" y="-162.5" font-family="Helvetica,sans-Serif" font-size="10.00">HttpClient</text>
<text text-anchor="start" x="143.5" y="-147.5" font-family="Helvetica,sans-Serif" font-size="10.00"> </text>
<text text-anchor="start" x="143.5" y="-132.5" font-family="Helvetica,sans-Serif" font-size="10.00"> </text>
<polygon fill="#666666" stroke="#666666" points="115.5,-157.5 115.5,-157.5 175.5,-157.5 175.5,-157.5 115.5,-157.5"/>
<polygon fill="#666666" stroke="#666666" points="115.5,-142.5 115.5,-142.5 175.5,-142.5 175.5,-142.5 115.5,-142.5"/>
<polygon fill="none" stroke="#666666" points="115.5,-126 115.5,-175 175.5,-175 175.5,-126 115.5,-126"/>
</a>
</g>
</g>
<!-- Node3&#45;&gt;Node1 -->
<g id="edge2_Node000001_Node000003" class="edge">
<title>Node3&#45;&gt;Node1</title>
<g id="a_edge2_Node000001_Node000003"><a xlink:title=" ">
<path fill="none" stroke="#63b8ff" d="M145.5,-125.85C145.5,-115.72 145.5,-103.47 145.5,-91.45"/>
<polygon fill="none" stroke="#63b8ff" points="145.5,-91.1 141.5,-85.1 145.5,-79.1 149.5,-85.1 145.5,-91.1"/>
</a>
</g>
<text text-anchor="middle" x="165.5" y="-100" font-family="Helvetica,sans-Serif" font-size="10.00" fill="grey"> &#45;_client</text>
</g>
<!-- Node4 -->
<g id="Node000004" class="node">
<title>Node4</title>
<g id="a_Node000004"><a xlink:title=" ">
<polygon fill="white" stroke="transparent" points="231.5,-175 193.5,-175 193.5,-126 231.5,-126 231.5,-175"/>
<text text-anchor="start" x="198.5" y="-162.5" font-family="Helvetica,sans-Serif" font-size="10.00">string</text>
<text text-anchor="start" x="210.5" y="-147.5" font-family="Helvetica,sans-Serif" font-size="10.00"> </text>
<text text-anchor="start" x="210.5" y="-132.5" font-family="Helvetica,sans-Serif" font-size="10.00"> </text>
<polygon fill="#666666" stroke="#666666" points="193.5,-157.5 193.5,-157.5 231.5,-157.5 231.5,-157.5 193.5,-157.5"/>
<polygon fill="#666666" stroke="#666666" points="193.5,-142.5 193.5,-142.5 231.5,-142.5 231.5,-142.5 193.5,-142.5"/>
<polygon fill="none" stroke="#666666" points="193.5,-126 193.5,-175 231.5,-175 231.5,-126 193.5,-126"/>
</a>
</g>
</g>
<!-- Node4&#45;&gt;Node1 -->
<g id="edge3_Node000001_Node000004" class="edge">
<title>Node4&#45;&gt;Node1</title>
<g id="a_edge3_Node000001_Node000004"><a xlink:title=" ">
<path fill="none" stroke="#63b8ff" d="M203.62,-125.88C199.77,-116.62 194.9,-106.06 189.5,-97 187.94,-94.38 186.28,-91.75 184.54,-89.13"/>
<polygon fill="none" stroke="#63b8ff" points="184.43,-88.97 177.72,-86.33 177.58,-79.12 184.29,-81.76 184.43,-88.97"/>
</a>
</g>
<text text-anchor="middle" x="211.5" y="-100" font-family="Helvetica,sans-Serif" font-size="10.00" fill="grey"> &#45;_data</text>
</g>
</g>
</svg>
