<?xml version="1.0" encoding="UTF-8" standalone="no"?>
<!DOCTYPE svg PUBLIC "-//W3C//DTD SVG 1.1//EN"
 "http://www.w3.org/Graphics/SVG/1.1/DTD/svg11.dtd">
<!-- Generated by graphviz version 2.43.0 (0)
 -->
<!-- Title: GameInitialiser Pages: 1 -->
<!--zoomable 787 -->

<svg id="main" version="1.1" xmlns="http://www.w3.org/2000/svg" xmlns:xlink="http://www.w3.org/1999/xlink" xml:space="preserve" onload="init(evt)">
<style type="text/css"><![CDATA[
.node, .edge {opacity: 0.7;}
.node.selected, .edge.selected {opacity: 1;}
.edge:hover path { stroke: red; }
.edge:hover polygon { stroke: red; fill: red; }
]]></style>

<defs>
  <circle id="rim" cx="0" cy="0" r="7"/>
  <circle id="rim2" cx="0" cy="0" r="3.5"/>
  <g id="zoomPlus">
    <use xlink:href="#rim" fill="#404040"><set attributeName="fill" to="#808080" begin="zoomplus.mouseover" end="zoomplus.mouseout"/></use>
    <path d="M-4,0h8M0,-4v8" fill="none" stroke="white" stroke-width="1.5" pointer-events="none"/>
  </g>
  <g id="zoomMin">
    <use xlink:href="#rim" fill="#404040"><set attributeName="fill" to="#808080" begin="zoomminus.mouseover" end="zoomminus.mouseout"/></use>
    <path d="M-4,0h8" fill="none" stroke="white" stroke-width="1.5" pointer-events="none"/>
  </g>
  <g id="arrowUp" transform="translate(30 24)">
    <use xlink:href="#rim"/>
    <path pointer-events="none" fill="none" stroke="white" stroke-width="1.5" d="M0,-3.0v7 M-2.5,-0.5L0,-3.0L2.5,-0.5"/>
  </g>
  <g id="arrowRight" transform="rotate(90) translate(36 -43)">
    <use xlink:href="#rim"/>
    <path pointer-events="none" fill="none" stroke="white" stroke-width="1.5" d="M0,-3.0v7 M-2.5,-0.5L0,-3.0L2.5,-0.5"/>
  </g>
  <g id="arrowDown" transform="rotate(180) translate(-30 -48)">
    <use xlink:href="#rim"/>
    <path pointer-events="none" fill="none" stroke="white" stroke-width="1.5" d="M0,-3.0v7 M-2.5,-0.5L0,-3.0L2.5,-0.5"/>
  </g>
  <g id="arrowLeft" transform="rotate(270) translate(-36 17)">
    <use xlink:href="#rim"/>
    <path pointer-events="none" fill="none" stroke="white" stroke-width="1.5" d="M0,-3.0v7 M-2.5,-0.5L0,-3.0L2.5,-0.5"/>
  </g>
  <g id="resetDef">
    <use xlink:href="#rim2" fill="#404040"><set attributeName="fill" to="#808080" begin="reset.mouseover" end="reset.mouseout"/></use>
  </g>
</defs>
<script type="application/ecmascript">
var viewWidth = 914;
var viewHeight = 787;
var sectionId = 'dynsection-1';
</script>
<script type="application/ecmascript" xlink:href="svg.min.js"/>
<svg id="graph" class="graph">
<g id="viewport">
<title>GameInitialiser</title>
<!-- Node1 -->
<g id="Node000001" class="node">
<title>Node1</title>
<g id="a_Node000001"><a xlink:title=" ">
<polygon fill="#999999" stroke="transparent" points="517.5,-49 431.5,-49 431.5,0 517.5,0 517.5,-49"/>
<text text-anchor="start" x="436.5" y="-36.5" font-family="Helvetica,sans-Serif" font-size="10.00">GameInitialiser</text>
<text text-anchor="start" x="472.5" y="-21.5" font-family="Helvetica,sans-Serif" font-size="10.00"> </text>
<text text-anchor="start" x="445" y="-6.5" font-family="Helvetica,sans-Serif" font-size="10.00">&#45;</text>
<text text-anchor="start" x="462.5" y="-6.5" font-family="Helvetica,sans-Serif" font-size="10.00">Start()</text>
<polygon fill="#666666" stroke="#666666" points="431.5,-31.5 431.5,-31.5 517.5,-31.5 517.5,-31.5 431.5,-31.5"/>
<polygon fill="#666666" stroke="#666666" points="431.5,-16.5 431.5,-16.5 517.5,-16.5 517.5,-16.5 431.5,-16.5"/>
<polygon fill="none" stroke="#666666" points="431.5,0 431.5,-49 517.5,-49 517.5,0 431.5,0"/>
</a>
</g>
</g>
<!-- Node2 -->
<g id="Node000002" class="node">
<title>Node2</title>
<g id="a_Node000002"><a xlink:href="classMonoBehaviour.html" target="_top" xlink:title=" ">
<polygon fill="white" stroke="transparent" points="535,-314 448,-314 448,-265 535,-265 535,-314"/>
<text text-anchor="start" x="453.5" y="-301.5" font-family="Helvetica,sans-Serif" font-size="10.00">MonoBehaviour</text>
<text text-anchor="start" x="490" y="-286.5" font-family="Helvetica,sans-Serif" font-size="10.00"> </text>
<text text-anchor="start" x="490" y="-271.5" font-family="Helvetica,sans-Serif" font-size="10.00"> </text>
<polygon fill="#666666" stroke="#666666" points="448.5,-296.5 448.5,-296.5 535.5,-296.5 535.5,-296.5 448.5,-296.5"/>
<polygon fill="#666666" stroke="#666666" points="448.5,-281.5 448.5,-281.5 535.5,-281.5 535.5,-281.5 448.5,-281.5"/>
<polygon fill="none" stroke="#666666" points="448,-265 448,-314 535,-314 535,-265 448,-265"/>
</a>
</g>
</g>
<!-- Node2&#45;&gt;Node1 -->
<g id="edge1_Node000001_Node000002" class="edge">
<title>Node2&#45;&gt;Node1</title>
<g id="a_edge1_Node000001_Node000002"><a xlink:title=" ">
<path fill="none" stroke="#63b8ff" d="M489.31,-254.57C485.81,-200.42 479.04,-95.8 476.02,-49.06"/>
<polygon fill="none" stroke="#63b8ff" points="485.82,-254.94 489.96,-264.7 492.81,-254.49 485.82,-254.94"/>
</a>
</g>
</g>
<!-- Node3 -->
<g id="Node000003" class="node">
<title>Node3</title>
<g id="a_Node000003"><a xlink:href="classgame_1_1logic_1_1playfield_1_1PlayFieldView.html" target="_top" xlink:title=" ">
<polygon fill="white" stroke="transparent" points="230.5,-188 96.5,-188 96.5,-98 230.5,-98 230.5,-188"/>
<text text-anchor="start" x="101.5" y="-176" font-family="Helvetica,sans-Serif" font-size="10.00">game.logic.playfield.Play</text>
<text text-anchor="start" x="139.5" y="-165" font-family="Helvetica,sans-Serif" font-size="10.00">FieldView</text>
<text text-anchor="start" x="161.5" y="-150" font-family="Helvetica,sans-Serif" font-size="10.00"> </text>
<text text-anchor="start" x="118" y="-135" font-family="Helvetica,sans-Serif" font-size="10.00">+</text>
<text text-anchor="start" x="148.5" y="-135" font-family="Helvetica,sans-Serif" font-size="10.00">Link()</text>
<text text-anchor="start" x="120.5" y="-120" font-family="Helvetica,sans-Serif" font-size="10.00">&#45;</text>
<text text-anchor="start" x="148.5" y="-120" font-family="Helvetica,sans-Serif" font-size="10.00">Start()</text>
<text text-anchor="start" x="120.5" y="-105" font-family="Helvetica,sans-Serif" font-size="10.00">&#45;</text>
<text text-anchor="start" x="148.5" y="-105" font-family="Helvetica,sans-Serif" font-size="10.00">Update()</text>
<polygon fill="#666666" stroke="#666666" points="96.5,-160 96.5,-160 230.5,-160 230.5,-160 96.5,-160"/>
<polygon fill="#666666" stroke="#666666" points="96.5,-145 96.5,-145 230.5,-145 230.5,-145 96.5,-145"/>
<polygon fill="none" stroke="#666666" points="96.5,-98 96.5,-188 230.5,-188 230.5,-98 96.5,-98"/>
</a>
</g>
</g>
<!-- Node2&#45;&gt;Node3 -->
<g id="edge3_Node000003_Node000002" class="edge">
<title>Node2&#45;&gt;Node3</title>
<g id="a_edge3_Node000003_Node000002"><a xlink:title=" ">
<path fill="none" stroke="#63b8ff" d="M467.66,-256.59C453.08,-239.43 432.95,-219.49 410.5,-208 366.79,-185.63 349.16,-201.8 301.5,-190 278.09,-184.2 252.94,-176.33 230.61,-168.74"/>
<polygon fill="none" stroke="#63b8ff" points="465.31,-259.24 474.36,-264.74 470.72,-254.8 465.31,-259.24"/>
</a>
</g>
</g>
<!-- Node12 -->
<g id="Node000012" class="node">
<title>Node12</title>
<g id="a_Node000012"><a xlink:href="classgame_1_1logic_1_1tile_1_1TileView.html" target="_top" xlink:title=" ">
<polygon fill="white" stroke="transparent" points="438.5,-182.5 310.5,-182.5 310.5,-103.5 438.5,-103.5 438.5,-182.5"/>
<text text-anchor="start" x="315.5" y="-170" font-family="Helvetica,sans-Serif" font-size="10.00">game.logic.tile.TileView</text>
<text text-anchor="start" x="372.5" y="-155" font-family="Helvetica,sans-Serif" font-size="10.00"> </text>
<text text-anchor="start" x="330.5" y="-140" font-family="Helvetica,sans-Serif" font-size="10.00">+</text>
<text text-anchor="start" x="359.5" y="-140" font-family="Helvetica,sans-Serif" font-size="10.00">Link()</text>
<text text-anchor="start" x="333" y="-125" font-family="Helvetica,sans-Serif" font-size="10.00">&#45;</text>
<text text-anchor="start" x="359.5" y="-125" font-family="Helvetica,sans-Serif" font-size="10.00">Start()</text>
<text text-anchor="start" x="333" y="-110" font-family="Helvetica,sans-Serif" font-size="10.00">&#45;</text>
<text text-anchor="start" x="359.5" y="-110" font-family="Helvetica,sans-Serif" font-size="10.00">Update()</text>
<polygon fill="#666666" stroke="#666666" points="310.5,-165 310.5,-165 438.5,-165 438.5,-165 310.5,-165"/>
<polygon fill="#666666" stroke="#666666" points="310.5,-150 310.5,-150 438.5,-150 438.5,-150 310.5,-150"/>
<polygon fill="none" stroke="#666666" points="310.5,-103.5 310.5,-182.5 438.5,-182.5 438.5,-103.5 310.5,-103.5"/>
</a>
</g>
</g>
<!-- Node2&#45;&gt;Node12 -->
<g id="edge13_Node000012_Node000002" class="edge">
<title>Node2&#45;&gt;Node12</title>
<g id="a_edge13_Node000012_Node000002"><a xlink:title=" ">
<path fill="none" stroke="#63b8ff" d="M470.83,-256.41C460.7,-241.32 448.01,-223.32 435.5,-208 428.61,-199.56 420.85,-190.88 413.23,-182.74"/>
<polygon fill="none" stroke="#63b8ff" points="468.03,-258.52 476.48,-264.91 473.86,-254.65 468.03,-258.52"/>
</a>
</g>
</g>
<!-- Node15 -->
<g id="Node000015" class="node">
<title>Node15</title>
<g id="a_Node000015"><a xlink:href="classLoginButton.html" target="_top" xlink:title=" ">
<polygon fill="white" stroke="transparent" points="715,-190 646,-190 646,-96 715,-96 715,-190"/>
<text text-anchor="start" x="651.5" y="-178" font-family="Helvetica,sans-Serif" font-size="10.00">LoginButton</text>
<text text-anchor="start" x="679" y="-163" font-family="Helvetica,sans-Serif" font-size="10.00"> </text>
<text text-anchor="start" x="651" y="-148" font-family="Helvetica,sans-Serif" font-size="10.00">+</text>
<text text-anchor="start" x="664.5" y="-148" font-family="Helvetica,sans-Serif" font-size="10.00">Link()</text>
<text text-anchor="start" x="651" y="-133" font-family="Helvetica,sans-Serif" font-size="10.00">+</text>
<text text-anchor="start" x="664.5" y="-133" font-family="Helvetica,sans-Serif" font-size="10.00">OnClick()</text>
<text text-anchor="start" x="653.5" y="-118" font-family="Helvetica,sans-Serif" font-size="10.00">&#45;</text>
<text text-anchor="start" x="664.5" y="-118" font-family="Helvetica,sans-Serif" font-size="10.00">Start()</text>
<text text-anchor="start" x="653.5" y="-103" font-family="Helvetica,sans-Serif" font-size="10.00">&#45;</text>
<text text-anchor="start" x="664.5" y="-103" font-family="Helvetica,sans-Serif" font-size="10.00">Update()</text>
<polygon fill="#666666" stroke="#666666" points="646.5,-173 646.5,-173 715.5,-173 715.5,-173 646.5,-173"/>
<polygon fill="#666666" stroke="#666666" points="646.5,-158 646.5,-158 715.5,-158 715.5,-158 646.5,-158"/>
<polygon fill="none" stroke="#666666" points="646,-96 646,-190 715,-190 715,-96 646,-96"/>
</a>
</g>
</g>
<!-- Node2&#45;&gt;Node15 -->
<g id="edge19_Node000015_Node000002" class="edge">
<title>Node2&#45;&gt;Node15</title>
<g id="a_edge19_Node000015_Node000002"><a xlink:title=" ">
<path fill="none" stroke="#63b8ff" d="M519.89,-257.72C527.23,-250.52 535.38,-243.16 543.5,-237 564.28,-221.24 571.15,-219.6 594.5,-208 612.69,-198.97 619.81,-201.57 636.5,-190 639.68,-187.8 642.81,-185.33 645.85,-182.73"/>
<polygon fill="none" stroke="#63b8ff" points="517.4,-255.26 512.83,-264.82 522.36,-260.19 517.4,-255.26"/>
</a>
</g>
</g>
<!-- Node19 -->
<g id="Node000019" class="node">
<title>Node19</title>
<g id="a_Node000019"><a xlink:href="classgamerunner_1_1Dispatcher.html" target="_top" xlink:title=" ">
<polygon fill="white" stroke="transparent" points="628,-182.5 503,-182.5 503,-103.5 628,-103.5 628,-182.5"/>
<text text-anchor="start" x="508.5" y="-170" font-family="Helvetica,sans-Serif" font-size="10.00">gamerunner.Dispatcher</text>
<text text-anchor="start" x="564" y="-155" font-family="Helvetica,sans-Serif" font-size="10.00"> </text>
<text text-anchor="start" x="514.5" y="-140" font-family="Helvetica,sans-Serif" font-size="10.00">+</text>
<text text-anchor="start" x="534.5" y="-140" font-family="Helvetica,sans-Serif" font-size="10.00">addUpdatable()</text>
<text text-anchor="start" x="517" y="-125" font-family="Helvetica,sans-Serif" font-size="10.00">&#45;</text>
<text text-anchor="start" x="534.5" y="-125" font-family="Helvetica,sans-Serif" font-size="10.00">Awake()</text>
<text text-anchor="start" x="517" y="-110" font-family="Helvetica,sans-Serif" font-size="10.00">&#45;</text>
<text text-anchor="start" x="534.5" y="-110" font-family="Helvetica,sans-Serif" font-size="10.00">Update()</text>
<polygon fill="#666666" stroke="#666666" points="503.5,-165 503.5,-165 628.5,-165 628.5,-165 503.5,-165"/>
<polygon fill="#666666" stroke="#666666" points="503.5,-150 503.5,-150 628.5,-150 628.5,-150 503.5,-150"/>
<polygon fill="none" stroke="#666666" points="503,-103.5 503,-182.5 628,-182.5 628,-103.5 503,-103.5"/>
</a>
</g>
</g>
<!-- Node2&#45;&gt;Node19 -->
<g id="edge24_Node000019_Node000002" class="edge">
<title>Node2&#45;&gt;Node19</title>
<g id="a_edge24_Node000019_Node000002"><a xlink:title=" ">
<path fill="none" stroke="#63b8ff" d="M508.23,-255.83C519.33,-234.15 533.95,-205.6 545.64,-182.77"/>
<polygon fill="none" stroke="#63b8ff" points="505,-254.47 503.55,-264.96 511.23,-257.66 505,-254.47"/>
</a>
</g>
</g>
<!-- Node3&#45;&gt;Node1 -->
<g id="edge2_Node000001_Node000003" class="edge">
<title>Node3&#45;&gt;Node1</title>
<g id="a_edge2_Node000001_Node000003"><a xlink:title=" ">
<path fill="none" stroke="#63b8ff" d="M230.77,-100.52C252.45,-88.44 276.97,-76.06 300.5,-67 339.13,-52.13 384.7,-41.49 419.51,-34.71"/>
<polygon fill="none" stroke="#63b8ff" points="419.56,-34.71 424.71,-29.66 431.35,-32.48 426.2,-37.52 419.56,-34.71"/>
</a>
</g>
<text text-anchor="middle" x="344.5" y="-70" font-family="Helvetica,sans-Serif" font-size="10.00" fill="grey"> +PlayFieldPrefab</text>
</g>
<!-- Node4 -->
<g id="Node000004" class="node">
<title>Node4</title>
<g id="a_Node000004"><a xlink:title=" ">
<polygon fill="white" stroke="transparent" points="59,-314 0,-314 0,-265 59,-265 59,-314"/>
<text text-anchor="start" x="5.5" y="-301.5" font-family="Helvetica,sans-Serif" font-size="10.00">Transform</text>
<text text-anchor="start" x="28" y="-286.5" font-family="Helvetica,sans-Serif" font-size="10.00"> </text>
<text text-anchor="start" x="28" y="-271.5" font-family="Helvetica,sans-Serif" font-size="10.00"> </text>
<polygon fill="#666666" stroke="#666666" points="0.5,-296.5 0.5,-296.5 59.5,-296.5 59.5,-296.5 0.5,-296.5"/>
<polygon fill="#666666" stroke="#666666" points="0.5,-281.5 0.5,-281.5 59.5,-281.5 59.5,-281.5 0.5,-281.5"/>
<polygon fill="none" stroke="#666666" points="0,-265 0,-314 59,-314 59,-265 0,-265"/>
</a>
</g>
</g>
<!-- Node4&#45;&gt;Node3 -->
<g id="edge4_Node000003_Node000004" class="edge">
<title>Node4&#45;&gt;Node3</title>
<g id="a_edge4_Node000003_Node000004"><a xlink:title=" ">
<path fill="none" stroke="#63b8ff" d="M23.57,-264.78C20.69,-247.67 19.83,-224.74 30.5,-208 43.16,-188.13 63.9,-174.27 85.26,-164.68"/>
<polygon fill="none" stroke="#63b8ff" points="85.37,-164.63 89.38,-158.64 96.45,-160.04 92.44,-166.03 85.37,-164.63"/>
</a>
</g>
<text text-anchor="middle" x="62.5" y="-211" font-family="Helvetica,sans-Serif" font-size="10.00" fill="grey"> +TileAnchor</text>
</g>
<!-- Node5 -->
<g id="Node000005" class="node">
<title>Node5</title>
<g id="a_Node000005"><a xlink:href="classgame_1_1logic_1_1playfield_1_1PlayFieldViewModel.html" target="_top" xlink:title=" ">
<polygon fill="white" stroke="transparent" points="337.5,-524 203.5,-524 203.5,-389 337.5,-389 337.5,-524"/>
<text text-anchor="start" x="208.5" y="-511.5" font-family="Helvetica,sans-Serif" font-size="10.00">game.logic.playfield.Play</text>
<text text-anchor="start" x="231.5" y="-500.5" font-family="Helvetica,sans-Serif" font-size="10.00">FieldViewModel</text>
<text text-anchor="start" x="209" y="-485.5" font-family="Helvetica,sans-Serif" font-size="10.00">+</text>
<text text-anchor="start" x="223.5" y="-485.5" font-family="Helvetica,sans-Serif" font-size="10.00">Width</text>
<text text-anchor="start" x="209" y="-470.5" font-family="Helvetica,sans-Serif" font-size="10.00">+</text>
<text text-anchor="start" x="223.5" y="-470.5" font-family="Helvetica,sans-Serif" font-size="10.00">Height</text>
<text text-anchor="start" x="209" y="-455.5" font-family="Helvetica,sans-Serif" font-size="10.00">+</text>
<text text-anchor="start" x="223.5" y="-455.5" font-family="Helvetica,sans-Serif" font-size="10.00">Tiles</text>
<text text-anchor="start" x="209" y="-440.5" font-family="Helvetica,sans-Serif" font-size="10.00">+</text>
<text text-anchor="start" x="223.5" y="-440.5" font-family="Helvetica,sans-Serif" font-size="10.00">PlayFieldViewModel()</text>
<text text-anchor="start" x="209" y="-425.5" font-family="Helvetica,sans-Serif" font-size="10.00">+</text>
<text text-anchor="start" x="223.5" y="-425.5" font-family="Helvetica,sans-Serif" font-size="10.00">GetTile()</text>
<text text-anchor="start" x="209" y="-410.5" font-family="Helvetica,sans-Serif" font-size="10.00">+</text>
<text text-anchor="start" x="223.5" y="-410.5" font-family="Helvetica,sans-Serif" font-size="10.00">PlaceTile()</text>
<text text-anchor="start" x="209" y="-395.5" font-family="Helvetica,sans-Serif" font-size="10.00">+</text>
<text text-anchor="start" x="223.5" y="-395.5" font-family="Helvetica,sans-Serif" font-size="10.00">Update()</text>
<polygon fill="#666666" stroke="#666666" points="203.5,-495.5 203.5,-495.5 337.5,-495.5 337.5,-495.5 203.5,-495.5"/>
<polygon fill="#666666" stroke="#666666" points="203.5,-450.5 203.5,-450.5 221.5,-450.5 221.5,-450.5 203.5,-450.5"/>
<polygon fill="#666666" stroke="#666666" points="221.5,-450.5 221.5,-450.5 337.5,-450.5 337.5,-450.5 221.5,-450.5"/>
<polygon fill="none" stroke="#666666" points="203.5,-389 203.5,-524 337.5,-524 337.5,-389 203.5,-389"/>
</a>
</g>
</g>
<!-- Node5&#45;&gt;Node3 -->
<g id="edge5_Node000003_Node000005" class="edge">
<title>Node5&#45;&gt;Node3</title>
<g id="a_edge5_Node000003_Node000005"><a xlink:title=" ">
<path fill="none" stroke="#63b8ff" d="M203.14,-424.16C170.95,-405.28 135.57,-377.89 117.5,-342 94.76,-296.81 111.91,-240.14 131.41,-199.02"/>
<polygon fill="none" stroke="#63b8ff" points="131.48,-198.88 130.56,-191.73 136.8,-188.12 137.73,-195.28 131.48,-198.88"/>
</a>
</g>
<text text-anchor="middle" x="154" y="-287" font-family="Helvetica,sans-Serif" font-size="10.00" fill="grey"> &#45;_playFieldVM</text>
</g>
<!-- Node14 -->
<g id="Node000014" class="node">
<title>Node14</title>
<g id="a_Node000014"><a xlink:href="classgame_1_1logic_1_1tile_1_1TileViewModel.html" target="_top" xlink:title=" ">
<polygon fill="white" stroke="transparent" points="429.5,-334.5 301.5,-334.5 301.5,-244.5 429.5,-244.5 429.5,-334.5"/>
<text text-anchor="start" x="306.5" y="-322.5" font-family="Helvetica,sans-Serif" font-size="10.00">game.logic.tile.TileView</text>
<text text-anchor="start" x="350" y="-311.5" font-family="Helvetica,sans-Serif" font-size="10.00">Model</text>
<text text-anchor="start" x="312" y="-296.5" font-family="Helvetica,sans-Serif" font-size="10.00">+</text>
<text text-anchor="start" x="331.5" y="-296.5" font-family="Helvetica,sans-Serif" font-size="10.00">X</text>
<text text-anchor="start" x="312" y="-281.5" font-family="Helvetica,sans-Serif" font-size="10.00">+</text>
<text text-anchor="start" x="331.5" y="-281.5" font-family="Helvetica,sans-Serif" font-size="10.00">Y</text>
<text text-anchor="start" x="312" y="-266.5" font-family="Helvetica,sans-Serif" font-size="10.00">+</text>
<text text-anchor="start" x="331.5" y="-266.5" font-family="Helvetica,sans-Serif" font-size="10.00">Color</text>
<text text-anchor="start" x="312" y="-251.5" font-family="Helvetica,sans-Serif" font-size="10.00">+</text>
<text text-anchor="start" x="331.5" y="-251.5" font-family="Helvetica,sans-Serif" font-size="10.00">TileViewModel()</text>
<polygon fill="#666666" stroke="#666666" points="301.5,-306.5 301.5,-306.5 429.5,-306.5 429.5,-306.5 301.5,-306.5"/>
<polygon fill="#666666" stroke="#666666" points="301.5,-261.5 301.5,-261.5 329.5,-261.5 329.5,-261.5 301.5,-261.5"/>
<polygon fill="#666666" stroke="#666666" points="329.5,-261.5 329.5,-261.5 429.5,-261.5 429.5,-261.5 329.5,-261.5"/>
<polygon fill="none" stroke="#666666" points="301.5,-244.5 301.5,-334.5 429.5,-334.5 429.5,-244.5 301.5,-244.5"/>
</a>
</g>
</g>
<!-- Node5&#45;&gt;Node14 -->
<g id="edge16_Node000014_Node000005" class="edge">
<title>Node5&#45;&gt;Node14</title>
<g id="a_edge16_Node000014_Node000005"><a xlink:title=" ">
<path fill="none" stroke="#63b8ff" d="M269.12,-388.77C270.86,-378.73 273.8,-368.81 278.5,-360 281.08,-355.16 286.8,-349.04 294.14,-342.46"/>
<polygon fill="none" stroke="#63b8ff" points="294.26,-342.35 296.24,-335.42 303.4,-334.57 301.43,-341.5 294.26,-342.35"/>
</a>
</g>
<text text-anchor="middle" x="315" y="-363" font-family="Helvetica,sans-Serif" font-size="10.00" fill="grey"> &#45;_playFieldVM</text>
</g>
<!-- Node6 -->
<g id="Node000006" class="node">
<title>Node6</title>
<g id="a_Node000006"><a xlink:href="interfacegamerunner_1_1IUpdatable.html" target="_top" xlink:title=" ">
<polygon fill="white" stroke="transparent" points="185.5,-646 121.5,-646 121.5,-597 185.5,-597 185.5,-646"/>
<text text-anchor="start" x="126.5" y="-633.5" font-family="Helvetica,sans-Serif" font-size="10.00">IUpdatable</text>
<text text-anchor="start" x="151.5" y="-618.5" font-family="Helvetica,sans-Serif" font-size="10.00"> </text>
<text text-anchor="start" x="125.5" y="-603.5" font-family="Helvetica,sans-Serif" font-size="10.00">+</text>
<text text-anchor="start" x="138.5" y="-603.5" font-family="Helvetica,sans-Serif" font-size="10.00">Update()</text>
<polygon fill="#666666" stroke="#666666" points="121.5,-628.5 121.5,-628.5 185.5,-628.5 185.5,-628.5 121.5,-628.5"/>
<polygon fill="#666666" stroke="#666666" points="121.5,-613.5 121.5,-613.5 185.5,-613.5 185.5,-613.5 121.5,-613.5"/>
<polygon fill="none" stroke="#666666" points="121.5,-597 121.5,-646 185.5,-646 185.5,-597 121.5,-597"/>
</a>
</g>
</g>
<!-- Node6&#45;&gt;Node5 -->
<g id="edge6_Node000005_Node000006" class="edge">
<title>Node6&#45;&gt;Node5</title>
<g id="a_edge6_Node000005_Node000006"><a xlink:title=" ">
<path fill="none" stroke="#63b8ff" d="M176.64,-588.27C189.78,-569.96 206.73,-546.34 222.61,-524.22"/>
<polygon fill="none" stroke="#63b8ff" points="173.5,-586.63 170.51,-596.8 179.19,-590.72 173.5,-586.63"/>
</a>
</g>
</g>
<!-- Node7 -->
<g id="Node000007" class="node">
<title>Node7</title>
<g id="a_Node000007"><a xlink:href="classgame_1_1logic_1_1playfield_1_1PlayField.html" target="_top" xlink:title=" ">
<polygon fill="white" stroke="transparent" points="337.5,-659 203.5,-659 203.5,-584 337.5,-584 337.5,-659"/>
<text text-anchor="start" x="208.5" y="-646.5" font-family="Helvetica,sans-Serif" font-size="10.00">game.logic.playfield.Play</text>
<text text-anchor="start" x="258.5" y="-635.5" font-family="Helvetica,sans-Serif" font-size="10.00">Field</text>
<text text-anchor="start" x="227.5" y="-620.5" font-family="Helvetica,sans-Serif" font-size="10.00">+</text>
<text text-anchor="start" x="260.5" y="-620.5" font-family="Helvetica,sans-Serif" font-size="10.00">Width</text>
<text text-anchor="start" x="227.5" y="-605.5" font-family="Helvetica,sans-Serif" font-size="10.00">+</text>
<text text-anchor="start" x="260.5" y="-605.5" font-family="Helvetica,sans-Serif" font-size="10.00">Height</text>
<text text-anchor="start" x="268.5" y="-590.5" font-family="Helvetica,sans-Serif" font-size="10.00"> </text>
<polygon fill="#666666" stroke="#666666" points="203.5,-630.5 203.5,-630.5 337.5,-630.5 337.5,-630.5 203.5,-630.5"/>
<polygon fill="#666666" stroke="#666666" points="203.5,-600.5 203.5,-600.5 258.5,-600.5 258.5,-600.5 203.5,-600.5"/>
<polygon fill="#666666" stroke="#666666" points="258.5,-600.5 258.5,-600.5 337.5,-600.5 337.5,-600.5 258.5,-600.5"/>
<polygon fill="none" stroke="#666666" points="203.5,-584 203.5,-659 337.5,-659 337.5,-584 203.5,-584"/>
</a>
</g>
</g>
<!-- Node7&#45;&gt;Node5 -->
<g id="edge7_Node000005_Node000007" class="edge">
<title>Node7&#45;&gt;Node5</title>
<g id="a_edge7_Node000005_Node000007"><a xlink:title=" ">
<path fill="none" stroke="#63b8ff" d="M270.5,-583.92C270.5,-569.72 270.5,-552.87 270.5,-536.19"/>
<polygon fill="none" stroke="#63b8ff" points="270.5,-536.1 266.5,-530.1 270.5,-524.1 274.5,-530.1 270.5,-536.1"/>
</a>
</g>
<text text-anchor="middle" x="299" y="-550.5" font-family="Helvetica,sans-Serif" font-size="10.00" fill="grey"> &#45;_playField</text>
</g>
<!-- Node8 -->
<g id="Node000008" class="node">
<title>Node8</title>
<g id="a_Node000008"><a xlink:title=" ">
<polygon fill="white" stroke="transparent" points="356,-773.5 333,-773.5 333,-724.5 356,-724.5 356,-773.5"/>
<text text-anchor="start" x="338.5" y="-761" font-family="Helvetica,sans-Serif" font-size="10.00">int</text>
<text text-anchor="start" x="343" y="-746" font-family="Helvetica,sans-Serif" font-size="10.00"> </text>
<text text-anchor="start" x="343" y="-731" font-family="Helvetica,sans-Serif" font-size="10.00"> </text>
<polygon fill="#666666" stroke="#666666" points="333.5,-756 333.5,-756 356.5,-756 356.5,-756 333.5,-756"/>
<polygon fill="#666666" stroke="#666666" points="333.5,-741 333.5,-741 356.5,-741 356.5,-741 333.5,-741"/>
<polygon fill="none" stroke="#666666" points="333,-724.5 333,-773.5 356,-773.5 356,-724.5 333,-724.5"/>
</a>
</g>
</g>
<!-- Node8&#45;&gt;Node7 -->
<g id="edge8_Node000007_Node000008" class="edge">
<title>Node8&#45;&gt;Node7</title>
<g id="a_edge8_Node000007_Node000008"><a xlink:title=" ">
<path fill="none" stroke="#63b8ff" d="M332.68,-741.32C319.78,-733.4 299.49,-718.97 288.5,-701 282.99,-692 279.17,-681.48 276.51,-671.13"/>
<polygon fill="none" stroke="#63b8ff" points="276.46,-670.87 271.27,-665.86 273.9,-659.14 279.09,-664.15 276.46,-670.87"/>
</a>
</g>
<text text-anchor="middle" x="320" y="-693" font-family="Helvetica,sans-Serif" font-size="10.00" fill="grey"> &#45;FieldHeight</text>
<text text-anchor="middle" x="320" y="-682" font-family="Helvetica,sans-Serif" font-size="10.00" fill="grey">&#45;FieldWidth</text>
</g>
<!-- Node8&#45;&gt;Node14 -->
<g id="edge17_Node000014_Node000008" class="edge">
<title>Node8&#45;&gt;Node14</title>
<g id="a_edge17_Node000014_Node000008"><a xlink:title=" ">
<path fill="none" stroke="#63b8ff" d="M348.59,-724.15C349.71,-716.75 350.81,-708.56 351.5,-701 363.01,-574.78 365.29,-425.95 365.6,-346.74"/>
<polygon fill="none" stroke="#63b8ff" points="365.6,-346.65 361.62,-340.63 365.64,-334.65 369.62,-340.66 365.6,-346.65"/>
</a>
</g>
<text text-anchor="middle" x="371" y="-556" font-family="Helvetica,sans-Serif" font-size="10.00" fill="grey"> &#45;_x</text>
<text text-anchor="middle" x="371" y="-545" font-family="Helvetica,sans-Serif" font-size="10.00" fill="grey">&#45;_y</text>
</g>
<!-- Node9 -->
<g id="Node000009" class="node">
<title>Node9</title>
<g id="a_Node000009"><a xlink:href="interfacegame_1_1logic_1_1tile_1_1ITileable.html" target="_top" xlink:title=" ">
<polygon fill="white" stroke="transparent" points="293.5,-773.5 165.5,-773.5 165.5,-724.5 293.5,-724.5 293.5,-773.5"/>
<text text-anchor="start" x="170.5" y="-761" font-family="Helvetica,sans-Serif" font-size="10.00">game.logic.tile.ITileable</text>
<text text-anchor="start" x="189.5" y="-746" font-family="Helvetica,sans-Serif" font-size="10.00">+</text>
<text text-anchor="start" x="222.5" y="-746" font-family="Helvetica,sans-Serif" font-size="10.00">Color</text>
<text text-anchor="start" x="227.5" y="-731" font-family="Helvetica,sans-Serif" font-size="10.00"> </text>
<polygon fill="#666666" stroke="#666666" points="165.5,-756 165.5,-756 293.5,-756 293.5,-756 165.5,-756"/>
<polygon fill="#666666" stroke="#666666" points="165.5,-741 165.5,-741 220.5,-741 220.5,-741 165.5,-741"/>
<polygon fill="#666666" stroke="#666666" points="220.5,-741 220.5,-741 293.5,-741 293.5,-741 220.5,-741"/>
<polygon fill="none" stroke="#666666" points="165.5,-724.5 165.5,-773.5 293.5,-773.5 293.5,-724.5 165.5,-724.5"/>
</a>
</g>
</g>
<!-- Node9&#45;&gt;Node7 -->
<g id="edge9_Node000007_Node000009" class="edge">
<title>Node9&#45;&gt;Node7</title>
<g id="a_edge9_Node000007_Node000009"><a xlink:title=" ">
<path fill="none" stroke="#63b8ff" d="M226.43,-724.43C225.5,-710.83 225.75,-693.58 230.5,-679 231.51,-675.89 232.76,-672.81 234.19,-669.78"/>
<polygon fill="none" stroke="#63b8ff" points="234.27,-669.63 233.61,-662.45 239.99,-659.09 240.64,-666.27 234.27,-669.63"/>
</a>
</g>
<text text-anchor="middle" x="248" y="-687.5" font-family="Helvetica,sans-Serif" font-size="10.00" fill="grey"> +Field</text>
</g>
<!-- Node10 -->
<g id="Node000010" class="node">
<title>Node10</title>
<g id="a_Node000010"><a xlink:href="classgame_1_1service_1_1ServiceLocator.html" target="_top" xlink:title=" ">
<polygon fill="white" stroke="transparent" points="545.5,-661 393.5,-661 393.5,-582 545.5,-582 545.5,-661"/>
<text text-anchor="start" x="398.5" y="-648.5" font-family="Helvetica,sans-Serif" font-size="10.00">game.service.ServiceLocator</text>
<text text-anchor="start" x="467.5" y="-633.5" font-family="Helvetica,sans-Serif" font-size="10.00"> </text>
<text text-anchor="start" x="402" y="-618.5" font-family="Helvetica,sans-Serif" font-size="10.00">+</text>
<text text-anchor="start" x="419.5" y="-618.5" font-family="Helvetica,sans-Serif" font-size="10.00">ServiceLocator()</text>
<text text-anchor="start" x="402" y="-603.5" font-family="Helvetica,sans-Serif" font-size="10.00">+</text>
<text text-anchor="start" x="419.5" y="-603.5" font-family="Helvetica,sans-Serif" font-size="10.00">GetService&lt; T &gt;()</text>
<text text-anchor="start" x="402" y="-588.5" font-family="Helvetica,sans-Serif" font-size="10.00">+</text>
<text text-anchor="start" x="419.5" y="-588.5" font-family="Helvetica,sans-Serif" font-size="10.00">RegisterService&lt; T &gt;()</text>
<polygon fill="#666666" stroke="#666666" points="393.5,-643.5 393.5,-643.5 545.5,-643.5 545.5,-643.5 393.5,-643.5"/>
<polygon fill="#666666" stroke="#666666" points="393.5,-628.5 393.5,-628.5 545.5,-628.5 545.5,-628.5 393.5,-628.5"/>
<polygon fill="none" stroke="#666666" points="393.5,-582 393.5,-661 545.5,-661 545.5,-582 393.5,-582"/>
</a>
</g>
</g>
<!-- Node10&#45;&gt;Node5 -->
<g id="edge10_Node000005_Node000010" class="edge">
<title>Node10&#45;&gt;Node5</title>
<g id="a_edge10_Node000005_Node000010"><a xlink:title=" ">
<path fill="none" stroke="#63b8ff" d="M431.86,-581.76C418.56,-568.68 403.23,-554.3 388.5,-542 375.66,-531.28 361.54,-520.44 347.68,-510.26"/>
<polygon fill="none" stroke="#63b8ff" points="347.35,-510.02 340.15,-509.73 337.64,-502.97 344.85,-503.26 347.35,-510.02"/>
</a>
</g>
<text text-anchor="middle" x="454.5" y="-550.5" font-family="Helvetica,sans-Serif" font-size="10.00" fill="grey"> &#45;_serviceLocator</text>
</g>
<!-- Node11 -->
<g id="Node000011" class="node">
<title>Node11</title>
<g id="a_Node000011"><a xlink:title=" ">
<polygon fill="white" stroke="transparent" points="536,-779 403,-779 403,-719 536,-719 536,-779"/>
<text text-anchor="start" x="408.5" y="-767" font-family="Helvetica,sans-Serif" font-size="10.00">IDictionary&lt; object,</text>
<text text-anchor="start" x="408.5" y="-756" font-family="Helvetica,sans-Serif" font-size="10.00"> game.service.IService &gt;</text>
<text text-anchor="start" x="468" y="-741" font-family="Helvetica,sans-Serif" font-size="10.00"> </text>
<text text-anchor="start" x="468" y="-726" font-family="Helvetica,sans-Serif" font-size="10.00"> </text>
<polygon fill="#666666" stroke="#666666" points="403.5,-751 403.5,-751 536.5,-751 536.5,-751 403.5,-751"/>
<polygon fill="#666666" stroke="#666666" points="403.5,-736 403.5,-736 536.5,-736 536.5,-736 403.5,-736"/>
<polygon fill="none" stroke="#666666" points="403,-719 403,-779 536,-779 536,-719 403,-719"/>
</a>
</g>
</g>
<!-- Node11&#45;&gt;Node10 -->
<g id="edge11_Node000010_Node000011" class="edge">
<title>Node11&#45;&gt;Node10</title>
<g id="a_edge11_Node000010_Node000011"><a xlink:title=" ">
<path fill="none" stroke="#63b8ff" d="M469.5,-718.89C469.5,-705.41 469.5,-688.98 469.5,-673.54"/>
<polygon fill="none" stroke="#63b8ff" points="469.5,-673.44 465.5,-667.44 469.5,-661.44 473.5,-667.44 469.5,-673.44"/>
</a>
</g>
<text text-anchor="middle" x="493.5" y="-687.5" font-family="Helvetica,sans-Serif" font-size="10.00" fill="grey"> &#45;services</text>
</g>
<!-- Node12&#45;&gt;Node1 -->
<g id="edge12_Node000001_Node000012" class="edge">
<title>Node12&#45;&gt;Node1</title>
<g id="a_edge12_Node000001_Node000012"><a xlink:title=" ">
<path fill="none" stroke="#63b8ff" d="M381.49,-103.38C385.22,-90.76 390.9,-77.34 399.5,-67 405.39,-59.92 412.81,-53.84 420.68,-48.68"/>
<polygon fill="none" stroke="#63b8ff" points="420.88,-48.56 424,-42.06 431.2,-42.44 428.08,-48.94 420.88,-48.56"/>
</a>
</g>
<text text-anchor="middle" x="430" y="-70" font-family="Helvetica,sans-Serif" font-size="10.00" fill="grey"> +TilePrefab</text>
</g>
<!-- Node13 -->
<g id="Node000013" class="node">
<title>Node13</title>
<g id="a_Node000013"><a xlink:title=" ">
<polygon fill="white" stroke="transparent" points="283,-314 200,-314 200,-265 283,-265 283,-314"/>
<text text-anchor="start" x="205.5" y="-301.5" font-family="Helvetica,sans-Serif" font-size="10.00">SpriteRenderer</text>
<text text-anchor="start" x="240" y="-286.5" font-family="Helvetica,sans-Serif" font-size="10.00"> </text>
<text text-anchor="start" x="240" y="-271.5" font-family="Helvetica,sans-Serif" font-size="10.00"> </text>
<polygon fill="#666666" stroke="#666666" points="200.5,-296.5 200.5,-296.5 283.5,-296.5 283.5,-296.5 200.5,-296.5"/>
<polygon fill="#666666" stroke="#666666" points="200.5,-281.5 200.5,-281.5 283.5,-281.5 283.5,-281.5 200.5,-281.5"/>
<polygon fill="none" stroke="#666666" points="200,-265 200,-314 283,-314 283,-265 200,-265"/>
</a>
</g>
</g>
<!-- Node13&#45;&gt;Node12 -->
<g id="edge14_Node000012_Node000013" class="edge">
<title>Node13&#45;&gt;Node12</title>
<g id="a_edge14_Node000012_Node000013"><a xlink:title=" ">
<path fill="none" stroke="#63b8ff" d="M260.21,-264.69C273.31,-248.36 291.44,-226.4 308.5,-208 313.63,-202.47 319.11,-196.8 324.64,-191.23"/>
<polygon fill="none" stroke="#63b8ff" points="324.82,-191.05 326.26,-183.99 333.33,-182.6 331.89,-189.66 324.82,-191.05"/>
</a>
</g>
<text text-anchor="middle" x="337.5" y="-211" font-family="Helvetica,sans-Serif" font-size="10.00" fill="grey"> +TileSprite</text>
</g>
<!-- Node14&#45;&gt;Node12 -->
<g id="edge15_Node000012_Node000014" class="edge">
<title>Node14&#45;&gt;Node12</title>
<g id="a_edge15_Node000012_Node000014"><a xlink:title=" ">
<path fill="none" stroke="#63b8ff" d="M368.25,-244.36C369.21,-228.9 370.3,-211.42 371.3,-195.42"/>
<polygon fill="none" stroke="#63b8ff" points="371.33,-194.95 367.71,-188.71 372.07,-182.97 375.69,-189.21 371.33,-194.95"/>
</a>
</g>
<text text-anchor="middle" x="392.5" y="-211" font-family="Helvetica,sans-Serif" font-size="10.00" fill="grey"> &#45;_tileVM</text>
</g>
<!-- Node15&#45;&gt;Node1 -->
<g id="edge18_Node000001_Node000015" class="edge">
<title>Node15&#45;&gt;Node1</title>
<g id="a_edge18_Node000001_Node000015"><a xlink:title=" ">
<path fill="none" stroke="#63b8ff" d="M645.86,-103.84C642.8,-101.07 639.66,-98.42 636.5,-96 604.52,-71.48 562.71,-53.56 529.57,-41.93"/>
<polygon fill="none" stroke="#63b8ff" points="529.15,-41.78 522.18,-43.64 517.79,-37.92 524.75,-36.07 529.15,-41.78"/>
</a>
</g>
<text text-anchor="middle" x="645" y="-70" font-family="Helvetica,sans-Serif" font-size="10.00" fill="grey"> +_loginButton</text>
</g>
<!-- Node16 -->
<g id="Node000016" class="node">
<title>Node16</title>
<g id="a_Node000016"><a xlink:href="classgame_1_1logic_1_1EventQueue_1_1EventQueue.html" target="_top" xlink:title=" ">
<polygon fill="white" stroke="transparent" points="894.5,-342 736.5,-342 736.5,-237 894.5,-237 894.5,-342"/>
<text text-anchor="start" x="741.5" y="-329.5" font-family="Helvetica,sans-Serif" font-size="10.00">game.logic.EventQueue.Event</text>
<text text-anchor="start" x="799.5" y="-318.5" font-family="Helvetica,sans-Serif" font-size="10.00">Queue</text>
<text text-anchor="start" x="813.5" y="-303.5" font-family="Helvetica,sans-Serif" font-size="10.00"> </text>
<text text-anchor="start" x="758" y="-288.5" font-family="Helvetica,sans-Serif" font-size="10.00">+</text>
<text text-anchor="start" x="788.5" y="-288.5" font-family="Helvetica,sans-Serif" font-size="10.00">EventQueue()</text>
<text text-anchor="start" x="758" y="-273.5" font-family="Helvetica,sans-Serif" font-size="10.00">+</text>
<text text-anchor="start" x="788.5" y="-273.5" font-family="Helvetica,sans-Serif" font-size="10.00">Enqueue()</text>
<text text-anchor="start" x="758" y="-258.5" font-family="Helvetica,sans-Serif" font-size="10.00">+</text>
<text text-anchor="start" x="788.5" y="-258.5" font-family="Helvetica,sans-Serif" font-size="10.00">HasEvent()</text>
<text text-anchor="start" x="758" y="-243.5" font-family="Helvetica,sans-Serif" font-size="10.00">+</text>
<text text-anchor="start" x="788.5" y="-243.5" font-family="Helvetica,sans-Serif" font-size="10.00">Dequeue()</text>
<polygon fill="#666666" stroke="#666666" points="736.5,-313.5 736.5,-313.5 894.5,-313.5 894.5,-313.5 736.5,-313.5"/>
<polygon fill="#666666" stroke="#666666" points="736.5,-298.5 736.5,-298.5 894.5,-298.5 894.5,-298.5 736.5,-298.5"/>
<polygon fill="none" stroke="#666666" points="736.5,-237 736.5,-342 894.5,-342 894.5,-237 736.5,-237"/>
</a>
</g>
</g>
<!-- Node16&#45;&gt;Node15 -->
<g id="edge20_Node000015_Node000016" class="edge">
<title>Node16&#45;&gt;Node15</title>
<g id="a_edge20_Node000015_Node000016"><a xlink:title=" ">
<path fill="none" stroke="#63b8ff" d="M767.14,-236.74C752.98,-221.58 737.6,-205.12 723.78,-190.32"/>
<polygon fill="none" stroke="#63b8ff" points="723.59,-190.12 716.57,-188.47 715.4,-181.35 722.42,-183.01 723.59,-190.12"/>
</a>
</g>
<text text-anchor="middle" x="783.5" y="-211" font-family="Helvetica,sans-Serif" font-size="10.00" fill="grey"> &#45;_eventQueue</text>
</g>
<!-- Node17 -->
<g id="Node000017" class="node">
<title>Node17</title>
<g id="a_Node000017"><a xlink:href="interfacegame_1_1service_1_1IService.html" target="_top" xlink:title=" ">
<polygon fill="white" stroke="transparent" points="905.5,-481 855.5,-481 855.5,-432 905.5,-432 905.5,-481"/>
<text text-anchor="start" x="860.5" y="-468.5" font-family="Helvetica,sans-Serif" font-size="10.00">IService</text>
<text text-anchor="start" x="878.5" y="-453.5" font-family="Helvetica,sans-Serif" font-size="10.00"> </text>
<text text-anchor="start" x="878.5" y="-438.5" font-family="Helvetica,sans-Serif" font-size="10.00"> </text>
<polygon fill="#666666" stroke="#666666" points="855.5,-463.5 855.5,-463.5 905.5,-463.5 905.5,-463.5 855.5,-463.5"/>
<polygon fill="#666666" stroke="#666666" points="855.5,-448.5 855.5,-448.5 905.5,-448.5 905.5,-448.5 855.5,-448.5"/>
<polygon fill="none" stroke="#666666" points="855.5,-432 855.5,-481 905.5,-481 905.5,-432 855.5,-432"/>
</a>
</g>
</g>
<!-- Node17&#45;&gt;Node16 -->
<g id="edge21_Node000016_Node000017" class="edge">
<title>Node17&#45;&gt;Node16</title>
<g id="a_edge21_Node000016_Node000017"><a xlink:title=" ">
<path fill="none" stroke="#63b8ff" d="M867.4,-422.26C858.38,-399.35 846.21,-368.46 835.92,-342.34"/>
<polygon fill="none" stroke="#63b8ff" points="864.27,-423.84 871.19,-431.86 870.78,-421.27 864.27,-423.84"/>
</a>
</g>
</g>
<!-- Node18 -->
<g id="Node000018" class="node">
<title>Node18</title>
<g id="a_Node000018"><a xlink:title=" ">
<polygon fill="white" stroke="transparent" points="837.5,-492 661.5,-492 661.5,-421 837.5,-421 837.5,-492"/>
<text text-anchor="start" x="666.5" y="-479.5" font-family="Helvetica,sans-Serif" font-size="10.00">Dictionary&lt; EventId,</text>
<text text-anchor="start" x="666.5" y="-468.5" font-family="Helvetica,sans-Serif" font-size="10.00"> Queue&lt; game.logic.EventQueue.</text>
<text text-anchor="start" x="722.5" y="-457.5" font-family="Helvetica,sans-Serif" font-size="10.00">IEvent &gt; &gt;</text>
<text text-anchor="start" x="747.5" y="-442.5" font-family="Helvetica,sans-Serif" font-size="10.00"> </text>
<text text-anchor="start" x="747.5" y="-427.5" font-family="Helvetica,sans-Serif" font-size="10.00"> </text>
<polygon fill="#666666" stroke="#666666" points="661.5,-452.5 661.5,-452.5 837.5,-452.5 837.5,-452.5 661.5,-452.5"/>
<polygon fill="#666666" stroke="#666666" points="661.5,-437.5 661.5,-437.5 837.5,-437.5 837.5,-437.5 661.5,-437.5"/>
<polygon fill="none" stroke="#666666" points="661.5,-421 661.5,-492 837.5,-492 837.5,-421 661.5,-421"/>
</a>
</g>
</g>
<!-- Node18&#45;&gt;Node16 -->
<g id="edge22_Node000016_Node000018" class="edge">
<title>Node18&#45;&gt;Node16</title>
<g id="a_edge22_Node000016_Node000018"><a xlink:title=" ">
<path fill="none" stroke="#63b8ff" d="M763.34,-420.91C771.13,-401.43 781.1,-376.49 790.24,-353.65"/>
<polygon fill="none" stroke="#63b8ff" points="790.33,-353.43 788.84,-346.37 794.78,-342.29 796.27,-349.35 790.33,-353.43"/>
</a>
</g>
<text text-anchor="middle" x="809.5" y="-363" font-family="Helvetica,sans-Serif" font-size="10.00" fill="grey"> &#45;_queues</text>
</g>
<!-- Node19&#45;&gt;Node1 -->
<g id="edge23_Node000001_Node000019" class="edge">
<title>Node19&#45;&gt;Node1</title>
<g id="a_edge23_Node000001_Node000019"><a xlink:title=" ">
<path fill="none" stroke="#63b8ff" d="M535.2,-103.21C523.97,-88.83 511.34,-72.66 500.52,-58.81"/>
<polygon fill="none" stroke="#63b8ff" points="500.39,-58.65 493.55,-56.38 493.01,-49.19 499.85,-51.46 500.39,-58.65"/>
</a>
</g>
<text text-anchor="middle" x="547.5" y="-70" font-family="Helvetica,sans-Serif" font-size="10.00" fill="grey"> +Dispatcher</text>
</g>
<!-- Node20 -->
<g id="Node000020" class="node">
<title>Node20</title>
<g id="a_Node000020"><a xlink:title=" ">
<polygon fill="white" stroke="transparent" points="718,-314 553,-314 553,-265 718,-265 718,-314"/>
<text text-anchor="start" x="558.5" y="-301.5" font-family="Helvetica,sans-Serif" font-size="10.00">List&lt; gamerunner.IUpdatable &gt;</text>
<text text-anchor="start" x="634" y="-286.5" font-family="Helvetica,sans-Serif" font-size="10.00"> </text>
<text text-anchor="start" x="634" y="-271.5" font-family="Helvetica,sans-Serif" font-size="10.00"> </text>
<polygon fill="#666666" stroke="#666666" points="553.5,-296.5 553.5,-296.5 718.5,-296.5 718.5,-296.5 553.5,-296.5"/>
<polygon fill="#666666" stroke="#666666" points="553.5,-281.5 553.5,-281.5 718.5,-281.5 718.5,-281.5 553.5,-281.5"/>
<polygon fill="none" stroke="#666666" points="553,-265 553,-314 718,-314 718,-265 553,-265"/>
</a>
</g>
</g>
<!-- Node20&#45;&gt;Node19 -->
<g id="edge25_Node000019_Node000020" class="edge">
<title>Node20&#45;&gt;Node19</title>
<g id="a_edge25_Node000019_Node000020"><a xlink:title=" ">
<path fill="none" stroke="#63b8ff" d="M624.1,-264.96C614.8,-245.77 601.34,-217.99 589.67,-193.9"/>
<polygon fill="none" stroke="#63b8ff" points="589.51,-193.57 583.3,-189.92 584.28,-182.77 590.5,-186.43 589.51,-193.57"/>
</a>
</g>
<text text-anchor="middle" x="634" y="-211" font-family="Helvetica,sans-Serif" font-size="10.00" fill="grey"> &#45;_updatables</text>
</g>
</g>
</svg>

<g id="navigator" transform="translate(0 0)" fill="#404254">
  <rect fill="#f2f5e9" fill-opacity="0.5" stroke="#606060" stroke-width=".5" x="0" y="0" width="60" height="60"/>
  <use id="zoomplus" xlink:href="#zoomPlus" x="17" y="9" onmousedown="handleZoom(evt,'in')"/>
  <use id="zoomminus" xlink:href="#zoomMin" x="42" y="9" onmousedown="handleZoom(evt,'out')"/>
  <use id="reset" xlink:href="#resetDef" x="30" y="36" onmousedown="handleReset()"/>
   <use id="arrowup" xlink:href="#arrowUp" x="0" y="0" onmousedown="handlePan(0,-1)"/>
  <use id="arrowright" xlink:href="#arrowRight" x="0" y="0" onmousedown="handlePan(1,0)"/>
  <use id="arrowdown" xlink:href="#arrowDown" x="0" y="0" onmousedown="handlePan(0,1)"/>
  <use id="arrowleft" xlink:href="#arrowLeft" x="0" y="0" onmousedown="handlePan(-1,0)"/>
</g>
<svg viewBox="0 0 15 15" width="100%" height="30px" preserveAspectRatio="xMaxYMin meet">
 <g id="arrow_out" transform="scale(0.3 0.3)">
  <a xlink:href="classGameInitialiser__coll__graph_org.svg" target="_base">
   <rect id="button" ry="5" rx="5" y="6" x="6" height="38" width="38"
        fill="#f2f5e9" fill-opacity="0.5" stroke="#606060" stroke-width="1.0"/>
   <path id="arrow"
     d="M 11.500037,31.436501 C 11.940474,20.09759 22.043105,11.32322 32.158766,21.979434 L 37.068811,17.246167 C 37.068811,17.246167 37.088388,32 37.088388,32 L 22.160133,31.978069 C 22.160133,31.978069 26.997745,27.140456 26.997745,27.140456 C 18.528582,18.264221 13.291696,25.230495 11.500037,31.436501 z"
     style="fill:#404040;"/>
  </a>
 </g>
</svg>

<style type='text/css'>
<![CDATA[
[data-mouse-over-selected='false'] { opacity: 0.7; }
[data-mouse-over-selected='true']  { opacity: 1.0; }
]]>
</style>
<script type="application/ecmascript"><![CDATA[
document.addEventListener('DOMContentLoaded', (event) => {
  highlightEdges();
  highlightAdjacentNodes();
});
]]></script>
</svg>
