<?xml version="1.0" encoding="UTF-8" standalone="no"?>
<!DOCTYPE svg PUBLIC "-//W3C//DTD SVG 1.1//EN"
 "http://www.w3.org/Graphics/SVG/1.1/DTD/svg11.dtd">
<!-- Generated by graphviz version 2.43.0 (0)
 -->
<!-- Title: game.logic.LevelBasedGravityStrategy Pages: 1 -->
<svg width="312pt" height="235pt"
 viewBox="0.00 0.00 312.00 235.00" xmlns="http://www.w3.org/2000/svg" xmlns:xlink="http://www.w3.org/1999/xlink">

<svg id="main" version="1.1" xmlns="http://www.w3.org/2000/svg" xmlns:xlink="http://www.w3.org/1999/xlink" xml:space="preserve" onload="init(evt)">
<style type="text/css"><![CDATA[
.node, .edge {opacity: 0.7;}
.node.selected, .edge.selected {opacity: 1;}
.edge:hover path { stroke: red; }
.edge:hover polygon { stroke: red; fill: red; }
]]></style>
<script type="application/ecmascript" xlink:href="svg.min.js"/>
<svg id="graph" class="graph">
<g id="graph0" class="graph" transform="scale(1 1) rotate(0) translate(4 231)">
<title>game.logic.LevelBasedGravityStrategy</title>
<!-- Node1 -->
<g id="Node000001" class="node">
<title>Node1</title>
<g id="a_Node000001"><a xlink:title=" ">
<polygon fill="#999999" stroke="transparent" points="208,-105 48,-105 48,0 208,0 208,-105"/>
<text text-anchor="start" x="53" y="-92.5" font-family="Helvetica,sans-Serif" font-size="10.00">game.logic.LevelBasedGravity</text>
<text text-anchor="start" x="107" y="-81.5" font-family="Helvetica,sans-Serif" font-size="10.00">Strategy</text>
<text text-anchor="start" x="68.5" y="-66.5" font-family="Helvetica,sans-Serif" font-size="10.00">+</text>
<text text-anchor="start" x="98" y="-66.5" font-family="Helvetica,sans-Serif" font-size="10.00">CurrentGravity</text>
<text text-anchor="start" x="68.5" y="-51.5" font-family="Helvetica,sans-Serif" font-size="10.00">+</text>
<text text-anchor="start" x="98" y="-51.5" font-family="Helvetica,sans-Serif" font-size="10.00">Gravity</text>
<text text-anchor="start" x="68.5" y="-36.5" font-family="Helvetica,sans-Serif" font-size="10.00">+</text>
<text text-anchor="start" x="98" y="-36.5" font-family="Helvetica,sans-Serif" font-size="10.00">SetLevel()</text>
<text text-anchor="start" x="68.5" y="-21.5" font-family="Helvetica,sans-Serif" font-size="10.00">+</text>
<text text-anchor="start" x="98" y="-21.5" font-family="Helvetica,sans-Serif" font-size="10.00">LevelUp()</text>
<text text-anchor="start" x="68.5" y="-6.5" font-family="Helvetica,sans-Serif" font-size="10.00">+</text>
<text text-anchor="start" x="98" y="-6.5" font-family="Helvetica,sans-Serif" font-size="10.00">ResetLevel()</text>
<polygon fill="#666666" stroke="#666666" points="48,-76.5 48,-76.5 208,-76.5 208,-76.5 48,-76.5"/>
<polygon fill="#666666" stroke="#666666" points="48,-46.5 48,-46.5 96,-46.5 96,-46.5 48,-46.5"/>
<polygon fill="#666666" stroke="#666666" points="96,-46.5 96,-46.5 208,-46.5 208,-46.5 96,-46.5"/>
<polygon fill="none" stroke="#666666" points="48,0 48,-105 208,-105 208,0 48,0"/>
</a>
</g>
</g>
<!-- Node2 -->
<g id="Node000002" class="node">
<title>Node2</title>
<g id="a_Node000002"><a xlink:href="interfacegame_1_1logic_1_1IGravityStrategy.html" target="_top" xlink:title=" ">
<polygon fill="white" stroke="transparent" points="94,-227 0,-227 0,-163 94,-163 94,-227"/>
<text text-anchor="start" x="6.5" y="-215" font-family="Helvetica,sans-Serif" font-size="10.00">IGravityStrategy</text>
<text text-anchor="start" x="4" y="-200" font-family="Helvetica,sans-Serif" font-size="10.00">+</text>
<text text-anchor="start" x="17" y="-200" font-family="Helvetica,sans-Serif" font-size="10.00">CurrentGravity</text>
<text text-anchor="start" x="4" y="-185" font-family="Helvetica,sans-Serif" font-size="10.00">+</text>
<text text-anchor="start" x="17" y="-185" font-family="Helvetica,sans-Serif" font-size="10.00">Gravity</text>
<text text-anchor="start" x="45" y="-170" font-family="Helvetica,sans-Serif" font-size="10.00"> </text>
<polygon fill="#666666" stroke="#666666" points="0,-210 0,-210 94,-210 94,-210 0,-210"/>
<polygon fill="#666666" stroke="#666666" points="0,-180 0,-180 15,-180 15,-180 0,-180"/>
<polygon fill="#666666" stroke="#666666" points="15,-180 15,-180 94,-180 94,-180 15,-180"/>
<polygon fill="none" stroke="#666666" points="0,-163 0,-227 94,-227 94,-163 0,-163"/>
</a>
</g>
</g>
<!-- Node2&#45;&gt;Node1 -->
<g id="edge1_Node000001_Node000002" class="edge">
<title>Node2&#45;&gt;Node1</title>
<g id="a_edge1_Node000001_Node000002"><a xlink:title=" ">
<path fill="none" stroke="#63b8ff" d="M69.99,-154.13C78.79,-138.86 88.96,-121.22 98.3,-105.01"/>
<polygon fill="none" stroke="#63b8ff" points="66.94,-152.41 64.98,-162.82 73,-155.9 66.94,-152.41"/>
</a>
</g>
</g>
<!-- Node3 -->
<g id="Node000003" class="node">
<title>Node3</title>
<g id="a_Node000003"><a xlink:title=" ">
<polygon fill="white" stroke="transparent" points="144,-219.5 112,-219.5 112,-170.5 144,-170.5 144,-219.5"/>
<text text-anchor="start" x="117" y="-207" font-family="Helvetica,sans-Serif" font-size="10.00">float</text>
<text text-anchor="start" x="126" y="-192" font-family="Helvetica,sans-Serif" font-size="10.00"> </text>
<text text-anchor="start" x="126" y="-177" font-family="Helvetica,sans-Serif" font-size="10.00"> </text>
<polygon fill="#666666" stroke="#666666" points="112,-202 112,-202 144,-202 144,-202 112,-202"/>
<polygon fill="#666666" stroke="#666666" points="112,-187 112,-187 144,-187 144,-187 112,-187"/>
<polygon fill="none" stroke="#666666" points="112,-170.5 112,-219.5 144,-219.5 144,-170.5 112,-170.5"/>
</a>
</g>
</g>
<!-- Node3&#45;&gt;Node1 -->
<g id="edge2_Node000001_Node000003" class="edge">
<title>Node3&#45;&gt;Node1</title>
<g id="a_edge2_Node000001_Node000003"><a xlink:title=" ">
<path fill="none" stroke="#63b8ff" d="M128,-170.48C128,-155.8 128,-136.14 128,-117.13"/>
<polygon fill="none" stroke="#63b8ff" points="128,-117.11 124,-111.11 128,-105.11 132,-111.11 128,-117.11"/>
</a>
</g>
<text text-anchor="middle" x="191.5" y="-137" font-family="Helvetica,sans-Serif" font-size="10.00" fill="grey"> &#45;GravityIncreasePerLevel</text>
<text text-anchor="middle" x="191.5" y="-126" font-family="Helvetica,sans-Serif" font-size="10.00" fill="grey">&#45;_gravityBase</text>
</g>
<!-- Node4 -->
<g id="Node000004" class="node">
<title>Node4</title>
<g id="a_Node000004"><a xlink:title=" ">
<polygon fill="white" stroke="transparent" points="289.5,-219.5 266.5,-219.5 266.5,-170.5 289.5,-170.5 289.5,-219.5"/>
<text text-anchor="start" x="272" y="-207" font-family="Helvetica,sans-Serif" font-size="10.00">int</text>
<text text-anchor="start" x="276.5" y="-192" font-family="Helvetica,sans-Serif" font-size="10.00"> </text>
<text text-anchor="start" x="276.5" y="-177" font-family="Helvetica,sans-Serif" font-size="10.00"> </text>
<polygon fill="#666666" stroke="#666666" points="267,-202 267,-202 290,-202 290,-202 267,-202"/>
<polygon fill="#666666" stroke="#666666" points="267,-187 267,-187 290,-187 290,-187 267,-187"/>
<polygon fill="none" stroke="#666666" points="266.5,-170.5 266.5,-219.5 289.5,-219.5 289.5,-170.5 266.5,-170.5"/>
</a>
</g>
</g>
<!-- Node4&#45;&gt;Node1 -->
<g id="edge3_Node000001_Node000004" class="edge">
<title>Node4&#45;&gt;Node1</title>
<g id="a_edge3_Node000001_Node000004"><a xlink:title=" ">
<path fill="none" stroke="#63b8ff" d="M275.31,-170.44C272.56,-155.48 267.05,-136.47 256,-123 245.68,-110.41 232.45,-99.76 218.44,-90.87"/>
<polygon fill="none" stroke="#63b8ff" points="218.42,-90.86 211.22,-91.21 208.12,-84.7 215.32,-84.35 218.42,-90.86"/>
</a>
</g>
<text text-anchor="middle" x="285.5" y="-131.5" font-family="Helvetica,sans-Serif" font-size="10.00" fill="grey"> &#45;_level</text>
</g>
</g>
</svg>
</svg>

<style type='text/css'>
<![CDATA[
[data-mouse-over-selected='false'] { opacity: 0.7; }
[data-mouse-over-selected='true']  { opacity: 1.0; }
]]>
</style>
<script type="application/ecmascript"><![CDATA[
document.addEventListener('DOMContentLoaded', (event) => {
  highlightEdges();
  highlightAdjacentNodes();
});
]]></script>
</svg>
