<?xml version="1.0" encoding="UTF-8" standalone="no"?>
<!DOCTYPE svg PUBLIC "-//W3C//DTD SVG 1.1//EN"
 "http://www.w3.org/Graphics/SVG/1.1/DTD/svg11.dtd">
<!-- Generated by graphviz version 2.43.0 (0)
 -->
<!-- Title: MonoBehaviour Pages: 1 -->
<!--zoomable 198 -->

<svg id="main" version="1.1" xmlns="http://www.w3.org/2000/svg" xmlns:xlink="http://www.w3.org/1999/xlink" xml:space="preserve" onload="init(evt)">
<style type="text/css"><![CDATA[
.node, .edge {opacity: 0.7;}
.node.selected, .edge.selected {opacity: 1;}
.edge:hover path { stroke: red; }
.edge:hover polygon { stroke: red; fill: red; }
]]></style>

<defs>
  <circle id="rim" cx="0" cy="0" r="7"/>
  <circle id="rim2" cx="0" cy="0" r="3.5"/>
  <g id="zoomPlus">
    <use xlink:href="#rim" fill="#404040"><set attributeName="fill" to="#808080" begin="zoomplus.mouseover" end="zoomplus.mouseout"/></use>
    <path d="M-4,0h8M0,-4v8" fill="none" stroke="white" stroke-width="1.5" pointer-events="none"/>
  </g>
  <g id="zoomMin">
    <use xlink:href="#rim" fill="#404040"><set attributeName="fill" to="#808080" begin="zoomminus.mouseover" end="zoomminus.mouseout"/></use>
    <path d="M-4,0h8" fill="none" stroke="white" stroke-width="1.5" pointer-events="none"/>
  </g>
  <g id="arrowUp" transform="translate(30 24)">
    <use xlink:href="#rim"/>
    <path pointer-events="none" fill="none" stroke="white" stroke-width="1.5" d="M0,-3.0v7 M-2.5,-0.5L0,-3.0L2.5,-0.5"/>
  </g>
  <g id="arrowRight" transform="rotate(90) translate(36 -43)">
    <use xlink:href="#rim"/>
    <path pointer-events="none" fill="none" stroke="white" stroke-width="1.5" d="M0,-3.0v7 M-2.5,-0.5L0,-3.0L2.5,-0.5"/>
  </g>
  <g id="arrowDown" transform="rotate(180) translate(-30 -48)">
    <use xlink:href="#rim"/>
    <path pointer-events="none" fill="none" stroke="white" stroke-width="1.5" d="M0,-3.0v7 M-2.5,-0.5L0,-3.0L2.5,-0.5"/>
  </g>
  <g id="arrowLeft" transform="rotate(270) translate(-36 17)">
    <use xlink:href="#rim"/>
    <path pointer-events="none" fill="none" stroke="white" stroke-width="1.5" d="M0,-3.0v7 M-2.5,-0.5L0,-3.0L2.5,-0.5"/>
  </g>
  <g id="resetDef">
    <use xlink:href="#rim2" fill="#404040"><set attributeName="fill" to="#808080" begin="reset.mouseover" end="reset.mouseout"/></use>
  </g>
</defs>
<script type="application/ecmascript">
var viewWidth = 745;
var viewHeight = 198;
var sectionId = 'dynsection-0';
</script>
<script type="application/ecmascript" xlink:href="svg.min.js"/>
<svg id="graph" class="graph">
<g id="viewport">
<title>MonoBehaviour</title>
<!-- Node1 -->
<g id="Node000001" class="node">
<title>Node1</title>
<g id="a_Node000001"><a xlink:title=" ">
<polygon fill="#999999" stroke="transparent" points="362,-190 275,-190 275,-141 362,-141 362,-190"/>
<text text-anchor="start" x="280.5" y="-177.5" font-family="Helvetica,sans-Serif" font-size="10.00">MonoBehaviour</text>
<text text-anchor="start" x="317" y="-162.5" font-family="Helvetica,sans-Serif" font-size="10.00"> </text>
<text text-anchor="start" x="317" y="-147.5" font-family="Helvetica,sans-Serif" font-size="10.00"> </text>
<polygon fill="#666666" stroke="#666666" points="275.5,-172.5 275.5,-172.5 362.5,-172.5 362.5,-172.5 275.5,-172.5"/>
<polygon fill="#666666" stroke="#666666" points="275.5,-157.5 275.5,-157.5 362.5,-157.5 362.5,-157.5 275.5,-157.5"/>
<polygon fill="none" stroke="#666666" points="275,-141 275,-190 362,-190 362,-141 275,-141"/>
</a>
</g>
</g>
<!-- Node2 -->
<g id="Node000002" class="node">
<title>Node2</title>
<g id="a_Node000002"><a xlink:href="classGameInitialiser.html" target="_top" xlink:title=" ">
<polygon fill="white" stroke="transparent" points="97,-99.5 0,-99.5 0,-5.5 97,-5.5 97,-99.5"/>
<text text-anchor="start" x="11" y="-87.5" font-family="Helvetica,sans-Serif" font-size="10.00">GameInitialiser</text>
<text text-anchor="start" x="4.5" y="-72.5" font-family="Helvetica,sans-Serif" font-size="10.00">+</text>
<text text-anchor="start" x="17.5" y="-72.5" font-family="Helvetica,sans-Serif" font-size="10.00">PlayFieldPrefab</text>
<text text-anchor="start" x="4.5" y="-57.5" font-family="Helvetica,sans-Serif" font-size="10.00">+</text>
<text text-anchor="start" x="17.5" y="-57.5" font-family="Helvetica,sans-Serif" font-size="10.00">TilePrefab</text>
<text text-anchor="start" x="4.5" y="-42.5" font-family="Helvetica,sans-Serif" font-size="10.00">+</text>
<text text-anchor="start" x="17.5" y="-42.5" font-family="Helvetica,sans-Serif" font-size="10.00">_loginButton</text>
<text text-anchor="start" x="4.5" y="-27.5" font-family="Helvetica,sans-Serif" font-size="10.00">+</text>
<text text-anchor="start" x="17.5" y="-27.5" font-family="Helvetica,sans-Serif" font-size="10.00">Dispatcher</text>
<text text-anchor="start" x="7" y="-12.5" font-family="Helvetica,sans-Serif" font-size="10.00">&#45;</text>
<text text-anchor="start" x="17.5" y="-12.5" font-family="Helvetica,sans-Serif" font-size="10.00">Start()</text>
<polygon fill="#666666" stroke="#666666" points="0.5,-82.5 0.5,-82.5 97.5,-82.5 97.5,-82.5 0.5,-82.5"/>
<polygon fill="#666666" stroke="#666666" points="0.5,-22.5 0.5,-22.5 15.5,-22.5 15.5,-22.5 0.5,-22.5"/>
<polygon fill="#666666" stroke="#666666" points="15.5,-22.5 15.5,-22.5 97.5,-22.5 97.5,-22.5 15.5,-22.5"/>
<polygon fill="none" stroke="#666666" points="0,-5.5 0,-99.5 97,-99.5 97,-5.5 0,-5.5"/>
</a>
</g>
</g>
<!-- Node1&#45;&gt;Node2 -->
<g id="edge1_Node000001_Node000002" class="edge">
<title>Node1&#45;&gt;Node2</title>
<g id="a_edge1_Node000001_Node000002"><a xlink:title=" ">
<path fill="none" stroke="#63b8ff" d="M264.88,-156.38C220.42,-148.05 156.61,-132.37 106.5,-105 103.31,-103.26 100.15,-101.31 97.04,-99.22"/>
<polygon fill="none" stroke="#63b8ff" points="264.44,-159.85 274.9,-158.19 265.68,-152.96 264.44,-159.85"/>
</a>
</g>
</g>
<!-- Node3 -->
<g id="Node000003" class="node">
<title>Node3</title>
<g id="a_Node000003"><a xlink:href="classLoginButton.html" target="_top" xlink:title=" ">
<polygon fill="white" stroke="transparent" points="201.5,-99.5 115.5,-99.5 115.5,-5.5 201.5,-5.5 201.5,-99.5"/>
<text text-anchor="start" x="129" y="-87.5" font-family="Helvetica,sans-Serif" font-size="10.00">LoginButton</text>
<text text-anchor="start" x="122" y="-72.5" font-family="Helvetica,sans-Serif" font-size="10.00">&#45;</text>
<text text-anchor="start" x="132.5" y="-72.5" font-family="Helvetica,sans-Serif" font-size="10.00">_eventQueue</text>
<text text-anchor="start" x="119.5" y="-57.5" font-family="Helvetica,sans-Serif" font-size="10.00">+</text>
<text text-anchor="start" x="132.5" y="-57.5" font-family="Helvetica,sans-Serif" font-size="10.00">Link()</text>
<text text-anchor="start" x="119.5" y="-42.5" font-family="Helvetica,sans-Serif" font-size="10.00">+</text>
<text text-anchor="start" x="132.5" y="-42.5" font-family="Helvetica,sans-Serif" font-size="10.00">OnClick()</text>
<text text-anchor="start" x="122" y="-27.5" font-family="Helvetica,sans-Serif" font-size="10.00">&#45;</text>
<text text-anchor="start" x="132.5" y="-27.5" font-family="Helvetica,sans-Serif" font-size="10.00">Start()</text>
<text text-anchor="start" x="122" y="-12.5" font-family="Helvetica,sans-Serif" font-size="10.00">&#45;</text>
<text text-anchor="start" x="132.5" y="-12.5" font-family="Helvetica,sans-Serif" font-size="10.00">Update()</text>
<polygon fill="#666666" stroke="#666666" points="115.5,-82.5 115.5,-82.5 201.5,-82.5 201.5,-82.5 115.5,-82.5"/>
<polygon fill="#666666" stroke="#666666" points="115.5,-67.5 115.5,-67.5 130.5,-67.5 130.5,-67.5 115.5,-67.5"/>
<polygon fill="#666666" stroke="#666666" points="130.5,-67.5 130.5,-67.5 201.5,-67.5 201.5,-67.5 130.5,-67.5"/>
<polygon fill="none" stroke="#666666" points="115.5,-5.5 115.5,-99.5 201.5,-99.5 201.5,-5.5 115.5,-5.5"/>
</a>
</g>
</g>
<!-- Node1&#45;&gt;Node3 -->
<g id="edge2_Node000001_Node000003" class="edge">
<title>Node1&#45;&gt;Node3</title>
<g id="a_edge2_Node000001_Node000003"><a xlink:title=" ">
<path fill="none" stroke="#63b8ff" d="M265.49,-139.07C247.38,-129.41 227.44,-117.66 210.5,-105 207.55,-102.79 204.6,-100.43 201.69,-97.96"/>
<polygon fill="none" stroke="#63b8ff" points="264.29,-142.39 274.77,-143.92 267.53,-136.19 264.29,-142.39"/>
</a>
</g>
</g>
<!-- Node4 -->
<g id="Node000004" class="node">
<title>Node4</title>
<g id="a_Node000004"><a xlink:href="classScoreSubmit.html" target="_top" xlink:title=" ">
<polygon fill="white" stroke="transparent" points="295,-92 220,-92 220,-13 295,-13 295,-92"/>
<text text-anchor="start" x="227" y="-79.5" font-family="Helvetica,sans-Serif" font-size="10.00">ScoreSubmit</text>
<text text-anchor="start" x="227" y="-64.5" font-family="Helvetica,sans-Serif" font-size="10.00">&#45;</text>
<text text-anchor="start" x="237.5" y="-64.5" font-family="Helvetica,sans-Serif" font-size="10.00">_inputField</text>
<text text-anchor="start" x="224.5" y="-49.5" font-family="Helvetica,sans-Serif" font-size="10.00">+</text>
<text text-anchor="start" x="237.5" y="-49.5" font-family="Helvetica,sans-Serif" font-size="10.00">Win()</text>
<text text-anchor="start" x="227" y="-34.5" font-family="Helvetica,sans-Serif" font-size="10.00">&#45;</text>
<text text-anchor="start" x="237.5" y="-34.5" font-family="Helvetica,sans-Serif" font-size="10.00">Start()</text>
<text text-anchor="start" x="227" y="-19.5" font-family="Helvetica,sans-Serif" font-size="10.00">&#45;</text>
<text text-anchor="start" x="237.5" y="-19.5" font-family="Helvetica,sans-Serif" font-size="10.00">Update()</text>
<polygon fill="#666666" stroke="#666666" points="220.5,-74.5 220.5,-74.5 295.5,-74.5 295.5,-74.5 220.5,-74.5"/>
<polygon fill="#666666" stroke="#666666" points="220.5,-59.5 220.5,-59.5 235.5,-59.5 235.5,-59.5 220.5,-59.5"/>
<polygon fill="#666666" stroke="#666666" points="235.5,-59.5 235.5,-59.5 295.5,-59.5 295.5,-59.5 235.5,-59.5"/>
<polygon fill="none" stroke="#666666" points="220,-13 220,-92 295,-92 295,-13 220,-13"/>
</a>
</g>
</g>
<!-- Node1&#45;&gt;Node4 -->
<g id="edge3_Node000001_Node000004" class="edge">
<title>Node1&#45;&gt;Node4</title>
<g id="a_edge3_Node000001_Node000004"><a xlink:title=" ">
<path fill="none" stroke="#63b8ff" d="M300.58,-131.88C293.76,-119.48 285.92,-105.22 278.82,-92.29"/>
<polygon fill="none" stroke="#63b8ff" points="297.68,-133.88 305.56,-140.96 303.81,-130.51 297.68,-133.88"/>
</a>
</g>
</g>
<!-- Node5 -->
<g id="Node000005" class="node">
<title>Node5</title>
<g id="a_Node000005"><a xlink:href="classgame_1_1logic_1_1playfield_1_1PlayFieldView.html" target="_top" xlink:title=" ">
<polygon fill="white" stroke="transparent" points="447.5,-105 313.5,-105 313.5,0 447.5,0 447.5,-105"/>
<text text-anchor="start" x="318.5" y="-92.5" font-family="Helvetica,sans-Serif" font-size="10.00">game.logic.playfield.Play</text>
<text text-anchor="start" x="356.5" y="-81.5" font-family="Helvetica,sans-Serif" font-size="10.00">FieldView</text>
<text text-anchor="start" x="329" y="-66.5" font-family="Helvetica,sans-Serif" font-size="10.00">+</text>
<text text-anchor="start" x="353.5" y="-66.5" font-family="Helvetica,sans-Serif" font-size="10.00">TileAnchor</text>
<text text-anchor="start" x="331.5" y="-51.5" font-family="Helvetica,sans-Serif" font-size="10.00">&#45;</text>
<text text-anchor="start" x="353.5" y="-51.5" font-family="Helvetica,sans-Serif" font-size="10.00">_playFieldVM</text>
<text text-anchor="start" x="329" y="-36.5" font-family="Helvetica,sans-Serif" font-size="10.00">+</text>
<text text-anchor="start" x="353.5" y="-36.5" font-family="Helvetica,sans-Serif" font-size="10.00">Link()</text>
<text text-anchor="start" x="331.5" y="-21.5" font-family="Helvetica,sans-Serif" font-size="10.00">&#45;</text>
<text text-anchor="start" x="353.5" y="-21.5" font-family="Helvetica,sans-Serif" font-size="10.00">Start()</text>
<text text-anchor="start" x="331.5" y="-6.5" font-family="Helvetica,sans-Serif" font-size="10.00">&#45;</text>
<text text-anchor="start" x="353.5" y="-6.5" font-family="Helvetica,sans-Serif" font-size="10.00">Update()</text>
<polygon fill="#666666" stroke="#666666" points="313.5,-76.5 313.5,-76.5 447.5,-76.5 447.5,-76.5 313.5,-76.5"/>
<polygon fill="#666666" stroke="#666666" points="313.5,-46.5 313.5,-46.5 351.5,-46.5 351.5,-46.5 313.5,-46.5"/>
<polygon fill="#666666" stroke="#666666" points="351.5,-46.5 351.5,-46.5 447.5,-46.5 447.5,-46.5 351.5,-46.5"/>
<polygon fill="none" stroke="#666666" points="313.5,0 313.5,-105 447.5,-105 447.5,0 313.5,0"/>
</a>
</g>
</g>
<!-- Node1&#45;&gt;Node5 -->
<g id="edge4_Node000001_Node000005" class="edge">
<title>Node1&#45;&gt;Node5</title>
<g id="a_edge4_Node000001_Node000005"><a xlink:title=" ">
<path fill="none" stroke="#63b8ff" d="M336.54,-132.21C341.24,-123.78 346.44,-114.49 351.55,-105.32"/>
<polygon fill="none" stroke="#63b8ff" points="333.47,-130.52 331.65,-140.96 339.58,-133.94 333.47,-130.52"/>
</a>
</g>
</g>
<!-- Node6 -->
<g id="Node000006" class="node">
<title>Node6</title>
<g id="a_Node000006"><a xlink:href="classgame_1_1logic_1_1tile_1_1TileView.html" target="_top" xlink:title=" ">
<polygon fill="white" stroke="transparent" points="593.5,-99.5 465.5,-99.5 465.5,-5.5 593.5,-5.5 593.5,-99.5"/>
<text text-anchor="start" x="470.5" y="-87.5" font-family="Helvetica,sans-Serif" font-size="10.00">game.logic.tile.TileView</text>
<text text-anchor="start" x="484.5" y="-72.5" font-family="Helvetica,sans-Serif" font-size="10.00">+</text>
<text text-anchor="start" x="512.5" y="-72.5" font-family="Helvetica,sans-Serif" font-size="10.00">TileSprite</text>
<text text-anchor="start" x="487" y="-57.5" font-family="Helvetica,sans-Serif" font-size="10.00">&#45;</text>
<text text-anchor="start" x="512.5" y="-57.5" font-family="Helvetica,sans-Serif" font-size="10.00">_tileVM</text>
<text text-anchor="start" x="484.5" y="-42.5" font-family="Helvetica,sans-Serif" font-size="10.00">+</text>
<text text-anchor="start" x="512.5" y="-42.5" font-family="Helvetica,sans-Serif" font-size="10.00">Link()</text>
<text text-anchor="start" x="487" y="-27.5" font-family="Helvetica,sans-Serif" font-size="10.00">&#45;</text>
<text text-anchor="start" x="512.5" y="-27.5" font-family="Helvetica,sans-Serif" font-size="10.00">Start()</text>
<text text-anchor="start" x="487" y="-12.5" font-family="Helvetica,sans-Serif" font-size="10.00">&#45;</text>
<text text-anchor="start" x="512.5" y="-12.5" font-family="Helvetica,sans-Serif" font-size="10.00">Update()</text>
<polygon fill="#666666" stroke="#666666" points="465.5,-82.5 465.5,-82.5 593.5,-82.5 593.5,-82.5 465.5,-82.5"/>
<polygon fill="#666666" stroke="#666666" points="465.5,-52.5 465.5,-52.5 510.5,-52.5 510.5,-52.5 465.5,-52.5"/>
<polygon fill="#666666" stroke="#666666" points="510.5,-52.5 510.5,-52.5 593.5,-52.5 593.5,-52.5 510.5,-52.5"/>
<polygon fill="none" stroke="#666666" points="465.5,-5.5 465.5,-99.5 593.5,-99.5 593.5,-5.5 465.5,-5.5"/>
</a>
</g>
</g>
<!-- Node1&#45;&gt;Node6 -->
<g id="edge5_Node000001_Node000006" class="edge">
<title>Node1&#45;&gt;Node6</title>
<g id="a_edge5_Node000001_Node000006"><a xlink:title=" ">
<path fill="none" stroke="#63b8ff" d="M371.56,-144.63C397.75,-134.08 429.44,-120.16 456.5,-105 459.48,-103.33 462.48,-101.57 465.49,-99.74"/>
<polygon fill="none" stroke="#63b8ff" points="370.18,-141.41 362.18,-148.36 372.77,-147.92 370.18,-141.41"/>
</a>
</g>
</g>
<!-- Node7 -->
<g id="Node000007" class="node">
<title>Node7</title>
<g id="a_Node000007"><a xlink:href="classgamerunner_1_1Dispatcher.html" target="_top" xlink:title=" ">
<polygon fill="white" stroke="transparent" points="737,-92 612,-92 612,-13 737,-13 737,-92"/>
<text text-anchor="start" x="617.5" y="-79.5" font-family="Helvetica,sans-Serif" font-size="10.00">gamerunner.Dispatcher</text>
<text text-anchor="start" x="626" y="-64.5" font-family="Helvetica,sans-Serif" font-size="10.00">&#45;</text>
<text text-anchor="start" x="643.5" y="-64.5" font-family="Helvetica,sans-Serif" font-size="10.00">_updatables</text>
<text text-anchor="start" x="623.5" y="-49.5" font-family="Helvetica,sans-Serif" font-size="10.00">+</text>
<text text-anchor="start" x="643.5" y="-49.5" font-family="Helvetica,sans-Serif" font-size="10.00">addUpdatable()</text>
<text text-anchor="start" x="626" y="-34.5" font-family="Helvetica,sans-Serif" font-size="10.00">&#45;</text>
<text text-anchor="start" x="643.5" y="-34.5" font-family="Helvetica,sans-Serif" font-size="10.00">Awake()</text>
<text text-anchor="start" x="626" y="-19.5" font-family="Helvetica,sans-Serif" font-size="10.00">&#45;</text>
<text text-anchor="start" x="643.5" y="-19.5" font-family="Helvetica,sans-Serif" font-size="10.00">Update()</text>
<polygon fill="#666666" stroke="#666666" points="612.5,-74.5 612.5,-74.5 737.5,-74.5 737.5,-74.5 612.5,-74.5"/>
<polygon fill="#666666" stroke="#666666" points="612.5,-59.5 612.5,-59.5 641.5,-59.5 641.5,-59.5 612.5,-59.5"/>
<polygon fill="#666666" stroke="#666666" points="641.5,-59.5 641.5,-59.5 737.5,-59.5 737.5,-59.5 641.5,-59.5"/>
<polygon fill="none" stroke="#666666" points="612,-13 612,-92 737,-92 737,-13 612,-13"/>
</a>
</g>
</g>
<!-- Node1&#45;&gt;Node7 -->
<g id="edge6_Node000001_Node000007" class="edge">
<title>Node1&#45;&gt;Node7</title>
<g id="a_edge6_Node000001_Node000007"><a xlink:title=" ">
<path fill="none" stroke="#63b8ff" d="M372.2,-159.91C430.86,-153.4 526.57,-138.34 602.5,-105 610.52,-101.48 618.54,-96.97 626.16,-92.09"/>
<polygon fill="none" stroke="#63b8ff" points="371.62,-156.45 362.05,-160.99 372.37,-163.41 371.62,-156.45"/>
</a>
</g>
</g>
</g>
</svg>

<g id="navigator" transform="translate(0 0)" fill="#404254">
  <rect fill="#f2f5e9" fill-opacity="0.5" stroke="#606060" stroke-width=".5" x="0" y="0" width="60" height="60"/>
  <use id="zoomplus" xlink:href="#zoomPlus" x="17" y="9" onmousedown="handleZoom(evt,'in')"/>
  <use id="zoomminus" xlink:href="#zoomMin" x="42" y="9" onmousedown="handleZoom(evt,'out')"/>
  <use id="reset" xlink:href="#resetDef" x="30" y="36" onmousedown="handleReset()"/>
   <use id="arrowup" xlink:href="#arrowUp" x="0" y="0" onmousedown="handlePan(0,-1)"/>
  <use id="arrowright" xlink:href="#arrowRight" x="0" y="0" onmousedown="handlePan(1,0)"/>
  <use id="arrowdown" xlink:href="#arrowDown" x="0" y="0" onmousedown="handlePan(0,1)"/>
  <use id="arrowleft" xlink:href="#arrowLeft" x="0" y="0" onmousedown="handlePan(-1,0)"/>
</g>
<svg viewBox="0 0 15 15" width="100%" height="30px" preserveAspectRatio="xMaxYMin meet">
 <g id="arrow_out" transform="scale(0.3 0.3)">
  <a xlink:href="classMonoBehaviour__inherit__graph_org.svg" target="_base">
   <rect id="button" ry="5" rx="5" y="6" x="6" height="38" width="38"
        fill="#f2f5e9" fill-opacity="0.5" stroke="#606060" stroke-width="1.0"/>
   <path id="arrow"
     d="M 11.500037,31.436501 C 11.940474,20.09759 22.043105,11.32322 32.158766,21.979434 L 37.068811,17.246167 C 37.068811,17.246167 37.088388,32 37.088388,32 L 22.160133,31.978069 C 22.160133,31.978069 26.997745,27.140456 26.997745,27.140456 C 18.528582,18.264221 13.291696,25.230495 11.500037,31.436501 z"
     style="fill:#404040;"/>
  </a>
 </g>
</svg>

<style type='text/css'>
<![CDATA[
[data-mouse-over-selected='false'] { opacity: 0.7; }
[data-mouse-over-selected='true']  { opacity: 1.0; }
]]>
</style>
<script type="application/ecmascript"><![CDATA[
document.addEventListener('DOMContentLoaded', (event) => {
  highlightEdges();
  highlightAdjacentNodes();
});
]]></script>
</svg>
