<?xml version="1.0" encoding="UTF-8" standalone="no"?>
<!DOCTYPE svg PUBLIC "-//W3C//DTD SVG 1.1//EN"
 "http://www.w3.org/Graphics/SVG/1.1/DTD/svg11.dtd">
<!-- Generated by graphviz version 2.43.0 (0)
 -->
<!-- Title: debugtools.VardumpCommand Pages: 1 -->
<svg width="201pt" height="264pt"
 viewBox="0.00 0.00 200.50 264.00" xmlns="http://www.w3.org/2000/svg" xmlns:xlink="http://www.w3.org/1999/xlink">
<g id="graph0" class="graph" transform="scale(1 1) rotate(0) translate(4 260)">
<title>debugtools.VardumpCommand</title>
<!-- Node1 -->
<g id="Node000001" class="node">
<title>Node1</title>
<g id="a_Node000001"><a xlink:title=" ">
<polygon fill="#999999" stroke="transparent" points="161,-64 0,-64 0,0 161,0 161,-64"/>
<text text-anchor="start" x="5.5" y="-52" font-family="Helvetica,sans-Serif" font-size="10.00">debugtools.VardumpCommand</text>
<text text-anchor="start" x="79" y="-37" font-family="Helvetica,sans-Serif" font-size="10.00"> </text>
<text text-anchor="start" x="14" y="-22" font-family="Helvetica,sans-Serif" font-size="10.00">+</text>
<text text-anchor="start" x="36.5" y="-22" font-family="Helvetica,sans-Serif" font-size="10.00">VardumpCommand()</text>
<text text-anchor="start" x="14" y="-7" font-family="Helvetica,sans-Serif" font-size="10.00">+</text>
<text text-anchor="start" x="36.5" y="-7" font-family="Helvetica,sans-Serif" font-size="10.00">Execute()</text>
<polygon fill="#666666" stroke="#666666" points="0.5,-47 0.5,-47 161.5,-47 161.5,-47 0.5,-47"/>
<polygon fill="#666666" stroke="#666666" points="0.5,-32 0.5,-32 161.5,-32 161.5,-32 0.5,-32"/>
<polygon fill="none" stroke="#666666" points="0,0 0,-64 161,-64 161,0 0,0"/>
</a>
</g>
</g>
<!-- Node2 -->
<g id="Node000002" class="node">
<title>Node2</title>
<g id="a_Node000002"><a xlink:href="classdebugtools_1_1DebugReceiver.html" target="_top" xlink:title=" ">
<polygon fill="white" stroke="transparent" points="151.5,-160 9.5,-160 9.5,-111 151.5,-111 151.5,-160"/>
<text text-anchor="start" x="14.5" y="-147.5" font-family="Helvetica,sans-Serif" font-size="10.00">debugtools.DebugReceiver</text>
<text text-anchor="start" x="78.5" y="-132.5" font-family="Helvetica,sans-Serif" font-size="10.00"> </text>
<text text-anchor="start" x="34" y="-117.5" font-family="Helvetica,sans-Serif" font-size="10.00">+</text>
<text text-anchor="start" x="67.5" y="-117.5" font-family="Helvetica,sans-Serif" font-size="10.00">Action()</text>
<polygon fill="#666666" stroke="#666666" points="9.5,-142.5 9.5,-142.5 151.5,-142.5 151.5,-142.5 9.5,-142.5"/>
<polygon fill="#666666" stroke="#666666" points="9.5,-127.5 9.5,-127.5 151.5,-127.5 151.5,-127.5 9.5,-127.5"/>
<polygon fill="none" stroke="#666666" points="9.5,-111 9.5,-160 151.5,-160 151.5,-111 9.5,-111"/>
</a>
</g>
</g>
<!-- Node2&#45;&gt;Node1 -->
<g id="edge1_Node000001_Node000002" class="edge">
<title>Node2&#45;&gt;Node1</title>
<g id="a_edge1_Node000001_Node000002"><a xlink:title=" ">
<path fill="none" stroke="#63b8ff" d="M80.5,-110.96C80.5,-100.61 80.5,-88.13 80.5,-76.21"/>
<polygon fill="none" stroke="#63b8ff" points="80.5,-76.11 76.5,-70.11 80.5,-64.11 84.5,-70.11 80.5,-76.11"/>
</a>
</g>
<text text-anchor="middle" x="106.5" y="-85" font-family="Helvetica,sans-Serif" font-size="10.00" fill="grey"> &#45;_receiver</text>
</g>
<!-- Node3 -->
<g id="Node000003" class="node">
<title>Node3</title>
<g id="a_Node000003"><a xlink:title=" ">
<polygon fill="white" stroke="transparent" points="119.5,-256 41.5,-256 41.5,-207 119.5,-207 119.5,-256"/>
<text text-anchor="start" x="46.5" y="-243.5" font-family="Helvetica,sans-Serif" font-size="10.00">List&lt; string &gt;</text>
<text text-anchor="start" x="78.5" y="-228.5" font-family="Helvetica,sans-Serif" font-size="10.00"> </text>
<text text-anchor="start" x="78.5" y="-213.5" font-family="Helvetica,sans-Serif" font-size="10.00"> </text>
<polygon fill="#666666" stroke="#666666" points="41.5,-238.5 41.5,-238.5 119.5,-238.5 119.5,-238.5 41.5,-238.5"/>
<polygon fill="#666666" stroke="#666666" points="41.5,-223.5 41.5,-223.5 119.5,-223.5 119.5,-223.5 41.5,-223.5"/>
<polygon fill="none" stroke="#666666" points="41.5,-207 41.5,-256 119.5,-256 119.5,-207 41.5,-207"/>
</a>
</g>
</g>
<!-- Node3&#45;&gt;Node2 -->
<g id="edge2_Node000002_Node000003" class="edge">
<title>Node3&#45;&gt;Node2</title>
<g id="a_edge2_Node000002_Node000003"><a xlink:title=" ">
<path fill="none" stroke="#63b8ff" d="M80.5,-206.78C80.5,-196.32 80.5,-183.79 80.5,-172.23"/>
<polygon fill="none" stroke="#63b8ff" points="80.5,-172.21 76.5,-166.21 80.5,-160.21 84.5,-166.21 80.5,-172.21"/>
</a>
</g>
<text text-anchor="middle" x="136.5" y="-181" font-family="Helvetica,sans-Serif" font-size="10.00" fill="grey"> &#45;supportedCommands</text>
</g>
</g>
</svg>
