<?xml version="1.0" encoding="UTF-8" standalone="no"?>
<!DOCTYPE svg PUBLIC "-//W3C//DTD SVG 1.1//EN"
 "http://www.w3.org/Graphics/SVG/1.1/DTD/svg11.dtd">
<!-- Generated by graphviz version 2.43.0 (0)
 -->
<!-- Title: game.logic.tilespawner.TileSpawnerService.Shuffle Pages: 1 -->
<svg width="543pt" height="86pt"
 viewBox="0.00 0.00 543.00 86.00" xmlns="http://www.w3.org/2000/svg" xmlns:xlink="http://www.w3.org/1999/xlink">
<g id="graph0" class="graph" transform="scale(1 1) rotate(0) translate(4 82)">
<title>game.logic.tilespawner.TileSpawnerService.Shuffle</title>
<!-- Node1 -->
<g id="Node000001" class="node">
<title>Node1</title>
<g id="a_Node000001"><a xlink:title=" ">
<polygon fill="#999999" stroke="#666666" points="535,-54 384,-54 384,-24 535,-24 535,-54"/>
<text text-anchor="start" x="392" y="-42" font-family="Helvetica,sans-Serif" font-size="10.00">game.logic.tilespawner.Tile</text>
<text text-anchor="middle" x="459.5" y="-31" font-family="Helvetica,sans-Serif" font-size="10.00">SpawnerService.Shuffle</text>
</a>
</g>
</g>
<!-- Node2 -->
<g id="Node000002" class="node">
<title>Node2</title>
<g id="a_Node000002"><a xlink:href="classgame_1_1logic_1_1tilespawner_1_1TileSpawnerService.html#a3a4da02acca59c7b4b180dd40867fca5" target="_top" xlink:title=" ">
<polygon fill="white" stroke="#666666" points="326.5,-78 175.5,-78 175.5,-48 326.5,-48 326.5,-78"/>
<text text-anchor="start" x="183.5" y="-66" font-family="Helvetica,sans-Serif" font-size="10.00">game.logic.tilespawner.Tile</text>
<text text-anchor="middle" x="251" y="-55" font-family="Helvetica,sans-Serif" font-size="10.00">SpawnerService.Spawn</text>
</a>
</g>
</g>
<!-- Node1&#45;&gt;Node2 -->
<g id="edge1_Node000001_Node000002" class="edge">
<title>Node1&#45;&gt;Node2</title>
<g id="a_edge1_Node000001_Node000002"><a xlink:title=" ">
<path fill="none" stroke="#63b8ff" d="M373.81,-48.84C358.22,-50.65 342.06,-52.53 326.79,-54.31"/>
<polygon fill="#63b8ff" stroke="#63b8ff" points="374.42,-52.3 383.95,-47.66 373.61,-45.34 374.42,-52.3"/>
</a>
</g>
</g>
<!-- Node4 -->
<g id="Node000004" class="node">
<title>Node4</title>
<g id="a_Node000004"><a xlink:href="classgame_1_1logic_1_1tilespawner_1_1TileSpawnerService.html#aad0b3b7b64ebe2bfcc09fe7b2a37f238" target="_top" xlink:title=" ">
<polygon fill="white" stroke="#666666" points="348,-30 154,-30 154,0 348,0 348,-30"/>
<text text-anchor="start" x="162" y="-18" font-family="Helvetica,sans-Serif" font-size="10.00">game.logic.tilespawner.Tile</text>
<text text-anchor="middle" x="251" y="-7" font-family="Helvetica,sans-Serif" font-size="10.00">SpawnerService.TileSpawnerService</text>
</a>
</g>
</g>
<!-- Node1&#45;&gt;Node4 -->
<g id="edge3_Node000001_Node000004" class="edge">
<title>Node1&#45;&gt;Node4</title>
<g id="a_edge3_Node000001_Node000004"><a xlink:title=" ">
<path fill="none" stroke="#63b8ff" d="M373.99,-29.18C365.43,-28.18 356.69,-27.17 348.01,-26.16"/>
<polygon fill="#63b8ff" stroke="#63b8ff" points="373.61,-32.66 383.95,-30.34 374.42,-25.7 373.61,-32.66"/>
</a>
</g>
</g>
<!-- Node3 -->
<g id="Node000003" class="node">
<title>Node3</title>
<g id="a_Node000003"><a xlink:href="classGameRunner.html#a60b42ae79f0fc030d0ef8a31d10ae960" target="_top" xlink:title=" ">
<polygon fill="white" stroke="#666666" points="118,-72.5 0,-72.5 0,-53.5 118,-53.5 118,-72.5"/>
<text text-anchor="middle" x="59" y="-60.5" font-family="Helvetica,sans-Serif" font-size="10.00">GameRunner.Update</text>
</a>
</g>
</g>
<!-- Node2&#45;&gt;Node3 -->
<g id="edge2_Node000002_Node000003" class="edge">
<title>Node2&#45;&gt;Node3</title>
<g id="a_edge2_Node000002_Node000003"><a xlink:title=" ">
<path fill="none" stroke="#63b8ff" d="M165.1,-63C149.24,-63 133.01,-63 118.18,-63"/>
<polygon fill="#63b8ff" stroke="#63b8ff" points="165.45,-66.5 175.45,-63 165.45,-59.5 165.45,-66.5"/>
</a>
</g>
</g>
</g>
</svg>
