<?xml version="1.0" encoding="UTF-8" standalone="no"?>
<!DOCTYPE svg PUBLIC "-//W3C//DTD SVG 1.1//EN"
 "http://www.w3.org/Graphics/SVG/1.1/DTD/svg11.dtd">
<!-- Generated by graphviz version 2.43.0 (0)
 -->
<!-- Title: game.logic.playfield.PlayFieldViewModel Pages: 1 -->
<svg width="394pt" height="387pt"
 viewBox="0.00 0.00 394.00 387.00" xmlns="http://www.w3.org/2000/svg" xmlns:xlink="http://www.w3.org/1999/xlink">
<g id="graph0" class="graph" transform="scale(1 1) rotate(0) translate(4 383)">
<title>game.logic.playfield.PlayFieldViewModel</title>
<!-- Node1 -->
<g id="Node000001" class="node">
<title>Node1</title>
<g id="a_Node000001"><a xlink:title=" ">
<polygon fill="#999999" stroke="transparent" points="216,-135 82,-135 82,0 216,0 216,-135"/>
<text text-anchor="start" x="87" y="-122.5" font-family="Helvetica,sans-Serif" font-size="10.00">game.logic.playfield.Play</text>
<text text-anchor="start" x="110" y="-111.5" font-family="Helvetica,sans-Serif" font-size="10.00">FieldViewModel</text>
<text text-anchor="start" x="87.5" y="-96.5" font-family="Helvetica,sans-Serif" font-size="10.00">+</text>
<text text-anchor="start" x="102" y="-96.5" font-family="Helvetica,sans-Serif" font-size="10.00">Width</text>
<text text-anchor="start" x="87.5" y="-81.5" font-family="Helvetica,sans-Serif" font-size="10.00">+</text>
<text text-anchor="start" x="102" y="-81.5" font-family="Helvetica,sans-Serif" font-size="10.00">Height</text>
<text text-anchor="start" x="87.5" y="-66.5" font-family="Helvetica,sans-Serif" font-size="10.00">+</text>
<text text-anchor="start" x="102" y="-66.5" font-family="Helvetica,sans-Serif" font-size="10.00">Tiles</text>
<text text-anchor="start" x="87.5" y="-51.5" font-family="Helvetica,sans-Serif" font-size="10.00">+</text>
<text text-anchor="start" x="102" y="-51.5" font-family="Helvetica,sans-Serif" font-size="10.00">PlayFieldViewModel()</text>
<text text-anchor="start" x="87.5" y="-36.5" font-family="Helvetica,sans-Serif" font-size="10.00">+</text>
<text text-anchor="start" x="102" y="-36.5" font-family="Helvetica,sans-Serif" font-size="10.00">GetTile()</text>
<text text-anchor="start" x="87.5" y="-21.5" font-family="Helvetica,sans-Serif" font-size="10.00">+</text>
<text text-anchor="start" x="102" y="-21.5" font-family="Helvetica,sans-Serif" font-size="10.00">PlaceTile()</text>
<text text-anchor="start" x="87.5" y="-6.5" font-family="Helvetica,sans-Serif" font-size="10.00">+</text>
<text text-anchor="start" x="102" y="-6.5" font-family="Helvetica,sans-Serif" font-size="10.00">Update()</text>
<polygon fill="#666666" stroke="#666666" points="82,-106.5 82,-106.5 216,-106.5 216,-106.5 82,-106.5"/>
<polygon fill="#666666" stroke="#666666" points="82,-61.5 82,-61.5 100,-61.5 100,-61.5 82,-61.5"/>
<polygon fill="#666666" stroke="#666666" points="100,-61.5 100,-61.5 216,-61.5 216,-61.5 100,-61.5"/>
<polygon fill="none" stroke="#666666" points="82,0 82,-135 216,-135 216,0 82,0"/>
</a>
</g>
</g>
<!-- Node2 -->
<g id="Node000002" class="node">
<title>Node2</title>
<g id="a_Node000002"><a xlink:href="interfacegamerunner_1_1IUpdatable.html" target="_top" xlink:title=" ">
<polygon fill="white" stroke="transparent" points="64,-246 0,-246 0,-197 64,-197 64,-246"/>
<text text-anchor="start" x="5" y="-233.5" font-family="Helvetica,sans-Serif" font-size="10.00">IUpdatable</text>
<text text-anchor="start" x="30" y="-218.5" font-family="Helvetica,sans-Serif" font-size="10.00"> </text>
<text text-anchor="start" x="4" y="-203.5" font-family="Helvetica,sans-Serif" font-size="10.00">+</text>
<text text-anchor="start" x="17" y="-203.5" font-family="Helvetica,sans-Serif" font-size="10.00">Update()</text>
<polygon fill="#666666" stroke="#666666" points="0,-228.5 0,-228.5 64,-228.5 64,-228.5 0,-228.5"/>
<polygon fill="#666666" stroke="#666666" points="0,-213.5 0,-213.5 64,-213.5 64,-213.5 0,-213.5"/>
<polygon fill="none" stroke="#666666" points="0,-197 0,-246 64,-246 64,-197 0,-197"/>
</a>
</g>
</g>
<!-- Node2&#45;&gt;Node1 -->
<g id="edge1_Node000001_Node000002" class="edge">
<title>Node2&#45;&gt;Node1</title>
<g id="a_edge1_Node000001_Node000002"><a xlink:title=" ">
<path fill="none" stroke="#63b8ff" d="M56.62,-188.52C68.6,-172.95 83.48,-153.62 97.77,-135.06"/>
<polygon fill="none" stroke="#63b8ff" points="53.61,-186.69 50.28,-196.75 59.15,-190.96 53.61,-186.69"/>
</a>
</g>
</g>
<!-- Node3 -->
<g id="Node000003" class="node">
<title>Node3</title>
<g id="a_Node000003"><a xlink:href="classgame_1_1logic_1_1playfield_1_1PlayField.html" target="_top" xlink:title=" ">
<polygon fill="white" stroke="transparent" points="216,-259 82,-259 82,-184 216,-184 216,-259"/>
<text text-anchor="start" x="87" y="-246.5" font-family="Helvetica,sans-Serif" font-size="10.00">game.logic.playfield.Play</text>
<text text-anchor="start" x="137" y="-235.5" font-family="Helvetica,sans-Serif" font-size="10.00">Field</text>
<text text-anchor="start" x="106" y="-220.5" font-family="Helvetica,sans-Serif" font-size="10.00">+</text>
<text text-anchor="start" x="139" y="-220.5" font-family="Helvetica,sans-Serif" font-size="10.00">Width</text>
<text text-anchor="start" x="106" y="-205.5" font-family="Helvetica,sans-Serif" font-size="10.00">+</text>
<text text-anchor="start" x="139" y="-205.5" font-family="Helvetica,sans-Serif" font-size="10.00">Height</text>
<text text-anchor="start" x="147" y="-190.5" font-family="Helvetica,sans-Serif" font-size="10.00"> </text>
<polygon fill="#666666" stroke="#666666" points="82,-230.5 82,-230.5 216,-230.5 216,-230.5 82,-230.5"/>
<polygon fill="#666666" stroke="#666666" points="82,-200.5 82,-200.5 137,-200.5 137,-200.5 82,-200.5"/>
<polygon fill="#666666" stroke="#666666" points="137,-200.5 137,-200.5 216,-200.5 216,-200.5 137,-200.5"/>
<polygon fill="none" stroke="#666666" points="82,-184 82,-259 216,-259 216,-184 82,-184"/>
</a>
</g>
</g>
<!-- Node3&#45;&gt;Node1 -->
<g id="edge2_Node000001_Node000003" class="edge">
<title>Node3&#45;&gt;Node1</title>
<g id="a_edge2_Node000001_Node000003"><a xlink:title=" ">
<path fill="none" stroke="#63b8ff" d="M149,-183.71C149,-172.65 149,-160.08 149,-147.39"/>
<polygon fill="none" stroke="#63b8ff" points="149,-147.25 145,-141.25 149,-135.25 153,-141.25 149,-147.25"/>
</a>
</g>
<text text-anchor="middle" x="177.5" y="-156" font-family="Helvetica,sans-Serif" font-size="10.00" fill="grey"> &#45;_playField</text>
</g>
<!-- Node4 -->
<g id="Node000004" class="node">
<title>Node4</title>
<g id="a_Node000004"><a xlink:title=" ">
<polygon fill="white" stroke="transparent" points="72.5,-373.5 49.5,-373.5 49.5,-324.5 72.5,-324.5 72.5,-373.5"/>
<text text-anchor="start" x="55" y="-361" font-family="Helvetica,sans-Serif" font-size="10.00">int</text>
<text text-anchor="start" x="59.5" y="-346" font-family="Helvetica,sans-Serif" font-size="10.00"> </text>
<text text-anchor="start" x="59.5" y="-331" font-family="Helvetica,sans-Serif" font-size="10.00"> </text>
<polygon fill="#666666" stroke="#666666" points="50,-356 50,-356 73,-356 73,-356 50,-356"/>
<polygon fill="#666666" stroke="#666666" points="50,-341 50,-341 73,-341 73,-341 50,-341"/>
<polygon fill="none" stroke="#666666" points="49.5,-324.5 49.5,-373.5 72.5,-373.5 72.5,-324.5 49.5,-324.5"/>
</a>
</g>
</g>
<!-- Node4&#45;&gt;Node3 -->
<g id="edge3_Node000003_Node000004" class="edge">
<title>Node4&#45;&gt;Node3</title>
<g id="a_edge3_Node000003_Node000004"><a xlink:title=" ">
<path fill="none" stroke="#63b8ff" d="M66.04,-324.26C69.77,-310.27 75.81,-292.69 85,-279 87.5,-275.27 90.31,-271.64 93.31,-268.12"/>
<polygon fill="none" stroke="#63b8ff" points="93.49,-267.93 94.63,-260.81 101.64,-259.13 100.5,-266.25 93.49,-267.93"/>
</a>
</g>
<text text-anchor="middle" x="116.5" y="-293" font-family="Helvetica,sans-Serif" font-size="10.00" fill="grey"> &#45;FieldHeight</text>
<text text-anchor="middle" x="116.5" y="-282" font-family="Helvetica,sans-Serif" font-size="10.00" fill="grey">&#45;FieldWidth</text>
</g>
<!-- Node5 -->
<g id="Node000005" class="node">
<title>Node5</title>
<g id="a_Node000005"><a xlink:href="interfacegame_1_1logic_1_1tile_1_1ITileable.html" target="_top" xlink:title=" ">
<polygon fill="white" stroke="transparent" points="219,-373.5 91,-373.5 91,-324.5 219,-324.5 219,-373.5"/>
<text text-anchor="start" x="96" y="-361" font-family="Helvetica,sans-Serif" font-size="10.00">game.logic.tile.ITileable</text>
<text text-anchor="start" x="115" y="-346" font-family="Helvetica,sans-Serif" font-size="10.00">+</text>
<text text-anchor="start" x="148" y="-346" font-family="Helvetica,sans-Serif" font-size="10.00">Color</text>
<text text-anchor="start" x="153" y="-331" font-family="Helvetica,sans-Serif" font-size="10.00"> </text>
<polygon fill="#666666" stroke="#666666" points="91,-356 91,-356 219,-356 219,-356 91,-356"/>
<polygon fill="#666666" stroke="#666666" points="91,-341 91,-341 146,-341 146,-341 91,-341"/>
<polygon fill="#666666" stroke="#666666" points="146,-341 146,-341 219,-341 219,-341 146,-341"/>
<polygon fill="none" stroke="#666666" points="91,-324.5 91,-373.5 219,-373.5 219,-324.5 91,-324.5"/>
</a>
</g>
</g>
<!-- Node5&#45;&gt;Node3 -->
<g id="edge4_Node000003_Node000005" class="edge">
<title>Node5&#45;&gt;Node3</title>
<g id="a_edge4_Node000003_Node000005"><a xlink:title=" ">
<path fill="none" stroke="#63b8ff" d="M153.87,-324.39C153.16,-309.51 152.21,-289.73 151.35,-271.57"/>
<polygon fill="none" stroke="#63b8ff" points="151.33,-271.31 147.05,-265.51 150.76,-259.32 155.04,-265.13 151.33,-271.31"/>
</a>
</g>
<text text-anchor="middle" x="170.5" y="-287.5" font-family="Helvetica,sans-Serif" font-size="10.00" fill="grey"> +Field</text>
</g>
<!-- Node6 -->
<g id="Node000006" class="node">
<title>Node6</title>
<g id="a_Node000006"><a xlink:href="classgame_1_1service_1_1ServiceLocator.html" target="_top" xlink:title=" ">
<polygon fill="white" stroke="transparent" points="386,-261 234,-261 234,-182 386,-182 386,-261"/>
<text text-anchor="start" x="239" y="-248.5" font-family="Helvetica,sans-Serif" font-size="10.00">game.service.ServiceLocator</text>
<text text-anchor="start" x="308" y="-233.5" font-family="Helvetica,sans-Serif" font-size="10.00"> </text>
<text text-anchor="start" x="242.5" y="-218.5" font-family="Helvetica,sans-Serif" font-size="10.00">+</text>
<text text-anchor="start" x="260" y="-218.5" font-family="Helvetica,sans-Serif" font-size="10.00">ServiceLocator()</text>
<text text-anchor="start" x="242.5" y="-203.5" font-family="Helvetica,sans-Serif" font-size="10.00">+</text>
<text text-anchor="start" x="260" y="-203.5" font-family="Helvetica,sans-Serif" font-size="10.00">GetService&lt; T &gt;()</text>
<text text-anchor="start" x="242.5" y="-188.5" font-family="Helvetica,sans-Serif" font-size="10.00">+</text>
<text text-anchor="start" x="260" y="-188.5" font-family="Helvetica,sans-Serif" font-size="10.00">RegisterService&lt; T &gt;()</text>
<polygon fill="#666666" stroke="#666666" points="234,-243.5 234,-243.5 386,-243.5 386,-243.5 234,-243.5"/>
<polygon fill="#666666" stroke="#666666" points="234,-228.5 234,-228.5 386,-228.5 386,-228.5 234,-228.5"/>
<polygon fill="none" stroke="#666666" points="234,-182 234,-261 386,-261 386,-182 234,-182"/>
</a>
</g>
</g>
<!-- Node6&#45;&gt;Node1 -->
<g id="edge5_Node000001_Node000006" class="edge">
<title>Node6&#45;&gt;Node1</title>
<g id="a_edge5_Node000001_Node000006"><a xlink:title=" ">
<path fill="none" stroke="#63b8ff" d="M268.96,-181.75C255.56,-169.1 240.23,-154.63 225.1,-140.35"/>
<polygon fill="none" stroke="#63b8ff" points="224.97,-140.22 217.86,-139.01 216.24,-131.98 223.35,-133.19 224.97,-140.22"/>
</a>
</g>
<text text-anchor="middle" x="291" y="-156" font-family="Helvetica,sans-Serif" font-size="10.00" fill="grey"> &#45;_serviceLocator</text>
</g>
<!-- Node7 -->
<g id="Node000007" class="node">
<title>Node7</title>
<g id="a_Node000007"><a xlink:title=" ">
<polygon fill="white" stroke="transparent" points="376.5,-379 243.5,-379 243.5,-319 376.5,-319 376.5,-379"/>
<text text-anchor="start" x="249" y="-367" font-family="Helvetica,sans-Serif" font-size="10.00">IDictionary&lt; object,</text>
<text text-anchor="start" x="249" y="-356" font-family="Helvetica,sans-Serif" font-size="10.00"> game.service.IService &gt;</text>
<text text-anchor="start" x="308.5" y="-341" font-family="Helvetica,sans-Serif" font-size="10.00"> </text>
<text text-anchor="start" x="308.5" y="-326" font-family="Helvetica,sans-Serif" font-size="10.00"> </text>
<polygon fill="#666666" stroke="#666666" points="244,-351 244,-351 377,-351 377,-351 244,-351"/>
<polygon fill="#666666" stroke="#666666" points="244,-336 244,-336 377,-336 377,-336 244,-336"/>
<polygon fill="none" stroke="#666666" points="243.5,-319 243.5,-379 376.5,-379 376.5,-319 243.5,-319"/>
</a>
</g>
</g>
<!-- Node7&#45;&gt;Node6 -->
<g id="edge6_Node000006_Node000007" class="edge">
<title>Node7&#45;&gt;Node6</title>
<g id="a_edge6_Node000006_Node000007"><a xlink:title=" ">
<path fill="none" stroke="#63b8ff" d="M310,-318.89C310,-305.41 310,-288.98 310,-273.54"/>
<polygon fill="none" stroke="#63b8ff" points="310,-273.44 306,-267.44 310,-261.44 314,-267.44 310,-273.44"/>
</a>
</g>
<text text-anchor="middle" x="334" y="-287.5" font-family="Helvetica,sans-Serif" font-size="10.00" fill="grey"> &#45;services</text>
</g>
</g>
</svg>
