<?xml version="1.0" encoding="UTF-8" standalone="no"?>
<!DOCTYPE svg PUBLIC "-//W3C//DTD SVG 1.1//EN"
 "http://www.w3.org/Graphics/SVG/1.1/DTD/svg11.dtd">
<!-- Generated by graphviz version 2.43.0 (0)
 -->
<!-- Title: Graphical Class Hierarchy Pages: 1 -->
<svg width="277pt" height="224pt"
 viewBox="0.00 0.00 277.00 224.00" xmlns="http://www.w3.org/2000/svg" xmlns:xlink="http://www.w3.org/1999/xlink">
<g id="graph0" class="graph" transform="scale(1 1) rotate(0) translate(4 220)">
<title>Graphical Class Hierarchy</title>
<!-- Node0 -->
<g id="Node000000" class="node">
<title>Node0</title>
<g id="a_Node000000"><a xlink:href="classMonoBehaviour.html" target="_top" xlink:title=" ">
<polygon fill="white" stroke="#666666" points="93,-120 0,-120 0,-101 93,-101 93,-120"/>
<text text-anchor="middle" x="46.5" y="-108" font-family="Helvetica,sans-Serif" font-size="10.00">MonoBehaviour</text>
</a>
</g>
</g>
<!-- Node1 -->
<g id="Node000001" class="node">
<title>Node1</title>
<g id="a_Node000001"><a xlink:href="classGameInitialiser.html" target="_top" xlink:title=" ">
<polygon fill="white" stroke="#666666" points="245,-216 153,-216 153,-197 245,-197 245,-216"/>
<text text-anchor="middle" x="199" y="-204" font-family="Helvetica,sans-Serif" font-size="10.00">GameInitialiser</text>
</a>
</g>
</g>
<!-- Node0&#45;&gt;Node1 -->
<g id="edge21_Node000000_Node000001" class="edge">
<title>Node0&#45;&gt;Node1</title>
<g id="a_edge21_Node000000_Node000001"><a xlink:title=" ">
<path fill="none" stroke="#63b8ff" d="M61.08,-127.93C75.89,-145.76 101.23,-172.99 129,-188.5 136.35,-192.6 144.66,-195.8 152.91,-198.28"/>
<polygon fill="#63b8ff" stroke="#63b8ff" points="63.69,-125.6 54.68,-120.02 58.25,-130 63.69,-125.6"/>
</a>
</g>
</g>
<!-- Node2 -->
<g id="Node000002" class="node">
<title>Node2</title>
<g id="a_Node000002"><a xlink:href="classLoginButton.html" target="_top" xlink:title=" ">
<polygon fill="white" stroke="#666666" points="236.5,-179 161.5,-179 161.5,-160 236.5,-160 236.5,-179"/>
<text text-anchor="middle" x="199" y="-167" font-family="Helvetica,sans-Serif" font-size="10.00">LoginButton</text>
</a>
</g>
</g>
<!-- Node0&#45;&gt;Node2 -->
<g id="edge22_Node000000_Node000002" class="edge">
<title>Node0&#45;&gt;Node2</title>
<g id="a_edge22_Node000000_Node000002"><a xlink:title=" ">
<path fill="none" stroke="#63b8ff" d="M72.99,-125.07C88.75,-133.64 109.61,-144.19 129,-151.5 139.31,-155.39 150.79,-158.75 161.38,-161.48"/>
<polygon fill="#63b8ff" stroke="#63b8ff" points="74.34,-121.82 63.89,-120.04 70.95,-127.95 74.34,-121.82"/>
</a>
</g>
</g>
<!-- Node3 -->
<g id="Node000003" class="node">
<title>Node3</title>
<g id="a_Node000003"><a xlink:href="classScoreSubmit.html" target="_top" xlink:title=" ">
<polygon fill="white" stroke="#666666" points="238,-142 160,-142 160,-123 238,-123 238,-142"/>
<text text-anchor="middle" x="199" y="-130" font-family="Helvetica,sans-Serif" font-size="10.00">ScoreSubmit</text>
</a>
</g>
</g>
<!-- Node0&#45;&gt;Node3 -->
<g id="edge23_Node000000_Node000003" class="edge">
<title>Node0&#45;&gt;Node3</title>
<g id="a_edge23_Node000000_Node000003"><a xlink:title=" ">
<path fill="none" stroke="#63b8ff" d="M103.02,-118.62C121.87,-121.37 142.49,-124.39 159.69,-126.9"/>
<polygon fill="#63b8ff" stroke="#63b8ff" points="103.46,-115.14 93.06,-117.16 102.45,-122.07 103.46,-115.14"/>
</a>
</g>
</g>
<!-- Node4 -->
<g id="Node000004" class="node">
<title>Node4</title>
<g id="a_Node000004"><a xlink:href="classgame_1_1logic_1_1playfield_1_1PlayFieldView.html" target="_top" xlink:title=" ">
<polygon fill="white" stroke="#666666" points="269,-104.5 129,-104.5 129,-74.5 269,-74.5 269,-104.5"/>
<text text-anchor="start" x="137" y="-92.5" font-family="Helvetica,sans-Serif" font-size="10.00">game.logic.playfield.Play</text>
<text text-anchor="middle" x="199" y="-81.5" font-family="Helvetica,sans-Serif" font-size="10.00">FieldView</text>
</a>
</g>
</g>
<!-- Node0&#45;&gt;Node4 -->
<g id="edge24_Node000000_Node000004" class="edge">
<title>Node0&#45;&gt;Node4</title>
<g id="a_edge24_Node000000_Node000004"><a xlink:title=" ">
<path fill="none" stroke="#63b8ff" d="M103.13,-102.74C111.55,-101.56 120.32,-100.34 128.98,-99.13"/>
<polygon fill="#63b8ff" stroke="#63b8ff" points="102.48,-99.29 93.06,-104.14 103.45,-106.23 102.48,-99.29"/>
</a>
</g>
</g>
<!-- Node5 -->
<g id="Node000005" class="node">
<title>Node5</title>
<g id="a_Node000005"><a xlink:href="classgame_1_1logic_1_1tile_1_1TileView.html" target="_top" xlink:title=" ">
<polygon fill="white" stroke="#666666" points="266,-56 132,-56 132,-37 266,-37 266,-56"/>
<text text-anchor="middle" x="199" y="-44" font-family="Helvetica,sans-Serif" font-size="10.00">game.logic.tile.TileView</text>
</a>
</g>
</g>
<!-- Node0&#45;&gt;Node5 -->
<g id="edge25_Node000000_Node000005" class="edge">
<title>Node0&#45;&gt;Node5</title>
<g id="a_edge25_Node000000_Node000005"><a xlink:title=" ">
<path fill="none" stroke="#63b8ff" d="M70.92,-95.62C86.83,-86.02 108.6,-73.8 129,-65.5 137.86,-61.89 147.63,-58.74 156.97,-56.09"/>
<polygon fill="#63b8ff" stroke="#63b8ff" points="68.98,-92.71 62.29,-100.93 72.64,-98.68 68.98,-92.71"/>
</a>
</g>
</g>
<!-- Node6 -->
<g id="Node000006" class="node">
<title>Node6</title>
<g id="a_Node000006"><a xlink:href="classgamerunner_1_1Dispatcher.html" target="_top" xlink:title=" ">
<polygon fill="white" stroke="#666666" points="264.5,-19 133.5,-19 133.5,0 264.5,0 264.5,-19"/>
<text text-anchor="middle" x="199" y="-7" font-family="Helvetica,sans-Serif" font-size="10.00">gamerunner.Dispatcher</text>
</a>
</g>
</g>
<!-- Node0&#45;&gt;Node6 -->
<g id="edge26_Node000000_Node000006" class="edge">
<title>Node0&#45;&gt;Node6</title>
<g id="a_edge26_Node000000_Node000006"><a xlink:title=" ">
<path fill="none" stroke="#63b8ff" d="M60.49,-92.78C75.11,-74.09 100.57,-45.1 129,-28.5 135.65,-24.62 143.13,-21.5 150.64,-19"/>
<polygon fill="#63b8ff" stroke="#63b8ff" points="57.66,-90.72 54.39,-100.79 63.23,-94.96 57.66,-90.72"/>
</a>
</g>
</g>
</g>
</svg>
