<?xml version="1.0" encoding="UTF-8" standalone="no"?>
<!DOCTYPE svg PUBLIC "-//W3C//DTD SVG 1.1//EN"
 "http://www.w3.org/Graphics/SVG/1.1/DTD/svg11.dtd">
<!-- Generated by graphviz version 2.43.0 (0)
 -->
<!-- Title: Graphical Class Hierarchy Pages: 1 -->
<svg width="535pt" height="258pt"
 viewBox="0.00 0.00 535.00 258.00" xmlns="http://www.w3.org/2000/svg" xmlns:xlink="http://www.w3.org/1999/xlink">
<g id="graph0" class="graph" transform="scale(1 1) rotate(0) translate(4 254)">
<title>Graphical Class Hierarchy</title>
<!-- Node0 -->
<g id="Node000000" class="node">
<title>Node0</title>
<g id="a_Node000000"><a xlink:href="interfacegame_1_1logic_1_1IGravityStrategy.html" target="_top" xlink:title=" ">
<polygon fill="white" stroke="#666666" points="320,-220.5 166,-220.5 166,-201.5 320,-201.5 320,-220.5"/>
<text text-anchor="middle" x="243" y="-208.5" font-family="Helvetica,sans-Serif" font-size="10.00">game.logic.IGravityStrategy</text>
</a>
</g>
</g>
<!-- Node1 -->
<g id="Node000001" class="node">
<title>Node1</title>
<g id="a_Node000001"><a xlink:href="classgame_1_1logic_1_1LevelBasedGravityStrategy.html" target="_top" xlink:title=" ">
<polygon fill="white" stroke="#666666" points="527,-250 361,-250 361,-220 527,-220 527,-250"/>
<text text-anchor="start" x="369" y="-238" font-family="Helvetica,sans-Serif" font-size="10.00">game.logic.LevelBasedGravity</text>
<text text-anchor="middle" x="444" y="-227" font-family="Helvetica,sans-Serif" font-size="10.00">Strategy</text>
</a>
</g>
</g>
<!-- Node0&#45;&gt;Node1 -->
<g id="edge3_Node000000_Node000001" class="edge">
<title>Node0&#45;&gt;Node1</title>
<g id="a_edge3_Node000000_Node000001"><a xlink:title=" ">
<path fill="none" stroke="#63b8ff" d="M330.22,-221.4C340.44,-222.63 350.84,-223.89 361,-225.11"/>
<polygon fill="#63b8ff" stroke="#63b8ff" points="330.43,-217.9 320.09,-220.18 329.59,-224.85 330.43,-217.9"/>
</a>
</g>
</g>
<!-- Node2 -->
<g id="Node000002" class="node">
<title>Node2</title>
<g id="a_Node000002"><a xlink:href="classgame_1_1logic_1_1TimeBasedGravityStrategy.html" target="_top" xlink:title=" ">
<polygon fill="white" stroke="#666666" points="526,-202 362,-202 362,-172 526,-172 526,-202"/>
<text text-anchor="start" x="370" y="-190" font-family="Helvetica,sans-Serif" font-size="10.00">game.logic.TimeBasedGravity</text>
<text text-anchor="middle" x="444" y="-179" font-family="Helvetica,sans-Serif" font-size="10.00">Strategy</text>
</a>
</g>
</g>
<!-- Node0&#45;&gt;Node2 -->
<g id="edge4_Node000000_Node000002" class="edge">
<title>Node0&#45;&gt;Node2</title>
<g id="a_edge4_Node000000_Node000002"><a xlink:title=" ">
<path fill="none" stroke="#63b8ff" d="M330.15,-200.61C340.72,-199.34 351.5,-198.04 361.99,-196.77"/>
<polygon fill="#63b8ff" stroke="#63b8ff" points="329.59,-197.15 320.09,-201.82 330.43,-204.1 329.59,-197.15"/>
</a>
</g>
</g>
<!-- Node7 -->
<g id="Node000007" class="node">
<title>Node7</title>
<g id="a_Node000007"><a xlink:href="interfacegame_1_1service_1_1IService.html" target="_top" xlink:title=" ">
<polygon fill="white" stroke="#666666" points="125,-67.5 0,-67.5 0,-48.5 125,-48.5 125,-67.5"/>
<text text-anchor="middle" x="62.5" y="-55.5" font-family="Helvetica,sans-Serif" font-size="10.00">game.service.IService</text>
</a>
</g>
</g>
<!-- Node8 -->
<g id="Node000008" class="node">
<title>Node8</title>
<g id="a_Node000008"><a xlink:href="classgame_1_1logic_1_1EventQueue_1_1EventQueue.html" target="_top" xlink:title=" ">
<polygon fill="white" stroke="#666666" points="325,-116 161,-116 161,-86 325,-86 325,-116"/>
<text text-anchor="start" x="169" y="-104" font-family="Helvetica,sans-Serif" font-size="10.00">game.logic.EventQueue.Event</text>
<text text-anchor="middle" x="243" y="-93" font-family="Helvetica,sans-Serif" font-size="10.00">Queue</text>
</a>
</g>
</g>
<!-- Node7&#45;&gt;Node8 -->
<g id="edge5_Node000007_Node000008" class="edge">
<title>Node7&#45;&gt;Node8</title>
<g id="a_edge5_Node000007_Node000008"><a xlink:title=" ">
<path fill="none" stroke="#63b8ff" d="M112.94,-69.91C133.61,-74.89 157.85,-80.73 179.71,-85.99"/>
<polygon fill="#63b8ff" stroke="#63b8ff" points="113.66,-66.48 103.11,-67.54 112.02,-73.29 113.66,-66.48"/>
</a>
</g>
</g>
<!-- Node6 -->
<g id="Node000006" class="node">
<title>Node6</title>
<g id="a_Node000006"><a xlink:href="interfacegame_1_1logic_1_1IGravityService.html" target="_top" xlink:title=" ">
<polygon fill="white" stroke="#666666" points="317.5,-67.5 168.5,-67.5 168.5,-48.5 317.5,-48.5 317.5,-67.5"/>
<text text-anchor="middle" x="243" y="-55.5" font-family="Helvetica,sans-Serif" font-size="10.00">game.logic.IGravityService</text>
</a>
</g>
</g>
<!-- Node7&#45;&gt;Node6 -->
<g id="edge6_Node000007_Node000006" class="edge">
<title>Node7&#45;&gt;Node6</title>
<g id="a_edge6_Node000007_Node000006"><a xlink:title=" ">
<path fill="none" stroke="#63b8ff" d="M135.44,-58C146.27,-58 157.46,-58 168.33,-58"/>
<polygon fill="#63b8ff" stroke="#63b8ff" points="135.18,-54.5 125.18,-58 135.18,-61.5 135.18,-54.5"/>
</a>
</g>
</g>
<!-- Node9 -->
<g id="Node000009" class="node">
<title>Node9</title>
<g id="a_Node000009"><a xlink:href="classgame_1_1logic_1_1tilespawner_1_1TileSpawnerService.html" target="_top" xlink:title=" ">
<polygon fill="white" stroke="#666666" points="318.5,-30 167.5,-30 167.5,0 318.5,0 318.5,-30"/>
<text text-anchor="start" x="175.5" y="-18" font-family="Helvetica,sans-Serif" font-size="10.00">game.logic.tilespawner.Tile</text>
<text text-anchor="middle" x="243" y="-7" font-family="Helvetica,sans-Serif" font-size="10.00">SpawnerService</text>
</a>
</g>
</g>
<!-- Node7&#45;&gt;Node9 -->
<g id="edge8_Node000007_Node000009" class="edge">
<title>Node7&#45;&gt;Node9</title>
<g id="a_edge8_Node000007_Node000009"><a xlink:title=" ">
<path fill="none" stroke="#63b8ff" d="M112.94,-46.09C133.61,-41.11 157.85,-35.27 179.71,-30.01"/>
<polygon fill="#63b8ff" stroke="#63b8ff" points="112.02,-42.71 103.11,-48.46 113.66,-49.52 112.02,-42.71"/>
</a>
</g>
</g>
<!-- Node5 -->
<g id="Node000005" class="node">
<title>Node5</title>
<g id="a_Node000005"><a xlink:href="classgame_1_1logic_1_1GravityService.html" target="_top" xlink:title=" ">
<polygon fill="white" stroke="#666666" points="517,-67.5 371,-67.5 371,-48.5 517,-48.5 517,-67.5"/>
<text text-anchor="middle" x="444" y="-55.5" font-family="Helvetica,sans-Serif" font-size="10.00">game.logic.GravityService</text>
</a>
</g>
</g>
<!-- Node6&#45;&gt;Node5 -->
<g id="edge7_Node000006_Node000005" class="edge">
<title>Node6&#45;&gt;Node5</title>
<g id="a_edge7_Node000006_Node000005"><a xlink:title=" ">
<path fill="none" stroke="#63b8ff" d="M327.83,-58C342.11,-58 356.82,-58 370.76,-58"/>
<polygon fill="#63b8ff" stroke="#63b8ff" points="327.53,-54.5 317.53,-58 327.53,-61.5 327.53,-54.5"/>
</a>
</g>
</g>
<!-- Node3 -->
<g id="Node000003" class="node">
<title>Node3</title>
<g id="a_Node000003"><a xlink:href="interfacegamerunner_1_1IUpdatable.html" target="_top" xlink:title=" ">
<polygon fill="white" stroke="#666666" points="308.5,-153.5 177.5,-153.5 177.5,-134.5 308.5,-134.5 308.5,-153.5"/>
<text text-anchor="middle" x="243" y="-141.5" font-family="Helvetica,sans-Serif" font-size="10.00">gamerunner.IUpdatable</text>
</a>
</g>
</g>
<!-- Node3&#45;&gt;Node2 -->
<g id="edge11_Node000003_Node000002" class="edge">
<title>Node3&#45;&gt;Node2</title>
<g id="a_edge11_Node000003_Node000002"><a xlink:title=" ">
<path fill="none" stroke="#63b8ff" d="M298.18,-155.71C321.42,-160.73 348.85,-166.66 373.55,-171.99"/>
<polygon fill="#63b8ff" stroke="#63b8ff" points="298.68,-152.23 288.16,-153.54 297.2,-159.08 298.68,-152.23"/>
</a>
</g>
</g>
<!-- Node3&#45;&gt;Node5 -->
<g id="edge10_Node000003_Node000005" class="edge">
<title>Node3&#45;&gt;Node5</title>
<g id="a_edge10_Node000003_Node000005"><a xlink:title=" ">
<path fill="none" stroke="#63b8ff" d="M315.04,-130.53C318.51,-128.89 321.85,-127.06 325,-125 347.32,-110.41 338.66,-91.56 361,-77 367,-73.09 373.71,-69.98 380.63,-67.51"/>
<polygon fill="#63b8ff" stroke="#63b8ff" points="313.52,-127.37 305.61,-134.42 316.19,-133.84 313.52,-127.37"/>
</a>
</g>
</g>
<!-- Node4 -->
<g id="Node000004" class="node">
<title>Node4</title>
<g id="a_Node000004"><a xlink:href="classGameRunner.html" target="_top" xlink:title=" ">
<polygon fill="white" stroke="#666666" points="484,-153.5 404,-153.5 404,-134.5 484,-134.5 484,-153.5"/>
<text text-anchor="middle" x="444" y="-141.5" font-family="Helvetica,sans-Serif" font-size="10.00">GameRunner</text>
</a>
</g>
</g>
<!-- Node3&#45;&gt;Node4 -->
<g id="edge9_Node000003_Node000004" class="edge">
<title>Node3&#45;&gt;Node4</title>
<g id="a_edge9_Node000003_Node000004"><a xlink:title=" ">
<path fill="none" stroke="#63b8ff" d="M318.72,-144C347.69,-144 379.66,-144 403.92,-144"/>
<polygon fill="#63b8ff" stroke="#63b8ff" points="318.61,-140.5 308.61,-144 318.61,-147.5 318.61,-140.5"/>
</a>
</g>
</g>
<!-- Node10 -->
<g id="Node000010" class="node">
<title>Node10</title>
<g id="a_Node000010"><a xlink:href="classgame_1_1logic_1_1playfield_1_1PlayFieldViewModel.html" target="_top" xlink:title=" ">
<polygon fill="white" stroke="#666666" points="514,-116 374,-116 374,-86 514,-86 514,-116"/>
<text text-anchor="start" x="382" y="-104" font-family="Helvetica,sans-Serif" font-size="10.00">game.logic.playfield.Play</text>
<text text-anchor="middle" x="444" y="-93" font-family="Helvetica,sans-Serif" font-size="10.00">FieldViewModel</text>
</a>
</g>
</g>
<!-- Node3&#45;&gt;Node10 -->
<g id="edge12_Node000003_Node000010" class="edge">
<title>Node3&#45;&gt;Node10</title>
<g id="a_edge12_Node000003_Node000010"><a xlink:title=" ">
<path fill="none" stroke="#63b8ff" d="M298.23,-132.28C321.58,-127.24 349.15,-121.28 373.94,-115.92"/>
<polygon fill="#63b8ff" stroke="#63b8ff" points="297.2,-128.92 288.16,-134.46 298.68,-135.77 297.2,-128.92"/>
</a>
</g>
</g>
</g>
</svg>
