<?xml version="1.0" encoding="UTF-8" standalone="no"?>
<!DOCTYPE svg PUBLIC "-//W3C//DTD SVG 1.1//EN"
 "http://www.w3.org/Graphics/SVG/1.1/DTD/svg11.dtd">
<!-- Generated by graphviz version 2.43.0 (0)
 -->
<!-- Title: Graphical Class Hierarchy Pages: 1 -->
<svg width="379pt" height="86pt"
 viewBox="0.00 0.00 379.00 86.00" xmlns="http://www.w3.org/2000/svg" xmlns:xlink="http://www.w3.org/1999/xlink">
<g id="graph0" class="graph" transform="scale(1 1) rotate(0) translate(4 82)">
<title>Graphical Class Hierarchy</title>
<!-- Node0 -->
<g id="Node000000" class="node">
<title>Node0</title>
<g id="a_Node000000"><a xlink:href="interfacegame_1_1logic_1_1EventQueue_1_1IEvent.html" target="_top" xlink:title=" ">
<polygon fill="white" stroke="#666666" points="167,-48.5 0,-48.5 0,-29.5 167,-29.5 167,-48.5"/>
<text text-anchor="middle" x="83.5" y="-36.5" font-family="Helvetica,sans-Serif" font-size="10.00">game.logic.EventQueue.IEvent</text>
</a>
</g>
</g>
<!-- Node1 -->
<g id="Node000001" class="node">
<title>Node1</title>
<g id="a_Node000001"><a xlink:href="classgame_1_1logic_1_1EventQueue_1_1SpawnTileEvent.html" target="_top" xlink:title=" ">
<polygon fill="white" stroke="#666666" points="371,-78 203,-78 203,-48 371,-48 371,-78"/>
<text text-anchor="start" x="211" y="-66" font-family="Helvetica,sans-Serif" font-size="10.00">game.logic.EventQueue.Spawn</text>
<text text-anchor="middle" x="287" y="-55" font-family="Helvetica,sans-Serif" font-size="10.00">TileEvent</text>
</a>
</g>
</g>
<!-- Node0&#45;&gt;Node1 -->
<g id="edge1_Node000000_Node000001" class="edge">
<title>Node0&#45;&gt;Node1</title>
<g id="a_edge1_Node000000_Node000001"><a xlink:title=" ">
<path fill="none" stroke="#63b8ff" d="M174.58,-49.73C183.99,-50.85 193.53,-51.99 202.86,-53.1"/>
<polygon fill="#63b8ff" stroke="#63b8ff" points="174.77,-46.23 164.43,-48.52 173.94,-53.18 174.77,-46.23"/>
</a>
</g>
</g>
<!-- Node2 -->
<g id="Node000002" class="node">
<title>Node2</title>
<g id="a_Node000002"><a xlink:href="classgame_1_1logic_1_1EventQueue_1_1UserLoginEvent.html" target="_top" xlink:title=" ">
<polygon fill="white" stroke="#666666" points="366,-30 208,-30 208,0 366,0 366,-30"/>
<text text-anchor="start" x="216" y="-18" font-family="Helvetica,sans-Serif" font-size="10.00">game.logic.EventQueue.User</text>
<text text-anchor="middle" x="287" y="-7" font-family="Helvetica,sans-Serif" font-size="10.00">LoginEvent</text>
</a>
</g>
</g>
<!-- Node0&#45;&gt;Node2 -->
<g id="edge2_Node000000_Node000002" class="edge">
<title>Node0&#45;&gt;Node2</title>
<g id="a_edge2_Node000000_Node000002"><a xlink:title=" ">
<path fill="none" stroke="#63b8ff" d="M174.55,-28.27C185.65,-26.95 196.92,-25.61 207.81,-24.31"/>
<polygon fill="#63b8ff" stroke="#63b8ff" points="173.94,-24.82 164.43,-29.48 174.77,-31.77 173.94,-24.82"/>
</a>
</g>
</g>
</g>
</svg>
