<?xml version="1.0" encoding="UTF-8" standalone="no"?>
<!DOCTYPE svg PUBLIC "-//W3C//DTD SVG 1.1//EN"
 "http://www.w3.org/Graphics/SVG/1.1/DTD/svg11.dtd">
<!-- Generated by graphviz version 2.43.0 (0)
 -->
<!-- Title: Graphical Class Hierarchy Pages: 1 -->
<svg width="308pt" height="64pt"
 viewBox="0.00 0.00 308.00 64.00" xmlns="http://www.w3.org/2000/svg" xmlns:xlink="http://www.w3.org/1999/xlink">
<g id="graph0" class="graph" transform="scale(1 1) rotate(0) translate(4 60)">
<title>Graphical Class Hierarchy</title>
<!-- Node0 -->
<g id="Node000000" class="node">
<title>Node0</title>
<g id="a_Node000000"><a xlink:href="interfacenetwork_1_1IHttpRequest.html" target="_top" xlink:title=" ">
<polygon fill="white" stroke="#666666" points="123,-37 0,-37 0,-18 123,-18 123,-37"/>
<text text-anchor="middle" x="61.5" y="-25" font-family="Helvetica,sans-Serif" font-size="10.00">network.IHttpRequest</text>
</a>
</g>
</g>
<!-- Node1 -->
<g id="Node000001" class="node">
<title>Node1</title>
<g id="a_Node000001"><a xlink:href="classnetwork_1_1HttpGetRequest.html" target="_top" xlink:title=" ">
<polygon fill="white" stroke="#666666" points="298,-56 161,-56 161,-37 298,-37 298,-56"/>
<text text-anchor="middle" x="229.5" y="-44" font-family="Helvetica,sans-Serif" font-size="10.00">network.HttpGetRequest</text>
</a>
</g>
</g>
<!-- Node0&#45;&gt;Node1 -->
<g id="edge27_Node000000_Node000001" class="edge">
<title>Node0&#45;&gt;Node1</title>
<g id="a_edge27_Node000000_Node000001"><a xlink:title=" ">
<path fill="none" stroke="#63b8ff" d="M133.52,-35.63C142.61,-36.67 151.89,-37.73 160.91,-38.76"/>
<polygon fill="#63b8ff" stroke="#63b8ff" points="133.7,-32.13 123.37,-34.47 132.91,-39.08 133.7,-32.13"/>
</a>
</g>
</g>
<!-- Node2 -->
<g id="Node000002" class="node">
<title>Node2</title>
<g id="a_Node000002"><a xlink:href="classnetwork_1_1HttpPostRequest.html" target="_top" xlink:title=" ">
<polygon fill="white" stroke="#666666" points="300,-19 159,-19 159,0 300,0 300,-19"/>
<text text-anchor="middle" x="229.5" y="-7" font-family="Helvetica,sans-Serif" font-size="10.00">network.HttpPostRequest</text>
</a>
</g>
</g>
<!-- Node0&#45;&gt;Node2 -->
<g id="edge28_Node000000_Node000002" class="edge">
<title>Node0&#45;&gt;Node2</title>
<g id="a_edge28_Node000000_Node000002"><a xlink:title=" ">
<path fill="none" stroke="#63b8ff" d="M133.53,-19.8C141.95,-18.88 150.54,-17.95 158.93,-17.04"/>
<polygon fill="#63b8ff" stroke="#63b8ff" points="132.93,-16.34 123.37,-20.9 133.69,-23.3 132.93,-16.34"/>
</a>
</g>
</g>
</g>
</svg>
