<?xml version="1.0" encoding="UTF-8" standalone="no"?>
<!DOCTYPE svg PUBLIC "-//W3C//DTD SVG 1.1//EN"
 "http://www.w3.org/Graphics/SVG/1.1/DTD/svg11.dtd">
<!-- Generated by graphviz version 2.43.0 (0)
 -->
<!-- Title: Graphical Class Hierarchy Pages: 1 -->
<svg width="400pt" height="249pt"
 viewBox="0.00 0.00 400.00 249.00" xmlns="http://www.w3.org/2000/svg" xmlns:xlink="http://www.w3.org/1999/xlink">
<g id="graph0" class="graph" transform="scale(1 1) rotate(0) translate(4 245)">
<title>Graphical Class Hierarchy</title>
<!-- Node0 -->
<g id="Node000000" class="node">
<title>Node0</title>
<g id="a_Node000000"><a xlink:href="interfacegame_1_1logic_1_1tilespawner_1_1ISpawnable.html" target="_top" xlink:title=" ">
<polygon fill="white" stroke="#666666" points="189,-130 0,-130 0,-111 189,-111 189,-130"/>
<text text-anchor="middle" x="94.5" y="-118" font-family="Helvetica,sans-Serif" font-size="10.00">game.logic.tilespawner.ISpawnable</text>
</a>
</g>
</g>
<!-- Node1 -->
<g id="Node000001" class="node">
<title>Node1</title>
<g id="a_Node000001"><a xlink:href="classgame_1_1logic_1_1tilespawner_1_1IPiece.html" target="_top" xlink:title=" ">
<polygon fill="white" stroke="#666666" points="389.5,-241 227.5,-241 227.5,-222 389.5,-222 389.5,-241"/>
<text text-anchor="middle" x="308.5" y="-229" font-family="Helvetica,sans-Serif" font-size="10.00">game.logic.tilespawner.IPiece</text>
</a>
</g>
</g>
<!-- Node0&#45;&gt;Node1 -->
<g id="edge14_Node000000_Node000001" class="edge">
<title>Node0&#45;&gt;Node1</title>
<g id="a_edge14_Node000000_Node000001"><a xlink:title=" ">
<path fill="none" stroke="#63b8ff" d="M113.13,-136.83C136.77,-157.81 180.89,-193.86 225,-213.5 232.63,-216.9 240.96,-219.68 249.29,-221.94"/>
<polygon fill="#63b8ff" stroke="#63b8ff" points="115.42,-134.19 105.65,-130.09 110.74,-139.38 115.42,-134.19"/>
</a>
</g>
</g>
<!-- Node2 -->
<g id="Node000002" class="node">
<title>Node2</title>
<g id="a_Node000002"><a xlink:href="classgame_1_1logic_1_1tilespawner_1_1JPiece.html" target="_top" xlink:title=" ">
<polygon fill="white" stroke="#666666" points="389.5,-204 227.5,-204 227.5,-185 389.5,-185 389.5,-204"/>
<text text-anchor="middle" x="308.5" y="-192" font-family="Helvetica,sans-Serif" font-size="10.00">game.logic.tilespawner.JPiece</text>
</a>
</g>
</g>
<!-- Node0&#45;&gt;Node2 -->
<g id="edge15_Node000000_Node000002" class="edge">
<title>Node0&#45;&gt;Node2</title>
<g id="a_edge15_Node000000_Node000002"><a xlink:title=" ">
<path fill="none" stroke="#63b8ff" d="M123.55,-134.51C149.38,-146.96 189.03,-164.92 225,-176.5 235.05,-179.73 245.97,-182.57 256.48,-184.98"/>
<polygon fill="#63b8ff" stroke="#63b8ff" points="124.88,-131.27 114.36,-130.04 121.82,-137.56 124.88,-131.27"/>
</a>
</g>
</g>
<!-- Node3 -->
<g id="Node000003" class="node">
<title>Node3</title>
<g id="a_Node000003"><a xlink:href="classgame_1_1logic_1_1tilespawner_1_1LPiece.html" target="_top" xlink:title=" ">
<polygon fill="white" stroke="#666666" points="390.5,-167 226.5,-167 226.5,-148 390.5,-148 390.5,-167"/>
<text text-anchor="middle" x="308.5" y="-155" font-family="Helvetica,sans-Serif" font-size="10.00">game.logic.tilespawner.LPiece</text>
</a>
</g>
</g>
<!-- Node0&#45;&gt;Node3 -->
<g id="edge16_Node000000_Node000003" class="edge">
<title>Node0&#45;&gt;Node3</title>
<g id="a_edge16_Node000000_Node000003"><a xlink:title=" ">
<path fill="none" stroke="#63b8ff" d="M160.32,-131.81C189.88,-136.97 224.49,-143.01 252.72,-147.94"/>
<polygon fill="#63b8ff" stroke="#63b8ff" points="160.55,-128.3 150.1,-130.03 159.34,-135.2 160.55,-128.3"/>
</a>
</g>
</g>
<!-- Node4 -->
<g id="Node000004" class="node">
<title>Node4</title>
<g id="a_Node000004"><a xlink:href="classgame_1_1logic_1_1tilespawner_1_1OPiece.html" target="_top" xlink:title=" ">
<polygon fill="white" stroke="#666666" points="392,-130 225,-130 225,-111 392,-111 392,-130"/>
<text text-anchor="middle" x="308.5" y="-118" font-family="Helvetica,sans-Serif" font-size="10.00">game.logic.tilespawner.OPiece</text>
</a>
</g>
</g>
<!-- Node0&#45;&gt;Node4 -->
<g id="edge17_Node000000_Node000004" class="edge">
<title>Node0&#45;&gt;Node4</title>
<g id="a_edge17_Node000000_Node000004"><a xlink:title=" ">
<path fill="none" stroke="#63b8ff" d="M199.15,-120.5C207.74,-120.5 216.34,-120.5 224.73,-120.5"/>
<polygon fill="#63b8ff" stroke="#63b8ff" points="199.1,-117 189.1,-120.5 199.1,-124 199.1,-117"/>
</a>
</g>
</g>
<!-- Node5 -->
<g id="Node000005" class="node">
<title>Node5</title>
<g id="a_Node000005"><a xlink:href="classgame_1_1logic_1_1tilespawner_1_1SPiece.html" target="_top" xlink:title=" ">
<polygon fill="white" stroke="#666666" points="391,-93 226,-93 226,-74 391,-74 391,-93"/>
<text text-anchor="middle" x="308.5" y="-81" font-family="Helvetica,sans-Serif" font-size="10.00">game.logic.tilespawner.SPiece</text>
</a>
</g>
</g>
<!-- Node0&#45;&gt;Node5 -->
<g id="edge18_Node000000_Node000005" class="edge">
<title>Node0&#45;&gt;Node5</title>
<g id="a_edge18_Node000000_Node000005"><a xlink:title=" ">
<path fill="none" stroke="#63b8ff" d="M160.32,-109.19C189.88,-104.03 224.49,-97.99 252.72,-93.06"/>
<polygon fill="#63b8ff" stroke="#63b8ff" points="159.34,-105.8 150.1,-110.97 160.55,-112.7 159.34,-105.8"/>
</a>
</g>
</g>
<!-- Node6 -->
<g id="Node000006" class="node">
<title>Node6</title>
<g id="a_Node000006"><a xlink:href="classgame_1_1logic_1_1tilespawner_1_1TPiece.html" target="_top" xlink:title=" ">
<polygon fill="white" stroke="#666666" points="391,-56 226,-56 226,-37 391,-37 391,-56"/>
<text text-anchor="middle" x="308.5" y="-44" font-family="Helvetica,sans-Serif" font-size="10.00">game.logic.tilespawner.TPiece</text>
</a>
</g>
</g>
<!-- Node0&#45;&gt;Node6 -->
<g id="edge19_Node000000_Node000006" class="edge">
<title>Node0&#45;&gt;Node6</title>
<g id="a_edge19_Node000000_Node000006"><a xlink:title=" ">
<path fill="none" stroke="#63b8ff" d="M124.51,-106.44C150.39,-94.32 189.57,-77.01 225,-65.5 236.04,-61.91 248.13,-58.73 259.56,-56.05"/>
<polygon fill="#63b8ff" stroke="#63b8ff" points="122.81,-103.37 115.27,-110.81 125.81,-109.7 122.81,-103.37"/>
</a>
</g>
</g>
<!-- Node7 -->
<g id="Node000007" class="node">
<title>Node7</title>
<g id="a_Node000007"><a xlink:href="classgame_1_1logic_1_1tilespawner_1_1ZPiece.html" target="_top" xlink:title=" ">
<polygon fill="white" stroke="#666666" points="391.5,-19 225.5,-19 225.5,0 391.5,0 391.5,-19"/>
<text text-anchor="middle" x="308.5" y="-7" font-family="Helvetica,sans-Serif" font-size="10.00">game.logic.tilespawner.ZPiece</text>
</a>
</g>
</g>
<!-- Node0&#45;&gt;Node7 -->
<g id="edge20_Node000000_Node000007" class="edge">
<title>Node0&#45;&gt;Node7</title>
<g id="a_edge20_Node000000_Node000007"><a xlink:title=" ">
<path fill="none" stroke="#63b8ff" d="M113.56,-104.11C137.36,-83.41 181.34,-48.1 225,-28.5 233.58,-24.65 243.03,-21.53 252.37,-19.03"/>
<polygon fill="#63b8ff" stroke="#63b8ff" points="111.2,-101.54 106.02,-110.78 115.83,-106.78 111.2,-101.54"/>
</a>
</g>
</g>
</g>
</svg>
