<?xml version="1.0" encoding="UTF-8" standalone="no"?>
<!DOCTYPE svg PUBLIC "-//W3C//DTD SVG 1.1//EN"
 "http://www.w3.org/Graphics/SVG/1.1/DTD/svg11.dtd">
<!-- Generated by graphviz version 2.43.0 (0)
 -->
<!-- Title: network.IHttpRequest Pages: 1 -->
<svg width="292pt" height="187pt"
 viewBox="0.00 0.00 292.00 187.00" xmlns="http://www.w3.org/2000/svg" xmlns:xlink="http://www.w3.org/1999/xlink">
<g id="graph0" class="graph" transform="scale(1 1) rotate(0) translate(4 183)">
<title>network.IHttpRequest</title>
<!-- Node1 -->
<g id="Node000001" class="node">
<title>Node1</title>
<g id="a_Node000001"><a xlink:title=" ">
<polygon fill="#999999" stroke="transparent" points="199,-179 82,-179 82,-130 199,-130 199,-179"/>
<text text-anchor="start" x="87.5" y="-166.5" font-family="Helvetica,sans-Serif" font-size="10.00">network.IHttpRequest</text>
<text text-anchor="start" x="139" y="-151.5" font-family="Helvetica,sans-Serif" font-size="10.00"> </text>
<text text-anchor="start" x="91.5" y="-136.5" font-family="Helvetica,sans-Serif" font-size="10.00">+</text>
<text text-anchor="start" x="109.5" y="-136.5" font-family="Helvetica,sans-Serif" font-size="10.00">ExecuteAsync()</text>
<polygon fill="#666666" stroke="#666666" points="82.5,-161.5 82.5,-161.5 199.5,-161.5 199.5,-161.5 82.5,-161.5"/>
<polygon fill="#666666" stroke="#666666" points="82.5,-146.5 82.5,-146.5 199.5,-146.5 199.5,-146.5 82.5,-146.5"/>
<polygon fill="none" stroke="#666666" points="82,-130 82,-179 199,-179 199,-130 82,-130"/>
</a>
</g>
</g>
<!-- Node2 -->
<g id="Node000002" class="node">
<title>Node2</title>
<g id="a_Node000002"><a xlink:href="classnetwork_1_1HttpGetRequest.html" target="_top" xlink:title=" ">
<polygon fill="white" stroke="transparent" points="131,-71.5 0,-71.5 0,-22.5 131,-22.5 131,-71.5"/>
<text text-anchor="start" x="5.5" y="-59" font-family="Helvetica,sans-Serif" font-size="10.00">network.HttpGetRequest</text>
<text text-anchor="start" x="15.5" y="-44" font-family="Helvetica,sans-Serif" font-size="10.00">&#45;</text>
<text text-anchor="start" x="34.5" y="-44" font-family="Helvetica,sans-Serif" font-size="10.00">Client</text>
<text text-anchor="start" x="13" y="-29" font-family="Helvetica,sans-Serif" font-size="10.00">+</text>
<text text-anchor="start" x="34.5" y="-29" font-family="Helvetica,sans-Serif" font-size="10.00">ExecuteAsync()</text>
<polygon fill="#666666" stroke="#666666" points="0.5,-54 0.5,-54 131.5,-54 131.5,-54 0.5,-54"/>
<polygon fill="#666666" stroke="#666666" points="0.5,-39 0.5,-39 32.5,-39 32.5,-39 0.5,-39"/>
<polygon fill="#666666" stroke="#666666" points="32.5,-39 32.5,-39 131.5,-39 131.5,-39 32.5,-39"/>
<polygon fill="none" stroke="#666666" points="0,-22.5 0,-71.5 131,-71.5 131,-22.5 0,-22.5"/>
</a>
</g>
</g>
<!-- Node1&#45;&gt;Node2 -->
<g id="edge1_Node000001_Node000002" class="edge">
<title>Node1&#45;&gt;Node2</title>
<g id="a_edge1_Node000001_Node000002"><a xlink:title=" ">
<path fill="none" stroke="#63b8ff" d="M117.59,-121.28C106.2,-105.26 92.69,-86.24 82.28,-71.6"/>
<polygon fill="none" stroke="#63b8ff" points="115.02,-123.7 123.67,-129.82 120.73,-119.65 115.02,-123.7"/>
</a>
</g>
</g>
<!-- Node3 -->
<g id="Node000003" class="node">
<title>Node3</title>
<g id="a_Node000003"><a xlink:href="classnetwork_1_1HttpPostRequest.html" target="_top" xlink:title=" ">
<polygon fill="white" stroke="transparent" points="284,-94 149,-94 149,0 284,0 284,-94"/>
<text text-anchor="start" x="154.5" y="-82" font-family="Helvetica,sans-Serif" font-size="10.00">network.HttpPostRequest</text>
<text text-anchor="start" x="165.5" y="-67" font-family="Helvetica,sans-Serif" font-size="10.00">&#45;</text>
<text text-anchor="start" x="185.5" y="-67" font-family="Helvetica,sans-Serif" font-size="10.00">_client</text>
<text text-anchor="start" x="165.5" y="-52" font-family="Helvetica,sans-Serif" font-size="10.00">&#45;</text>
<text text-anchor="start" x="185.5" y="-52" font-family="Helvetica,sans-Serif" font-size="10.00">_data</text>
<text text-anchor="start" x="163" y="-37" font-family="Helvetica,sans-Serif" font-size="10.00">+</text>
<text text-anchor="start" x="185.5" y="-37" font-family="Helvetica,sans-Serif" font-size="10.00">ExecuteAsync()</text>
<text text-anchor="start" x="163" y="-22" font-family="Helvetica,sans-Serif" font-size="10.00">+</text>
<text text-anchor="start" x="185.5" y="-22" font-family="Helvetica,sans-Serif" font-size="10.00">SetData()</text>
<text text-anchor="start" x="163" y="-7" font-family="Helvetica,sans-Serif" font-size="10.00">+</text>
<text text-anchor="start" x="185.5" y="-7" font-family="Helvetica,sans-Serif" font-size="10.00">SetClient()</text>
<polygon fill="#666666" stroke="#666666" points="149.5,-77 149.5,-77 284.5,-77 284.5,-77 149.5,-77"/>
<polygon fill="#666666" stroke="#666666" points="149.5,-47 149.5,-47 183.5,-47 183.5,-47 149.5,-47"/>
<polygon fill="#666666" stroke="#666666" points="183.5,-47 183.5,-47 284.5,-47 284.5,-47 183.5,-47"/>
<polygon fill="none" stroke="#666666" points="149,0 149,-94 284,-94 284,0 149,0"/>
</a>
</g>
</g>
<!-- Node1&#45;&gt;Node3 -->
<g id="edge2_Node000001_Node000003" class="edge">
<title>Node1&#45;&gt;Node3</title>
<g id="a_edge2_Node000001_Node000003"><a xlink:title=" ">
<path fill="none" stroke="#63b8ff" d="M163.54,-121.51C169.77,-112.87 176.64,-103.33 183.31,-94.08"/>
<polygon fill="none" stroke="#63b8ff" points="160.56,-119.66 157.56,-129.82 166.24,-123.76 160.56,-119.66"/>
</a>
</g>
</g>
</g>
</svg>
