<?xml version="1.0" encoding="UTF-8" standalone="no"?>
<!DOCTYPE svg PUBLIC "-//W3C//DTD SVG 1.1//EN"
 "http://www.w3.org/Graphics/SVG/1.1/DTD/svg11.dtd">
<!-- Generated by graphviz version 2.43.0 (0)
 -->
<!-- Title: game.logic.tilespawner.ISpawnable Pages: 1 -->
<!--zoomable 142 -->

<svg id="main" version="1.1" xmlns="http://www.w3.org/2000/svg" xmlns:xlink="http://www.w3.org/1999/xlink" xml:space="preserve" onload="init(evt)">
<style type="text/css"><![CDATA[
.node, .edge {opacity: 0.7;}
.node.selected, .edge.selected {opacity: 1;}
.edge:hover path { stroke: red; }
.edge:hover polygon { stroke: red; fill: red; }
]]></style>

<defs>
  <circle id="rim" cx="0" cy="0" r="7"/>
  <circle id="rim2" cx="0" cy="0" r="3.5"/>
  <g id="zoomPlus">
    <use xlink:href="#rim" fill="#404040"><set attributeName="fill" to="#808080" begin="zoomplus.mouseover" end="zoomplus.mouseout"/></use>
    <path d="M-4,0h8M0,-4v8" fill="none" stroke="white" stroke-width="1.5" pointer-events="none"/>
  </g>
  <g id="zoomMin">
    <use xlink:href="#rim" fill="#404040"><set attributeName="fill" to="#808080" begin="zoomminus.mouseover" end="zoomminus.mouseout"/></use>
    <path d="M-4,0h8" fill="none" stroke="white" stroke-width="1.5" pointer-events="none"/>
  </g>
  <g id="arrowUp" transform="translate(30 24)">
    <use xlink:href="#rim"/>
    <path pointer-events="none" fill="none" stroke="white" stroke-width="1.5" d="M0,-3.0v7 M-2.5,-0.5L0,-3.0L2.5,-0.5"/>
  </g>
  <g id="arrowRight" transform="rotate(90) translate(36 -43)">
    <use xlink:href="#rim"/>
    <path pointer-events="none" fill="none" stroke="white" stroke-width="1.5" d="M0,-3.0v7 M-2.5,-0.5L0,-3.0L2.5,-0.5"/>
  </g>
  <g id="arrowDown" transform="rotate(180) translate(-30 -48)">
    <use xlink:href="#rim"/>
    <path pointer-events="none" fill="none" stroke="white" stroke-width="1.5" d="M0,-3.0v7 M-2.5,-0.5L0,-3.0L2.5,-0.5"/>
  </g>
  <g id="arrowLeft" transform="rotate(270) translate(-36 17)">
    <use xlink:href="#rim"/>
    <path pointer-events="none" fill="none" stroke="white" stroke-width="1.5" d="M0,-3.0v7 M-2.5,-0.5L0,-3.0L2.5,-0.5"/>
  </g>
  <g id="resetDef">
    <use xlink:href="#rim2" fill="#404040"><set attributeName="fill" to="#808080" begin="reset.mouseover" end="reset.mouseout"/></use>
  </g>
</defs>
<script type="application/ecmascript">
var viewWidth = 1226;
var viewHeight = 142;
var sectionId = 'dynsection-0';
</script>
<script type="application/ecmascript" xlink:href="svg.min.js"/>
<svg id="graph" class="graph">
<g id="viewport">
<title>game.logic.tilespawner.ISpawnable</title>
<!-- Node1 -->
<g id="Node000001" class="node">
<title>Node1</title>
<g id="a_Node000001"><a xlink:title=" ">
<polygon fill="#999999" stroke="transparent" points="696.5,-134 513.5,-134 513.5,-85 696.5,-85 696.5,-134"/>
<text text-anchor="start" x="519" y="-121.5" font-family="Helvetica,sans-Serif" font-size="10.00">game.logic.tilespawner.ISpawnable</text>
<text text-anchor="start" x="603.5" y="-106.5" font-family="Helvetica,sans-Serif" font-size="10.00"> </text>
<text text-anchor="start" x="548.5" y="-91.5" font-family="Helvetica,sans-Serif" font-size="10.00">+</text>
<text text-anchor="start" x="592" y="-91.5" font-family="Helvetica,sans-Serif" font-size="10.00">Spawn()</text>
<polygon fill="#666666" stroke="#666666" points="514,-116.5 514,-116.5 697,-116.5 697,-116.5 514,-116.5"/>
<polygon fill="#666666" stroke="#666666" points="514,-101.5 514,-101.5 697,-101.5 697,-101.5 514,-101.5"/>
<polygon fill="none" stroke="#666666" points="513.5,-85 513.5,-134 696.5,-134 696.5,-85 513.5,-85"/>
</a>
</g>
</g>
<!-- Node2 -->
<g id="Node000002" class="node">
<title>Node2</title>
<g id="a_Node000002"><a xlink:href="classgame_1_1logic_1_1tilespawner_1_1IPiece.html" target="_top" xlink:title=" ">
<polygon fill="white" stroke="transparent" points="156,-49 0,-49 0,0 156,0 156,-49"/>
<text text-anchor="start" x="5" y="-36.5" font-family="Helvetica,sans-Serif" font-size="10.00">game.logic.tilespawner.IPiece</text>
<text text-anchor="start" x="76" y="-21.5" font-family="Helvetica,sans-Serif" font-size="10.00"> </text>
<text text-anchor="start" x="27.5" y="-6.5" font-family="Helvetica,sans-Serif" font-size="10.00">+</text>
<text text-anchor="start" x="64" y="-6.5" font-family="Helvetica,sans-Serif" font-size="10.00">Spawn()</text>
<polygon fill="#666666" stroke="#666666" points="0,-31.5 0,-31.5 156,-31.5 156,-31.5 0,-31.5"/>
<polygon fill="#666666" stroke="#666666" points="0,-16.5 0,-16.5 156,-16.5 156,-16.5 0,-16.5"/>
<polygon fill="none" stroke="#666666" points="0,0 0,-49 156,-49 156,0 0,0"/>
</a>
</g>
</g>
<!-- Node1&#45;&gt;Node2 -->
<g id="edge1_Node000001_Node000002" class="edge">
<title>Node1&#45;&gt;Node2</title>
<g id="a_edge1_Node000001_Node000002"><a xlink:title=" ">
<path fill="none" stroke="#63b8ff" d="M503.26,-98.52C413.68,-88.84 279.96,-72.2 165,-49 162.09,-48.41 159.13,-47.78 156.14,-47.12"/>
<polygon fill="none" stroke="#63b8ff" points="503.1,-102.02 513.41,-99.61 503.84,-95.06 503.1,-102.02"/>
</a>
</g>
</g>
<!-- Node3 -->
<g id="Node000003" class="node">
<title>Node3</title>
<g id="a_Node000003"><a xlink:href="classgame_1_1logic_1_1tilespawner_1_1JPiece.html" target="_top" xlink:title=" ">
<polygon fill="white" stroke="transparent" points="330,-49 174,-49 174,0 330,0 330,-49"/>
<text text-anchor="start" x="179" y="-36.5" font-family="Helvetica,sans-Serif" font-size="10.00">game.logic.tilespawner.JPiece</text>
<text text-anchor="start" x="250" y="-21.5" font-family="Helvetica,sans-Serif" font-size="10.00"> </text>
<text text-anchor="start" x="201.5" y="-6.5" font-family="Helvetica,sans-Serif" font-size="10.00">+</text>
<text text-anchor="start" x="238" y="-6.5" font-family="Helvetica,sans-Serif" font-size="10.00">Spawn()</text>
<polygon fill="#666666" stroke="#666666" points="174,-31.5 174,-31.5 330,-31.5 330,-31.5 174,-31.5"/>
<polygon fill="#666666" stroke="#666666" points="174,-16.5 174,-16.5 330,-16.5 330,-16.5 174,-16.5"/>
<polygon fill="none" stroke="#666666" points="174,0 174,-49 330,-49 330,0 174,0"/>
</a>
</g>
</g>
<!-- Node1&#45;&gt;Node3 -->
<g id="edge2_Node000001_Node000003" class="edge">
<title>Node1&#45;&gt;Node3</title>
<g id="a_edge2_Node000001_Node000003"><a xlink:title=" ">
<path fill="none" stroke="#63b8ff" d="M503.57,-86.9C453.85,-76.04 393.16,-62.37 339,-49 336.11,-48.29 333.18,-47.55 330.21,-46.8"/>
<polygon fill="none" stroke="#63b8ff" points="502.84,-90.33 513.36,-89.04 504.34,-83.49 502.84,-90.33"/>
</a>
</g>
</g>
<!-- Node4 -->
<g id="Node000004" class="node">
<title>Node4</title>
<g id="a_Node000004"><a xlink:href="classgame_1_1logic_1_1tilespawner_1_1LPiece.html" target="_top" xlink:title=" ">
<polygon fill="white" stroke="transparent" points="506,-49 348,-49 348,0 506,0 506,-49"/>
<text text-anchor="start" x="353" y="-36.5" font-family="Helvetica,sans-Serif" font-size="10.00">game.logic.tilespawner.LPiece</text>
<text text-anchor="start" x="425" y="-21.5" font-family="Helvetica,sans-Serif" font-size="10.00"> </text>
<text text-anchor="start" x="376" y="-6.5" font-family="Helvetica,sans-Serif" font-size="10.00">+</text>
<text text-anchor="start" x="413" y="-6.5" font-family="Helvetica,sans-Serif" font-size="10.00">Spawn()</text>
<polygon fill="#666666" stroke="#666666" points="348,-31.5 348,-31.5 506,-31.5 506,-31.5 348,-31.5"/>
<polygon fill="#666666" stroke="#666666" points="348,-16.5 348,-16.5 506,-16.5 506,-16.5 348,-16.5"/>
<polygon fill="none" stroke="#666666" points="348,0 348,-49 506,-49 506,0 348,0"/>
</a>
</g>
</g>
<!-- Node1&#45;&gt;Node4 -->
<g id="edge3_Node000001_Node000004" class="edge">
<title>Node1&#45;&gt;Node4</title>
<g id="a_edge3_Node000001_Node000004"><a xlink:title=" ">
<path fill="none" stroke="#63b8ff" d="M545.25,-80.64C523.32,-70.41 498.72,-58.94 477.66,-49.12"/>
<polygon fill="none" stroke="#63b8ff" points="543.93,-83.88 554.47,-84.94 546.88,-77.54 543.93,-83.88"/>
</a>
</g>
</g>
<!-- Node5 -->
<g id="Node000005" class="node">
<title>Node5</title>
<g id="a_Node000005"><a xlink:href="classgame_1_1logic_1_1tilespawner_1_1OPiece.html" target="_top" xlink:title=" ">
<polygon fill="white" stroke="transparent" points="685.5,-49 524.5,-49 524.5,0 685.5,0 685.5,-49"/>
<text text-anchor="start" x="530" y="-36.5" font-family="Helvetica,sans-Serif" font-size="10.00">game.logic.tilespawner.OPiece</text>
<text text-anchor="start" x="603.5" y="-21.5" font-family="Helvetica,sans-Serif" font-size="10.00"> </text>
<text text-anchor="start" x="554" y="-6.5" font-family="Helvetica,sans-Serif" font-size="10.00">+</text>
<text text-anchor="start" x="592" y="-6.5" font-family="Helvetica,sans-Serif" font-size="10.00">Spawn()</text>
<polygon fill="#666666" stroke="#666666" points="525,-31.5 525,-31.5 686,-31.5 686,-31.5 525,-31.5"/>
<polygon fill="#666666" stroke="#666666" points="525,-16.5 525,-16.5 686,-16.5 686,-16.5 525,-16.5"/>
<polygon fill="none" stroke="#666666" points="524.5,0 524.5,-49 685.5,-49 685.5,0 524.5,0"/>
</a>
</g>
</g>
<!-- Node1&#45;&gt;Node5 -->
<g id="edge4_Node000001_Node000005" class="edge">
<title>Node1&#45;&gt;Node5</title>
<g id="a_edge4_Node000001_Node000005"><a xlink:title=" ">
<path fill="none" stroke="#63b8ff" d="M605,-74.77C605,-66.17 605,-57.1 605,-49.12"/>
<polygon fill="none" stroke="#63b8ff" points="601.5,-74.94 605,-84.94 608.5,-74.94 601.5,-74.94"/>
</a>
</g>
</g>
<!-- Node6 -->
<g id="Node000006" class="node">
<title>Node6</title>
<g id="a_Node000006"><a xlink:href="classgame_1_1logic_1_1tilespawner_1_1SPiece.html" target="_top" xlink:title=" ">
<polygon fill="white" stroke="transparent" points="862.5,-49 703.5,-49 703.5,0 862.5,0 862.5,-49"/>
<text text-anchor="start" x="709" y="-36.5" font-family="Helvetica,sans-Serif" font-size="10.00">game.logic.tilespawner.SPiece</text>
<text text-anchor="start" x="781.5" y="-21.5" font-family="Helvetica,sans-Serif" font-size="10.00"> </text>
<text text-anchor="start" x="732.5" y="-6.5" font-family="Helvetica,sans-Serif" font-size="10.00">+</text>
<text text-anchor="start" x="770" y="-6.5" font-family="Helvetica,sans-Serif" font-size="10.00">Spawn()</text>
<polygon fill="#666666" stroke="#666666" points="704,-31.5 704,-31.5 863,-31.5 863,-31.5 704,-31.5"/>
<polygon fill="#666666" stroke="#666666" points="704,-16.5 704,-16.5 863,-16.5 863,-16.5 704,-16.5"/>
<polygon fill="none" stroke="#666666" points="703.5,0 703.5,-49 862.5,-49 862.5,0 703.5,0"/>
</a>
</g>
</g>
<!-- Node1&#45;&gt;Node6 -->
<g id="edge5_Node000001_Node000006" class="edge">
<title>Node1&#45;&gt;Node6</title>
<g id="a_edge5_Node000001_Node000006"><a xlink:title=" ">
<path fill="none" stroke="#63b8ff" d="M664.75,-80.64C686.68,-70.41 711.28,-58.94 732.34,-49.12"/>
<polygon fill="none" stroke="#63b8ff" points="663.12,-77.54 655.53,-84.94 666.07,-83.88 663.12,-77.54"/>
</a>
</g>
</g>
<!-- Node7 -->
<g id="Node000007" class="node">
<title>Node7</title>
<g id="a_Node000007"><a xlink:href="classgame_1_1logic_1_1tilespawner_1_1TPiece.html" target="_top" xlink:title=" ">
<polygon fill="white" stroke="transparent" points="1039.5,-49 880.5,-49 880.5,0 1039.5,0 1039.5,-49"/>
<text text-anchor="start" x="886" y="-36.5" font-family="Helvetica,sans-Serif" font-size="10.00">game.logic.tilespawner.TPiece</text>
<text text-anchor="start" x="958.5" y="-21.5" font-family="Helvetica,sans-Serif" font-size="10.00"> </text>
<text text-anchor="start" x="909.5" y="-6.5" font-family="Helvetica,sans-Serif" font-size="10.00">+</text>
<text text-anchor="start" x="947" y="-6.5" font-family="Helvetica,sans-Serif" font-size="10.00">Spawn()</text>
<polygon fill="#666666" stroke="#666666" points="881,-31.5 881,-31.5 1040,-31.5 1040,-31.5 881,-31.5"/>
<polygon fill="#666666" stroke="#666666" points="881,-16.5 881,-16.5 1040,-16.5 1040,-16.5 881,-16.5"/>
<polygon fill="none" stroke="#666666" points="880.5,0 880.5,-49 1039.5,-49 1039.5,0 880.5,0"/>
</a>
</g>
</g>
<!-- Node1&#45;&gt;Node7 -->
<g id="edge6_Node000001_Node000007" class="edge">
<title>Node1&#45;&gt;Node7</title>
<g id="a_edge6_Node000001_Node000007"><a xlink:title=" ">
<path fill="none" stroke="#63b8ff" d="M706.5,-86.92C756.46,-76.04 817.51,-62.34 872,-49 874.76,-48.32 877.58,-47.63 880.41,-46.91"/>
<polygon fill="none" stroke="#63b8ff" points="705.69,-83.52 696.66,-89.06 707.18,-90.36 705.69,-83.52"/>
</a>
</g>
</g>
<!-- Node8 -->
<g id="Node000008" class="node">
<title>Node8</title>
<g id="a_Node000008"><a xlink:href="classgame_1_1logic_1_1tilespawner_1_1ZPiece.html" target="_top" xlink:title=" ">
<polygon fill="white" stroke="transparent" points="1218,-49 1058,-49 1058,0 1218,0 1218,-49"/>
<text text-anchor="start" x="1063" y="-36.5" font-family="Helvetica,sans-Serif" font-size="10.00">game.logic.tilespawner.ZPiece</text>
<text text-anchor="start" x="1136" y="-21.5" font-family="Helvetica,sans-Serif" font-size="10.00"> </text>
<text text-anchor="start" x="1086.5" y="-6.5" font-family="Helvetica,sans-Serif" font-size="10.00">+</text>
<text text-anchor="start" x="1124" y="-6.5" font-family="Helvetica,sans-Serif" font-size="10.00">Spawn()</text>
<polygon fill="#666666" stroke="#666666" points="1058,-31.5 1058,-31.5 1218,-31.5 1218,-31.5 1058,-31.5"/>
<polygon fill="#666666" stroke="#666666" points="1058,-16.5 1058,-16.5 1218,-16.5 1218,-16.5 1058,-16.5"/>
<polygon fill="none" stroke="#666666" points="1058,0 1058,-49 1218,-49 1218,0 1058,0"/>
</a>
</g>
</g>
<!-- Node1&#45;&gt;Node8 -->
<g id="edge7_Node000001_Node000008" class="edge">
<title>Node1&#45;&gt;Node8</title>
<g id="a_edge7_Node000001_Node000008"><a xlink:title=" ">
<path fill="none" stroke="#63b8ff" d="M706.51,-98.55C796.89,-88.82 932.45,-72.1 1049,-49 1051.82,-48.44 1054.69,-47.84 1057.57,-47.22"/>
<polygon fill="none" stroke="#63b8ff" points="706.11,-95.07 696.54,-99.61 706.85,-102.03 706.11,-95.07"/>
</a>
</g>
</g>
</g>
</svg>

<g id="navigator" transform="translate(0 0)" fill="#404254">
  <rect fill="#f2f5e9" fill-opacity="0.5" stroke="#606060" stroke-width=".5" x="0" y="0" width="60" height="60"/>
  <use id="zoomplus" xlink:href="#zoomPlus" x="17" y="9" onmousedown="handleZoom(evt,'in')"/>
  <use id="zoomminus" xlink:href="#zoomMin" x="42" y="9" onmousedown="handleZoom(evt,'out')"/>
  <use id="reset" xlink:href="#resetDef" x="30" y="36" onmousedown="handleReset()"/>
   <use id="arrowup" xlink:href="#arrowUp" x="0" y="0" onmousedown="handlePan(0,-1)"/>
  <use id="arrowright" xlink:href="#arrowRight" x="0" y="0" onmousedown="handlePan(1,0)"/>
  <use id="arrowdown" xlink:href="#arrowDown" x="0" y="0" onmousedown="handlePan(0,1)"/>
  <use id="arrowleft" xlink:href="#arrowLeft" x="0" y="0" onmousedown="handlePan(-1,0)"/>
</g>
<svg viewBox="0 0 15 15" width="100%" height="30px" preserveAspectRatio="xMaxYMin meet">
 <g id="arrow_out" transform="scale(0.3 0.3)">
  <a xlink:href="interfacegame_1_1logic_1_1tilespawner_1_1ISpawnable__inherit__graph_org.svg" target="_base">
   <rect id="button" ry="5" rx="5" y="6" x="6" height="38" width="38"
        fill="#f2f5e9" fill-opacity="0.5" stroke="#606060" stroke-width="1.0"/>
   <path id="arrow"
     d="M 11.500037,31.436501 C 11.940474,20.09759 22.043105,11.32322 32.158766,21.979434 L 37.068811,17.246167 C 37.068811,17.246167 37.088388,32 37.088388,32 L 22.160133,31.978069 C 22.160133,31.978069 26.997745,27.140456 26.997745,27.140456 C 18.528582,18.264221 13.291696,25.230495 11.500037,31.436501 z"
     style="fill:#404040;"/>
  </a>
 </g>
</svg>

<style type='text/css'>
<![CDATA[
[data-mouse-over-selected='false'] { opacity: 0.7; }
[data-mouse-over-selected='true']  { opacity: 1.0; }
]]>
</style>
<script type="application/ecmascript"><![CDATA[
document.addEventListener('DOMContentLoaded', (event) => {
  highlightEdges();
  highlightAdjacentNodes();
});
]]></script>
</svg>
