<?xml version="1.0" encoding="UTF-8" standalone="no"?>
<!DOCTYPE svg PUBLIC "-//W3C//DTD SVG 1.1//EN"
 "http://www.w3.org/Graphics/SVG/1.1/DTD/svg11.dtd">
<!-- Generated by graphviz version 2.43.0 (0)
 -->
<!-- Title: gamerunner.IUpdatable Pages: 1 -->
<!--zoomable 258 -->

<svg id="main" version="1.1" xmlns="http://www.w3.org/2000/svg" xmlns:xlink="http://www.w3.org/1999/xlink" xml:space="preserve" onload="init(evt)">
<style type="text/css"><![CDATA[
.node, .edge {opacity: 0.7;}
.node.selected, .edge.selected {opacity: 1;}
.edge:hover path { stroke: red; }
.edge:hover polygon { stroke: red; fill: red; }
]]></style>

<defs>
  <circle id="rim" cx="0" cy="0" r="7"/>
  <circle id="rim2" cx="0" cy="0" r="3.5"/>
  <g id="zoomPlus">
    <use xlink:href="#rim" fill="#404040"><set attributeName="fill" to="#808080" begin="zoomplus.mouseover" end="zoomplus.mouseout"/></use>
    <path d="M-4,0h8M0,-4v8" fill="none" stroke="white" stroke-width="1.5" pointer-events="none"/>
  </g>
  <g id="zoomMin">
    <use xlink:href="#rim" fill="#404040"><set attributeName="fill" to="#808080" begin="zoomminus.mouseover" end="zoomminus.mouseout"/></use>
    <path d="M-4,0h8" fill="none" stroke="white" stroke-width="1.5" pointer-events="none"/>
  </g>
  <g id="arrowUp" transform="translate(30 24)">
    <use xlink:href="#rim"/>
    <path pointer-events="none" fill="none" stroke="white" stroke-width="1.5" d="M0,-3.0v7 M-2.5,-0.5L0,-3.0L2.5,-0.5"/>
  </g>
  <g id="arrowRight" transform="rotate(90) translate(36 -43)">
    <use xlink:href="#rim"/>
    <path pointer-events="none" fill="none" stroke="white" stroke-width="1.5" d="M0,-3.0v7 M-2.5,-0.5L0,-3.0L2.5,-0.5"/>
  </g>
  <g id="arrowDown" transform="rotate(180) translate(-30 -48)">
    <use xlink:href="#rim"/>
    <path pointer-events="none" fill="none" stroke="white" stroke-width="1.5" d="M0,-3.0v7 M-2.5,-0.5L0,-3.0L2.5,-0.5"/>
  </g>
  <g id="arrowLeft" transform="rotate(270) translate(-36 17)">
    <use xlink:href="#rim"/>
    <path pointer-events="none" fill="none" stroke="white" stroke-width="1.5" d="M0,-3.0v7 M-2.5,-0.5L0,-3.0L2.5,-0.5"/>
  </g>
  <g id="resetDef">
    <use xlink:href="#rim2" fill="#404040"><set attributeName="fill" to="#808080" begin="reset.mouseover" end="reset.mouseout"/></use>
  </g>
</defs>
<script type="application/ecmascript">
var viewWidth = 596;
var viewHeight = 258;
var sectionId = 'dynsection-0';
</script>
<script type="application/ecmascript" xlink:href="svg.min.js"/>
<svg id="graph" class="graph">
<g id="viewport">
<title>gamerunner.IUpdatable</title>
<!-- Node1 -->
<g id="Node000001" class="node">
<title>Node1</title>
<g id="a_Node000001"><a xlink:title=" ">
<polygon fill="#999999" stroke="transparent" points="335.5,-250 210.5,-250 210.5,-201 335.5,-201 335.5,-250"/>
<text text-anchor="start" x="216" y="-237.5" font-family="Helvetica,sans-Serif" font-size="10.00">gamerunner.IUpdatable</text>
<text text-anchor="start" x="271.5" y="-222.5" font-family="Helvetica,sans-Serif" font-size="10.00"> </text>
<text text-anchor="start" x="230" y="-207.5" font-family="Helvetica,sans-Serif" font-size="10.00">+</text>
<text text-anchor="start" x="258" y="-207.5" font-family="Helvetica,sans-Serif" font-size="10.00">Update()</text>
<polygon fill="#666666" stroke="#666666" points="211,-232.5 211,-232.5 336,-232.5 336,-232.5 211,-232.5"/>
<polygon fill="#666666" stroke="#666666" points="211,-217.5 211,-217.5 336,-217.5 336,-217.5 211,-217.5"/>
<polygon fill="none" stroke="#666666" points="210.5,-201 210.5,-250 335.5,-250 335.5,-201 210.5,-201"/>
</a>
</g>
</g>
<!-- Node2 -->
<g id="Node000002" class="node">
<title>Node2</title>
<g id="a_Node000002"><a xlink:href="classGameRunner.html" target="_top" xlink:title=" ">
<polygon fill="white" stroke="transparent" points="102,-137 0,-137 0,-28 102,-28 102,-137"/>
<text text-anchor="start" x="19" y="-124.5" font-family="Helvetica,sans-Serif" font-size="10.00">GameRunner</text>
<text text-anchor="start" x="4" y="-109.5" font-family="Helvetica,sans-Serif" font-size="10.00">+</text>
<text text-anchor="start" x="17" y="-109.5" font-family="Helvetica,sans-Serif" font-size="10.00">CreateTileShape</text>
<text text-anchor="start" x="6.5" y="-94.5" font-family="Helvetica,sans-Serif" font-size="10.00">&#45;</text>
<text text-anchor="start" x="17" y="-94.5" font-family="Helvetica,sans-Serif" font-size="10.00">_serviceLocator</text>
<text text-anchor="start" x="6.5" y="-79.5" font-family="Helvetica,sans-Serif" font-size="10.00">&#45;</text>
<text text-anchor="start" x="17" y="-79.5" font-family="Helvetica,sans-Serif" font-size="10.00">_gravitySum</text>
<text text-anchor="start" x="6.5" y="-64.5" font-family="Helvetica,sans-Serif" font-size="10.00">&#45;</text>
<text text-anchor="start" x="17" y="-64.5" font-family="Helvetica,sans-Serif" font-size="10.00">frames</text>
<text text-anchor="start" x="4" y="-49.5" font-family="Helvetica,sans-Serif" font-size="10.00">+</text>
<text text-anchor="start" x="17" y="-49.5" font-family="Helvetica,sans-Serif" font-size="10.00">GameRunner()</text>
<text text-anchor="start" x="4" y="-34.5" font-family="Helvetica,sans-Serif" font-size="10.00">+</text>
<text text-anchor="start" x="17" y="-34.5" font-family="Helvetica,sans-Serif" font-size="10.00">Update()</text>
<polygon fill="#666666" stroke="#666666" points="0,-119.5 0,-119.5 102,-119.5 102,-119.5 0,-119.5"/>
<polygon fill="#666666" stroke="#666666" points="0,-59.5 0,-59.5 15,-59.5 15,-59.5 0,-59.5"/>
<polygon fill="#666666" stroke="#666666" points="15,-59.5 15,-59.5 102,-59.5 102,-59.5 15,-59.5"/>
<polygon fill="none" stroke="#666666" points="0,-28 0,-137 102,-137 102,-28 0,-28"/>
</a>
</g>
</g>
<!-- Node1&#45;&gt;Node2 -->
<g id="edge1_Node000001_Node000002" class="edge">
<title>Node1&#45;&gt;Node2</title>
<g id="a_edge1_Node000001_Node000002"><a xlink:title=" ">
<path fill="none" stroke="#63b8ff" d="M200.43,-207.73C170.73,-198.46 137.26,-184.72 111,-165 100.74,-157.3 91.46,-147.36 83.42,-137.09"/>
<polygon fill="none" stroke="#63b8ff" points="199.75,-211.18 210.33,-210.7 201.76,-204.47 199.75,-211.18"/>
</a>
</g>
</g>
<!-- Node3 -->
<g id="Node000003" class="node">
<title>Node3</title>
<g id="a_Node000003"><a xlink:href="classgame_1_1logic_1_1GravityService.html" target="_top" xlink:title=" ">
<polygon fill="white" stroke="transparent" points="260,-122 120,-122 120,-43 260,-43 260,-122"/>
<text text-anchor="start" x="125" y="-109.5" font-family="Helvetica,sans-Serif" font-size="10.00">game.logic.GravityService</text>
<text text-anchor="start" x="133" y="-94.5" font-family="Helvetica,sans-Serif" font-size="10.00">+</text>
<text text-anchor="start" x="155" y="-94.5" font-family="Helvetica,sans-Serif" font-size="10.00">CurrentGravity</text>
<text text-anchor="start" x="135.5" y="-79.5" font-family="Helvetica,sans-Serif" font-size="10.00">&#45;</text>
<text text-anchor="start" x="155" y="-79.5" font-family="Helvetica,sans-Serif" font-size="10.00">_gravityStrategy</text>
<text text-anchor="start" x="133" y="-64.5" font-family="Helvetica,sans-Serif" font-size="10.00">+</text>
<text text-anchor="start" x="155" y="-64.5" font-family="Helvetica,sans-Serif" font-size="10.00">GravityService()</text>
<text text-anchor="start" x="133" y="-49.5" font-family="Helvetica,sans-Serif" font-size="10.00">+</text>
<text text-anchor="start" x="155" y="-49.5" font-family="Helvetica,sans-Serif" font-size="10.00">Update()</text>
<polygon fill="#666666" stroke="#666666" points="120,-104.5 120,-104.5 260,-104.5 260,-104.5 120,-104.5"/>
<polygon fill="#666666" stroke="#666666" points="120,-74.5 120,-74.5 153,-74.5 153,-74.5 120,-74.5"/>
<polygon fill="#666666" stroke="#666666" points="153,-74.5 153,-74.5 260,-74.5 260,-74.5 153,-74.5"/>
<polygon fill="none" stroke="#666666" points="120,-43 120,-122 260,-122 260,-43 120,-43"/>
</a>
</g>
</g>
<!-- Node1&#45;&gt;Node3 -->
<g id="edge2_Node000001_Node000003" class="edge">
<title>Node1&#45;&gt;Node3</title>
<g id="a_edge2_Node000001_Node000003"><a xlink:title=" ">
<path fill="none" stroke="#63b8ff" d="M253.93,-192.1C241.66,-171.25 225.65,-144.06 212.72,-122.09"/>
<polygon fill="none" stroke="#63b8ff" points="251.02,-194.06 259.11,-200.9 257.05,-190.51 251.02,-194.06"/>
</a>
</g>
</g>
<!-- Node4 -->
<g id="Node000004" class="node">
<title>Node4</title>
<g id="a_Node000004"><a xlink:href="classgame_1_1logic_1_1TimeBasedGravityStrategy.html" target="_top" xlink:title=" ">
<polygon fill="white" stroke="transparent" points="436,-150 278,-150 278,-15 436,-15 436,-150"/>
<text text-anchor="start" x="283" y="-137.5" font-family="Helvetica,sans-Serif" font-size="10.00">game.logic.TimeBasedGravity</text>
<text text-anchor="start" x="336" y="-126.5" font-family="Helvetica,sans-Serif" font-size="10.00">Strategy</text>
<text text-anchor="start" x="283" y="-111.5" font-family="Helvetica,sans-Serif" font-size="10.00">+</text>
<text text-anchor="start" x="297" y="-111.5" font-family="Helvetica,sans-Serif" font-size="10.00">CurrentGravity</text>
<text text-anchor="start" x="283" y="-96.5" font-family="Helvetica,sans-Serif" font-size="10.00">+</text>
<text text-anchor="start" x="297" y="-96.5" font-family="Helvetica,sans-Serif" font-size="10.00">Gravity</text>
<text text-anchor="start" x="285.5" y="-81.5" font-family="Helvetica,sans-Serif" font-size="10.00">&#45;</text>
<text text-anchor="start" x="297" y="-81.5" font-family="Helvetica,sans-Serif" font-size="10.00">_gravityBase</text>
<text text-anchor="start" x="285.5" y="-66.5" font-family="Helvetica,sans-Serif" font-size="10.00">&#45;</text>
<text text-anchor="start" x="297" y="-66.5" font-family="Helvetica,sans-Serif" font-size="10.00">_gravityScale</text>
<text text-anchor="start" x="285.5" y="-51.5" font-family="Helvetica,sans-Serif" font-size="10.00">&#45;</text>
<text text-anchor="start" x="297" y="-51.5" font-family="Helvetica,sans-Serif" font-size="10.00">_gravityIncreasePerSecond</text>
<text text-anchor="start" x="283" y="-36.5" font-family="Helvetica,sans-Serif" font-size="10.00">+</text>
<text text-anchor="start" x="297" y="-36.5" font-family="Helvetica,sans-Serif" font-size="10.00">Update()</text>
<text text-anchor="start" x="283" y="-21.5" font-family="Helvetica,sans-Serif" font-size="10.00">+</text>
<text text-anchor="start" x="297" y="-21.5" font-family="Helvetica,sans-Serif" font-size="10.00">setGravityScale()</text>
<polygon fill="#666666" stroke="#666666" points="278,-121.5 278,-121.5 436,-121.5 436,-121.5 278,-121.5"/>
<polygon fill="#666666" stroke="#666666" points="278,-46.5 278,-46.5 295,-46.5 295,-46.5 278,-46.5"/>
<polygon fill="#666666" stroke="#666666" points="295,-46.5 295,-46.5 436,-46.5 436,-46.5 295,-46.5"/>
<polygon fill="none" stroke="#666666" points="278,-15 278,-150 436,-150 436,-15 278,-15"/>
</a>
</g>
</g>
<!-- Node1&#45;&gt;Node4 -->
<g id="edge3_Node000001_Node000004" class="edge">
<title>Node1&#45;&gt;Node4</title>
<g id="a_edge3_Node000001_Node000004"><a xlink:title=" ">
<path fill="none" stroke="#63b8ff" d="M292.25,-192.19C299.73,-179.63 308.6,-164.74 317.34,-150.08"/>
<polygon fill="none" stroke="#63b8ff" points="289.17,-190.52 287.06,-200.9 295.18,-194.1 289.17,-190.52"/>
</a>
</g>
</g>
<!-- Node5 -->
<g id="Node000005" class="node">
<title>Node5</title>
<g id="a_Node000005"><a xlink:href="classgame_1_1logic_1_1playfield_1_1PlayFieldViewModel.html" target="_top" xlink:title=" ">
<polygon fill="white" stroke="transparent" points="588,-165 454,-165 454,0 588,0 588,-165"/>
<text text-anchor="start" x="459" y="-152.5" font-family="Helvetica,sans-Serif" font-size="10.00">game.logic.playfield.Play</text>
<text text-anchor="start" x="482" y="-141.5" font-family="Helvetica,sans-Serif" font-size="10.00">FieldViewModel</text>
<text text-anchor="start" x="459.5" y="-126.5" font-family="Helvetica,sans-Serif" font-size="10.00">+</text>
<text text-anchor="start" x="474" y="-126.5" font-family="Helvetica,sans-Serif" font-size="10.00">Width</text>
<text text-anchor="start" x="459.5" y="-111.5" font-family="Helvetica,sans-Serif" font-size="10.00">+</text>
<text text-anchor="start" x="474" y="-111.5" font-family="Helvetica,sans-Serif" font-size="10.00">Height</text>
<text text-anchor="start" x="459.5" y="-96.5" font-family="Helvetica,sans-Serif" font-size="10.00">+</text>
<text text-anchor="start" x="474" y="-96.5" font-family="Helvetica,sans-Serif" font-size="10.00">Tiles</text>
<text text-anchor="start" x="462" y="-81.5" font-family="Helvetica,sans-Serif" font-size="10.00">&#45;</text>
<text text-anchor="start" x="474" y="-81.5" font-family="Helvetica,sans-Serif" font-size="10.00">_playField</text>
<text text-anchor="start" x="462" y="-66.5" font-family="Helvetica,sans-Serif" font-size="10.00">&#45;</text>
<text text-anchor="start" x="474" y="-66.5" font-family="Helvetica,sans-Serif" font-size="10.00">_serviceLocator</text>
<text text-anchor="start" x="459.5" y="-51.5" font-family="Helvetica,sans-Serif" font-size="10.00">+</text>
<text text-anchor="start" x="474" y="-51.5" font-family="Helvetica,sans-Serif" font-size="10.00">PlayFieldViewModel()</text>
<text text-anchor="start" x="459.5" y="-36.5" font-family="Helvetica,sans-Serif" font-size="10.00">+</text>
<text text-anchor="start" x="474" y="-36.5" font-family="Helvetica,sans-Serif" font-size="10.00">GetTile()</text>
<text text-anchor="start" x="459.5" y="-21.5" font-family="Helvetica,sans-Serif" font-size="10.00">+</text>
<text text-anchor="start" x="474" y="-21.5" font-family="Helvetica,sans-Serif" font-size="10.00">PlaceTile()</text>
<text text-anchor="start" x="459.5" y="-6.5" font-family="Helvetica,sans-Serif" font-size="10.00">+</text>
<text text-anchor="start" x="474" y="-6.5" font-family="Helvetica,sans-Serif" font-size="10.00">Update()</text>
<polygon fill="#666666" stroke="#666666" points="454,-136.5 454,-136.5 588,-136.5 588,-136.5 454,-136.5"/>
<polygon fill="#666666" stroke="#666666" points="454,-61.5 454,-61.5 472,-61.5 472,-61.5 454,-61.5"/>
<polygon fill="#666666" stroke="#666666" points="472,-61.5 472,-61.5 588,-61.5 588,-61.5 472,-61.5"/>
<polygon fill="none" stroke="#666666" points="454,0 454,-165 588,-165 588,0 454,0"/>
</a>
</g>
</g>
<!-- Node1&#45;&gt;Node5 -->
<g id="edge4_Node000001_Node000005" class="edge">
<title>Node1&#45;&gt;Node5</title>
<g id="a_edge4_Node000001_Node000005"><a xlink:title=" ">
<path fill="none" stroke="#63b8ff" d="M345.41,-207.95C377.57,-198.52 414.87,-184.59 445,-165 447.92,-163.1 450.8,-161.07 453.64,-158.92"/>
<polygon fill="none" stroke="#63b8ff" points="344.27,-204.64 335.6,-210.73 346.18,-211.37 344.27,-204.64"/>
</a>
</g>
</g>
</g>
</svg>

<g id="navigator" transform="translate(0 0)" fill="#404254">
  <rect fill="#f2f5e9" fill-opacity="0.5" stroke="#606060" stroke-width=".5" x="0" y="0" width="60" height="60"/>
  <use id="zoomplus" xlink:href="#zoomPlus" x="17" y="9" onmousedown="handleZoom(evt,'in')"/>
  <use id="zoomminus" xlink:href="#zoomMin" x="42" y="9" onmousedown="handleZoom(evt,'out')"/>
  <use id="reset" xlink:href="#resetDef" x="30" y="36" onmousedown="handleReset()"/>
   <use id="arrowup" xlink:href="#arrowUp" x="0" y="0" onmousedown="handlePan(0,-1)"/>
  <use id="arrowright" xlink:href="#arrowRight" x="0" y="0" onmousedown="handlePan(1,0)"/>
  <use id="arrowdown" xlink:href="#arrowDown" x="0" y="0" onmousedown="handlePan(0,1)"/>
  <use id="arrowleft" xlink:href="#arrowLeft" x="0" y="0" onmousedown="handlePan(-1,0)"/>
</g>
<svg viewBox="0 0 15 15" width="100%" height="30px" preserveAspectRatio="xMaxYMin meet">
 <g id="arrow_out" transform="scale(0.3 0.3)">
  <a xlink:href="interfacegamerunner_1_1IUpdatable__inherit__graph_org.svg" target="_base">
   <rect id="button" ry="5" rx="5" y="6" x="6" height="38" width="38"
        fill="#f2f5e9" fill-opacity="0.5" stroke="#606060" stroke-width="1.0"/>
   <path id="arrow"
     d="M 11.500037,31.436501 C 11.940474,20.09759 22.043105,11.32322 32.158766,21.979434 L 37.068811,17.246167 C 37.068811,17.246167 37.088388,32 37.088388,32 L 22.160133,31.978069 C 22.160133,31.978069 26.997745,27.140456 26.997745,27.140456 C 18.528582,18.264221 13.291696,25.230495 11.500037,31.436501 z"
     style="fill:#404040;"/>
  </a>
 </g>
</svg>

<style type='text/css'>
<![CDATA[
[data-mouse-over-selected='false'] { opacity: 0.7; }
[data-mouse-over-selected='true']  { opacity: 1.0; }
]]>
</style>
<script type="application/ecmascript"><![CDATA[
document.addEventListener('DOMContentLoaded', (event) => {
  highlightEdges();
  highlightAdjacentNodes();
});
]]></script>
</svg>
