<?xml version="1.0" encoding="UTF-8" standalone="no"?>
<!DOCTYPE svg PUBLIC "-//W3C//DTD SVG 1.1//EN"
 "http://www.w3.org/Graphics/SVG/1.1/DTD/svg11.dtd">
<!-- Generated by graphviz version 2.43.0 (0)
 -->
<!-- Title: LoginButton Pages: 1 -->
<svg width="347pt" height="372pt"
 viewBox="0.00 0.00 346.50 372.00" xmlns="http://www.w3.org/2000/svg" xmlns:xlink="http://www.w3.org/1999/xlink">
<g id="graph0" class="graph" transform="scale(1 1) rotate(0) translate(4 368)">
<title>LoginButton</title>
<!-- Node1 -->
<g id="Node000001" class="node">
<title>Node1</title>
<g id="a_Node000001"><a xlink:title=" ">
<polygon fill="#999999" stroke="transparent" points="94,-94 25,-94 25,0 94,0 94,-94"/>
<text text-anchor="start" x="30.5" y="-82" font-family="Helvetica,sans-Serif" font-size="10.00">LoginButton</text>
<text text-anchor="start" x="58" y="-67" font-family="Helvetica,sans-Serif" font-size="10.00"> </text>
<text text-anchor="start" x="30" y="-52" font-family="Helvetica,sans-Serif" font-size="10.00">+</text>
<text text-anchor="start" x="43.5" y="-52" font-family="Helvetica,sans-Serif" font-size="10.00">Link()</text>
<text text-anchor="start" x="30" y="-37" font-family="Helvetica,sans-Serif" font-size="10.00">+</text>
<text text-anchor="start" x="43.5" y="-37" font-family="Helvetica,sans-Serif" font-size="10.00">OnClick()</text>
<text text-anchor="start" x="32.5" y="-22" font-family="Helvetica,sans-Serif" font-size="10.00">&#45;</text>
<text text-anchor="start" x="43.5" y="-22" font-family="Helvetica,sans-Serif" font-size="10.00">Start()</text>
<text text-anchor="start" x="32.5" y="-7" font-family="Helvetica,sans-Serif" font-size="10.00">&#45;</text>
<text text-anchor="start" x="43.5" y="-7" font-family="Helvetica,sans-Serif" font-size="10.00">Update()</text>
<polygon fill="#666666" stroke="#666666" points="25.5,-77 25.5,-77 94.5,-77 94.5,-77 25.5,-77"/>
<polygon fill="#666666" stroke="#666666" points="25.5,-62 25.5,-62 94.5,-62 94.5,-62 25.5,-62"/>
<polygon fill="none" stroke="#666666" points="25,0 25,-94 94,-94 94,0 25,0"/>
</a>
</g>
</g>
<!-- Node2 -->
<g id="Node000002" class="node">
<title>Node2</title>
<g id="a_Node000002"><a xlink:href="$classMonoBehaviour.html" xlink:title=" ">
<polygon fill="white" stroke="transparent" points="87,-218 0,-218 0,-169 87,-169 87,-218"/>
<text text-anchor="start" x="5.5" y="-205.5" font-family="Helvetica,sans-Serif" font-size="10.00">MonoBehaviour</text>
<text text-anchor="start" x="42" y="-190.5" font-family="Helvetica,sans-Serif" font-size="10.00"> </text>
<text text-anchor="start" x="42" y="-175.5" font-family="Helvetica,sans-Serif" font-size="10.00"> </text>
<polygon fill="#666666" stroke="#666666" points="0.5,-200.5 0.5,-200.5 87.5,-200.5 87.5,-200.5 0.5,-200.5"/>
<polygon fill="#666666" stroke="#666666" points="0.5,-185.5 0.5,-185.5 87.5,-185.5 87.5,-185.5 0.5,-185.5"/>
<polygon fill="none" stroke="#666666" points="0,-169 0,-218 87,-218 87,-169 0,-169"/>
</a>
</g>
</g>
<!-- Node2&#45;&gt;Node1 -->
<g id="edge9_Node000001_Node000002" class="edge">
<title>Node2&#45;&gt;Node1</title>
<g id="a_edge9_Node000001_Node000002"><a xlink:title=" ">
<path fill="none" stroke="#63b8ff" d="M47.23,-158.83C49.36,-139.54 52.07,-115.06 54.41,-94.01"/>
<polygon fill="none" stroke="#63b8ff" points="43.73,-158.64 46.11,-168.96 50.69,-159.41 43.73,-158.64"/>
</a>
</g>
</g>
<!-- Node3 -->
<g id="Node000003" class="node">
<title>Node3</title>
<g id="a_Node000003"><a xlink:href="$classgame_1_1logic_1_1EventQueue_1_1EventQueue.html" xlink:title=" ">
<polygon fill="white" stroke="transparent" points="263.5,-246 105.5,-246 105.5,-141 263.5,-141 263.5,-246"/>
<text text-anchor="start" x="110.5" y="-233.5" font-family="Helvetica,sans-Serif" font-size="10.00">game.logic.EventQueue.Event</text>
<text text-anchor="start" x="168.5" y="-222.5" font-family="Helvetica,sans-Serif" font-size="10.00">Queue</text>
<text text-anchor="start" x="182.5" y="-207.5" font-family="Helvetica,sans-Serif" font-size="10.00"> </text>
<text text-anchor="start" x="127" y="-192.5" font-family="Helvetica,sans-Serif" font-size="10.00">+</text>
<text text-anchor="start" x="157.5" y="-192.5" font-family="Helvetica,sans-Serif" font-size="10.00">EventQueue()</text>
<text text-anchor="start" x="127" y="-177.5" font-family="Helvetica,sans-Serif" font-size="10.00">+</text>
<text text-anchor="start" x="157.5" y="-177.5" font-family="Helvetica,sans-Serif" font-size="10.00">Enqueue()</text>
<text text-anchor="start" x="127" y="-162.5" font-family="Helvetica,sans-Serif" font-size="10.00">+</text>
<text text-anchor="start" x="157.5" y="-162.5" font-family="Helvetica,sans-Serif" font-size="10.00">HasEvent()</text>
<text text-anchor="start" x="127" y="-147.5" font-family="Helvetica,sans-Serif" font-size="10.00">+</text>
<text text-anchor="start" x="157.5" y="-147.5" font-family="Helvetica,sans-Serif" font-size="10.00">Dequeue()</text>
<polygon fill="#666666" stroke="#666666" points="105.5,-217.5 105.5,-217.5 263.5,-217.5 263.5,-217.5 105.5,-217.5"/>
<polygon fill="#666666" stroke="#666666" points="105.5,-202.5 105.5,-202.5 263.5,-202.5 263.5,-202.5 105.5,-202.5"/>
<polygon fill="none" stroke="#666666" points="105.5,-141 105.5,-246 263.5,-246 263.5,-141 105.5,-141"/>
</a>
</g>
</g>
<!-- Node3&#45;&gt;Node1 -->
<g id="edge10_Node000001_Node000003" class="edge">
<title>Node3&#45;&gt;Node1</title>
<g id="a_edge10_Node000001_Node000003"><a xlink:title=" ">
<path fill="none" stroke="#63b8ff" d="M139.73,-140.74C127.54,-126.66 114.38,-111.45 102.32,-97.5"/>
<polygon fill="none" stroke="#63b8ff" points="102.01,-97.14 95.06,-95.22 94.16,-88.07 101.11,-89.99 102.01,-97.14"/>
</a>
</g>
<text text-anchor="middle" x="158.5" y="-115" font-family="Helvetica,sans-Serif" font-size="10.00" fill="grey"> &#45;_eventQueue</text>
</g>
<!-- Node4 -->
<g id="Node000004" class="node">
<title>Node4</title>
<g id="a_Node000004"><a xlink:href="$interfacegame_1_1service_1_1IService.html" xlink:title=" ">
<polygon fill="white" stroke="transparent" points="144.5,-353 94.5,-353 94.5,-304 144.5,-304 144.5,-353"/>
<text text-anchor="start" x="99.5" y="-340.5" font-family="Helvetica,sans-Serif" font-size="10.00">IService</text>
<text text-anchor="start" x="117.5" y="-325.5" font-family="Helvetica,sans-Serif" font-size="10.00"> </text>
<text text-anchor="start" x="117.5" y="-310.5" font-family="Helvetica,sans-Serif" font-size="10.00"> </text>
<polygon fill="#666666" stroke="#666666" points="94.5,-335.5 94.5,-335.5 144.5,-335.5 144.5,-335.5 94.5,-335.5"/>
<polygon fill="#666666" stroke="#666666" points="94.5,-320.5 94.5,-320.5 144.5,-320.5 144.5,-320.5 94.5,-320.5"/>
<polygon fill="none" stroke="#666666" points="94.5,-304 94.5,-353 144.5,-353 144.5,-304 94.5,-304"/>
</a>
</g>
</g>
<!-- Node4&#45;&gt;Node3 -->
<g id="edge11_Node000003_Node000004" class="edge">
<title>Node4&#45;&gt;Node3</title>
<g id="a_edge11_Node000003_Node000004"><a xlink:title=" ">
<path fill="none" stroke="#63b8ff" d="M135.58,-294.59C142.72,-279.99 151.29,-262.46 159.24,-246.18"/>
<polygon fill="none" stroke="#63b8ff" points="132.37,-293.2 131.12,-303.72 138.66,-296.27 132.37,-293.2"/>
</a>
</g>
</g>
<!-- Node5 -->
<g id="Node000005" class="node">
<title>Node5</title>
<g id="a_Node000005"><a xlink:title=" ">
<polygon fill="white" stroke="transparent" points="338.5,-364 162.5,-364 162.5,-293 338.5,-293 338.5,-364"/>
<text text-anchor="start" x="167.5" y="-351.5" font-family="Helvetica,sans-Serif" font-size="10.00">Dictionary&lt; EventId,</text>
<text text-anchor="start" x="167.5" y="-340.5" font-family="Helvetica,sans-Serif" font-size="10.00"> Queue&lt; game.logic.EventQueue.</text>
<text text-anchor="start" x="223.5" y="-329.5" font-family="Helvetica,sans-Serif" font-size="10.00">IEvent &gt; &gt;</text>
<text text-anchor="start" x="248.5" y="-314.5" font-family="Helvetica,sans-Serif" font-size="10.00"> </text>
<text text-anchor="start" x="248.5" y="-299.5" font-family="Helvetica,sans-Serif" font-size="10.00"> </text>
<polygon fill="#666666" stroke="#666666" points="162.5,-324.5 162.5,-324.5 338.5,-324.5 338.5,-324.5 162.5,-324.5"/>
<polygon fill="#666666" stroke="#666666" points="162.5,-309.5 162.5,-309.5 338.5,-309.5 338.5,-309.5 162.5,-309.5"/>
<polygon fill="none" stroke="#666666" points="162.5,-293 162.5,-364 338.5,-364 338.5,-293 162.5,-293"/>
</a>
</g>
</g>
<!-- Node5&#45;&gt;Node3 -->
<g id="edge12_Node000003_Node000005" class="edge">
<title>Node5&#45;&gt;Node3</title>
<g id="a_edge12_Node000003_Node000005"><a xlink:title=" ">
<path fill="none" stroke="#63b8ff" d="M233.33,-292.9C227.87,-281.89 221.64,-269.35 215.51,-256.99"/>
<polygon fill="none" stroke="#63b8ff" points="215.5,-256.97 209.25,-253.37 210.17,-246.22 216.42,-249.82 215.5,-256.97"/>
</a>
</g>
<text text-anchor="middle" x="246.5" y="-267" font-family="Helvetica,sans-Serif" font-size="10.00" fill="grey"> &#45;_queues</text>
</g>
</g>
</svg>
