<?xml version="1.0" encoding="UTF-8" standalone="no"?>
<!DOCTYPE svg PUBLIC "-//W3C//DTD SVG 1.1//EN"
 "http://www.w3.org/Graphics/SVG/1.1/DTD/svg11.dtd">
<!-- Generated by graphviz version 2.43.0 (0)
 -->
<!-- Title: game.logic.EventQueue.SpawnTileEvent Pages: 1 -->
<svg width="170pt" height="198pt"
 viewBox="0.00 0.00 170.00 198.00" xmlns="http://www.w3.org/2000/svg" xmlns:xlink="http://www.w3.org/1999/xlink">
<g id="graph0" class="graph" transform="scale(1 1) rotate(0) translate(4 194)">
<title>game.logic.EventQueue.SpawnTileEvent</title>
<!-- Node1 -->
<g id="Node000001" class="node">
<title>Node1</title>
<g id="a_Node000001"><a xlink:title=" ">
<polygon fill="#999999" stroke="transparent" points="162,-90 0,-90 0,0 162,0 162,-90"/>
<text text-anchor="start" x="5" y="-78" font-family="Helvetica,sans-Serif" font-size="10.00">game.logic.EventQueue.Spawn</text>
<text text-anchor="start" x="58" y="-67" font-family="Helvetica,sans-Serif" font-size="10.00">TileEvent</text>
<text text-anchor="start" x="8" y="-52" font-family="Helvetica,sans-Serif" font-size="10.00">+</text>
<text text-anchor="start" x="25" y="-52" font-family="Helvetica,sans-Serif" font-size="10.00">CreateTileShapeDelegate</text>
<text text-anchor="start" x="8" y="-37" font-family="Helvetica,sans-Serif" font-size="10.00">+</text>
<text text-anchor="start" x="25" y="-37" font-family="Helvetica,sans-Serif" font-size="10.00">Id</text>
<text text-anchor="start" x="8" y="-22" font-family="Helvetica,sans-Serif" font-size="10.00">+</text>
<text text-anchor="start" x="25" y="-22" font-family="Helvetica,sans-Serif" font-size="10.00">Source</text>
<text text-anchor="start" x="8" y="-7" font-family="Helvetica,sans-Serif" font-size="10.00">+</text>
<text text-anchor="start" x="25" y="-7" font-family="Helvetica,sans-Serif" font-size="10.00">SpawnTileEvent()</text>
<polygon fill="#666666" stroke="#666666" points="0,-62 0,-62 162,-62 162,-62 0,-62"/>
<polygon fill="#666666" stroke="#666666" points="0,-17 0,-17 23,-17 23,-17 0,-17"/>
<polygon fill="#666666" stroke="#666666" points="23,-17 23,-17 162,-17 162,-17 23,-17"/>
<polygon fill="none" stroke="#666666" points="0,0 0,-90 162,-90 162,0 0,0"/>
</a>
</g>
</g>
<!-- Node2 -->
<g id="Node000002" class="node">
<title>Node2</title>
<g id="a_Node000002"><a xlink:href="$interfacegame_1_1logic_1_1EventQueue_1_1IEvent.html" xlink:title=" ">
<polygon fill="white" stroke="transparent" points="108.5,-190 53.5,-190 53.5,-126 108.5,-126 108.5,-190"/>
<text text-anchor="start" x="66" y="-178" font-family="Helvetica,sans-Serif" font-size="10.00">IEvent</text>
<text text-anchor="start" x="58" y="-163" font-family="Helvetica,sans-Serif" font-size="10.00">+</text>
<text text-anchor="start" x="71" y="-163" font-family="Helvetica,sans-Serif" font-size="10.00">Id</text>
<text text-anchor="start" x="58" y="-148" font-family="Helvetica,sans-Serif" font-size="10.00">+</text>
<text text-anchor="start" x="71" y="-148" font-family="Helvetica,sans-Serif" font-size="10.00">Source</text>
<text text-anchor="start" x="79.5" y="-133" font-family="Helvetica,sans-Serif" font-size="10.00"> </text>
<polygon fill="#666666" stroke="#666666" points="54,-173 54,-173 109,-173 109,-173 54,-173"/>
<polygon fill="#666666" stroke="#666666" points="54,-143 54,-143 69,-143 69,-143 54,-143"/>
<polygon fill="#666666" stroke="#666666" points="69,-143 69,-143 109,-143 109,-143 69,-143"/>
<polygon fill="none" stroke="#666666" points="53.5,-126 53.5,-190 108.5,-190 108.5,-126 53.5,-126"/>
</a>
</g>
</g>
<!-- Node2&#45;&gt;Node1 -->
<g id="edge3_Node000001_Node000002" class="edge">
<title>Node2&#45;&gt;Node1</title>
<g id="a_edge3_Node000001_Node000002"><a xlink:title=" ">
<path fill="none" stroke="#63b8ff" d="M81,-115.6C81,-107.32 81,-98.6 81,-90.23"/>
<polygon fill="none" stroke="#63b8ff" points="77.5,-115.78 81,-125.78 84.5,-115.78 77.5,-115.78"/>
</a>
</g>
</g>
</g>
</svg>
