<?xml version="1.0" encoding="UTF-8" standalone="no"?>
<!DOCTYPE svg PUBLIC "-//W3C//DTD SVG 1.1//EN"
 "http://www.w3.org/Graphics/SVG/1.1/DTD/svg11.dtd">
<!-- Generated by graphviz version 2.43.0 (0)
 -->
<!-- Title: game.logic.TimeBasedGravityStrategy Pages: 1 -->
<svg width="184pt" height="243pt"
 viewBox="0.00 0.00 184.00 243.00" xmlns="http://www.w3.org/2000/svg" xmlns:xlink="http://www.w3.org/1999/xlink">
<g id="graph0" class="graph" transform="scale(1 1) rotate(0) translate(4 239)">
<title>game.logic.TimeBasedGravityStrategy</title>
<!-- Node1 -->
<g id="Node000001" class="node">
<title>Node1</title>
<g id="a_Node000001"><a xlink:title=" ">
<polygon fill="#999999" stroke="transparent" points="159,-135 1,-135 1,0 159,0 159,-135"/>
<text text-anchor="start" x="6" y="-122.5" font-family="Helvetica,sans-Serif" font-size="10.00">game.logic.TimeBasedGravity</text>
<text text-anchor="start" x="59" y="-111.5" font-family="Helvetica,sans-Serif" font-size="10.00">Strategy</text>
<text text-anchor="start" x="6" y="-96.5" font-family="Helvetica,sans-Serif" font-size="10.00">+</text>
<text text-anchor="start" x="20" y="-96.5" font-family="Helvetica,sans-Serif" font-size="10.00">CurrentGravity</text>
<text text-anchor="start" x="6" y="-81.5" font-family="Helvetica,sans-Serif" font-size="10.00">+</text>
<text text-anchor="start" x="20" y="-81.5" font-family="Helvetica,sans-Serif" font-size="10.00">Gravity</text>
<text text-anchor="start" x="8.5" y="-66.5" font-family="Helvetica,sans-Serif" font-size="10.00">&#45;</text>
<text text-anchor="start" x="20" y="-66.5" font-family="Helvetica,sans-Serif" font-size="10.00">_gravityBase</text>
<text text-anchor="start" x="8.5" y="-51.5" font-family="Helvetica,sans-Serif" font-size="10.00">&#45;</text>
<text text-anchor="start" x="20" y="-51.5" font-family="Helvetica,sans-Serif" font-size="10.00">_gravityScale</text>
<text text-anchor="start" x="8.5" y="-36.5" font-family="Helvetica,sans-Serif" font-size="10.00">&#45;</text>
<text text-anchor="start" x="20" y="-36.5" font-family="Helvetica,sans-Serif" font-size="10.00">_gravityIncreasePerSecond</text>
<text text-anchor="start" x="6" y="-21.5" font-family="Helvetica,sans-Serif" font-size="10.00">+</text>
<text text-anchor="start" x="20" y="-21.5" font-family="Helvetica,sans-Serif" font-size="10.00">Update()</text>
<text text-anchor="start" x="6" y="-6.5" font-family="Helvetica,sans-Serif" font-size="10.00">+</text>
<text text-anchor="start" x="20" y="-6.5" font-family="Helvetica,sans-Serif" font-size="10.00">setGravityScale()</text>
<polygon fill="#666666" stroke="#666666" points="1,-106.5 1,-106.5 159,-106.5 159,-106.5 1,-106.5"/>
<polygon fill="#666666" stroke="#666666" points="1,-31.5 1,-31.5 18,-31.5 18,-31.5 1,-31.5"/>
<polygon fill="#666666" stroke="#666666" points="18,-31.5 18,-31.5 159,-31.5 159,-31.5 18,-31.5"/>
<polygon fill="none" stroke="#666666" points="1,0 1,-135 159,-135 159,0 1,0"/>
</a>
</g>
</g>
<!-- Node2 -->
<g id="Node000002" class="node">
<title>Node2</title>
<g id="a_Node000002"><a xlink:href="$interfacegamerunner_1_1IUpdatable.html" xlink:title=" ">
<polygon fill="white" stroke="transparent" points="64,-227.5 0,-227.5 0,-178.5 64,-178.5 64,-227.5"/>
<text text-anchor="start" x="5" y="-215" font-family="Helvetica,sans-Serif" font-size="10.00">IUpdatable</text>
<text text-anchor="start" x="30" y="-200" font-family="Helvetica,sans-Serif" font-size="10.00"> </text>
<text text-anchor="start" x="4" y="-185" font-family="Helvetica,sans-Serif" font-size="10.00">+</text>
<text text-anchor="start" x="17" y="-185" font-family="Helvetica,sans-Serif" font-size="10.00">Update()</text>
<polygon fill="#666666" stroke="#666666" points="0,-210 0,-210 64,-210 64,-210 0,-210"/>
<polygon fill="#666666" stroke="#666666" points="0,-195 0,-195 64,-195 64,-195 0,-195"/>
<polygon fill="none" stroke="#666666" points="0,-178.5 0,-227.5 64,-227.5 64,-178.5 0,-178.5"/>
</a>
</g>
</g>
<!-- Node2&#45;&gt;Node1 -->
<g id="edge5_Node000001_Node000002" class="edge">
<title>Node2&#45;&gt;Node1</title>
<g id="a_edge5_Node000001_Node000002"><a xlink:title=" ">
<path fill="none" stroke="#63b8ff" d="M43.85,-169.03C47.57,-158.7 51.81,-146.89 56.05,-135.1"/>
<polygon fill="none" stroke="#63b8ff" points="40.56,-167.85 40.47,-178.44 47.15,-170.21 40.56,-167.85"/>
</a>
</g>
</g>
<!-- Node3 -->
<g id="Node000003" class="node">
<title>Node3</title>
<g id="a_Node000003"><a xlink:href="$interfacegame_1_1logic_1_1IGravityStrategy.html" xlink:title=" ">
<polygon fill="white" stroke="transparent" points="176,-235 82,-235 82,-171 176,-171 176,-235"/>
<text text-anchor="start" x="88.5" y="-223" font-family="Helvetica,sans-Serif" font-size="10.00">IGravityStrategy</text>
<text text-anchor="start" x="86" y="-208" font-family="Helvetica,sans-Serif" font-size="10.00">+</text>
<text text-anchor="start" x="99" y="-208" font-family="Helvetica,sans-Serif" font-size="10.00">CurrentGravity</text>
<text text-anchor="start" x="86" y="-193" font-family="Helvetica,sans-Serif" font-size="10.00">+</text>
<text text-anchor="start" x="99" y="-193" font-family="Helvetica,sans-Serif" font-size="10.00">Gravity</text>
<text text-anchor="start" x="127" y="-178" font-family="Helvetica,sans-Serif" font-size="10.00"> </text>
<polygon fill="#666666" stroke="#666666" points="82,-218 82,-218 176,-218 176,-218 82,-218"/>
<polygon fill="#666666" stroke="#666666" points="82,-188 82,-188 97,-188 97,-188 82,-188"/>
<polygon fill="#666666" stroke="#666666" points="97,-188 97,-188 176,-188 176,-188 97,-188"/>
<polygon fill="none" stroke="#666666" points="82,-171 82,-235 176,-235 176,-171 82,-171"/>
</a>
</g>
</g>
<!-- Node3&#45;&gt;Node1 -->
<g id="edge6_Node000001_Node000003" class="edge">
<title>Node3&#45;&gt;Node1</title>
<g id="a_edge6_Node000001_Node000003"><a xlink:title=" ">
<path fill="none" stroke="#63b8ff" d="M114.06,-161.29C111.01,-153 107.74,-144.07 104.46,-135.14"/>
<polygon fill="none" stroke="#63b8ff" points="110.78,-162.52 117.51,-170.7 117.35,-160.11 110.78,-162.52"/>
</a>
</g>
</g>
</g>
</svg>
