<?xml version="1.0" encoding="UTF-8" standalone="no"?>
<!DOCTYPE svg PUBLIC "-//W3C//DTD SVG 1.1//EN"
 "http://www.w3.org/Graphics/SVG/1.1/DTD/svg11.dtd">
<!-- Generated by graphviz version 2.43.0 (0)
 -->
<!-- Title: ScoreSubmit Pages: 1 -->
<svg width="198pt" height="183pt"
 viewBox="0.00 0.00 198.00 183.00" xmlns="http://www.w3.org/2000/svg" xmlns:xlink="http://www.w3.org/1999/xlink">
<g id="graph0" class="graph" transform="scale(1 1) rotate(0) translate(4 179)">
<title>ScoreSubmit</title>
<!-- Node1 -->
<g id="Node000001" class="node">
<title>Node1</title>
<g id="a_Node000001"><a xlink:title=" ">
<polygon fill="#999999" stroke="transparent" points="131.5,-79 59.5,-79 59.5,0 131.5,0 131.5,-79"/>
<text text-anchor="start" x="64.5" y="-66.5" font-family="Helvetica,sans-Serif" font-size="10.00">ScoreSubmit</text>
<text text-anchor="start" x="93.5" y="-51.5" font-family="Helvetica,sans-Serif" font-size="10.00"> </text>
<text text-anchor="start" x="65.5" y="-36.5" font-family="Helvetica,sans-Serif" font-size="10.00">+</text>
<text text-anchor="start" x="80.5" y="-36.5" font-family="Helvetica,sans-Serif" font-size="10.00">Win()</text>
<text text-anchor="start" x="68" y="-21.5" font-family="Helvetica,sans-Serif" font-size="10.00">&#45;</text>
<text text-anchor="start" x="80.5" y="-21.5" font-family="Helvetica,sans-Serif" font-size="10.00">Start()</text>
<text text-anchor="start" x="68" y="-6.5" font-family="Helvetica,sans-Serif" font-size="10.00">&#45;</text>
<text text-anchor="start" x="80.5" y="-6.5" font-family="Helvetica,sans-Serif" font-size="10.00">Update()</text>
<polygon fill="#666666" stroke="#666666" points="59.5,-61.5 59.5,-61.5 131.5,-61.5 131.5,-61.5 59.5,-61.5"/>
<polygon fill="#666666" stroke="#666666" points="59.5,-46.5 59.5,-46.5 131.5,-46.5 131.5,-46.5 59.5,-46.5"/>
<polygon fill="none" stroke="#666666" points="59.5,0 59.5,-79 131.5,-79 131.5,0 59.5,0"/>
</a>
</g>
</g>
<!-- Node2 -->
<g id="Node000002" class="node">
<title>Node2</title>
<g id="a_Node000002"><a xlink:href="$classMonoBehaviour.html" xlink:title=" ">
<polygon fill="white" stroke="transparent" points="87,-175 0,-175 0,-126 87,-126 87,-175"/>
<text text-anchor="start" x="5.5" y="-162.5" font-family="Helvetica,sans-Serif" font-size="10.00">MonoBehaviour</text>
<text text-anchor="start" x="42" y="-147.5" font-family="Helvetica,sans-Serif" font-size="10.00"> </text>
<text text-anchor="start" x="42" y="-132.5" font-family="Helvetica,sans-Serif" font-size="10.00"> </text>
<polygon fill="#666666" stroke="#666666" points="0.5,-157.5 0.5,-157.5 87.5,-157.5 87.5,-157.5 0.5,-157.5"/>
<polygon fill="#666666" stroke="#666666" points="0.5,-142.5 0.5,-142.5 87.5,-142.5 87.5,-142.5 0.5,-142.5"/>
<polygon fill="none" stroke="#666666" points="0,-126 0,-175 87,-175 87,-126 0,-126"/>
</a>
</g>
</g>
<!-- Node2&#45;&gt;Node1 -->
<g id="edge5_Node000001_Node000002" class="edge">
<title>Node2&#45;&gt;Node1</title>
<g id="a_edge5_Node000001_Node000002"><a xlink:title=" ">
<path fill="none" stroke="#63b8ff" d="M59.12,-116.75C64.78,-104.9 71.21,-91.41 77.08,-79.1"/>
<polygon fill="none" stroke="#63b8ff" points="55.93,-115.32 54.78,-125.85 62.25,-118.33 55.93,-115.32"/>
</a>
</g>
</g>
<!-- Node3 -->
<g id="Node000003" class="node">
<title>Node3</title>
<g id="a_Node000003"><a xlink:title=" ">
<polygon fill="white" stroke="transparent" points="190,-175 105,-175 105,-126 190,-126 190,-175"/>
<text text-anchor="start" x="110.5" y="-162.5" font-family="Helvetica,sans-Serif" font-size="10.00">TMP_InputField</text>
<text text-anchor="start" x="146" y="-147.5" font-family="Helvetica,sans-Serif" font-size="10.00"> </text>
<text text-anchor="start" x="146" y="-132.5" font-family="Helvetica,sans-Serif" font-size="10.00"> </text>
<polygon fill="#666666" stroke="#666666" points="105.5,-157.5 105.5,-157.5 190.5,-157.5 190.5,-157.5 105.5,-157.5"/>
<polygon fill="#666666" stroke="#666666" points="105.5,-142.5 105.5,-142.5 190.5,-142.5 190.5,-142.5 105.5,-142.5"/>
<polygon fill="none" stroke="#666666" points="105,-126 105,-175 190,-175 190,-126 105,-126"/>
</a>
</g>
</g>
<!-- Node3&#45;&gt;Node1 -->
<g id="edge6_Node000001_Node000003" class="edge">
<title>Node3&#45;&gt;Node1</title>
<g id="a_edge6_Node000001_Node000003"><a xlink:title=" ">
<path fill="none" stroke="#63b8ff" d="M136.22,-125.85C131.23,-115.4 125.17,-102.69 119.26,-90.31"/>
<polygon fill="none" stroke="#63b8ff" points="119.08,-89.93 112.89,-86.24 113.92,-79.1 120.11,-82.8 119.08,-89.93"/>
</a>
</g>
<text text-anchor="middle" x="158" y="-100" font-family="Helvetica,sans-Serif" font-size="10.00" fill="grey"> &#45;_inputField</text>
</g>
</g>
</svg>
