<?xml version="1.0" encoding="UTF-8" standalone="no"?>
<!DOCTYPE svg PUBLIC "-//W3C//DTD SVG 1.1//EN"
 "http://www.w3.org/Graphics/SVG/1.1/DTD/svg11.dtd">
<!-- Generated by graphviz version 2.43.0 (0)
 -->
<!-- Title: GameRunner Pages: 1 -->
<svg width="627pt" height="436pt"
 viewBox="0.00 0.00 626.50 436.00" xmlns="http://www.w3.org/2000/svg" xmlns:xlink="http://www.w3.org/1999/xlink">
<g id="graph0" class="graph" transform="scale(1 1) rotate(0) translate(4 432)">
<title>GameRunner</title>
<!-- Node1 -->
<g id="Node000001" class="node">
<title>Node1</title>
<g id="a_Node000001"><a xlink:title=" ">
<polygon fill="#999999" stroke="transparent" points="313.5,-64 220.5,-64 220.5,0 313.5,0 313.5,-64"/>
<text text-anchor="start" x="235.5" y="-52" font-family="Helvetica,sans-Serif" font-size="10.00">GameRunner</text>
<text text-anchor="start" x="265.5" y="-37" font-family="Helvetica,sans-Serif" font-size="10.00"> </text>
<text text-anchor="start" x="225" y="-22" font-family="Helvetica,sans-Serif" font-size="10.00">+</text>
<text text-anchor="start" x="238" y="-22" font-family="Helvetica,sans-Serif" font-size="10.00">GameRunner()</text>
<text text-anchor="start" x="225" y="-7" font-family="Helvetica,sans-Serif" font-size="10.00">+</text>
<text text-anchor="start" x="238" y="-7" font-family="Helvetica,sans-Serif" font-size="10.00">Update()</text>
<polygon fill="#666666" stroke="#666666" points="221,-47 221,-47 314,-47 314,-47 221,-47"/>
<polygon fill="#666666" stroke="#666666" points="221,-32 221,-32 314,-32 314,-32 221,-32"/>
<polygon fill="none" stroke="#666666" points="220.5,0 220.5,-64 313.5,-64 313.5,0 220.5,0"/>
</a>
</g>
</g>
<!-- Node2 -->
<g id="Node000002" class="node">
<title>Node2</title>
<g id="a_Node000002"><a xlink:href="$interfacegamerunner_1_1IUpdatable.html" xlink:title=" ">
<polygon fill="white" stroke="transparent" points="64,-240.5 0,-240.5 0,-191.5 64,-191.5 64,-240.5"/>
<text text-anchor="start" x="5" y="-228" font-family="Helvetica,sans-Serif" font-size="10.00">IUpdatable</text>
<text text-anchor="start" x="30" y="-213" font-family="Helvetica,sans-Serif" font-size="10.00"> </text>
<text text-anchor="start" x="4" y="-198" font-family="Helvetica,sans-Serif" font-size="10.00">+</text>
<text text-anchor="start" x="17" y="-198" font-family="Helvetica,sans-Serif" font-size="10.00">Update()</text>
<polygon fill="#666666" stroke="#666666" points="0,-223 0,-223 64,-223 64,-223 0,-223"/>
<polygon fill="#666666" stroke="#666666" points="0,-208 0,-208 64,-208 64,-208 0,-208"/>
<polygon fill="none" stroke="#666666" points="0,-191.5 0,-240.5 64,-240.5 64,-191.5 0,-191.5"/>
</a>
</g>
</g>
<!-- Node2&#45;&gt;Node1 -->
<g id="edge19_Node000001_Node000002" class="edge">
<title>Node2&#45;&gt;Node1</title>
<g id="a_edge19_Node000001_Node000002"><a xlink:title=" ">
<path fill="none" stroke="#63b8ff" d="M37.98,-181.56C43.57,-159.05 54.02,-130.11 73,-111 113.16,-70.56 177.03,-50.39 220.42,-40.83"/>
<polygon fill="none" stroke="#63b8ff" points="34.55,-180.86 35.74,-191.39 41.38,-182.42 34.55,-180.86"/>
</a>
</g>
</g>
<!-- Node3 -->
<g id="Node000003" class="node">
<title>Node3</title>
<g id="a_Node000003"><a xlink:href="$classgame_1_1service_1_1ServiceLocator.html" xlink:title=" ">
<polygon fill="white" stroke="transparent" points="234,-255.5 82,-255.5 82,-176.5 234,-176.5 234,-255.5"/>
<text text-anchor="start" x="87" y="-243" font-family="Helvetica,sans-Serif" font-size="10.00">game.service.ServiceLocator</text>
<text text-anchor="start" x="156" y="-228" font-family="Helvetica,sans-Serif" font-size="10.00"> </text>
<text text-anchor="start" x="90.5" y="-213" font-family="Helvetica,sans-Serif" font-size="10.00">+</text>
<text text-anchor="start" x="108" y="-213" font-family="Helvetica,sans-Serif" font-size="10.00">ServiceLocator()</text>
<text text-anchor="start" x="90.5" y="-198" font-family="Helvetica,sans-Serif" font-size="10.00">+</text>
<text text-anchor="start" x="108" y="-198" font-family="Helvetica,sans-Serif" font-size="10.00">GetService&lt; T &gt;()</text>
<text text-anchor="start" x="90.5" y="-183" font-family="Helvetica,sans-Serif" font-size="10.00">+</text>
<text text-anchor="start" x="108" y="-183" font-family="Helvetica,sans-Serif" font-size="10.00">RegisterService&lt; T &gt;()</text>
<polygon fill="#666666" stroke="#666666" points="82,-238 82,-238 234,-238 234,-238 82,-238"/>
<polygon fill="#666666" stroke="#666666" points="82,-223 82,-223 234,-223 234,-223 82,-223"/>
<polygon fill="none" stroke="#666666" points="82,-176.5 82,-255.5 234,-255.5 234,-176.5 82,-176.5"/>
</a>
</g>
</g>
<!-- Node3&#45;&gt;Node1 -->
<g id="edge20_Node000001_Node000003" class="edge">
<title>Node3&#45;&gt;Node1</title>
<g id="a_edge20_Node000001_Node000003"><a xlink:title=" ">
<path fill="none" stroke="#63b8ff" d="M155.85,-176.46C156.16,-147.97 160.74,-109.51 180,-82 187.54,-71.24 198.24,-62.55 209.57,-55.66"/>
<polygon fill="none" stroke="#63b8ff" points="209.59,-55.65 212.89,-49.24 220.08,-49.82 216.77,-56.23 209.59,-55.65"/>
</a>
</g>
<text text-anchor="middle" x="222" y="-85" font-family="Helvetica,sans-Serif" font-size="10.00" fill="grey"> &#45;_serviceLocator</text>
</g>
<!-- Node4 -->
<g id="Node000004" class="node">
<title>Node4</title>
<g id="a_Node000004"><a xlink:title=" ">
<polygon fill="white" stroke="transparent" points="224.5,-428 91.5,-428 91.5,-368 224.5,-368 224.5,-428"/>
<text text-anchor="start" x="97" y="-416" font-family="Helvetica,sans-Serif" font-size="10.00">IDictionary&lt; object,</text>
<text text-anchor="start" x="97" y="-405" font-family="Helvetica,sans-Serif" font-size="10.00"> game.service.IService &gt;</text>
<text text-anchor="start" x="156.5" y="-390" font-family="Helvetica,sans-Serif" font-size="10.00"> </text>
<text text-anchor="start" x="156.5" y="-375" font-family="Helvetica,sans-Serif" font-size="10.00"> </text>
<polygon fill="#666666" stroke="#666666" points="92,-400 92,-400 225,-400 225,-400 92,-400"/>
<polygon fill="#666666" stroke="#666666" points="92,-385 92,-385 225,-385 225,-385 92,-385"/>
<polygon fill="none" stroke="#666666" points="91.5,-368 91.5,-428 224.5,-428 224.5,-368 91.5,-368"/>
</a>
</g>
</g>
<!-- Node4&#45;&gt;Node3 -->
<g id="edge21_Node000003_Node000004" class="edge">
<title>Node4&#45;&gt;Node3</title>
<g id="a_edge21_Node000003_Node000004"><a xlink:title=" ">
<path fill="none" stroke="#63b8ff" d="M158,-367.68C158,-340.77 158,-300.31 158,-268.09"/>
<polygon fill="none" stroke="#63b8ff" points="158,-267.74 154,-261.74 158,-255.74 162,-261.74 158,-267.74"/>
</a>
</g>
<text text-anchor="middle" x="182" y="-342" font-family="Helvetica,sans-Serif" font-size="10.00" fill="grey"> &#45;services</text>
</g>
<!-- Node5 -->
<g id="Node000005" class="node">
<title>Node5</title>
<g id="a_Node000005"><a xlink:title=" ">
<polygon fill="white" stroke="transparent" points="284,-240.5 252,-240.5 252,-191.5 284,-191.5 284,-240.5"/>
<text text-anchor="start" x="257" y="-228" font-family="Helvetica,sans-Serif" font-size="10.00">float</text>
<text text-anchor="start" x="266" y="-213" font-family="Helvetica,sans-Serif" font-size="10.00"> </text>
<text text-anchor="start" x="266" y="-198" font-family="Helvetica,sans-Serif" font-size="10.00"> </text>
<polygon fill="#666666" stroke="#666666" points="252,-223 252,-223 284,-223 284,-223 252,-223"/>
<polygon fill="#666666" stroke="#666666" points="252,-208 252,-208 284,-208 284,-208 252,-208"/>
<polygon fill="none" stroke="#666666" points="252,-191.5 252,-240.5 284,-240.5 284,-191.5 252,-191.5"/>
</a>
</g>
</g>
<!-- Node5&#45;&gt;Node1 -->
<g id="edge22_Node000001_Node000005" class="edge">
<title>Node5&#45;&gt;Node1</title>
<g id="a_edge22_Node000001_Node000005"><a xlink:title=" ">
<path fill="none" stroke="#63b8ff" d="M267.87,-191.21C267.71,-162.07 267.44,-112.18 267.24,-76.2"/>
<polygon fill="none" stroke="#63b8ff" points="267.24,-76.11 263.2,-70.13 267.17,-64.11 271.2,-70.09 267.24,-76.11"/>
</a>
</g>
<text text-anchor="middle" x="302.5" y="-85" font-family="Helvetica,sans-Serif" font-size="10.00" fill="grey"> &#45;_gravitySum</text>
</g>
<!-- Node6 -->
<g id="Node000006" class="node">
<title>Node6</title>
<g id="a_Node000006"><a xlink:title=" ">
<polygon fill="white" stroke="transparent" points="370.5,-240.5 347.5,-240.5 347.5,-191.5 370.5,-191.5 370.5,-240.5"/>
<text text-anchor="start" x="353" y="-228" font-family="Helvetica,sans-Serif" font-size="10.00">int</text>
<text text-anchor="start" x="357.5" y="-213" font-family="Helvetica,sans-Serif" font-size="10.00"> </text>
<text text-anchor="start" x="357.5" y="-198" font-family="Helvetica,sans-Serif" font-size="10.00"> </text>
<polygon fill="#666666" stroke="#666666" points="348,-223 348,-223 371,-223 371,-223 348,-223"/>
<polygon fill="#666666" stroke="#666666" points="348,-208 348,-208 371,-208 371,-208 348,-208"/>
<polygon fill="none" stroke="#666666" points="347.5,-191.5 347.5,-240.5 370.5,-240.5 370.5,-191.5 347.5,-191.5"/>
</a>
</g>
</g>
<!-- Node6&#45;&gt;Node1 -->
<g id="edge23_Node000001_Node000006" class="edge">
<title>Node6&#45;&gt;Node1</title>
<g id="a_edge23_Node000001_Node000006"><a xlink:title=" ">
<path fill="none" stroke="#63b8ff" d="M360.4,-191.45C360.95,-163.27 358.2,-115.67 337,-82 333.2,-75.97 328.36,-70.48 323.01,-65.53"/>
<polygon fill="none" stroke="#63b8ff" points="322.84,-65.39 315.67,-64.64 313.6,-57.73 320.78,-58.48 322.84,-65.39"/>
</a>
</g>
<text text-anchor="middle" x="364" y="-85" font-family="Helvetica,sans-Serif" font-size="10.00" fill="grey"> &#45;frames</text>
</g>
<!-- Node7 -->
<g id="Node000007" class="node">
<title>Node7</title>
<g id="a_Node000007"><a xlink:href="$classgame_1_1logic_1_1tilespawner_1_1TileSpawnerService.html" xlink:title=" ">
<polygon fill="white" stroke="transparent" points="543,-321 389,-321 389,-111 543,-111 543,-321"/>
<text text-anchor="start" x="398.5" y="-309" font-family="Helvetica,sans-Serif" font-size="10.00">game.logic.tilespawner.Tile</text>
<text text-anchor="start" x="426.5" y="-298" font-family="Helvetica,sans-Serif" font-size="10.00">SpawnerService</text>
<text text-anchor="start" x="464" y="-283" font-family="Helvetica,sans-Serif" font-size="10.00"> </text>
<text text-anchor="start" x="393" y="-268" font-family="Helvetica,sans-Serif" font-size="10.00">+</text>
<text text-anchor="start" x="406" y="-268" font-family="Helvetica,sans-Serif" font-size="10.00">CreateTileShapeDelegate()</text>
<text text-anchor="start" x="393" y="-253" font-family="Helvetica,sans-Serif" font-size="10.00">+</text>
<text text-anchor="start" x="406" y="-253" font-family="Helvetica,sans-Serif" font-size="10.00">TileSpawnerService()</text>
<text text-anchor="start" x="393" y="-238" font-family="Helvetica,sans-Serif" font-size="10.00">+</text>
<text text-anchor="start" x="406" y="-238" font-family="Helvetica,sans-Serif" font-size="10.00">Spawn()</text>
<text text-anchor="start" x="395.5" y="-223" font-family="Helvetica,sans-Serif" font-size="10.00">&#45;</text>
<text text-anchor="start" x="406" y="-223" font-family="Helvetica,sans-Serif" font-size="10.00">Shuffle()</text>
<text text-anchor="start" x="395.5" y="-208" font-family="Helvetica,sans-Serif" font-size="10.00">&#45;</text>
<text text-anchor="start" x="406" y="-208" font-family="Helvetica,sans-Serif" font-size="10.00">SpawnIPiece()</text>
<text text-anchor="start" x="395.5" y="-193" font-family="Helvetica,sans-Serif" font-size="10.00">&#45;</text>
<text text-anchor="start" x="406" y="-193" font-family="Helvetica,sans-Serif" font-size="10.00">SpawnJPiece()</text>
<text text-anchor="start" x="395.5" y="-178" font-family="Helvetica,sans-Serif" font-size="10.00">&#45;</text>
<text text-anchor="start" x="406" y="-178" font-family="Helvetica,sans-Serif" font-size="10.00">SpawnLPiece()</text>
<text text-anchor="start" x="395.5" y="-163" font-family="Helvetica,sans-Serif" font-size="10.00">&#45;</text>
<text text-anchor="start" x="406" y="-163" font-family="Helvetica,sans-Serif" font-size="10.00">SpawnOPiece()</text>
<text text-anchor="start" x="395.5" y="-148" font-family="Helvetica,sans-Serif" font-size="10.00">&#45;</text>
<text text-anchor="start" x="406" y="-148" font-family="Helvetica,sans-Serif" font-size="10.00">SpawnSPiece()</text>
<text text-anchor="start" x="395.5" y="-133" font-family="Helvetica,sans-Serif" font-size="10.00">&#45;</text>
<text text-anchor="start" x="406" y="-133" font-family="Helvetica,sans-Serif" font-size="10.00">SpawnTPiece()</text>
<text text-anchor="start" x="395.5" y="-118" font-family="Helvetica,sans-Serif" font-size="10.00">&#45;</text>
<text text-anchor="start" x="406" y="-118" font-family="Helvetica,sans-Serif" font-size="10.00">SpawnZPiece()</text>
<polygon fill="#666666" stroke="#666666" points="389,-293 389,-293 543,-293 543,-293 389,-293"/>
<polygon fill="#666666" stroke="#666666" points="389,-278 389,-278 543,-278 543,-278 389,-278"/>
<polygon fill="none" stroke="#666666" points="389,-111 389,-321 543,-321 543,-111 389,-111"/>
</a>
</g>
</g>
<!-- Node7&#45;&gt;Node1 -->
<g id="edge24_Node000001_Node000007" class="edge">
<title>Node7&#45;&gt;Node1</title>
<g id="a_edge24_Node000001_Node000007"><a xlink:title=" ">
<path fill="none" stroke="#63b8ff" d="M415.28,-110.88C407.44,-100.3 398.68,-90.39 389,-82 370.79,-66.23 346.87,-55.13 325.03,-47.54"/>
<polygon fill="none" stroke="#63b8ff" points="324.91,-47.5 317.96,-49.44 313.5,-43.77 320.45,-41.83 324.91,-47.5"/>
</a>
</g>
<text text-anchor="middle" x="445" y="-85" font-family="Helvetica,sans-Serif" font-size="10.00" fill="grey"> +CreateTileShape</text>
</g>
<!-- Node8 -->
<g id="Node000008" class="node">
<title>Node8</title>
<g id="a_Node000008"><a xlink:href="$interfacegame_1_1service_1_1IService.html" xlink:title=" ">
<polygon fill="white" stroke="transparent" points="360,-422.5 310,-422.5 310,-373.5 360,-373.5 360,-422.5"/>
<text text-anchor="start" x="315" y="-410" font-family="Helvetica,sans-Serif" font-size="10.00">IService</text>
<text text-anchor="start" x="333" y="-395" font-family="Helvetica,sans-Serif" font-size="10.00"> </text>
<text text-anchor="start" x="333" y="-380" font-family="Helvetica,sans-Serif" font-size="10.00"> </text>
<polygon fill="#666666" stroke="#666666" points="310,-405 310,-405 360,-405 360,-405 310,-405"/>
<polygon fill="#666666" stroke="#666666" points="310,-390 310,-390 360,-390 360,-390 310,-390"/>
<polygon fill="none" stroke="#666666" points="310,-373.5 310,-422.5 360,-422.5 360,-373.5 310,-373.5"/>
</a>
</g>
</g>
<!-- Node8&#45;&gt;Node7 -->
<g id="edge25_Node000007_Node000008" class="edge">
<title>Node8&#45;&gt;Node7</title>
<g id="a_edge25_Node000007_Node000008"><a xlink:title=" ">
<path fill="none" stroke="#63b8ff" d="M358.17,-365.16C367.38,-352.51 378.54,-337.17 390.15,-321.23"/>
<polygon fill="none" stroke="#63b8ff" points="355.18,-363.32 352.13,-373.47 360.84,-367.44 355.18,-363.32"/>
</a>
</g>
</g>
<!-- Node9 -->
<g id="Node000009" class="node">
<title>Node9</title>
<g id="a_Node000009"><a xlink:title=" ">
<polygon fill="white" stroke="transparent" points="553.5,-422.5 378.5,-422.5 378.5,-373.5 553.5,-373.5 553.5,-422.5"/>
<text text-anchor="start" x="384" y="-410" font-family="Helvetica,sans-Serif" font-size="10.00">List&lt; CreateTileShapeDelegate &gt;</text>
<text text-anchor="start" x="464.5" y="-395" font-family="Helvetica,sans-Serif" font-size="10.00"> </text>
<text text-anchor="start" x="464.5" y="-380" font-family="Helvetica,sans-Serif" font-size="10.00"> </text>
<polygon fill="#666666" stroke="#666666" points="379,-405 379,-405 554,-405 554,-405 379,-405"/>
<polygon fill="#666666" stroke="#666666" points="379,-390 379,-390 554,-390 554,-390 379,-390"/>
<polygon fill="none" stroke="#666666" points="378.5,-373.5 378.5,-422.5 553.5,-422.5 553.5,-373.5 378.5,-373.5"/>
</a>
</g>
</g>
<!-- Node9&#45;&gt;Node7 -->
<g id="edge26_Node000007_Node000009" class="edge">
<title>Node9&#45;&gt;Node7</title>
<g id="a_edge26_Node000007_Node000009"><a xlink:title=" ">
<path fill="none" stroke="#63b8ff" d="M466,-373.47C466,-362.49 466,-348.53 466,-333.49"/>
<polygon fill="none" stroke="#63b8ff" points="466,-333.23 462,-327.23 466,-321.23 470,-327.23 466,-333.23"/>
</a>
</g>
<text text-anchor="middle" x="488" y="-342" font-family="Helvetica,sans-Serif" font-size="10.00" fill="grey"> &#45;_pieces</text>
</g>
<!-- Node10 -->
<g id="Node000010" class="node">
<title>Node10</title>
<g id="a_Node000010"><a xlink:title=" ">
<polygon fill="white" stroke="transparent" points="618.5,-422.5 571.5,-422.5 571.5,-373.5 618.5,-373.5 618.5,-422.5"/>
<text text-anchor="start" x="577" y="-410" font-family="Helvetica,sans-Serif" font-size="10.00">System</text>
<text text-anchor="start" x="593.5" y="-395" font-family="Helvetica,sans-Serif" font-size="10.00"> </text>
<text text-anchor="start" x="593.5" y="-380" font-family="Helvetica,sans-Serif" font-size="10.00"> </text>
<polygon fill="#666666" stroke="#666666" points="572,-405 572,-405 619,-405 619,-405 572,-405"/>
<polygon fill="#666666" stroke="#666666" points="572,-390 572,-390 619,-390 619,-390 572,-390"/>
<polygon fill="none" stroke="#666666" points="571.5,-373.5 571.5,-422.5 618.5,-422.5 618.5,-373.5 571.5,-373.5"/>
</a>
</g>
</g>
<!-- Node10&#45;&gt;Node7 -->
<g id="edge27_Node000007_Node000010" class="edge">
<title>Node10&#45;&gt;Node7</title>
<g id="a_edge27_Node000007_Node000010"><a xlink:title=" ">
<path fill="none" stroke="#63b8ff" d="M578.14,-373.47C569.88,-361.95 559.27,-347.14 547.88,-331.24"/>
<polygon fill="none" stroke="#63b8ff" points="547.69,-330.98 540.94,-328.43 540.7,-321.23 547.44,-323.77 547.69,-330.98"/>
</a>
</g>
<text text-anchor="middle" x="572.5" y="-342" font-family="Helvetica,sans-Serif" font-size="10.00" fill="grey"> &#45;rng</text>
</g>
</g>
</svg>
