<?xml version="1.0" encoding="UTF-8" standalone="no"?>
<!DOCTYPE svg PUBLIC "-//W3C//DTD SVG 1.1//EN"
 "http://www.w3.org/Graphics/SVG/1.1/DTD/svg11.dtd">
<!-- Generated by graphviz version 2.43.0 (0)
 -->
<!-- Title: GameInitialiser.Start Pages: 1 -->
<svg width="312pt" height="76pt"
 viewBox="0.00 0.00 312.00 75.50" xmlns="http://www.w3.org/2000/svg" xmlns:xlink="http://www.w3.org/1999/xlink">
<g id="graph0" class="graph" transform="scale(1 1) rotate(0) translate(4 71.5)">
<title>GameInitialiser.Start</title>
<!-- Node1 -->
<g id="Node000001" class="node">
<title>Node1</title>
<g id="a_Node000001"><a xlink:title=" ">
<polygon fill="#999999" stroke="#666666" points="117,-40 0,-40 0,-21 117,-21 117,-40"/>
<text text-anchor="middle" x="58.5" y="-28" font-family="Helvetica,sans-Serif" font-size="10.00">GameInitialiser.Start</text>
</a>
</g>
</g>
<!-- Node2 -->
<g id="Node000002" class="node">
<title>Node2</title>
<g id="a_Node000002"><a xlink:href="$classgamerunner_1_1Dispatcher.html#a9d1e1cfe69e5576b60156957e38c9177" xlink:title=" ">
<polygon fill="white" stroke="#666666" points="304,-67.5 153,-67.5 153,-37.5 304,-37.5 304,-67.5"/>
<text text-anchor="start" x="161" y="-55.5" font-family="Helvetica,sans-Serif" font-size="10.00">gamerunner.Dispatcher.add</text>
<text text-anchor="middle" x="228.5" y="-44.5" font-family="Helvetica,sans-Serif" font-size="10.00">Updatable</text>
</a>
</g>
</g>
<!-- Node1&#45;&gt;Node2 -->
<g id="edge5_Node000001_Node000002" class="edge">
<title>Node1&#45;&gt;Node2</title>
<g id="a_edge5_Node000001_Node000002"><a xlink:title=" ">
<path fill="none" stroke="#63b8ff" d="M117.32,-38.07C125.57,-39.15 134.2,-40.28 142.84,-41.41"/>
<polygon fill="#63b8ff" stroke="#63b8ff" points="142.59,-44.91 152.96,-42.74 143.5,-37.97 142.59,-44.91"/>
</a>
</g>
</g>
<!-- Node3 -->
<g id="Node000003" class="node">
<title>Node3</title>
<g id="a_Node000003"><a xlink:href="$classLoginButton.html#a1c96929dc9468a79eed79e00017b22e8" xlink:title=" ">
<polygon fill="white" stroke="#666666" points="277.5,-19 179.5,-19 179.5,0 277.5,0 277.5,-19"/>
<text text-anchor="middle" x="228.5" y="-7" font-family="Helvetica,sans-Serif" font-size="10.00">LoginButton.Link</text>
</a>
</g>
</g>
<!-- Node1&#45;&gt;Node3 -->
<g id="edge6_Node000001_Node000003" class="edge">
<title>Node1&#45;&gt;Node3</title>
<g id="a_edge6_Node000001_Node000003"><a xlink:title=" ">
<path fill="none" stroke="#63b8ff" d="M117.32,-23.27C134.06,-21.18 152.34,-18.89 169.12,-16.8"/>
<polygon fill="#63b8ff" stroke="#63b8ff" points="169.85,-20.23 179.34,-15.52 168.99,-13.29 169.85,-20.23"/>
</a>
</g>
</g>
</g>
</svg>
