<?xml version="1.0" encoding="UTF-8" standalone="no"?>
<!DOCTYPE svg PUBLIC "-//W3C//DTD SVG 1.1//EN"
 "http://www.w3.org/Graphics/SVG/1.1/DTD/svg11.dtd">
<!-- Generated by graphviz version 2.43.0 (0)
 -->
<!-- Title: game.logic.tile.Tile Pages: 1 -->
<svg width="112pt" height="142pt"
 viewBox="0.00 0.00 112.00 142.00" xmlns="http://www.w3.org/2000/svg" xmlns:xlink="http://www.w3.org/1999/xlink">
<g id="graph0" class="graph" transform="scale(1 1) rotate(0) translate(4 138)">
<title>game.logic.tile.Tile</title>
<!-- Node1 -->
<g id="Node000001" class="node">
<title>Node1</title>
<g id="a_Node000001"><a xlink:title=" ">
<polygon fill="#999999" stroke="transparent" points="104,-49 0,-49 0,0 104,0 104,-49"/>
<text text-anchor="start" x="5" y="-36.5" font-family="Helvetica,sans-Serif" font-size="10.00">game.logic.tile.Tile</text>
<text text-anchor="start" x="18" y="-21.5" font-family="Helvetica,sans-Serif" font-size="10.00">+</text>
<text text-anchor="start" x="45" y="-21.5" font-family="Helvetica,sans-Serif" font-size="10.00">Color</text>
<text text-anchor="start" x="18" y="-6.5" font-family="Helvetica,sans-Serif" font-size="10.00">+</text>
<text text-anchor="start" x="45" y="-6.5" font-family="Helvetica,sans-Serif" font-size="10.00">Tile()</text>
<polygon fill="#666666" stroke="#666666" points="0,-31.5 0,-31.5 104,-31.5 104,-31.5 0,-31.5"/>
<polygon fill="#666666" stroke="#666666" points="0,-16.5 0,-16.5 43,-16.5 43,-16.5 0,-16.5"/>
<polygon fill="#666666" stroke="#666666" points="43,-16.5 43,-16.5 104,-16.5 104,-16.5 43,-16.5"/>
<polygon fill="none" stroke="#666666" points="0,0 0,-49 104,-49 104,0 0,0"/>
</a>
</g>
</g>
<!-- Node2 -->
<g id="Node000002" class="node">
<title>Node2</title>
<g id="a_Node000002"><a xlink:href="$interfacegame_1_1logic_1_1tile_1_1ITileable.html" xlink:title=" ">
<polygon fill="white" stroke="transparent" points="78.5,-134 25.5,-134 25.5,-85 78.5,-85 78.5,-134"/>
<text text-anchor="start" x="31" y="-121.5" font-family="Helvetica,sans-Serif" font-size="10.00">ITileable</text>
<text text-anchor="start" x="31.5" y="-106.5" font-family="Helvetica,sans-Serif" font-size="10.00">+</text>
<text text-anchor="start" x="46" y="-106.5" font-family="Helvetica,sans-Serif" font-size="10.00">Color</text>
<text text-anchor="start" x="50.5" y="-91.5" font-family="Helvetica,sans-Serif" font-size="10.00"> </text>
<polygon fill="#666666" stroke="#666666" points="26,-116.5 26,-116.5 79,-116.5 79,-116.5 26,-116.5"/>
<polygon fill="#666666" stroke="#666666" points="26,-101.5 26,-101.5 44,-101.5 44,-101.5 26,-101.5"/>
<polygon fill="#666666" stroke="#666666" points="44,-101.5 44,-101.5 79,-101.5 79,-101.5 44,-101.5"/>
<polygon fill="none" stroke="#666666" points="25.5,-85 25.5,-134 78.5,-134 78.5,-85 25.5,-85"/>
</a>
</g>
</g>
<!-- Node2&#45;&gt;Node1 -->
<g id="edge3_Node000001_Node000002" class="edge">
<title>Node2&#45;&gt;Node1</title>
<g id="a_edge3_Node000001_Node000002"><a xlink:title=" ">
<path fill="none" stroke="#63b8ff" d="M52,-74.77C52,-66.17 52,-57.1 52,-49.12"/>
<polygon fill="none" stroke="#63b8ff" points="48.5,-74.94 52,-84.94 55.5,-74.94 48.5,-74.94"/>
</a>
</g>
</g>
</g>
</svg>
