<?xml version="1.0" encoding="UTF-8" standalone="no"?>
<!DOCTYPE svg PUBLIC "-//W3C//DTD SVG 1.1//EN"
 "http://www.w3.org/Graphics/SVG/1.1/DTD/svg11.dtd">
<!-- Generated by graphviz version 2.43.0 (0)
 -->
<!-- Title: game.logic.playfield.PlayField Pages: 1 -->
<svg width="186pt" height="190pt"
 viewBox="0.00 0.00 186.00 190.00" xmlns="http://www.w3.org/2000/svg" xmlns:xlink="http://www.w3.org/1999/xlink">
<g id="graph0" class="graph" transform="scale(1 1) rotate(0) translate(4 186)">
<title>game.logic.playfield.PlayField</title>
<!-- Node1 -->
<g id="Node000001" class="node">
<title>Node1</title>
<g id="a_Node000001"><a xlink:title=" ">
<polygon fill="#999999" stroke="transparent" points="134,-75 0,-75 0,0 134,0 134,-75"/>
<text text-anchor="start" x="5" y="-62.5" font-family="Helvetica,sans-Serif" font-size="10.00">game.logic.playfield.Play</text>
<text text-anchor="start" x="55" y="-51.5" font-family="Helvetica,sans-Serif" font-size="10.00">Field</text>
<text text-anchor="start" x="24" y="-36.5" font-family="Helvetica,sans-Serif" font-size="10.00">+</text>
<text text-anchor="start" x="57" y="-36.5" font-family="Helvetica,sans-Serif" font-size="10.00">Width</text>
<text text-anchor="start" x="24" y="-21.5" font-family="Helvetica,sans-Serif" font-size="10.00">+</text>
<text text-anchor="start" x="57" y="-21.5" font-family="Helvetica,sans-Serif" font-size="10.00">Height</text>
<text text-anchor="start" x="65" y="-6.5" font-family="Helvetica,sans-Serif" font-size="10.00"> </text>
<polygon fill="#666666" stroke="#666666" points="0,-46.5 0,-46.5 134,-46.5 134,-46.5 0,-46.5"/>
<polygon fill="#666666" stroke="#666666" points="0,-16.5 0,-16.5 55,-16.5 55,-16.5 0,-16.5"/>
<polygon fill="#666666" stroke="#666666" points="55,-16.5 55,-16.5 134,-16.5 134,-16.5 55,-16.5"/>
<polygon fill="none" stroke="#666666" points="0,0 0,-75 134,-75 134,0 0,0"/>
</a>
</g>
</g>
<!-- Node2 -->
<g id="Node000002" class="node">
<title>Node2</title>
<g id="a_Node000002"><a xlink:title=" ">
<polygon fill="white" stroke="transparent" points="31.5,-182 8.5,-182 8.5,-133 31.5,-133 31.5,-182"/>
<text text-anchor="start" x="14" y="-169.5" font-family="Helvetica,sans-Serif" font-size="10.00">int</text>
<text text-anchor="start" x="18.5" y="-154.5" font-family="Helvetica,sans-Serif" font-size="10.00"> </text>
<text text-anchor="start" x="18.5" y="-139.5" font-family="Helvetica,sans-Serif" font-size="10.00"> </text>
<polygon fill="#666666" stroke="#666666" points="9,-164.5 9,-164.5 32,-164.5 32,-164.5 9,-164.5"/>
<polygon fill="#666666" stroke="#666666" points="9,-149.5 9,-149.5 32,-149.5 32,-149.5 9,-149.5"/>
<polygon fill="none" stroke="#666666" points="8.5,-133 8.5,-182 31.5,-182 31.5,-133 8.5,-133"/>
</a>
</g>
</g>
<!-- Node2&#45;&gt;Node1 -->
<g id="edge5_Node000001_Node000002" class="edge">
<title>Node2&#45;&gt;Node1</title>
<g id="a_edge5_Node000001_Node000002"><a xlink:title=" ">
<path fill="none" stroke="#63b8ff" d="M20.73,-132.91C21.75,-120.66 24.03,-105.64 29,-93 29.98,-90.51 31.09,-88.03 32.3,-85.57"/>
<polygon fill="none" stroke="#63b8ff" points="32.35,-85.5 31.77,-78.31 38.18,-75.01 38.76,-82.19 32.35,-85.5"/>
</a>
</g>
<text text-anchor="middle" x="60.5" y="-107" font-family="Helvetica,sans-Serif" font-size="10.00" fill="grey"> &#45;FieldHeight</text>
<text text-anchor="middle" x="60.5" y="-96" font-family="Helvetica,sans-Serif" font-size="10.00" fill="grey">&#45;FieldWidth</text>
</g>
<!-- Node3 -->
<g id="Node000003" class="node">
<title>Node3</title>
<g id="a_Node000003"><a xlink:href="$interfacegame_1_1logic_1_1tile_1_1ITileable.html" xlink:title=" ">
<polygon fill="white" stroke="transparent" points="178,-182 50,-182 50,-133 178,-133 178,-182"/>
<text text-anchor="start" x="55" y="-169.5" font-family="Helvetica,sans-Serif" font-size="10.00">game.logic.tile.ITileable</text>
<text text-anchor="start" x="74" y="-154.5" font-family="Helvetica,sans-Serif" font-size="10.00">+</text>
<text text-anchor="start" x="107" y="-154.5" font-family="Helvetica,sans-Serif" font-size="10.00">Color</text>
<text text-anchor="start" x="112" y="-139.5" font-family="Helvetica,sans-Serif" font-size="10.00"> </text>
<polygon fill="#666666" stroke="#666666" points="50,-164.5 50,-164.5 178,-164.5 178,-164.5 50,-164.5"/>
<polygon fill="#666666" stroke="#666666" points="50,-149.5 50,-149.5 105,-149.5 105,-149.5 50,-149.5"/>
<polygon fill="#666666" stroke="#666666" points="105,-149.5 105,-149.5 178,-149.5 178,-149.5 105,-149.5"/>
<polygon fill="none" stroke="#666666" points="50,-133 50,-182 178,-182 178,-133 50,-133"/>
</a>
</g>
</g>
<!-- Node3&#45;&gt;Node1 -->
<g id="edge6_Node000001_Node000003" class="edge">
<title>Node3&#45;&gt;Node1</title>
<g id="a_edge6_Node000001_Node000003"><a xlink:title=" ">
<path fill="none" stroke="#63b8ff" d="M106.39,-132.78C102.38,-120.76 97.22,-105.99 92,-93 91.13,-90.83 90.21,-88.61 89.28,-86.39"/>
<polygon fill="none" stroke="#63b8ff" points="89.21,-86.24 83.15,-82.33 84.43,-75.23 90.49,-79.14 89.21,-86.24"/>
</a>
</g>
<text text-anchor="middle" x="116.5" y="-101.5" font-family="Helvetica,sans-Serif" font-size="10.00" fill="grey"> +Field</text>
</g>
</g>
</svg>
