<?xml version="1.0" encoding="UTF-8" standalone="no"?>
<!DOCTYPE svg PUBLIC "-//W3C//DTD SVG 1.1//EN"
 "http://www.w3.org/Graphics/SVG/1.1/DTD/svg11.dtd">
<!-- Generated by graphviz version 2.43.0 (0)
 -->
<!-- Title: game.logic.tilespawner.OPiece Pages: 1 -->
<svg width="169pt" height="142pt"
 viewBox="0.00 0.00 169.00 142.00" xmlns="http://www.w3.org/2000/svg" xmlns:xlink="http://www.w3.org/1999/xlink">
<g id="graph0" class="graph" transform="scale(1 1) rotate(0) translate(4 138)">
<title>game.logic.tilespawner.OPiece</title>
<!-- Node1 -->
<g id="Node000001" class="node">
<title>Node1</title>
<g id="a_Node000001"><a xlink:title=" ">
<polygon fill="#999999" stroke="transparent" points="161,-49 0,-49 0,0 161,0 161,-49"/>
<text text-anchor="start" x="5.5" y="-36.5" font-family="Helvetica,sans-Serif" font-size="10.00">game.logic.tilespawner.OPiece</text>
<text text-anchor="start" x="79" y="-21.5" font-family="Helvetica,sans-Serif" font-size="10.00"> </text>
<text text-anchor="start" x="29.5" y="-6.5" font-family="Helvetica,sans-Serif" font-size="10.00">+</text>
<text text-anchor="start" x="67.5" y="-6.5" font-family="Helvetica,sans-Serif" font-size="10.00">Spawn()</text>
<polygon fill="#666666" stroke="#666666" points="0.5,-31.5 0.5,-31.5 161.5,-31.5 161.5,-31.5 0.5,-31.5"/>
<polygon fill="#666666" stroke="#666666" points="0.5,-16.5 0.5,-16.5 161.5,-16.5 161.5,-16.5 0.5,-16.5"/>
<polygon fill="none" stroke="#666666" points="0,0 0,-49 161,-49 161,0 0,0"/>
</a>
</g>
</g>
<!-- Node2 -->
<g id="Node000002" class="node">
<title>Node2</title>
<g id="a_Node000002"><a xlink:href="$interfacegame_1_1logic_1_1tilespawner_1_1ISpawnable.html" xlink:title=" ">
<polygon fill="white" stroke="transparent" points="114,-134 47,-134 47,-85 114,-85 114,-134"/>
<text text-anchor="start" x="52.5" y="-121.5" font-family="Helvetica,sans-Serif" font-size="10.00">ISpawnable</text>
<text text-anchor="start" x="79" y="-106.5" font-family="Helvetica,sans-Serif" font-size="10.00"> </text>
<text text-anchor="start" x="53" y="-91.5" font-family="Helvetica,sans-Serif" font-size="10.00">+</text>
<text text-anchor="start" x="67.5" y="-91.5" font-family="Helvetica,sans-Serif" font-size="10.00">Spawn()</text>
<polygon fill="#666666" stroke="#666666" points="47.5,-116.5 47.5,-116.5 114.5,-116.5 114.5,-116.5 47.5,-116.5"/>
<polygon fill="#666666" stroke="#666666" points="47.5,-101.5 47.5,-101.5 114.5,-101.5 114.5,-101.5 47.5,-101.5"/>
<polygon fill="none" stroke="#666666" points="47,-85 47,-134 114,-134 114,-85 47,-85"/>
</a>
</g>
</g>
<!-- Node2&#45;&gt;Node1 -->
<g id="edge3_Node000001_Node000002" class="edge">
<title>Node2&#45;&gt;Node1</title>
<g id="a_edge3_Node000001_Node000002"><a xlink:title=" ">
<path fill="none" stroke="#63b8ff" d="M80.5,-74.77C80.5,-66.17 80.5,-57.1 80.5,-49.12"/>
<polygon fill="none" stroke="#63b8ff" points="77,-74.94 80.5,-84.94 84,-74.94 77,-74.94"/>
</a>
</g>
</g>
</g>
</svg>
