<?xml version="1.0" encoding="UTF-8" standalone="no"?>
<!DOCTYPE svg PUBLIC "-//W3C//DTD SVG 1.1//EN"
 "http://www.w3.org/Graphics/SVG/1.1/DTD/svg11.dtd">
<!-- Generated by graphviz version 2.43.0 (0)
 -->
<!-- Title: LoginButton.OnClick Pages: 1 -->
<svg width="324pt" height="86pt"
 viewBox="0.00 0.00 324.00 86.00" xmlns="http://www.w3.org/2000/svg" xmlns:xlink="http://www.w3.org/1999/xlink">
<g id="graph0" class="graph" transform="scale(1 1) rotate(0) translate(4 82)">
<title>LoginButton.OnClick</title>
<!-- Node1 -->
<g id="Node000001" class="node">
<title>Node1</title>
<g id="a_Node000001"><a xlink:title=" ">
<polygon fill="#999999" stroke="#666666" points="116,-48.5 0,-48.5 0,-29.5 116,-29.5 116,-48.5"/>
<text text-anchor="middle" x="58" y="-36.5" font-family="Helvetica,sans-Serif" font-size="10.00">LoginButton.OnClick</text>
</a>
</g>
</g>
<!-- Node2 -->
<g id="Node000002" class="node">
<title>Node2</title>
<g id="a_Node000002"><a xlink:href="$classgame_1_1logic_1_1EventQueue_1_1EventQueue.html#a47b03d45a78dd2897b1edffa85e3c1f0" xlink:title=" ">
<polygon fill="white" stroke="#666666" points="316,-78 152,-78 152,-48 316,-48 316,-78"/>
<text text-anchor="start" x="160" y="-66" font-family="Helvetica,sans-Serif" font-size="10.00">game.logic.EventQueue.Event</text>
<text text-anchor="middle" x="234" y="-55" font-family="Helvetica,sans-Serif" font-size="10.00">Queue.Enqueue</text>
</a>
</g>
</g>
<!-- Node1&#45;&gt;Node2 -->
<g id="edge5_Node000001_Node000002" class="edge">
<title>Node1&#45;&gt;Node2</title>
<g id="a_edge5_Node000001_Node000002"><a xlink:title=" ">
<path fill="none" stroke="#63b8ff" d="M116.46,-46.93C124.64,-48.05 133.22,-49.24 141.85,-50.43"/>
<polygon fill="#63b8ff" stroke="#63b8ff" points="141.6,-53.93 151.99,-51.83 142.56,-46.99 141.6,-53.93"/>
</a>
</g>
</g>
<!-- Node3 -->
<g id="Node000003" class="node">
<title>Node3</title>
<g id="a_Node000003"><a xlink:href="$classnetwork_1_1user_1_1UserService.html#ac4ef94bbb341b2f32a63ca022042f29d" xlink:title=" ">
<polygon fill="white" stroke="#666666" points="306,-30 162,-30 162,0 306,0 306,-30"/>
<text text-anchor="start" x="170" y="-18" font-family="Helvetica,sans-Serif" font-size="10.00">network.user.UserService.</text>
<text text-anchor="middle" x="234" y="-7" font-family="Helvetica,sans-Serif" font-size="10.00">GetUserName</text>
</a>
</g>
</g>
<!-- Node1&#45;&gt;Node3 -->
<g id="edge6_Node000001_Node000003" class="edge">
<title>Node1&#45;&gt;Node3</title>
<g id="a_edge6_Node000001_Node000003"><a xlink:title=" ">
<path fill="none" stroke="#63b8ff" d="M116.46,-31.07C127.82,-29.51 139.96,-27.83 151.94,-26.18"/>
<polygon fill="#63b8ff" stroke="#63b8ff" points="152.52,-29.63 161.95,-24.8 151.56,-22.7 152.52,-29.63"/>
</a>
</g>
</g>
</g>
</svg>
