<?xml version="1.0" encoding="UTF-8" standalone="no"?>
<!DOCTYPE svg PUBLIC "-//W3C//DTD SVG 1.1//EN"
 "http://www.w3.org/Graphics/SVG/1.1/DTD/svg11.dtd">
<!-- Generated by graphviz version 2.43.0 (0)
 -->
<!-- Title: game.service.IService Pages: 1 -->
<svg width="500pt" height="433pt"
 viewBox="0.00 0.00 500.00 433.00" xmlns="http://www.w3.org/2000/svg" xmlns:xlink="http://www.w3.org/1999/xlink">
<g id="graph0" class="graph" transform="scale(1 1) rotate(0) translate(4 429)">
<title>game.service.IService</title>
<!-- Node1 -->
<g id="Node000001" class="node">
<title>Node1</title>
<g id="a_Node000001"><a xlink:title=" ">
<polygon fill="#999999" stroke="transparent" points="307.5,-425 188.5,-425 188.5,-376 307.5,-376 307.5,-425"/>
<text text-anchor="start" x="194" y="-412.5" font-family="Helvetica,sans-Serif" font-size="10.00">game.service.IService</text>
<text text-anchor="start" x="246.5" y="-397.5" font-family="Helvetica,sans-Serif" font-size="10.00"> </text>
<text text-anchor="start" x="246.5" y="-382.5" font-family="Helvetica,sans-Serif" font-size="10.00"> </text>
<polygon fill="#666666" stroke="#666666" points="189,-407.5 189,-407.5 308,-407.5 308,-407.5 189,-407.5"/>
<polygon fill="#666666" stroke="#666666" points="189,-392.5 189,-392.5 308,-392.5 308,-392.5 189,-392.5"/>
<polygon fill="none" stroke="#666666" points="188.5,-376 188.5,-425 307.5,-425 307.5,-376 188.5,-376"/>
</a>
</g>
</g>
<!-- Node2 -->
<g id="Node000002" class="node">
<title>Node2</title>
<g id="a_Node000002"><a xlink:href="$classgame_1_1logic_1_1EventQueue_1_1EventQueue.html" xlink:title=" ">
<polygon fill="white" stroke="transparent" points="158,-280 0,-280 0,-175 158,-175 158,-280"/>
<text text-anchor="start" x="5" y="-267.5" font-family="Helvetica,sans-Serif" font-size="10.00">game.logic.EventQueue.Event</text>
<text text-anchor="start" x="63" y="-256.5" font-family="Helvetica,sans-Serif" font-size="10.00">Queue</text>
<text text-anchor="start" x="24" y="-241.5" font-family="Helvetica,sans-Serif" font-size="10.00">&#45;</text>
<text text-anchor="start" x="52" y="-241.5" font-family="Helvetica,sans-Serif" font-size="10.00">_queues</text>
<text text-anchor="start" x="21.5" y="-226.5" font-family="Helvetica,sans-Serif" font-size="10.00">+</text>
<text text-anchor="start" x="52" y="-226.5" font-family="Helvetica,sans-Serif" font-size="10.00">EventQueue()</text>
<text text-anchor="start" x="21.5" y="-211.5" font-family="Helvetica,sans-Serif" font-size="10.00">+</text>
<text text-anchor="start" x="52" y="-211.5" font-family="Helvetica,sans-Serif" font-size="10.00">Enqueue()</text>
<text text-anchor="start" x="21.5" y="-196.5" font-family="Helvetica,sans-Serif" font-size="10.00">+</text>
<text text-anchor="start" x="52" y="-196.5" font-family="Helvetica,sans-Serif" font-size="10.00">HasEvent()</text>
<text text-anchor="start" x="21.5" y="-181.5" font-family="Helvetica,sans-Serif" font-size="10.00">+</text>
<text text-anchor="start" x="52" y="-181.5" font-family="Helvetica,sans-Serif" font-size="10.00">Dequeue()</text>
<polygon fill="#666666" stroke="#666666" points="0,-251.5 0,-251.5 158,-251.5 158,-251.5 0,-251.5"/>
<polygon fill="#666666" stroke="#666666" points="0,-236.5 0,-236.5 50,-236.5 50,-236.5 0,-236.5"/>
<polygon fill="#666666" stroke="#666666" points="50,-236.5 50,-236.5 158,-236.5 158,-236.5 50,-236.5"/>
<polygon fill="none" stroke="#666666" points="0,-175 0,-280 158,-280 158,-175 0,-175"/>
</a>
</g>
</g>
<!-- Node1&#45;&gt;Node2 -->
<g id="edge9_Node000001_Node000002" class="edge">
<title>Node1&#45;&gt;Node2</title>
<g id="a_edge9_Node000001_Node000002"><a xlink:title=" ">
<path fill="none" stroke="#63b8ff" d="M203.91,-369.86C191.76,-360.87 178.92,-350.56 168,-340 149.3,-321.93 130.97,-299.92 115.85,-280.25"/>
<polygon fill="none" stroke="#63b8ff" points="202.03,-372.82 212.18,-375.86 206.14,-367.15 202.03,-372.82"/>
</a>
</g>
</g>
<!-- Node3 -->
<g id="Node000003" class="node">
<title>Node3</title>
<g id="a_Node000003"><a xlink:href="$interfacegame_1_1logic_1_1IGravityService.html" xlink:title=" ">
<polygon fill="white" stroke="transparent" points="319.5,-252 176.5,-252 176.5,-203 319.5,-203 319.5,-252"/>
<text text-anchor="start" x="182" y="-239.5" font-family="Helvetica,sans-Serif" font-size="10.00">game.logic.IGravityService</text>
<text text-anchor="start" x="193" y="-224.5" font-family="Helvetica,sans-Serif" font-size="10.00">+</text>
<text text-anchor="start" x="218" y="-224.5" font-family="Helvetica,sans-Serif" font-size="10.00">CurrentGravity</text>
<text text-anchor="start" x="246.5" y="-209.5" font-family="Helvetica,sans-Serif" font-size="10.00"> </text>
<polygon fill="#666666" stroke="#666666" points="177,-234.5 177,-234.5 320,-234.5 320,-234.5 177,-234.5"/>
<polygon fill="#666666" stroke="#666666" points="177,-219.5 177,-219.5 216,-219.5 216,-219.5 177,-219.5"/>
<polygon fill="#666666" stroke="#666666" points="216,-219.5 216,-219.5 320,-219.5 320,-219.5 216,-219.5"/>
<polygon fill="none" stroke="#666666" points="176.5,-203 176.5,-252 319.5,-252 319.5,-203 176.5,-203"/>
</a>
</g>
</g>
<!-- Node1&#45;&gt;Node3 -->
<g id="edge10_Node000001_Node000003" class="edge">
<title>Node1&#45;&gt;Node3</title>
<g id="a_edge10_Node000001_Node000003"><a xlink:title=" ">
<path fill="none" stroke="#63b8ff" d="M248,-365.46C248,-331.89 248,-281.46 248,-252.07"/>
<polygon fill="none" stroke="#63b8ff" points="244.5,-365.72 248,-375.72 251.5,-365.72 244.5,-365.72"/>
</a>
</g>
</g>
<!-- Node5 -->
<g id="Node000005" class="node">
<title>Node5</title>
<g id="a_Node000005"><a xlink:href="$classgame_1_1logic_1_1tilespawner_1_1TileSpawnerService.html" xlink:title=" ">
<polygon fill="white" stroke="transparent" points="492,-340 338,-340 338,-115 492,-115 492,-340"/>
<text text-anchor="start" x="347.5" y="-327.5" font-family="Helvetica,sans-Serif" font-size="10.00">game.logic.tilespawner.Tile</text>
<text text-anchor="start" x="375.5" y="-316.5" font-family="Helvetica,sans-Serif" font-size="10.00">SpawnerService</text>
<text text-anchor="start" x="344.5" y="-301.5" font-family="Helvetica,sans-Serif" font-size="10.00">&#45;</text>
<text text-anchor="start" x="355" y="-301.5" font-family="Helvetica,sans-Serif" font-size="10.00">_pieces</text>
<text text-anchor="start" x="344.5" y="-286.5" font-family="Helvetica,sans-Serif" font-size="10.00">&#45;</text>
<text text-anchor="start" x="355" y="-286.5" font-family="Helvetica,sans-Serif" font-size="10.00">rng</text>
<text text-anchor="start" x="342" y="-271.5" font-family="Helvetica,sans-Serif" font-size="10.00">+</text>
<text text-anchor="start" x="355" y="-271.5" font-family="Helvetica,sans-Serif" font-size="10.00">CreateTileShapeDelegate()</text>
<text text-anchor="start" x="342" y="-256.5" font-family="Helvetica,sans-Serif" font-size="10.00">+</text>
<text text-anchor="start" x="355" y="-256.5" font-family="Helvetica,sans-Serif" font-size="10.00">TileSpawnerService()</text>
<text text-anchor="start" x="342" y="-241.5" font-family="Helvetica,sans-Serif" font-size="10.00">+</text>
<text text-anchor="start" x="355" y="-241.5" font-family="Helvetica,sans-Serif" font-size="10.00">Spawn()</text>
<text text-anchor="start" x="344.5" y="-226.5" font-family="Helvetica,sans-Serif" font-size="10.00">&#45;</text>
<text text-anchor="start" x="355" y="-226.5" font-family="Helvetica,sans-Serif" font-size="10.00">Shuffle()</text>
<text text-anchor="start" x="344.5" y="-211.5" font-family="Helvetica,sans-Serif" font-size="10.00">&#45;</text>
<text text-anchor="start" x="355" y="-211.5" font-family="Helvetica,sans-Serif" font-size="10.00">SpawnIPiece()</text>
<text text-anchor="start" x="344.5" y="-196.5" font-family="Helvetica,sans-Serif" font-size="10.00">&#45;</text>
<text text-anchor="start" x="355" y="-196.5" font-family="Helvetica,sans-Serif" font-size="10.00">SpawnJPiece()</text>
<text text-anchor="start" x="344.5" y="-181.5" font-family="Helvetica,sans-Serif" font-size="10.00">&#45;</text>
<text text-anchor="start" x="355" y="-181.5" font-family="Helvetica,sans-Serif" font-size="10.00">SpawnLPiece()</text>
<text text-anchor="start" x="344.5" y="-166.5" font-family="Helvetica,sans-Serif" font-size="10.00">&#45;</text>
<text text-anchor="start" x="355" y="-166.5" font-family="Helvetica,sans-Serif" font-size="10.00">SpawnOPiece()</text>
<text text-anchor="start" x="344.5" y="-151.5" font-family="Helvetica,sans-Serif" font-size="10.00">&#45;</text>
<text text-anchor="start" x="355" y="-151.5" font-family="Helvetica,sans-Serif" font-size="10.00">SpawnSPiece()</text>
<text text-anchor="start" x="344.5" y="-136.5" font-family="Helvetica,sans-Serif" font-size="10.00">&#45;</text>
<text text-anchor="start" x="355" y="-136.5" font-family="Helvetica,sans-Serif" font-size="10.00">SpawnTPiece()</text>
<text text-anchor="start" x="344.5" y="-121.5" font-family="Helvetica,sans-Serif" font-size="10.00">&#45;</text>
<text text-anchor="start" x="355" y="-121.5" font-family="Helvetica,sans-Serif" font-size="10.00">SpawnZPiece()</text>
<polygon fill="#666666" stroke="#666666" points="338,-311.5 338,-311.5 492,-311.5 492,-311.5 338,-311.5"/>
<polygon fill="#666666" stroke="#666666" points="338,-281.5 338,-281.5 353,-281.5 353,-281.5 338,-281.5"/>
<polygon fill="#666666" stroke="#666666" points="353,-281.5 353,-281.5 492,-281.5 492,-281.5 353,-281.5"/>
<polygon fill="none" stroke="#666666" points="338,-115 338,-340 492,-340 492,-115 338,-115"/>
</a>
</g>
</g>
<!-- Node1&#45;&gt;Node5 -->
<g id="edge12_Node000001_Node000005" class="edge">
<title>Node1&#45;&gt;Node5</title>
<g id="a_edge12_Node000001_Node000005"><a xlink:title=" ">
<path fill="none" stroke="#63b8ff" d="M293.12,-369.79C305.33,-360.86 318.15,-350.6 329,-340 331.97,-337.1 334.93,-334.09 337.86,-331"/>
<polygon fill="none" stroke="#63b8ff" points="290.9,-367.08 284.8,-375.75 294.97,-372.77 290.9,-367.08"/>
</a>
</g>
</g>
<!-- Node4 -->
<g id="Node000004" class="node">
<title>Node4</title>
<g id="a_Node000004"><a xlink:href="$classgame_1_1logic_1_1GravityService.html" xlink:title=" ">
<polygon fill="white" stroke="transparent" points="318,-79 178,-79 178,0 318,0 318,-79"/>
<text text-anchor="start" x="183" y="-66.5" font-family="Helvetica,sans-Serif" font-size="10.00">game.logic.GravityService</text>
<text text-anchor="start" x="191" y="-51.5" font-family="Helvetica,sans-Serif" font-size="10.00">+</text>
<text text-anchor="start" x="213" y="-51.5" font-family="Helvetica,sans-Serif" font-size="10.00">CurrentGravity</text>
<text text-anchor="start" x="193.5" y="-36.5" font-family="Helvetica,sans-Serif" font-size="10.00">&#45;</text>
<text text-anchor="start" x="213" y="-36.5" font-family="Helvetica,sans-Serif" font-size="10.00">_gravityStrategy</text>
<text text-anchor="start" x="191" y="-21.5" font-family="Helvetica,sans-Serif" font-size="10.00">+</text>
<text text-anchor="start" x="213" y="-21.5" font-family="Helvetica,sans-Serif" font-size="10.00">GravityService()</text>
<text text-anchor="start" x="191" y="-6.5" font-family="Helvetica,sans-Serif" font-size="10.00">+</text>
<text text-anchor="start" x="213" y="-6.5" font-family="Helvetica,sans-Serif" font-size="10.00">Update()</text>
<polygon fill="#666666" stroke="#666666" points="178,-61.5 178,-61.5 318,-61.5 318,-61.5 178,-61.5"/>
<polygon fill="#666666" stroke="#666666" points="178,-31.5 178,-31.5 211,-31.5 211,-31.5 178,-31.5"/>
<polygon fill="#666666" stroke="#666666" points="211,-31.5 211,-31.5 318,-31.5 318,-31.5 211,-31.5"/>
<polygon fill="none" stroke="#666666" points="178,0 178,-79 318,-79 318,0 178,0"/>
</a>
</g>
</g>
<!-- Node3&#45;&gt;Node4 -->
<g id="edge11_Node000003_Node000004" class="edge">
<title>Node3&#45;&gt;Node4</title>
<g id="a_edge11_Node000003_Node000004"><a xlink:title=" ">
<path fill="none" stroke="#63b8ff" d="M248,-192.74C248,-160.7 248,-112.58 248,-79.05"/>
<polygon fill="none" stroke="#63b8ff" points="244.5,-192.94 248,-202.94 251.5,-192.94 244.5,-192.94"/>
</a>
</g>
</g>
</g>
</svg>
