<?xml version="1.0" encoding="UTF-8" standalone="no"?>
<!DOCTYPE svg PUBLIC "-//W3C//DTD SVG 1.1//EN"
 "http://www.w3.org/Graphics/SVG/1.1/DTD/svg11.dtd">
<!-- Generated by graphviz version 2.43.0 (0)
 -->
<!-- Title: game.logic.EventQueue.IEvent Pages: 1 -->
<svg width="340pt" height="198pt"
 viewBox="0.00 0.00 340.00 198.00" xmlns="http://www.w3.org/2000/svg" xmlns:xlink="http://www.w3.org/1999/xlink">
<g id="graph0" class="graph" transform="scale(1 1) rotate(0) translate(4 194)">
<title>game.logic.EventQueue.IEvent</title>
<!-- Node1 -->
<g id="Node000001" class="node">
<title>Node1</title>
<g id="a_Node000001"><a xlink:title=" ">
<polygon fill="#999999" stroke="transparent" points="248.5,-190 87.5,-190 87.5,-126 248.5,-126 248.5,-190"/>
<text text-anchor="start" x="93" y="-178" font-family="Helvetica,sans-Serif" font-size="10.00">game.logic.EventQueue.IEvent</text>
<text text-anchor="start" x="118.5" y="-163" font-family="Helvetica,sans-Serif" font-size="10.00">+</text>
<text text-anchor="start" x="158" y="-163" font-family="Helvetica,sans-Serif" font-size="10.00">Id</text>
<text text-anchor="start" x="118.5" y="-148" font-family="Helvetica,sans-Serif" font-size="10.00">+</text>
<text text-anchor="start" x="158" y="-148" font-family="Helvetica,sans-Serif" font-size="10.00">Source</text>
<text text-anchor="start" x="166.5" y="-133" font-family="Helvetica,sans-Serif" font-size="10.00"> </text>
<polygon fill="#666666" stroke="#666666" points="88,-173 88,-173 249,-173 249,-173 88,-173"/>
<polygon fill="#666666" stroke="#666666" points="88,-143 88,-143 156,-143 156,-143 88,-143"/>
<polygon fill="#666666" stroke="#666666" points="156,-143 156,-143 249,-143 249,-143 156,-143"/>
<polygon fill="none" stroke="#666666" points="87.5,-126 87.5,-190 248.5,-190 248.5,-126 87.5,-126"/>
</a>
</g>
</g>
<!-- Node2 -->
<g id="Node000002" class="node">
<title>Node2</title>
<g id="a_Node000002"><a xlink:href="$classgame_1_1logic_1_1EventQueue_1_1SpawnTileEvent.html" xlink:title=" ">
<polygon fill="white" stroke="transparent" points="162,-90 0,-90 0,0 162,0 162,-90"/>
<text text-anchor="start" x="5" y="-78" font-family="Helvetica,sans-Serif" font-size="10.00">game.logic.EventQueue.Spawn</text>
<text text-anchor="start" x="58" y="-67" font-family="Helvetica,sans-Serif" font-size="10.00">TileEvent</text>
<text text-anchor="start" x="8" y="-52" font-family="Helvetica,sans-Serif" font-size="10.00">+</text>
<text text-anchor="start" x="25" y="-52" font-family="Helvetica,sans-Serif" font-size="10.00">CreateTileShapeDelegate</text>
<text text-anchor="start" x="8" y="-37" font-family="Helvetica,sans-Serif" font-size="10.00">+</text>
<text text-anchor="start" x="25" y="-37" font-family="Helvetica,sans-Serif" font-size="10.00">Id</text>
<text text-anchor="start" x="8" y="-22" font-family="Helvetica,sans-Serif" font-size="10.00">+</text>
<text text-anchor="start" x="25" y="-22" font-family="Helvetica,sans-Serif" font-size="10.00">Source</text>
<text text-anchor="start" x="8" y="-7" font-family="Helvetica,sans-Serif" font-size="10.00">+</text>
<text text-anchor="start" x="25" y="-7" font-family="Helvetica,sans-Serif" font-size="10.00">SpawnTileEvent()</text>
<polygon fill="#666666" stroke="#666666" points="0,-62 0,-62 162,-62 162,-62 0,-62"/>
<polygon fill="#666666" stroke="#666666" points="0,-17 0,-17 23,-17 23,-17 0,-17"/>
<polygon fill="#666666" stroke="#666666" points="23,-17 23,-17 162,-17 162,-17 23,-17"/>
<polygon fill="none" stroke="#666666" points="0,0 0,-90 162,-90 162,0 0,0"/>
</a>
</g>
</g>
<!-- Node1&#45;&gt;Node2 -->
<g id="edge5_Node000001_Node000002" class="edge">
<title>Node1&#45;&gt;Node2</title>
<g id="a_edge5_Node000001_Node000002"><a xlink:title=" ">
<path fill="none" stroke="#63b8ff" d="M137.27,-117.8C130.28,-108.88 122.81,-99.34 115.67,-90.23"/>
<polygon fill="none" stroke="#63b8ff" points="134.61,-120.07 143.53,-125.78 140.12,-115.76 134.61,-120.07"/>
</a>
</g>
</g>
<!-- Node3 -->
<g id="Node000003" class="node">
<title>Node3</title>
<g id="a_Node000003"><a xlink:href="$classgame_1_1logic_1_1EventQueue_1_1UserLoginEvent.html" xlink:title=" ">
<polygon fill="white" stroke="transparent" points="332,-90 180,-90 180,0 332,0 332,-90"/>
<text text-anchor="start" x="185" y="-78" font-family="Helvetica,sans-Serif" font-size="10.00">game.logic.EventQueue.User</text>
<text text-anchor="start" x="228.5" y="-67" font-family="Helvetica,sans-Serif" font-size="10.00">LoginEvent</text>
<text text-anchor="start" x="195.5" y="-52" font-family="Helvetica,sans-Serif" font-size="10.00">+</text>
<text text-anchor="start" x="220" y="-52" font-family="Helvetica,sans-Serif" font-size="10.00">Username</text>
<text text-anchor="start" x="195.5" y="-37" font-family="Helvetica,sans-Serif" font-size="10.00">+</text>
<text text-anchor="start" x="220" y="-37" font-family="Helvetica,sans-Serif" font-size="10.00">Id</text>
<text text-anchor="start" x="195.5" y="-22" font-family="Helvetica,sans-Serif" font-size="10.00">+</text>
<text text-anchor="start" x="220" y="-22" font-family="Helvetica,sans-Serif" font-size="10.00">Source</text>
<text text-anchor="start" x="195.5" y="-7" font-family="Helvetica,sans-Serif" font-size="10.00">+</text>
<text text-anchor="start" x="220" y="-7" font-family="Helvetica,sans-Serif" font-size="10.00">UserLoginEvent()</text>
<polygon fill="#666666" stroke="#666666" points="180,-62 180,-62 332,-62 332,-62 180,-62"/>
<polygon fill="#666666" stroke="#666666" points="180,-17 180,-17 218,-17 218,-17 180,-17"/>
<polygon fill="#666666" stroke="#666666" points="218,-17 218,-17 332,-17 332,-17 218,-17"/>
<polygon fill="none" stroke="#666666" points="180,0 180,-90 332,-90 332,0 180,0"/>
</a>
</g>
</g>
<!-- Node1&#45;&gt;Node3 -->
<g id="edge6_Node000001_Node000003" class="edge">
<title>Node1&#45;&gt;Node3</title>
<g id="a_edge6_Node000001_Node000003"><a xlink:title=" ">
<path fill="none" stroke="#63b8ff" d="M199.08,-117.8C206.15,-108.88 213.71,-99.34 220.93,-90.23"/>
<polygon fill="none" stroke="#63b8ff" points="196.22,-115.77 192.75,-125.78 201.7,-120.12 196.22,-115.77"/>
</a>
</g>
</g>
</g>
</svg>
